<svg width="276" height="264" viewBox="0 0 276 264" fill="none" xmlns="http://www.w3.org/2000/svg">
<path d="M201.742 53.7436H203.519C205.799 53.7436 207.652 55.5903 207.652 57.8628V72.9438C207.652 75.2163 205.799 77.0631 203.519 77.0631H201.742V53.7373V53.7436Z" fill="#9610FF"/>
<path d="M74.4718 60.6673H72.6945C70.4147 60.6673 68.562 58.8205 68.562 56.5481V41.4671C68.562 39.1946 70.4147 37.3478 72.6945 37.3478H74.4718V60.6736V60.6673Z" fill="#9610FF"/>
<path d="M201.742 25.5536H203.519C205.799 25.5536 207.652 27.4004 207.652 29.6729V44.7539C207.652 47.0263 205.799 48.8731 203.519 48.8731H201.742V25.5474V25.5536Z" fill="#9610FF"/>
<path d="M187.705 0.5H89.5382C80.4368 0.5 73.0587 7.85459 73.0587 16.9269V246.516C73.0587 255.588 80.4368 262.943 89.5382 262.943H187.705C196.807 262.943 204.185 255.588 204.185 246.516V16.9269C204.185 7.85459 196.807 0.5 187.705 0.5Z" fill="#800DDB"/>
<path d="M200.863 246.522L200.863 16.927C200.863 9.68367 194.972 3.81177 187.705 3.81177L89.5319 3.81177C82.2654 3.81177 76.3747 9.68367 76.3747 16.927L76.3747 246.522C76.3747 253.766 82.2654 259.638 89.5319 259.638H187.705C194.972 259.638 200.863 253.766 200.863 246.522Z" fill="#FDE6E7"/>
<path d="M110.339 2.55347H166.39V4.68822C166.39 9.87798 162.163 14.0849 156.963 14.0849H119.765C114.559 14.0849 110.339 9.87172 110.339 4.68822V2.55347Z" fill="#800DDB"/>
<path d="M126.225 64.3323C136.266 54.3233 136.266 38.0956 126.225 28.0867C116.184 18.0777 99.9042 18.0777 89.8633 28.0867C79.8223 38.0956 79.8223 54.3233 89.8633 64.3323C99.9043 74.3412 116.184 74.3412 126.225 64.3323Z" stroke="#E86D74" stroke-width="1.06" stroke-miterlimit="10"/>
<path d="M122.974 61.092C131.22 52.8726 131.22 39.5464 122.974 31.327C114.728 23.1076 101.36 23.1076 93.1139 31.327C84.8683 39.5464 84.8683 52.8726 93.1139 61.092C101.36 69.3113 114.728 69.3113 122.974 61.092Z" stroke="white" stroke-width="0.87" stroke-miterlimit="10"/>
<path d="M189.351 49.3523C191.093 37.8588 183.158 27.134 171.627 25.3978C160.097 23.6616 149.338 31.5715 147.596 43.0651C145.854 54.5586 153.79 65.2834 165.32 67.0196C176.85 68.7558 187.609 60.8459 189.351 49.3523Z" stroke="white" stroke-width="0.87" stroke-miterlimit="10"/>
<path d="M186.517 64.3247C196.558 54.3158 196.558 38.088 186.517 28.0791C176.476 18.0701 160.196 18.0701 150.155 28.0791C140.114 38.088 140.114 54.3158 150.155 64.3247C160.196 74.3337 176.476 74.3337 186.517 64.3247Z" stroke="#E86D74" stroke-width="1.06" stroke-miterlimit="10"/>
<path d="M137.212 62.533C134.417 61.162 132.087 58.8833 130.134 56.5044C128.124 54.0629 126.253 51.3835 125.436 48.2847C124.859 46.0998 125.072 43.6959 127.031 42.2811C130.976 39.4327 135.296 43.6396 137.017 46.97C138.185 44.2844 139.718 42.1308 142.418 40.9915C144.742 40.0086 147.097 40.5908 148.824 42.3812C151.424 45.0857 150.193 49.1799 148.592 52.0533C146.683 55.4777 143.681 58.3199 140.484 60.536C139.435 61.2622 138.349 61.932 137.218 62.5268" fill="#9610FF"/>
<path d="M132.351 37.2603C130.875 36.8409 129.55 35.9394 128.388 34.9565C127.201 33.9486 126.058 32.8093 125.392 31.3819C124.921 30.374 124.815 29.1908 125.637 28.3332C127.302 26.6116 129.763 28.2706 130.888 29.7355C131.221 28.3332 131.773 27.1562 132.979 26.3674C134.015 25.6913 135.208 25.7665 136.207 26.4864C137.702 27.5694 137.469 29.6603 136.942 31.1941C136.314 33.0221 135.114 34.656 133.758 36.0145C133.312 36.459 132.841 36.8784 132.351 37.2666" fill="#9610FF"/>
<path d="M146.205 36.1147C145.345 35.4887 144.698 34.5872 144.177 33.6669C143.643 32.7279 143.172 31.7137 143.084 30.6244C143.021 29.8544 143.235 29.0594 143.976 28.6963C145.47 27.9701 146.676 29.6416 147.059 30.8623C147.612 30.0297 148.253 29.3912 149.232 29.1658C150.074 28.9717 150.834 29.3035 151.305 30.0109C152.021 31.0752 151.361 32.3773 150.652 33.2537C149.804 34.2929 148.629 35.0755 147.417 35.6326C147.022 35.8142 146.613 35.977 146.199 36.1084" fill="#9610FF"/>
<path d="M112.235 85.2451L115.89 95.4619L119.621 85.2451H122.114V98.2727H119.903V89.6711L116.895 98.2727H115.024L111.959 89.6398V98.2727H109.748V85.2451H112.241H112.235Z" fill="#9610FF"/>
<path d="M131.943 85.2453L136.722 98.2729H134.405L132.998 94.4604H128.294C128.068 95.0864 127.835 95.725 127.597 96.3635C127.358 97.0021 127.126 97.6406 126.9 98.2666H124.614L129.393 85.239H131.943V85.2453ZM130.649 87.981L128.978 92.6136H132.307L130.649 87.981Z" fill="#9610FF"/>
<path d="M146.752 85.2451V87.1044H142.619V98.279H140.409V87.1044H136.264V85.2451H146.752Z" fill="#9610FF"/>
<path d="M150.871 91.5806C150.871 92.4758 150.985 93.2521 151.204 93.9094C151.424 94.5667 151.719 95.1051 152.084 95.5308C152.448 95.9565 152.856 96.2758 153.315 96.4824C153.773 96.689 154.238 96.7954 154.709 96.7954C155.18 96.7954 155.626 96.6952 156.021 96.5012C156.417 96.3071 156.762 96.0442 157.058 95.7186C157.353 95.3931 157.598 95.0237 157.792 94.6106C157.987 94.1974 158.125 93.7717 158.213 93.3335H160.462C160.317 94.0722 160.091 94.7671 159.771 95.3994C159.457 96.0379 159.055 96.5951 158.571 97.0708C158.088 97.5466 157.522 97.9222 156.875 98.1914C156.229 98.4606 155.506 98.5984 154.709 98.5984C153.786 98.5984 152.95 98.4418 152.209 98.1288C151.468 97.8158 150.834 97.3588 150.306 96.7578C149.779 96.1568 149.377 95.4181 149.094 94.548C148.812 93.6778 148.667 92.6824 148.667 91.5681C148.667 90.7042 148.799 89.8715 149.069 89.0702C149.339 88.2689 149.728 87.5615 150.243 86.948C150.758 86.3345 151.393 85.8399 152.134 85.4706C152.881 85.1012 153.729 84.9197 154.69 84.9197C155.5 84.9197 156.229 85.0324 156.863 85.264C157.497 85.4956 158.062 85.8149 158.54 86.2218C159.023 86.6287 159.425 87.117 159.752 87.6742C160.078 88.2376 160.342 88.8511 160.537 89.5147H158.238C157.905 88.5882 157.453 87.8933 156.869 87.4363C156.291 86.9793 155.563 86.7477 154.684 86.7477C154.125 86.7477 153.61 86.8729 153.145 87.1296C152.68 87.3862 152.278 87.7305 151.939 88.1687C151.6 88.607 151.343 89.1203 151.154 89.7025C150.966 90.2847 150.871 90.9107 150.871 91.5681V91.5806Z" fill="#9610FF"/>
<path d="M164.996 85.2451V90.6164H170.912V85.2451H173.123V98.2727H170.912V92.4444H164.996V98.2727H162.785V85.2451H164.996Z" fill="#9610FF"/>
<path d="M180.54 40.647C180.54 40.647 183.322 48.3095 180.728 51.953C179.441 54.3069 176.658 55.9158 174.875 55.9158C174.548 54.9016 175.409 52.3599 175.409 52.3599L174.492 49.2298L174.165 44.6285L175.113 42.0994L178.115 40.8285L180.54 40.647Z" fill="#211C1D"/>
<path d="M158.747 45.0605C158.747 45.0605 159.005 50.4819 161.19 51.1016C162.346 46.6819 162.628 45.3923 162.628 45.3923L161.762 44.2153L158.747 45.0542V45.0605Z" fill="#211C1D"/>
<path d="M161.718 54.3256C162.113 55.5401 162.641 56.7295 163.35 57.7249C164.355 59.146 165.718 60.1915 167.577 60.4043C167.646 60.4106 167.722 60.4231 167.791 60.4231C167.816 60.4231 167.841 60.4231 167.86 60.4231C167.935 60.4231 168.01 60.4294 168.086 60.4356C168.557 60.4544 169.059 60.4168 169.599 60.3229C169.75 60.2979 169.895 60.2666 170.045 60.2353C170.19 60.1977 170.328 60.1539 170.466 60.1101C170.604 60.0663 170.742 60.0224 170.868 59.9661C171.226 59.8346 171.553 59.6844 171.854 59.5154C171.948 59.459 172.036 59.4089 172.13 59.3526C172.212 59.3025 172.287 59.2587 172.363 59.2086C172.432 59.1648 172.495 59.121 172.557 59.0709C172.633 59.0208 172.708 58.9645 172.777 58.9081C172.846 58.858 172.909 58.8079 172.972 58.7516C173.041 58.7015 173.097 58.6452 173.16 58.5888C173.612 58.1819 173.977 57.7312 174.266 57.2804C175.17 55.8844 175.39 54.3945 175.509 53.5869C177.029 53.8874 180.069 51.546 178.486 49.2485C178.304 48.9793 178.065 48.7414 177.783 48.5724C176.106 47.5708 174.473 49.4363 174.366 50.125C173.342 46.8195 168.475 40.3589 163.087 42.9945C162.346 43.2449 161.793 43.9336 161.391 44.6597C160.757 45.8116 160.512 47.1325 160.612 48.4472C160.725 49.8808 161.002 52.147 161.711 54.3319L161.718 54.3256Z" fill="#F9B180"/>
<path d="M165.09 51.6462C165.228 51.953 165.316 52.2723 165.379 52.6041C165.442 52.9296 165.467 53.2676 165.448 53.612C165.436 53.7685 165.398 53.9813 165.379 54.1003C165.373 54.2255 165.398 54.3069 165.523 54.3569C165.775 54.4508 166.126 54.3757 166.447 54.3194C166.164 54.4884 165.85 54.6512 165.454 54.5823C165.36 54.5635 165.247 54.5072 165.178 54.407C165.109 54.3069 165.09 54.1942 165.09 54.094C165.103 53.8812 165.134 53.7747 165.14 53.5994C165.172 52.9672 165.115 52.3224 165.096 51.6525L165.09 51.6462Z" fill="#C66D32"/>
<path d="M170.07 48.2217C169.587 47.9588 168.607 47.6333 167.866 48.2343C167.69 48.4096 167.847 48.5786 168.073 48.5348C168.306 48.4909 168.645 48.4346 168.858 48.4283C169.285 48.4095 169.624 48.5786 169.995 48.7664C170.372 48.9542 170.648 48.541 170.064 48.2217H170.07Z" fill="#553535"/>
<path d="M161.491 48.2281C162.038 48.1405 163.074 48.1655 163.558 48.9856C163.664 49.211 163.463 49.3174 163.256 49.1985C163.049 49.0795 162.754 48.9105 162.553 48.8291C162.157 48.6664 161.787 48.7102 161.366 48.7603C160.945 48.8103 160.826 48.3283 161.485 48.2219L161.491 48.2281Z" fill="#553535"/>
<path d="M167.998 50.6571C167.998 51.1329 168.394 51.5148 168.871 51.5085C169.348 51.5085 169.731 51.1141 169.725 50.6383C169.725 50.1626 169.329 49.7807 168.852 49.7869C168.375 49.7869 167.992 50.1813 167.998 50.6571Z" fill="#2D1D17"/>
<path d="M161.661 51.64C161.661 52.1158 162.057 52.4977 162.534 52.4914C163.011 52.4914 163.394 52.097 163.388 51.6212C163.388 51.1455 162.992 50.7636 162.515 50.7699C162.038 50.7699 161.655 51.1642 161.661 51.64Z" fill="#2D1D17"/>
<path d="M168.211 50.513C168.23 50.632 168.35 50.7134 168.469 50.6946C168.588 50.6758 168.67 50.5568 168.651 50.4379C168.632 50.319 168.513 50.2376 168.394 50.2564C168.274 50.2751 168.193 50.3941 168.211 50.513Z" fill="white"/>
<path d="M161.944 51.4146C161.963 51.5336 162.082 51.615 162.201 51.5962C162.321 51.5774 162.402 51.4585 162.383 51.3395C162.364 51.2206 162.245 51.1392 162.126 51.158C162.006 51.1767 161.925 51.2957 161.944 51.4146Z" fill="white"/>
<path d="M168.708 55.1707C168.708 55.1707 167.351 56.31 166.007 56.4603C166.641 57.1301 167.583 57.9753 168.4 57.5871C169.216 57.1927 169.292 56.4603 168.708 55.1707Z" fill="#FEFCFF"/>
<g style="mix-blend-mode:multiply" opacity="0.37">
<path d="M170.447 54.2004C170.46 55.2396 171.314 56.0785 172.356 56.0659C173.399 56.0534 174.24 55.202 174.228 54.1628C174.215 53.1236 173.361 52.2847 172.319 52.2973C171.276 52.3098 170.435 53.1612 170.447 54.2066V54.2004Z" fill="#F79D55"/>
</g>
<g style="mix-blend-mode:multiply" opacity="0.37">
<path d="M161.448 53.3239C161.755 54.5635 162.195 55.7842 162.829 56.8297C163.489 56.573 163.972 55.947 164.022 55.1895C164.085 54.1503 163.294 53.2551 162.245 53.1925C161.962 53.1737 161.686 53.2175 161.441 53.3177L161.448 53.3239Z" fill="#F79D55"/>
</g>
<path d="M174.712 49.4802L173.977 51.59C173.977 51.59 172.645 47.1827 171.86 45.987C170.849 46.4065 169.109 44.9603 168.745 44.278C167.062 44.6473 162.233 46.8322 159.205 45.8117C155.946 44.7099 155.174 38.7126 159.369 38.0052C158.76 36.3712 166.371 30.3614 173.424 35.2131C172.626 33.9423 174.379 34.4744 174.498 35.1943C175.572 34.681 176.25 35.2319 175.484 36.1021C177.933 36.3525 179.66 37.7109 180.847 41.7363C182.028 45.7554 176.093 44.5284 176.093 44.5284L174.712 49.4802Z" fill="#211C1D"/>
<path d="M171.169 51.3584C171.169 52.6918 170.083 53.7748 168.745 53.7748C167.408 53.7748 166.321 52.6918 166.321 51.3584C166.321 50.0249 167.408 48.9419 168.745 48.9419C170.083 48.9419 171.169 50.0249 171.169 51.3584Z" stroke="#FEFCFF" stroke-width="0.46" stroke-miterlimit="10"/>
<path d="M162.101 54.5761C163.439 54.5761 164.525 53.4942 164.525 52.1596C164.525 50.825 163.439 49.7432 162.101 49.7432C160.762 49.7432 159.676 50.825 159.676 52.1596C159.676 53.4942 160.762 54.5761 162.101 54.5761Z" stroke="#FEFCFF" stroke-width="0.46" stroke-miterlimit="10"/>
<path d="M164.462 51.8217C164.462 51.8217 164.964 51.1205 166.302 51.6151" stroke="#FEFCFF" stroke-width="0.46" stroke-miterlimit="10"/>
<path d="M170.868 50.2251L175.088 49.2986" stroke="#FEFCFF" stroke-width="0.46" stroke-linecap="round" stroke-linejoin="round"/>
<path d="M117.09 53.1111L115.294 58.2508L110.998 60.8175C110.998 60.8175 107.016 60.0412 104.134 57.0864C100.937 57.3118 97.6837 56.404 96.3712 53.2363C94.3426 48.3408 96.4402 42.2558 100.372 38.9254C102.507 37.1099 104.253 37.2414 106.727 36.8532C111.494 36.1082 114.678 37.4041 116.788 39.5138C122.045 46.3876 117.09 53.1174 117.09 53.1174V53.1111Z" fill="#211C1D"/>
<path d="M117.115 55.3272C116.927 56.5292 116.606 57.7249 116.085 58.7704C115.356 60.2603 114.226 61.4498 112.505 61.9193C112.436 61.9381 112.373 61.9569 112.304 61.9694C112.285 61.9756 112.26 61.9819 112.241 61.9819C112.172 61.9944 112.097 62.0132 112.034 62.0257C111.595 62.1134 111.117 62.1509 110.596 62.1447C110.452 62.1447 110.307 62.1384 110.163 62.1259C110.018 62.1134 109.88 62.0883 109.742 62.0695C109.604 62.0508 109.472 62.0257 109.34 61.9944C108.982 61.9256 108.655 61.8317 108.348 61.719C108.253 61.6814 108.159 61.6439 108.065 61.6063C107.983 61.575 107.902 61.5374 107.826 61.5061C107.757 61.4748 107.688 61.4435 107.625 61.406C107.544 61.3684 107.468 61.3308 107.393 61.287C107.324 61.2495 107.255 61.2119 107.186 61.1681C107.117 61.1305 107.048 61.0867 106.985 61.0429C106.495 60.7236 106.087 60.3605 105.748 59.9724C104.686 58.7892 104.259 57.4244 104.021 56.6795C102.633 57.1865 99.4234 55.4337 100.566 53.036C100.698 52.7543 100.887 52.4976 101.125 52.2973C102.551 51.1078 104.372 52.6228 104.573 53.2488C105.038 49.9872 108.655 43.1823 114.126 44.8601C114.86 44.9915 115.482 45.5487 115.972 46.1747C116.738 47.1639 117.171 48.3721 117.272 49.6241C117.385 50.9951 117.46 53.1675 117.115 55.3272Z" fill="#F79D55"/>
<path d="M113.535 53.3114C113.623 53.9375 113.648 54.5572 113.78 55.1457C113.811 55.3022 113.849 55.4086 113.893 55.6027C113.912 55.6966 113.906 55.8093 113.862 55.9094C113.818 56.0159 113.717 56.0847 113.629 56.116C113.265 56.2412 112.945 56.1348 112.656 56.0159C112.964 56.0284 113.309 56.0409 113.529 55.9157C113.636 55.8468 113.654 55.7717 113.629 55.6528C113.598 55.5464 113.523 55.3523 113.485 55.2083C113.422 54.889 113.397 54.5698 113.397 54.2505C113.41 53.9312 113.441 53.6182 113.523 53.3052L113.535 53.3114Z" fill="#C66D32"/>
<path d="M108.335 50.826C108.75 50.5067 109.629 50.0497 110.414 50.513C110.602 50.6507 110.483 50.8323 110.263 50.826C110.037 50.8198 109.71 50.8135 109.503 50.8385C109.101 50.8886 108.806 51.0889 108.479 51.3268C108.153 51.5647 107.833 51.2141 108.335 50.826Z" fill="#553535"/>
<path d="M116.412 49.5552C115.884 49.5552 114.917 49.7305 114.578 50.5756C114.515 50.801 114.716 50.8698 114.892 50.7321C115.068 50.5881 115.325 50.3878 115.501 50.2814C115.853 50.0748 116.204 50.056 116.606 50.0435C117.008 50.031 117.046 49.5552 116.412 49.5552Z" fill="#553535"/>
<path d="M110.646 52.8107C110.715 53.2614 110.401 53.6746 109.955 53.7435C109.51 53.8123 109.089 53.4993 109.02 53.0548C108.951 52.6104 109.265 52.1909 109.711 52.1221C110.156 52.0532 110.577 52.3662 110.646 52.8107Z" fill="#2D1D17"/>
<path d="M116.763 52.7919C116.832 53.2426 116.518 53.6558 116.072 53.7247C115.626 53.7935 115.206 53.4805 115.137 53.036C115.068 52.5916 115.382 52.1721 115.827 52.1033C116.273 52.0344 116.694 52.3474 116.763 52.7919Z" fill="#2D1D17"/>
<path d="M110.426 52.7041C110.426 52.8231 110.326 52.917 110.213 52.9107C110.094 52.9107 109.999 52.8105 110.006 52.6978C110.006 52.5789 110.106 52.485 110.219 52.4913C110.339 52.4913 110.426 52.5914 110.426 52.7041Z" fill="white"/>
<path d="M116.462 52.6228C116.462 52.7418 116.361 52.8357 116.248 52.8294C116.129 52.8294 116.041 52.7292 116.041 52.6166C116.041 52.4976 116.141 52.4037 116.255 52.41C116.374 52.41 116.462 52.5101 116.462 52.6228Z" fill="white"/>
<path d="M110.659 57.1616C110.659 57.1616 112.11 58.0318 113.397 57.9755C112.901 58.7016 112.135 59.6407 111.312 59.3903C110.489 59.1399 110.307 58.4638 110.659 57.1616Z" fill="#FEFCFF"/>
<g style="mix-blend-mode:multiply" opacity="0.37">
<path d="M108.875 56.5104C109.02 57.4932 108.341 58.4072 107.355 58.5512C106.369 58.6952 105.452 58.0191 105.308 57.0362C105.164 56.0534 105.842 55.1394 106.828 54.9954C107.814 54.8514 108.731 55.5275 108.875 56.5104Z" fill="#F79D55"/>
</g>
<g style="mix-blend-mode:multiply" opacity="0.37">
<path d="M117.215 54.3506C117.115 55.5651 116.883 56.7796 116.437 57.8564C115.777 57.7124 115.225 57.1928 115.068 56.4916C114.854 55.5213 115.47 54.5635 116.437 54.3506C116.7 54.2943 116.964 54.2943 117.209 54.3506H117.215Z" fill="#F79D55"/>
</g>
<path d="M106.476 38.769C106.922 37.5482 107.374 36.3024 107.443 35.0003C107.512 33.6981 107.136 32.3146 106.162 31.4507C105.346 30.7245 104.209 30.4491 103.116 30.4616C100.598 30.4866 98.1485 32.0329 97.0495 34.2929C96.5345 35.3509 96.3021 36.5966 96.6538 37.7235C97.0683 39.0507 98.2427 40.0273 99.5302 40.5531C100.818 41.079 102.224 41.223 103.612 41.3607" fill="#211C1D"/>
<path d="M133.99 166.942V259.919" stroke="#140609" stroke-width="2" stroke-linecap="round" stroke-linejoin="round"/>
<path d="M134.178 162.947C134.034 162.891 133.827 162.885 133.569 162.91C135.033 162.071 135.987 161.245 135.717 161.132C135.435 161.019 134.888 161.094 134.178 161.251C134.624 160.95 134.806 160.688 134.448 160.587C133.626 160.331 131.045 160.619 128.759 160.462C126.944 160.337 126.102 159.623 126.391 158.985C126.874 157.92 128.539 157.463 128.52 155.354C126.121 156.011 125.468 157.088 123.301 158.115C121.134 159.141 119.093 159.661 116.229 158.922L117.102 161.965L117.09 164.024C117.09 164.024 117.416 166.591 118.949 166.591C121.115 166.591 124.67 166.516 124.67 166.516C125.072 166.572 125.549 166.616 126.127 166.622C129.701 166.691 134.756 163.173 134.172 162.941L134.178 162.947Z" fill="#E5894A"/>
<path d="M125.895 159.755C125.939 160.243 125.907 160.731 125.845 161.22C125.782 161.708 125.656 162.184 125.493 162.653C125.304 163.11 125.097 163.573 124.771 163.955C124.45 164.337 124.042 164.656 123.571 164.813C124.4 164.281 124.902 163.448 125.21 162.553C125.392 162.115 125.505 161.645 125.612 161.182C125.719 160.712 125.807 160.237 125.888 159.755H125.895Z" fill="#C66D32"/>
<path d="M49.093 201.999L34.9938 262.824H37.4242L53.4704 203.451L49.093 201.999Z" fill="#211C1D"/>
<path d="M67.3248 220.536C67.3248 220.536 59.5435 238.59 52.8612 255.186C51.354 258.93 65.5914 256.156 68.6625 251.674C73.2785 244.281 83.0066 229.982 83.0066 229.982L67.3248 220.529V220.536Z" fill="#F79D55"/>
<path d="M83.5593 261.127C83.5593 261.127 83.5593 261.152 83.5593 261.165C83.3834 261.954 83.1385 262.461 83.1385 262.461C83.1385 262.461 56.2337 262.098 50.5626 259.03C50.6945 258.617 50.8264 258.216 50.952 257.841C53.6525 249.784 54.8458 250.072 54.8458 250.072C54.8458 250.072 61.6222 257.252 68.6687 251.674C71.2813 254.717 72.1291 254.253 74.5408 253.978C76.6572 253.74 79.0437 253.546 80.8273 254.704C83.911 256.714 83.9047 259.493 83.5656 261.127H83.5593Z" fill="#211C1D"/>
<path d="M70.7286 253.402C70.7286 253.402 69.7238 253.734 69.5103 254.735" stroke="white" stroke-linecap="round" stroke-linejoin="round"/>
<path d="M73.0084 254.022C73.0084 254.022 72.0413 254.441 71.9156 255.455" stroke="white" stroke-linecap="round" stroke-linejoin="round"/>
<path d="M80.2118 195.376L54.2805 241.257C59.1415 245.458 79.2384 255.8 88.9666 253.859C96.4213 239.317 107.117 204.747 107.117 204.747L97.715 190.53L80.2118 195.376Z" fill="#A736FF"/>
<path d="M115.381 234.471C115.381 234.471 120.569 244.406 123.119 255.43C124.029 259.362 135.849 256.401 138.92 251.918C136.672 245.802 133.638 234.471 133.638 234.471H115.381Z" fill="#F79D55"/>
<path d="M155.268 261.49C155.092 262.279 154.847 262.786 154.847 262.786C154.847 262.786 142.236 262.824 122.999 262.824C122.918 262.379 122.861 261.935 122.824 261.49C122.528 258.354 123.119 255.436 123.119 255.436C123.119 255.436 131.874 257.496 138.92 251.918C141.533 254.961 143.837 254.579 146.249 254.303C148.366 254.066 150.752 253.871 152.536 255.03C155.644 257.052 155.613 259.862 155.268 261.49Z" fill="#211C1D"/>
<path d="M155.268 261.49C155.092 262.279 154.834 262.899 154.834 262.899C154.834 262.899 142.236 262.943 122.999 262.943C122.918 262.498 122.861 261.928 122.824 261.484H155.268V261.49Z" fill="white"/>
<path d="M140.986 253.646C140.986 253.646 139.981 253.978 139.768 254.98" stroke="white" stroke-linecap="round" stroke-linejoin="round"/>
<path d="M143.266 254.26C143.266 254.26 142.299 254.679 142.173 255.693" stroke="white" stroke-linecap="round" stroke-linejoin="round"/>
<path d="M93.1744 201.999L107.274 262.824H104.843L88.797 203.451L93.1744 201.999Z" fill="#211C1D"/>
<path d="M45.5698 156.199C45.5698 156.199 30.3778 156.562 31.345 170.979C32.1426 182.83 40.0997 201.511 56.8743 204.904C66.1127 206.6 85.5627 205.63 85.5627 205.63L98.2049 205.874C98.2049 205.874 77.5428 188.427 77.2979 187.701C77.0529 186.974 59.5497 166.134 59.5497 166.134L45.5698 156.199Z" fill="#1B2F5B"/>
<path d="M49.5766 156.08C49.5766 156.08 33.2855 154.991 33.5304 166.866C33.7754 178.742 42.2852 197.398 59.0535 200.791C68.2919 202.487 87.7419 201.517 87.7419 201.517L88.2255 197.398C88.2255 197.398 79.7157 184.314 79.4708 183.587C79.2258 182.861 61.7227 162.021 61.7227 162.021L49.5703 156.086L49.5766 156.08Z" fill="#3A619B"/>
<path d="M122.755 193.397C116.801 197.154 109.748 192.308 109.384 190.612L109.02 188.915L115.708 183.707C115.708 183.707 116.204 184.182 117.021 185.128C117.95 186.204 119.294 187.895 120.795 190.18C121.423 191.144 122.089 192.221 122.755 193.397Z" fill="#7321B3"/>
<path d="M90.5429 141.293L93.4633 155.348C95.8938 155.348 114.49 158.497 118.993 159.467C119.357 163.104 118.748 166.009 118.748 166.009L84.8342 166.253L80.5824 157.407L80.9467 144.323L82.5293 140.567L90.0656 141.049L90.5492 141.293H90.5429Z" fill="#E5894A"/>
<path d="M151.198 238.352C139.529 252.162 121.053 253.377 110.602 252.651C107.902 235.598 97.8658 215.49 92.8415 206.206C91.1207 203.026 87.8299 201.01 84.1998 200.903C78.2713 200.728 69.3595 200.352 65.629 199.576C42.775 194.487 45.3688 171.787 45.3688 171.787L58.5762 171.712L76.0794 169.283C76.0794 169.283 83.6158 168.075 89.0859 169.646C100.46 171.386 110.891 177.002 117.083 183.8C116.455 184.927 114.038 188.909 110.439 190.774C111.714 191.369 118.622 190.793 121.115 189.353C127.195 199.144 141.357 222.827 151.198 238.352Z" fill="#A736FF"/>
<path d="M64.8125 175.668C64.8125 175.668 65.6227 182.454 56.7109 182.292" stroke="#B23B24" stroke-miterlimit="10"/>
<path d="M55.2477 175.343C55.2477 175.343 55.1849 175.568 55.1158 175.956" stroke="#B23B24" stroke-linecap="round" stroke-linejoin="round"/>
<path d="M54.9965 177.822C55.0844 180.601 56.466 184.827 63.8391 185.678C70.2387 186.417 78.3466 187.212 84.0993 187.757C88.8033 188.201 92.9859 190.899 95.3034 195.006C100.459 204.134 109.748 222.201 117.209 245.639" stroke="#B23B24" stroke-linecap="round" stroke-linejoin="round"/>
<path d="M117.498 246.541C117.561 246.741 117.624 246.941 117.686 247.142" stroke="#B23B24" stroke-linecap="round" stroke-linejoin="round"/>
<path d="M109.22 247.555C109.22 247.555 136.609 249.17 148.121 233.012" stroke="#B23B24" stroke-miterlimit="10"/>
<path d="M63.8329 80.1554C63.8329 80.1554 55.411 78.1897 51.3854 93.0202C49.3568 98.8548 49.2752 101.947 43.535 104.846C37.7948 107.738 26.4338 114.067 31.772 125.048C34.5919 129.95 36.4383 132.898 35.201 137.174C33.9638 141.45 36.7774 154.177 54.5946 150.489C72.4118 146.802 76.9147 147.885 86.5613 144.248C114.182 133.831 96.6411 109.516 89.6574 104.765C82.6738 100.013 79.0814 96.6762 78.2085 91.3926C77.3355 86.1089 74.1514 78.534 63.8392 80.1491L63.8329 80.1554Z" fill="#211C1D"/>
<path d="M60.2908 108.746L68.6185 109.403L71.0929 114.762L71.2122 119.852L71.8214 127.971L70.848 131.364C70.848 131.364 72.6693 132.942 66.8349 131.364C61.0005 129.787 63.0667 132.454 61.0005 129.787C58.9343 127.12 59.4178 134.632 58.9343 127.12L58.4507 119.608L60.2908 108.746Z" fill="#FEFCFF"/>
<path d="M67.6639 81.5516C65.0827 81.0258 62.3445 81.4264 59.9831 82.5595C57.6154 83.6989 55.6371 85.5394 54.1487 87.6867C53.9603 87.9559 53.753 88.2063 53.5834 88.488L53.0936 89.3394C52.7733 89.9091 52.4153 90.46 52.1767 91.0735L51.3728 92.8639L50.5501 94.6544C50.01 95.8501 49.5013 97.0583 48.8858 98.229C48.2703 99.3934 47.5041 100.501 46.5181 101.403C45.5384 102.311 44.3577 102.962 43.1456 103.494C41.9209 104.007 40.6837 104.42 39.4779 104.946C37.0663 105.96 34.7112 107.169 32.6387 108.759C31.6087 109.554 30.6478 110.455 29.8377 111.469C29.0212 112.484 28.3869 113.629 27.9724 114.85C27.112 117.31 27.4072 120.027 28.2676 122.462V122.45C28.8956 123.909 29.5488 125.361 30.1014 126.863C30.6415 128.36 31.0874 129.943 31.0498 131.577C31.0435 132.391 30.9116 133.199 30.6729 133.975C30.5725 134.369 30.3966 134.745 30.271 135.114C30.1328 135.471 30.0324 135.847 29.9507 136.229C29.6493 137.756 29.7372 139.359 30.0826 140.88C30.2522 141.644 30.5034 142.389 30.8362 143.096C31.1628 143.804 31.5522 144.492 32.0232 145.112C32.9464 146.377 34.1711 147.403 35.5213 148.192C38.2658 149.745 41.4876 150.264 44.634 150.296C46.2167 150.296 47.793 150.17 49.3819 150.001C50.9646 149.832 52.5472 149.651 54.1236 149.432C57.2825 149.006 60.4164 148.461 63.5377 147.81C66.6527 147.147 69.7426 146.383 72.7823 145.431C75.822 144.486 78.8114 143.391 81.6626 141.988C84.495 140.592 87.2647 138.914 89.3874 136.573C90.4425 135.396 91.2338 134.031 91.6797 132.51L92.044 131.377L92.358 130.231C92.5841 129.474 92.7222 128.691 92.8981 127.921C93.4821 124.823 93.6957 121.611 93.1179 118.5C92.8164 116.953 92.3894 115.42 91.6734 114.011C90.97 112.596 90.0782 111.288 88.998 110.13C87.8864 109.015 86.6429 108.001 85.4748 106.918C84.3004 105.841 83.1573 104.715 82.1022 103.519C81.0472 102.323 80.0926 101.021 79.3703 99.5812C78.6481 98.1538 78.1771 96.5888 78.0515 94.9924C77.9259 91.8247 77.0529 88.6758 75.4326 85.9463C74.6161 84.5941 73.5673 83.3421 72.2234 82.4844C70.8919 81.6142 69.2277 81.2574 67.6513 81.5516H67.6639ZM67.6639 81.5516C69.2339 81.2449 70.9108 81.5892 72.2548 82.4531C73.6113 83.3045 74.6727 84.5565 75.5079 85.9088C77.1597 88.6382 78.064 91.8059 78.221 94.9861C78.3592 96.5637 78.8365 98.0975 79.565 99.4998C80.281 100.908 81.2419 102.179 82.2907 103.369C83.3395 104.558 84.4762 105.672 85.6506 106.743C86.8188 107.826 88.056 108.821 89.199 109.961C90.298 111.131 91.215 112.465 91.9309 113.905C92.6657 115.338 93.1053 116.897 93.4131 118.462C94.0097 121.617 93.8024 124.866 93.2246 128.003C93.0488 128.779 92.9106 129.568 92.6845 130.338L92.3705 131.496L92.0063 132.635C91.8869 133.017 91.7676 133.399 91.6043 133.768C91.4662 134.15 91.2652 134.501 91.0705 134.858C90.8884 135.221 90.6309 135.534 90.4174 135.878C90.1787 136.204 89.9149 136.51 89.6637 136.823C87.497 139.227 84.7023 140.93 81.8448 142.345C78.9747 143.766 75.9664 144.88 72.9142 145.838C69.862 146.802 66.7595 147.572 63.6382 148.248C60.5106 148.906 57.3642 149.469 54.1989 149.901C52.6163 150.127 51.0274 150.308 49.4385 150.477C47.8495 150.64 46.2481 150.765 44.6403 150.759C41.4436 150.715 38.1528 150.183 35.3204 148.568C33.9261 147.748 32.6575 146.677 31.7092 145.362C31.2193 144.718 30.8174 144.004 30.4845 143.272C30.1454 142.539 29.8879 141.763 29.7121 140.974C29.3604 139.403 29.2787 137.756 29.5927 136.16C29.6744 135.759 29.7811 135.365 29.9319 134.983C30.0638 134.607 30.227 134.257 30.3275 133.875C30.5599 133.13 30.6855 132.354 30.6981 131.577C30.7357 130.012 30.315 128.472 29.7811 126.989C29.2348 125.505 28.5879 124.053 27.9599 122.588V122.575C27.5265 121.323 27.2313 120.015 27.1623 118.688C27.0869 117.36 27.2502 116.014 27.6835 114.75C28.1106 113.491 28.7763 112.308 29.6116 111.275C30.4469 110.242 31.4203 109.335 32.4691 108.527C34.5793 106.924 36.9532 105.716 39.3837 104.702C40.5958 104.182 41.8519 103.763 43.0577 103.262C44.2509 102.743 45.4065 102.104 46.3674 101.228C47.3283 100.357 48.0819 99.2744 48.6974 98.1288C49.3128 96.9769 49.8341 95.7687 50.3868 94.5792L51.2221 92.7951L52.0448 91.0046C52.2897 90.3974 52.654 89.8402 52.9805 89.2705L53.4767 88.4191C53.6462 88.1374 53.8598 87.887 54.0482 87.6178C55.568 85.4705 57.5714 83.6363 59.9642 82.5094C62.3445 81.3951 65.0952 81.0132 67.6701 81.5641L67.6639 81.5516Z" fill="#211C1D"/>
<path d="M93.5826 141.901C92.3705 143.478 89.4502 145.419 84.5892 145.175C84.5013 145.168 84.4134 145.162 84.3192 145.15C79.4582 144.699 72.3113 138.508 72.3113 138.508L69.1523 129.787L67.3247 120.334L68.5054 108.947C68.5054 108.947 69.7049 109.147 71.3253 109.522C71.8716 109.648 72.4745 109.798 73.09 109.967C82.1085 112.396 85.3491 122.131 88.6463 129.768C88.8598 130.263 89.0734 130.77 89.2932 131.296C90.2855 133.65 91.3719 136.316 92.5652 139.321C92.8981 140.154 93.2372 141.012 93.5826 141.901Z" fill="#FEFCFF"/>
<path d="M62.2189 126.15C62.2189 126.15 70.4837 127.439 73.4041 131.602C76.3244 126.757 80.8211 123.364 80.8211 123.364C82.8873 125.423 85.927 131.721 86.0463 136.811C86.1656 141.9 84.9535 158.985 89.086 169.646C84.8342 168.801 79.2008 170.053 76.1611 171.624C73.1215 173.202 57.6029 182.486 43.7485 172.432C43.9935 168.795 44.2321 145.049 44.2321 144.686C44.2321 144.323 62.2252 126.15 62.2252 126.15H62.2189Z" fill="#609FA0"/>
<path d="M70.8479 109.391C71.6644 110.668 72.3803 116.021 69.8682 116.59C67.758 117.072 61.4149 113.441 60.2908 108.746C60.5231 108.621 60.7178 108.496 60.8811 108.364C61.4589 107.895 61.6913 107.331 61.8797 106.311C62.1372 104.909 62.1497 103.425 62.1497 103.425C62.1497 103.425 69.7489 103.174 69.3281 104.52C69.2841 104.652 69.4726 104.151 69.4474 104.276C69.3344 104.802 69.0706 106.148 69.4474 107.976C69.5919 108.677 70.132 109.228 70.8291 109.385H70.8417L70.8479 109.391Z" fill="#F79D55"/>
<path d="M74.6225 99.3431C74.4278 100.589 74.0949 101.835 73.5548 102.918C72.7949 104.464 71.6205 105.697 69.8369 106.192C69.7678 106.211 69.6987 106.229 69.6297 106.248C69.6045 106.254 69.5857 106.261 69.5669 106.261C69.4915 106.279 69.4161 106.292 69.347 106.305C68.8886 106.398 68.3924 106.436 67.8523 106.423C67.7016 106.423 67.5572 106.417 67.4064 106.405C67.2557 106.386 67.1113 106.367 66.9731 106.342C66.8286 106.323 66.6905 106.298 66.5586 106.267C66.1881 106.192 65.8426 106.098 65.5286 105.979C65.4281 105.941 65.3339 105.904 65.2335 105.866C65.1455 105.829 65.0639 105.797 64.9822 105.76C64.9132 105.729 64.8378 105.697 64.7687 105.66C64.6871 105.622 64.6054 105.578 64.5238 105.534C64.4484 105.491 64.3793 105.453 64.3103 105.409C64.2349 105.365 64.1658 105.328 64.0967 105.278C63.588 104.946 63.1672 104.57 62.8093 104.17C61.7102 102.943 61.258 101.522 61.0194 100.752C59.5812 101.278 56.2464 99.462 57.4333 96.9642C57.5715 96.67 57.7662 96.407 58.0174 96.2004C59.4995 94.9609 61.3836 96.5385 61.5972 97.1896C62.0807 93.8028 65.8364 86.7349 71.52 88.4753C72.2799 88.6067 72.9268 89.189 73.4355 89.84C74.2331 90.8667 74.679 92.125 74.7858 93.4209C74.8988 94.842 74.9805 97.1019 74.6225 99.3431Z" fill="#F79D55"/>
<path d="M70.0692 106.117C69.1774 106.53 68.204 106.837 67.1677 106.78C66.1692 106.668 65.1831 106.298 64.4358 105.641C64.8817 105.86 65.3276 106.054 65.7923 106.186C66.2571 106.317 66.7281 106.417 67.1991 106.467C68.1412 106.536 69.102 106.298 70.0692 106.117Z" fill="#C66D32"/>
<path d="M70.9046 97.2397C70.9925 97.8908 71.0302 98.5356 71.1621 99.1491C71.1935 99.3119 71.2375 99.4183 71.2877 99.6249C71.3065 99.7251 71.3003 99.8378 71.25 99.9442C71.1998 100.057 71.0993 100.126 71.0114 100.157C70.6346 100.288 70.3017 100.176 70.0002 100.051C70.3205 100.063 70.6722 100.076 70.9109 99.9504C71.0239 99.8816 71.0365 99.8002 71.0114 99.675C70.9737 99.5623 70.9046 99.362 70.8669 99.2117C70.7978 98.8799 70.7664 98.5481 70.779 98.2163C70.7916 97.8846 70.823 97.559 70.9109 97.2397H70.9046Z" fill="#C66D32"/>
<path d="M65.5035 94.6667C65.9369 94.3349 66.8475 93.8654 67.6577 94.3412C67.8586 94.4852 67.733 94.673 67.5007 94.6667C67.262 94.6604 66.9229 94.6542 66.7156 94.6792C66.2948 94.7293 65.9934 94.9422 65.6543 95.1863C65.3214 95.4305 64.9823 95.0674 65.5035 94.6667Z" fill="#553535"/>
<path d="M73.894 93.3457C73.3476 93.3457 72.3428 93.5335 71.9911 94.4099C71.922 94.6478 72.1355 94.7167 72.3177 94.5727C72.4998 94.4225 72.7636 94.2096 72.9457 94.1032C73.31 93.8841 73.6805 93.8653 74.095 93.8528C74.5095 93.8403 74.5535 93.3457 73.894 93.3457Z" fill="#553535"/>
<path d="M67.9088 96.7263C67.9779 97.1896 67.6576 97.6216 67.1866 97.6904C66.7219 97.7593 66.2885 97.44 66.2194 96.9705C66.1504 96.5072 66.4707 96.0753 66.9417 96.0064C67.4064 95.9375 67.8398 96.2568 67.9088 96.7263Z" fill="#2D1D17"/>
<path d="M74.2582 96.7075C74.3273 97.1708 74.007 97.6028 73.536 97.6716C73.0712 97.7405 72.6379 97.4212 72.5688 96.9517C72.4997 96.4884 72.82 96.0565 73.291 95.9876C73.7558 95.9187 74.1891 96.238 74.2582 96.7075Z" fill="#2D1D17"/>
<path d="M67.6765 96.6136C67.6765 96.7325 67.576 96.8327 67.4504 96.8264C67.3311 96.8264 67.2306 96.7263 67.2369 96.6011C67.2369 96.4821 67.3373 96.382 67.4629 96.3882C67.5823 96.3882 67.6828 96.4884 67.6765 96.6136Z" fill="white"/>
<path d="M73.9442 96.5323C73.9442 96.6513 73.8437 96.7514 73.7181 96.7452C73.5988 96.7452 73.4983 96.645 73.5046 96.5198C73.5108 96.3946 73.605 96.3007 73.7306 96.3069C73.85 96.3069 73.9505 96.4071 73.9442 96.5323Z" fill="white"/>
<path d="M67.9152 101.246C67.9152 101.246 69.4162 102.148 70.7602 102.091C70.2452 102.849 69.4539 103.819 68.5935 103.563C67.7331 103.306 67.5509 102.599 67.9152 101.253V101.246Z" fill="#FEFCFF"/>
<g style="mix-blend-mode:multiply" opacity="0.37">
<path d="M66.0625 100.564C66.2132 101.584 65.5098 102.536 64.4861 102.686C63.4625 102.836 62.5079 102.135 62.3571 101.115C62.2064 100.094 62.9098 99.1427 63.9335 98.9924C64.9572 98.8422 65.9118 99.5433 66.0625 100.564Z" fill="#F79D55"/>
</g>
<g style="mix-blend-mode:multiply" opacity="0.37">
<path d="M74.723 98.3227C74.6163 99.581 74.3776 100.846 73.9129 101.966C73.2283 101.816 72.6568 101.278 72.4935 100.551C72.2674 99.5435 72.908 98.5481 73.9191 98.3227C74.1892 98.2601 74.4655 98.2664 74.723 98.3227Z" fill="#F79D55"/>
</g>
<path d="M113.893 149.037L113.359 148.518C113.296 148.418 113.183 148.342 113.052 148.342L105.251 148.098C104.881 148.086 104.529 148.274 104.335 148.593L96.6223 161.289L106.344 161.533L113.284 149.075L113.598 149.156L113.893 149.044V149.037Z" fill="#030333"/>
<path d="M104.906 149.169L96.1638 163.286L104.391 164.375C105.094 164.469 105.779 164.125 106.124 163.511L113.95 149.494C114.088 149.244 113.912 148.931 113.623 148.918L105.823 148.674C105.452 148.662 105.101 148.849 104.906 149.169Z" fill="#2755A1"/>
<path d="M42.2852 131.239C43.648 152.217 44.3514 164.8 63.1923 166.259C75.3446 166.741 92.6092 166.14 92.6092 166.14C92.3642 162.866 92.2449 158.747 92.2449 158.747C92.2449 158.747 76.9775 154.484 68.273 152.887C65.8928 152.449 64.0024 150.652 63.4435 148.311C61.7227 141.137 61.371 127.245 61.371 127.245C61.371 127.245 41.9963 126.732 42.2852 131.245V131.239Z" fill="#F79D55"/>
<path d="M106.721 162.365C106.57 162.309 106.357 162.296 106.08 162.321C107.607 161.439 108.611 160.575 108.329 160.462C108.034 160.343 107.456 160.425 106.721 160.587C107.186 160.274 107.374 159.999 107.004 159.892C106.143 159.623 103.443 159.924 101.05 159.761C99.1533 159.63 98.2678 158.878 98.5692 158.221C99.0779 157.113 100.353 155.21 100.799 154.427C98.2866 155.116 97.6021 156.243 95.3412 157.313C93.074 158.39 90.5932 158.584 88.1565 157.82L88.8536 161.345L88.8411 163.498C88.8411 163.498 89.1802 166.184 90.7879 166.184C93.0551 166.184 96.7731 166.109 96.7731 166.109C97.1938 166.165 97.69 166.209 98.2992 166.222C102.036 166.297 107.324 162.616 106.715 162.372L106.721 162.365Z" fill="#F79D55"/>
<path d="M106.721 160.587C106.112 161.001 105.44 161.314 104.755 161.583C104.064 161.846 103.342 162.034 102.595 162.115C101.841 162.19 101.119 162.165 100.384 162.115C99.6494 162.071 98.9209 161.99 98.205 161.833C98.9398 161.858 99.6683 161.858 100.391 161.852C101.113 161.827 101.854 161.821 102.557 161.746C103.267 161.652 103.964 161.495 104.655 161.289C105.352 161.094 106.03 160.844 106.721 160.587Z" fill="#C66D32"/>
<path d="M106.08 162.321C105.521 162.685 104.962 163.041 104.372 163.361C103.788 163.686 103.173 163.955 102.532 164.181C101.891 164.394 101.232 164.556 100.56 164.619C99.888 164.688 99.2097 164.682 98.5503 164.569C99.216 164.519 99.8692 164.456 100.516 164.331C101.157 164.206 101.791 164.037 102.406 163.818C103.028 163.611 103.631 163.354 104.24 163.098C104.843 162.835 105.446 162.541 106.074 162.315L106.08 162.321Z" fill="#C66D32"/>
<path d="M67.5696 147.879C64.8503 151.353 57.069 152.987 50.5123 153.269C49.966 153.294 49.4259 153.307 48.8983 153.307C45.7644 153.338 45.3248 153.363 43.8238 152.806C43.2775 152.606 42.7813 148.186 42.6494 147.503C42.3229 145.813 42.0465 144.11 41.8393 142.408C41.7074 141.375 41.5881 140.292 41.4813 139.171C41.431 138.589 41.3808 137.988 41.3431 137.387C40.8972 130.926 41.2552 123.658 44.6403 118.443C44.9355 117.98 45.262 117.529 45.6137 117.097C45.6388 117.072 45.6577 117.041 45.6828 117.016C49.137 112.822 54.8458 110.073 60.2908 108.746C60.2908 108.746 64.1343 134.563 66.7909 144.912C67.1112 146.132 67.3749 147.147 67.5696 147.879Z" fill="#FEFCFF"/>
<path d="M50.6317 112.54C51.4607 112.471 52.3274 112.521 53.1375 112.778C53.9603 113.003 54.7202 113.397 55.455 113.829C56.9057 114.718 58.1367 115.933 59.1855 117.247C60.228 118.581 61.0947 120.04 61.7604 121.58C61.93 121.968 62.0932 122.35 62.2251 122.75C62.357 123.151 62.5266 123.533 62.6271 123.94C62.8532 124.747 63.029 125.567 63.1546 126.387C63.0227 125.993 62.8908 125.599 62.7715 125.198C62.6459 124.804 62.4763 124.422 62.3319 124.034C62.2 123.639 62.0179 123.27 61.8546 122.888C61.6976 122.506 61.5092 122.137 61.3208 121.774C60.5671 120.309 59.7067 118.906 58.6893 117.623C57.6782 116.333 56.5163 115.163 55.1849 114.218C54.5129 113.754 53.8095 113.329 53.0371 113.053C52.2834 112.709 51.4607 112.602 50.6317 112.527V112.54Z" fill="#553535"/>
<path d="M73.0901 109.967C74.208 110.674 75.1626 111.62 76.0167 112.634C76.8771 113.648 77.6056 114.762 78.2588 115.914C78.8994 117.072 79.4646 118.274 79.8916 119.526C80.3313 120.772 80.6767 122.055 80.8211 123.364C80.7144 123.051 80.6076 122.744 80.5134 122.431L80.1743 121.511C79.9482 120.897 79.7095 120.296 79.4395 119.702C78.9119 118.512 78.3404 117.348 77.7061 116.221C77.0781 115.088 76.381 113.992 75.6336 112.934C75.2631 112.402 74.8611 111.889 74.4341 111.4C74.0259 110.887 73.5611 110.436 73.0901 109.973V109.967Z" fill="#553535"/>
<path d="M56.7927 237.219C56.7927 237.219 77.6998 250.147 91.4788 249.176" stroke="#842417" stroke-linecap="round" stroke-linejoin="round"/>
<path d="M83.5592 261.127C83.5592 261.127 83.5592 261.152 83.5592 261.165C83.3834 261.953 83.1133 262.561 83.1133 262.561C83.1133 262.561 56.1395 262.223 50.4684 259.155C50.6003 258.742 50.8264 258.21 50.952 257.834C51.7684 258.16 60.0835 261.171 83.5655 261.121L83.5592 261.127Z" fill="white"/>
<path d="M62.7653 127.057C62.7653 127.057 62.9851 127.107 63.3682 127.22" stroke="#FEFCFF" stroke-width="0.5" stroke-linecap="round" stroke-linejoin="round"/>
<path d="M65.2648 127.871C67.2996 128.66 70.2639 130.094 72.9519 132.473" stroke="#FEFCFF" stroke-width="0.5" stroke-linecap="round" stroke-linejoin="round"/>
<path d="M73.6866 133.155C73.8374 133.299 73.9818 133.449 74.1325 133.599C74.2079 133.424 74.2958 133.23 74.3963 133.03" stroke="#FEFCFF" stroke-width="0.5" stroke-linecap="round" stroke-linejoin="round"/>
<path d="M75.2002 131.565C76.4186 129.505 78.221 127.039 79.7848 125.593" stroke="#FEFCFF" stroke-width="0.5" stroke-linecap="round" stroke-linejoin="round"/>
<path d="M80.4254 125.048C80.6013 124.91 80.7771 124.791 80.9404 124.697" stroke="#FEFCFF" stroke-width="0.5" stroke-linecap="round" stroke-linejoin="round"/>
<path d="M58.9782 123.664C59.4811 123.664 59.8888 123.258 59.8888 122.757C59.8888 122.255 59.4811 121.849 58.9782 121.849C58.4752 121.849 58.0675 122.255 58.0675 122.757C58.0675 123.258 58.4752 123.664 58.9782 123.664Z" fill="#A736FF"/>
<path d="M53.7028 115.983C54.2057 115.983 54.6134 115.577 54.6134 115.075C54.6134 114.574 54.2057 114.167 53.7028 114.167C53.1998 114.167 52.7921 114.574 52.7921 115.075C52.7921 115.577 53.1998 115.983 53.7028 115.983Z" fill="#A736FF"/>
<path d="M46.2355 117.849C46.2355 118.35 45.8272 118.756 45.3248 118.756C45.0485 118.756 44.8035 118.638 44.6403 118.443C44.9354 117.98 45.262 117.529 45.6137 117.097C45.6388 117.072 45.6577 117.041 45.6828 117.016C46.0094 117.154 46.2355 117.473 46.2355 117.849Z" fill="#A736FF"/>
<path d="M42.4673 138.27C42.4673 138.771 42.0591 139.177 41.5567 139.177C41.5315 139.177 41.5064 139.177 41.4813 139.171C41.4311 138.589 41.3808 137.988 41.3431 137.387C41.4122 137.362 41.4813 137.356 41.5567 137.356C42.0591 137.356 42.4673 137.763 42.4673 138.27Z" fill="#A736FF"/>
<path d="M65.4908 119.132C65.9938 119.132 66.4015 118.725 66.4015 118.224C66.4015 117.723 65.9938 117.316 65.4908 117.316C64.9879 117.316 64.5802 117.723 64.5802 118.224C64.5802 118.725 64.9879 119.132 65.4908 119.132Z" fill="#A736FF"/>
<path d="M72.6316 127.402C73.1345 127.402 73.5422 126.995 73.5422 126.494C73.5422 125.993 73.1345 125.586 72.6316 125.586C72.1287 125.586 71.7209 125.993 71.7209 126.494C71.7209 126.995 72.1287 127.402 72.6316 127.402Z" fill="#A736FF"/>
<path d="M75.9664 116.809C75.9664 117.31 75.5582 117.717 75.0558 117.717C74.5534 117.717 74.1451 117.31 74.1451 116.809C74.1451 116.309 74.5534 115.902 75.0558 115.902C75.5582 115.902 75.9664 116.309 75.9664 116.809Z" fill="#A736FF"/>
<path d="M73.09 109.967C72.9832 110.343 72.6315 110.612 72.2233 110.612C71.7146 110.612 71.3064 110.205 71.3064 109.704C71.3064 109.641 71.3064 109.579 71.3252 109.522C71.8716 109.648 72.4745 109.798 73.09 109.967Z" fill="#A736FF"/>
<path d="M83.8859 119.476C83.7289 119.614 83.5279 119.689 83.3081 119.689C82.8057 119.689 82.3975 119.282 82.3975 118.781C82.3975 118.374 82.6675 118.024 83.0443 117.917C83.3144 118.4 83.5907 118.913 83.8859 119.476Z" fill="#A736FF"/>
<path d="M89.2931 131.296C89.1361 131.477 88.8975 131.59 88.6274 131.59C88.125 131.59 87.7168 131.183 87.7168 130.676C87.7168 130.169 88.125 129.768 88.6274 129.768H88.6463C88.8598 130.263 89.0733 130.77 89.2931 131.296Z" fill="#A736FF"/>
<path d="M89.1487 141.888C89.6516 141.888 90.0593 141.482 90.0593 140.98C90.0593 140.479 89.6516 140.073 89.1487 140.073C88.6457 140.073 88.238 140.479 88.238 140.98C88.238 141.482 88.6457 141.888 89.1487 141.888Z" fill="#A736FF"/>
<path d="M61.5782 133.474C61.5782 133.975 61.17 134.382 60.6676 134.382C60.1652 134.382 59.757 133.975 59.757 133.474C59.757 132.973 60.1652 132.566 60.6676 132.566C61.17 132.566 61.5782 132.973 61.5782 133.474Z" fill="#A736FF"/>
<path d="M48.7727 127.183C48.7727 127.683 48.3645 128.09 47.8621 128.09C47.3596 128.09 46.9514 127.683 46.9514 127.183C46.9514 126.682 47.3596 126.275 47.8621 126.275C48.3645 126.275 48.7727 126.682 48.7727 127.183Z" fill="#A736FF"/>
<path d="M51.2723 141.7C51.7753 141.7 52.183 141.294 52.183 140.793C52.183 140.291 51.7753 139.885 51.2723 139.885C50.7694 139.885 50.3617 140.291 50.3617 140.793C50.3617 141.294 50.7694 141.7 51.2723 141.7Z" fill="#A736FF"/>
<path d="M62.1937 148.355C62.6967 148.355 63.1044 147.948 63.1044 147.447C63.1044 146.946 62.6967 146.539 62.1937 146.539C61.6908 146.539 61.2831 146.946 61.2831 147.447C61.2831 147.948 61.6908 148.355 62.1937 148.355Z" fill="#A736FF"/>
<path d="M50.6066 152.875C50.6066 153.019 50.5752 153.15 50.5124 153.269C49.966 153.294 49.4259 153.307 48.8983 153.307C48.823 153.175 48.7853 153.031 48.7853 152.875C48.7853 152.374 49.1935 151.967 49.6959 151.967C50.1983 151.967 50.6066 152.374 50.6066 152.875Z" fill="#A736FF"/>
<path d="M63.3493 83.0665C63.814 81.7957 64.2787 80.506 64.3478 79.1538C64.4169 77.8079 64.0275 76.368 63.0164 75.4665C62.1686 74.7153 60.9879 74.4273 59.8574 74.4398C57.2385 74.4711 54.7013 76.0738 53.5583 78.4151C53.0182 79.5169 52.7795 80.8128 53.1501 81.9772C53.5834 83.3545 54.8018 84.3686 56.1395 84.9195C57.4772 85.4704 58.9405 85.6144 60.3787 85.7584" fill="#211C1D"/>
<path d="M46.2356 84.8256C45.5698 84.788 44.9293 84.5313 44.3452 84.2246C43.7486 83.9116 43.1582 83.536 42.7437 82.9976C42.4485 82.6157 42.2915 82.1274 42.5616 81.6892C43.1017 80.8065 44.2949 81.276 44.9104 81.7893C44.9167 81.1633 45.0423 80.6187 45.4756 80.1742C45.8525 79.7923 46.3612 79.7109 46.851 79.9238C47.5858 80.2431 47.68 81.1445 47.6047 81.8457C47.5105 82.672 47.1588 83.4796 46.7129 84.1745C46.5684 84.4061 46.4051 84.6252 46.2356 84.8318" fill="#9610FF"/>
<path d="M65.7673 68.6742C65.1706 68.3799 64.6745 67.8979 64.26 67.3908C63.8329 66.8712 63.431 66.3015 63.2614 65.6379C63.1358 65.1747 63.1861 64.6613 63.6006 64.3608C64.4421 63.7536 65.3591 64.6488 65.7296 65.3625C65.9808 64.7928 66.3011 64.3295 66.8789 64.0916C67.375 63.885 67.8775 64.004 68.2417 64.3859C68.7944 64.9618 68.5306 65.832 68.1915 66.4455C67.7832 67.1717 67.1489 67.7789 66.4644 68.2547C66.2383 68.4112 66.0059 68.5489 65.7673 68.6804" fill="#9610FF"/>
<path d="M80.4128 83.5737C80.0548 83.0165 79.8853 82.3466 79.7911 81.6956C79.6969 81.032 79.6529 80.3371 79.8413 79.6798C79.9795 79.2165 80.2809 78.8033 80.7959 78.7595C81.8322 78.6719 82.1525 79.9177 82.0959 80.7127C82.6046 80.3496 83.1196 80.1305 83.7414 80.2182C84.2752 80.2933 84.6395 80.6564 84.7525 81.176C84.9284 81.9522 84.2501 82.5657 83.6409 82.9163C82.9124 83.3295 82.052 83.5173 81.223 83.5737C80.9529 83.5924 80.6766 83.5924 80.4065 83.5737" fill="#9610FF"/>
<path d="M149.314 151.072H123.496C121.084 151.072 119.125 149.119 119.125 146.715C119.125 144.311 121.084 142.357 123.496 142.357H149.314C151.726 142.357 153.685 144.311 153.685 146.715C153.685 149.125 151.726 151.072 149.314 151.072Z" fill="#FEFCFF"/>
<path d="M119.935 145.876L117.096 147.641L121.247 148.273" fill="#FEFCFF"/>
<path d="M127.678 149.181C127.05 148.874 126.529 148.361 126.089 147.829C125.637 147.278 125.216 146.677 125.034 145.982C124.902 145.494 124.953 144.956 125.392 144.636C126.278 143.998 127.245 144.943 127.634 145.688C127.898 145.087 128.237 144.605 128.846 144.348C129.368 144.129 129.895 144.261 130.285 144.661C130.869 145.269 130.592 146.189 130.234 146.834C129.807 147.604 129.135 148.242 128.413 148.737C128.181 148.899 127.936 149.05 127.678 149.181Z" fill="#9610FF"/>
<path d="M136.282 149.181C135.654 148.874 135.133 148.361 134.693 147.829C134.241 147.278 133.82 146.677 133.638 145.982C133.506 145.494 133.557 144.956 133.996 144.636C134.882 143.998 135.849 144.943 136.238 145.688C136.502 145.087 136.841 144.605 137.45 144.348C137.972 144.129 138.499 144.261 138.889 144.661C139.473 145.269 139.196 146.189 138.838 146.834C138.411 147.604 137.739 148.242 137.017 148.737C136.785 148.899 136.54 149.05 136.282 149.181Z" fill="#9610FF"/>
<path d="M144.893 149.181C144.265 148.874 143.743 148.361 143.304 147.829C142.851 147.278 142.431 146.677 142.249 145.982C142.117 145.494 142.167 144.956 142.607 144.636C143.492 143.998 144.459 144.943 144.849 145.688C145.112 145.087 145.451 144.605 146.061 144.348C146.582 144.129 147.109 144.261 147.499 144.661C148.083 145.269 147.807 146.189 147.449 146.834C147.022 147.604 146.35 148.242 145.627 148.737C145.395 148.899 145.15 149.05 144.893 149.181Z" fill="#9610FF"/>
<path d="M83.7477 166.679H191.003" stroke="#140609" stroke-width="2" stroke-linecap="round" stroke-linejoin="round"/>
<path d="M147.486 117.379H122.987C120.695 117.379 118.836 115.526 118.836 113.241C118.836 110.956 120.695 109.103 122.987 109.103H147.486C149.779 109.103 151.638 110.956 151.638 113.241C151.638 115.526 149.779 117.379 147.486 117.379Z" fill="#FEFCFF"/>
<path d="M150.256 115.927L153.252 116.966L151.255 113.535" fill="#FEFCFF"/>
<path d="M126.956 115.582C126.359 115.288 125.863 114.806 125.449 114.299C125.022 113.779 124.62 113.21 124.45 112.546C124.325 112.083 124.375 111.57 124.789 111.269C125.631 110.662 126.548 111.557 126.918 112.271C127.17 111.701 127.496 111.238 128.068 111C128.564 110.793 129.066 110.912 129.431 111.294C129.983 111.87 129.726 112.74 129.38 113.354C128.972 114.08 128.338 114.687 127.653 115.163C127.427 115.319 127.195 115.457 126.956 115.589" fill="#9610FF"/>
<path d="M135.127 115.582C134.53 115.288 134.034 114.806 133.619 114.299C133.192 113.779 132.791 113.21 132.621 112.546C132.495 112.083 132.546 111.57 132.96 111.269C133.802 110.662 134.719 111.557 135.089 112.271C135.34 111.701 135.661 111.238 136.238 111C136.735 110.793 137.237 110.912 137.601 111.294C138.154 111.87 137.89 112.74 137.551 113.354C137.143 114.08 136.508 114.687 135.824 115.163C135.598 115.319 135.365 115.457 135.127 115.589" fill="#9610FF"/>
<path d="M143.291 115.582C142.695 115.288 142.198 114.806 141.784 114.299C141.357 113.779 140.955 113.21 140.785 112.546C140.66 112.083 140.71 111.57 141.125 111.269C141.966 110.662 142.883 111.557 143.254 112.271C143.505 111.701 143.831 111.238 144.403 111C144.899 110.793 145.401 110.912 145.766 111.294C146.318 111.87 146.055 112.74 145.715 113.354C145.307 114.08 144.673 114.687 143.988 115.163C143.762 115.319 143.53 115.457 143.291 115.589" fill="#9610FF"/>
<path d="M203.682 221.969C203.682 221.969 208.054 234.377 212.626 248.187C213.894 252.019 200.486 252.144 196.441 248.507C193.571 238.728 187.994 223.622 187.994 223.622L203.689 221.963L203.682 221.969Z" fill="#F9B180"/>
<path d="M182.832 261.672C183.19 262.398 183.548 262.83 183.548 262.83C183.548 262.83 195.807 259.888 214.497 255.337C214.472 254.886 214.422 254.441 214.353 253.997C213.894 250.879 211.727 245.283 211.727 245.283C211.727 245.283 204.781 249.965 196.435 248.5C194.62 252.075 192.29 252.25 189.885 252.551C187.774 252.82 185.407 253.196 183.95 254.742C181.412 257.44 182.11 260.163 182.832 261.666V261.672Z" fill="#1B2F5B"/>
<path d="M182.832 261.672C183.19 262.398 183.592 262.943 183.592 262.943C183.592 262.943 195.838 260.007 214.528 255.462C214.503 255.011 214.422 254.448 214.353 254.003L182.832 261.672Z" fill="white"/>
<path d="M194.84 250.679C194.84 250.679 195.895 250.767 196.341 251.687" stroke="white" stroke-linecap="round" stroke-linejoin="round"/>
<path d="M192.774 251.818C192.774 251.818 193.816 252 194.174 252.951" stroke="white" stroke-linecap="round" stroke-linejoin="round"/>
<path d="M198.149 191.288L215.778 240.932C210.264 244.237 190.513 249.339 180.144 250.629C175.308 235.028 170.033 195.908 170.033 195.908L181.745 183.512L198.149 191.288Z" fill="#3D7777"/>
<path d="M231.19 197.917L246.388 262.943H243.958L226.813 199.376L231.19 197.917Z" fill="#211C1D"/>
<path d="M187.109 197.917L173.009 258.748H175.44L191.486 199.376L187.109 197.917Z" fill="#211C1D"/>
<path d="M234.72 152.117C234.72 152.117 249.912 152.48 248.944 166.898C248.147 178.748 240.19 197.429 223.415 200.822C214.177 202.519 194.727 201.548 194.727 201.548L182.084 201.792C182.084 201.792 177.343 197.567 179.736 195.532C185.765 190.411 202.816 184.138 202.992 183.619C203.236 182.893 220.74 162.052 220.74 162.052L234.72 152.117Z" fill="#1B2F5B"/>
<path d="M230.706 151.998C230.706 151.998 246.998 150.909 246.753 162.785C246.508 174.661 237.998 193.316 221.223 196.709C211.985 198.406 180.062 197.435 180.062 197.435L179.899 193.316C179.899 193.316 200.561 180.232 200.8 179.506C201.045 178.78 218.548 157.939 218.548 157.939L230.7 152.005L230.706 151.998Z" fill="#3A619B"/>
<path d="M176.131 227.848C176.131 227.848 177.425 240.932 178.58 255.431C178.9 259.45 165.85 256.401 162.779 251.919C162.314 241.739 160.493 225.744 160.493 225.744L176.131 227.842V227.848Z" fill="#F9B180"/>
<path d="M146.431 261.49C146.607 262.279 146.852 262.786 146.852 262.786C146.852 262.786 159.463 262.824 178.699 262.824C178.781 262.379 178.838 261.935 178.875 261.49C179.17 258.354 178.398 252.407 178.398 252.407C178.398 252.407 170.535 255.318 162.779 251.918C160.166 254.961 157.861 254.579 155.45 254.304C153.333 254.066 150.947 253.872 149.163 255.03C146.054 257.052 146.086 259.863 146.431 261.49Z" fill="#1B2F5B"/>
<path d="M146.431 261.491C146.607 262.279 146.865 262.899 146.865 262.899C146.865 262.899 159.463 262.943 178.699 262.943C178.781 262.499 178.838 261.929 178.875 261.484H146.431V261.491Z" fill="white"/>
<path d="M160.713 253.646C160.713 253.646 161.717 253.978 161.931 254.98" stroke="white" stroke-linecap="round" stroke-linejoin="round"/>
<path d="M158.433 254.26C158.433 254.26 159.4 254.679 159.526 255.694" stroke="white" stroke-linecap="round" stroke-linejoin="round"/>
<path d="M236.378 182.611C236.177 183.462 234.437 183.945 232.974 182.899C231.517 181.847 234.029 179.506 234.029 179.506C234.029 179.506 234.958 178.454 235.366 178.943C235.775 179.425 236.378 182.617 236.378 182.617V182.611Z" fill="#872012"/>
<path d="M220.985 191.82C208.324 193.823 196.46 193.535 189.615 193.341C188.396 193.304 187.416 194.318 187.492 195.532L190.676 248.206C190.676 248.206 174.561 248.619 156.963 249.339C156.674 247.611 155.657 186.098 157.773 178.579C160.022 170.61 173.173 165.821 193.433 165.17C197.603 162.628 220.658 164.926 220.658 164.926L238.89 160.08C238.89 160.08 240.918 188.677 220.978 191.826L220.985 191.82Z" fill="#609FA0"/>
<path d="M221.839 170.134C221.839 170.134 221.23 179.224 208.104 180.677C199.33 181.647 189.144 182.242 183.347 182.53C180.766 182.655 178.781 184.84 178.894 187.413L181.601 248.3" stroke="#FFFAFB" stroke-miterlimit="10"/>
<path d="M223.534 170.735C223.534 170.735 223.17 180.789 210.044 182.248C201.038 183.243 190.544 183.844 184.842 184.12C182.512 184.232 180.709 186.204 180.816 188.533L183.491 248.231" stroke="#FFFAFB" stroke-linejoin="round"/>
<path d="M186.173 143.484L191.825 130.156L199.676 130.626L212.695 132.604L212.764 141.03L208.443 149.5L199.713 152.023C199.713 152.023 193.609 160.268 187.668 159.529C181.256 158.734 173.644 145.275 167.181 132.448C164.688 131.321 161.95 127.339 161.611 122.462C161.466 120.359 163.288 121.517 164.644 122.638C166.001 123.758 167.194 124.084 167.194 124.084" fill="#F79D55"/>
<path d="M240.07 163.53C240.008 164.018 239.951 164.513 239.876 165.001C239.128 170.616 237.923 176.357 236.378 182.611C234.789 180.351 233.005 178.241 230.776 176.382C230.33 176.013 229.871 175.65 229.388 175.305C225.387 172.388 220.036 170.216 212.23 169.208C204.92 168.263 198.457 168.882 190.676 164.2C191.191 159.517 192.83 150.671 194.651 141.825C196.404 133.355 198.325 124.885 199.588 120.096C200.147 116.014 201.987 110.706 203.293 107.269C204.059 105.259 204.643 103.894 204.687 103.782L216.004 100.182C216.588 100.483 217.229 100.802 217.901 101.152C221.569 103.068 226.373 105.923 230.593 111.983C230.933 112.459 231.259 112.953 231.579 113.473C233.96 117.26 236.095 122.181 237.671 128.654C238.155 130.638 238.576 132.56 238.934 134.432C239.022 134.889 239.11 135.34 239.185 135.791C241.012 145.888 241.138 154.596 240.064 163.53H240.07Z" fill="#B23B24"/>
<path d="M199.682 142.138C197.942 142.376 196.24 142.22 194.651 141.825C194.067 141.688 193.502 141.512 192.949 141.318C192.409 141.124 191.888 140.905 191.386 140.673C187.297 138.795 184.496 135.903 184.496 135.903C184.772 135.277 185.042 134.651 185.319 134.025C185.564 133.474 185.802 132.917 186.047 132.366C186.914 130.4 187.781 128.435 188.654 126.475C189.954 123.552 191.26 120.628 192.598 117.717C192.975 116.897 193.351 116.089 193.753 115.301C194.017 114.769 194.293 114.243 194.576 113.729C195.675 111.739 196.95 109.86 198.602 108.176C199.82 106.937 201.252 105.547 202.847 104.608C203.437 104.258 204.053 103.97 204.687 103.782C204.687 103.782 204.838 105.065 205.058 106.956C205.133 107.638 205.221 108.389 205.315 109.184C205.874 114.08 206.628 120.653 206.697 121.473C206.81 122.807 207.721 129.173 199.676 142.138H199.682Z" fill="#B23B24"/>
<path d="M211.181 129.055C211.181 129.055 208.594 148.355 207.614 149.976C206.634 151.598 189.998 157.126 184.898 159.141C185.086 161.934 184.917 166.372 184.917 166.372C184.917 166.372 211.099 164.744 220.256 161.12C229.413 157.501 228.929 132.041 228.929 132.041L223.49 137.806L211.181 129.048V129.055Z" fill="#F9B180"/>
<path d="M217.907 101.152C215.301 106.424 209.58 109.61 206.521 109.429C206.069 109.397 205.673 109.316 205.322 109.184C204.26 108.815 203.645 108.07 203.293 107.269C202.847 106.248 202.828 105.146 202.847 104.608C203.437 104.258 204.053 103.97 204.687 103.782C205.089 103.369 205.328 102.724 205.46 101.991L211.376 101.127L214.654 98.4668C214.742 98.8737 214.824 99.1867 214.899 99.3307C215.301 100.126 216.004 100.182 216.004 100.182C216.588 100.483 217.229 100.802 217.901 101.152H217.907Z" fill="#FEFCFF"/>
<path d="M155.958 117.604L161.535 114.299C162.044 113.998 162.703 114.155 163.018 114.656L170.698 126.776L164.248 130.92C163.733 131.252 163.049 131.095 162.722 130.576L155.582 119.119C155.261 118.6 155.425 117.917 155.952 117.604H155.958Z" fill="#2755A1"/>
<path d="M163.702 130.463C163.526 130.476 163.357 130.394 163.262 130.244L156.122 118.788C156.053 118.681 156.034 118.556 156.065 118.431C156.097 118.306 156.172 118.206 156.279 118.143L161.856 114.838C161.918 114.8 161.981 114.781 162.05 114.775C162.226 114.762 162.39 114.844 162.484 114.988L169.832 126.582L163.909 130.394C163.847 130.438 163.771 130.457 163.696 130.463H163.702Z" fill="#FEFCFF"/>
<path d="M172.093 129.474C172.093 129.474 170.975 127.646 170.497 125.517C170.039 123.489 168.274 122.131 167.897 122.212C167.596 122.275 168.481 124.797 168.814 125.336C168.506 127.283 168.871 129.355 168.871 129.355" fill="#F79D55"/>
<path d="M206.239 117.342L205.592 139.96C205.592 139.96 218.272 144.242 231.749 140.523C233.307 129.618 229.896 118.118 227.309 111.526" fill="#B23B24"/>
<path d="M216.011 100.182C215.477 101.722 210.352 108.465 206.169 107.601C205.686 107.501 205.328 107.275 205.064 106.962C204.449 106.217 204.405 104.99 204.694 103.776C205.095 103.369 205.334 102.724 205.466 101.991C205.855 99.7691 205.252 96.7078 205.252 96.7078L213.775 92.9517C213.775 92.9517 214.258 96.664 214.66 98.467C214.748 98.8739 214.83 99.1869 214.905 99.3309C215.307 100.126 216.011 100.182 216.011 100.182Z" fill="#F9B180"/>
<path d="M219.119 78.9223C219.119 78.9223 222.159 87.2797 219.327 91.2613C217.926 93.8342 216.011 94.8734 214.196 95.3868C213.838 94.2787 213.53 91.7057 213.53 91.7057L212.531 88.2939L212.18 83.2669L213.216 80.5061L216.494 79.1163L219.138 78.916L219.119 78.9223Z" fill="#211C1D"/>
<path d="M195.336 83.7364C195.336 83.7364 195.618 89.6524 197.999 90.3285C199.261 85.5081 199.563 84.0995 199.563 84.0995L198.62 82.8162L195.336 83.7364Z" fill="#211C1D"/>
<path d="M198.577 93.8466C199.01 95.1738 199.581 96.4696 200.36 97.5589C201.453 99.1115 202.948 100.251 204.976 100.482C205.052 100.495 205.133 100.501 205.209 100.508C205.234 100.508 205.259 100.508 205.284 100.508C205.366 100.508 205.453 100.514 205.529 100.52C206.044 100.539 206.59 100.501 207.181 100.395C207.344 100.37 207.501 100.332 207.664 100.295C207.827 100.251 207.978 100.201 208.129 100.157C208.28 100.107 208.43 100.063 208.568 100C208.958 99.8565 209.316 99.6937 209.642 99.5121C209.743 99.4558 209.843 99.3932 209.944 99.3369C210.032 99.2868 210.113 99.2304 210.195 99.1803C210.27 99.1303 210.34 99.0864 210.409 99.0301C210.49 98.9738 210.572 98.9112 210.654 98.8486C210.729 98.7922 210.798 98.7359 210.867 98.6733C210.942 98.6169 211.005 98.5606 211.074 98.4917C211.57 98.0472 211.966 97.5589 212.286 97.0644C213.272 95.5369 213.517 93.9155 213.649 93.0328C215.307 93.3583 218.623 90.8041 216.896 88.2937C216.695 87.9995 216.438 87.7428 216.13 87.5613C214.302 86.4657 212.519 88.5066 212.399 89.2578C211.282 85.6519 205.975 78.6029 200.09 81.4763C199.286 81.7518 198.677 82.4967 198.244 83.2918C197.553 84.5501 197.283 85.9962 197.39 87.4236C197.509 88.9886 197.817 91.4614 198.589 93.8403L198.577 93.8466Z" fill="#F9B180"/>
<path d="M204.706 100.445C205.353 100.457 205.981 100.42 206.609 100.326C207.237 100.238 207.846 100.126 208.437 99.9065C209.027 99.6936 209.592 99.4244 210.107 99.0676C210.622 98.7107 211.081 98.2663 211.464 97.7529C211.181 98.3289 210.76 98.8485 210.252 99.2554C209.749 99.6748 209.159 99.9878 208.55 100.219C207.94 100.464 207.281 100.576 206.634 100.62C205.987 100.651 205.328 100.62 204.706 100.445Z" fill="#C66D32"/>
<path d="M202.263 90.9231C202.414 91.2549 202.508 91.6117 202.577 91.9686C202.646 92.3254 202.671 92.6947 202.652 93.0641C202.64 93.2394 202.602 93.4648 202.577 93.5962C202.571 93.734 202.602 93.8216 202.734 93.8779C203.01 93.9781 203.394 93.903 203.739 93.8341C203.431 94.0219 203.086 94.1972 202.652 94.1221C202.546 94.0971 202.426 94.0407 202.351 93.928C202.276 93.8216 202.257 93.6964 202.257 93.5837C202.276 93.3521 202.307 93.2331 202.307 93.0453C202.326 92.701 202.313 92.3504 202.307 91.9999L202.257 90.9231H202.263Z" fill="#C66D32"/>
<path d="M207.696 87.1857C207.168 86.8977 206.094 86.5409 205.29 87.2045C205.102 87.3985 205.265 87.5801 205.516 87.53C205.774 87.4799 206.144 87.4173 206.377 87.411C206.841 87.3923 207.212 87.5738 207.62 87.7804C208.028 87.987 208.33 87.5362 207.696 87.1857Z" fill="#553535"/>
<path d="M198.332 87.192C198.928 87.0981 200.052 87.1294 200.586 88.0184C200.699 88.2625 200.479 88.3815 200.26 88.25C200.034 88.1186 199.707 87.937 199.493 87.8494C199.06 87.6741 198.652 87.7179 198.2 87.7742C197.748 87.8306 197.616 87.3047 198.332 87.192Z" fill="#553535"/>
<path d="M205.435 89.8462C205.435 90.3658 205.868 90.779 206.383 90.7728C206.904 90.7728 207.319 90.3408 207.312 89.8275C207.312 89.3079 206.879 88.8947 206.364 88.9009C205.843 88.9009 205.428 89.3329 205.435 89.8462Z" fill="#2D1D17"/>
<path d="M198.514 90.9168C198.514 91.4364 198.947 91.8496 199.462 91.8433C199.983 91.8433 200.398 91.4114 200.392 90.898C200.392 90.3784 199.958 89.9652 199.443 89.9715C198.922 89.9715 198.507 90.4035 198.514 90.9168Z" fill="#2D1D17"/>
<path d="M205.667 89.6835C205.692 89.8149 205.818 89.9026 205.95 89.8775C206.081 89.8525 206.169 89.7273 206.144 89.5958C206.119 89.4643 205.994 89.3767 205.862 89.4017C205.73 89.4268 205.642 89.552 205.667 89.6835Z" fill="white"/>
<path d="M198.828 90.6727C198.853 90.8042 198.979 90.8918 199.11 90.8668C199.242 90.8417 199.33 90.7165 199.305 90.5851C199.28 90.4536 199.154 90.366 199.022 90.391C198.891 90.416 198.803 90.5412 198.828 90.6727Z" fill="white"/>
<path d="M206.207 94.7668C206.207 94.7668 204.725 96.0064 203.255 96.1754C203.946 96.9079 204.976 97.8281 205.868 97.4024C206.76 96.9767 206.841 96.1754 206.207 94.7668Z" fill="#FEFCFF"/>
<g style="mix-blend-mode:multiply" opacity="0.37">
<path d="M208.104 93.7088C208.116 94.8482 209.052 95.7559 210.189 95.7496C211.332 95.7371 212.242 94.8044 212.236 93.6712C212.23 92.5381 211.288 91.6241 210.151 91.6304C209.008 91.6429 208.097 92.5757 208.104 93.7088Z" fill="#F79D55"/>
</g>
<g style="mix-blend-mode:multiply" opacity="0.37">
<path d="M198.288 92.7573C198.621 94.1095 199.104 95.443 199.801 96.5823C200.523 96.3006 201.051 95.6183 201.101 94.7982C201.17 93.6651 200.304 92.6885 199.167 92.6196C198.859 92.6008 198.558 92.6509 198.294 92.7573H198.288Z" fill="#F79D55"/>
</g>
<path d="M212.757 88.5567L211.954 90.8605C211.954 90.8605 210.497 86.0464 209.642 84.7505C208.543 85.2075 206.64 83.6299 206.245 82.885C204.411 83.2856 199.142 85.677 195.838 84.5564C192.277 83.3545 191.436 76.8125 196.02 76.0362C195.355 74.252 203.664 67.6975 211.357 72.9875C210.484 71.5977 212.399 72.1799 212.531 72.9687C213.706 72.4115 214.441 73.0062 213.605 73.9641C216.281 74.2333 218.165 75.7232 219.452 80.1116C220.746 84.5001 214.265 83.1604 214.265 83.1604L212.757 88.563V88.5567Z" fill="#211C1D"/>
<path d="M197.93 124.697L197.176 128.979L196.404 133.255C196.134 134.676 195.876 136.104 195.581 137.518L195.154 139.647L194.708 141.775C194.752 140.317 194.921 138.877 195.104 137.437C195.286 135.997 195.524 134.564 195.788 133.136C196.064 131.709 196.353 130.288 196.711 128.879C197.063 127.471 197.44 126.062 197.93 124.691V124.697Z" fill="#872215"/>
<path d="M169.668 165.038C169.8 164.963 170.007 164.919 170.265 164.907C168.689 164.3 167.621 163.63 167.872 163.48C168.136 163.323 168.689 163.317 169.411 163.361C168.921 163.135 168.707 162.897 169.047 162.747C169.819 162.365 172.413 162.259 174.655 161.752C176.426 161.351 177.154 160.512 176.771 159.93C176.131 158.953 174.416 158.753 174.109 156.668C176.583 156.95 177.393 157.914 179.692 158.597C181.99 159.279 184.088 159.479 186.807 158.315L186.412 161.451L186.738 163.486C186.738 163.486 186.807 166.071 185.294 166.303C183.152 166.635 179.629 167.104 179.629 167.104H179.623C179.233 167.217 178.769 167.336 178.197 167.436C174.674 168.05 169.141 165.345 169.681 165.026L169.668 165.038Z" fill="#F9B180"/>
<path d="M162.132 116.941L158.672 118.938" stroke="#2755A1" stroke-width="0.5" stroke-linecap="round" stroke-linejoin="round"/>
<path d="M162.697 117.83L159.237 119.827" stroke="#2755A1" stroke-width="0.5" stroke-linecap="round" stroke-linejoin="round"/>
<path d="M163.269 120.778L159.802 122.775" stroke="#2755A1" stroke-width="0.5" stroke-linecap="round" stroke-linejoin="round"/>
<path d="M166.183 121.912L162.722 123.909" stroke="#2755A1" stroke-width="0.5" stroke-linecap="round" stroke-linejoin="round"/>
<path d="M165.417 124.046L161.95 126.05" stroke="#2755A1" stroke-width="0.5" stroke-linecap="round" stroke-linejoin="round"/>
<path d="M165.737 124.779L162.276 126.776" stroke="#2755A1" stroke-width="0.5" stroke-linecap="round" stroke-linejoin="round"/>
<path d="M203.337 127.684C203.337 128.184 202.929 128.591 202.426 128.591C201.924 128.591 201.516 128.184 201.516 127.684C201.516 127.183 201.924 126.776 202.426 126.776C202.929 126.776 203.337 127.183 203.337 127.684Z" fill="#FEFCFF"/>
<path d="M195.235 114.599C195.235 115.1 194.827 115.507 194.325 115.507C194.105 115.507 193.91 115.432 193.753 115.301C194.017 114.768 194.293 114.243 194.576 113.729C194.959 113.836 195.235 114.186 195.235 114.599Z" fill="#FEFCFF"/>
<path d="M193.351 130.532C193.854 130.532 194.262 130.126 194.262 129.624C194.262 129.123 193.854 128.717 193.351 128.717C192.848 128.717 192.441 129.123 192.441 129.624C192.441 130.126 192.848 130.532 193.351 130.532Z" fill="#FEFCFF"/>
<path d="M186.562 133.18C186.562 133.681 186.154 134.088 185.652 134.088C185.532 134.088 185.419 134.063 185.319 134.025C185.564 133.474 185.802 132.917 186.047 132.366C186.349 132.51 186.562 132.823 186.562 133.18Z" fill="#FEFCFF"/>
<path d="M193.207 140.692C193.207 140.937 193.113 141.156 192.949 141.318C192.409 141.124 191.888 140.905 191.386 140.674C191.398 140.179 191.8 139.785 192.296 139.785C192.792 139.785 193.207 140.192 193.207 140.692Z" fill="#FEFCFF"/>
<path d="M203.481 145.957C203.984 145.957 204.392 145.551 204.392 145.05C204.392 144.548 203.984 144.142 203.481 144.142C202.979 144.142 202.571 144.548 202.571 145.05C202.571 145.551 202.979 145.957 203.481 145.957Z" fill="#FEFCFF"/>
<path d="M198.156 153.05C198.156 153.551 197.748 153.958 197.245 153.958C196.743 153.958 196.334 153.551 196.334 153.05C196.334 152.549 196.743 152.142 197.245 152.142C197.748 152.142 198.156 152.549 198.156 153.05Z" fill="#FEFCFF"/>
<path d="M208.204 113.792C208.204 114.293 207.796 114.7 207.294 114.7C206.791 114.7 206.383 114.293 206.383 113.792C206.383 113.291 206.791 112.884 207.294 112.884C207.796 112.884 208.204 113.291 208.204 113.792Z" fill="#FEFCFF"/>
<path d="M219.691 109.529C220.194 109.529 220.602 109.122 220.602 108.621C220.602 108.12 220.194 107.713 219.691 107.713C219.188 107.713 218.78 108.12 218.78 108.621C218.78 109.122 219.188 109.529 219.691 109.529Z" fill="#FEFCFF"/>
<path d="M231.586 113.473C231.466 113.535 231.335 113.567 231.196 113.567C230.694 113.567 230.286 113.16 230.286 112.659C230.286 112.383 230.405 112.139 230.6 111.983C230.939 112.458 231.265 112.953 231.586 113.473Z" fill="#FEFCFF"/>
<path d="M231.335 124.71C231.247 124.741 231.152 124.76 231.052 124.76C230.55 124.76 230.141 124.353 230.141 123.846C230.141 123.339 230.537 122.951 231.033 122.938C231.146 123.52 231.247 124.115 231.335 124.71Z" fill="#FEFCFF"/>
<path d="M213.285 135.459C213.788 135.459 214.196 135.052 214.196 134.551C214.196 134.05 213.788 133.643 213.285 133.643C212.782 133.643 212.374 134.05 212.374 134.551C212.374 135.052 212.782 135.459 213.285 135.459Z" fill="#FEFCFF"/>
<path d="M239.191 135.791C239.028 135.997 238.777 136.129 238.488 136.129C237.985 136.129 237.577 135.722 237.577 135.221C237.577 134.72 237.985 134.307 238.488 134.307C238.651 134.307 238.808 134.351 238.94 134.432C239.028 134.889 239.116 135.34 239.191 135.791Z" fill="#FEFCFF"/>
<path d="M232.98 153.47C233.483 153.47 233.891 153.063 233.891 152.562C233.891 152.06 233.483 151.654 232.98 151.654C232.477 151.654 232.069 152.06 232.069 152.562C232.069 153.063 232.477 153.47 232.98 153.47Z" fill="#FEFCFF"/>
<path d="M240.07 163.53C240.008 164.018 239.951 164.513 239.876 165.001C239.75 165.07 239.612 165.107 239.461 165.107C238.959 165.107 238.551 164.7 238.551 164.2C238.551 163.699 238.959 163.286 239.461 163.286C239.694 163.286 239.907 163.373 240.07 163.53Z" fill="#FEFCFF"/>
<path d="M213.203 167.042C213.706 167.042 214.114 166.635 214.114 166.134C214.114 165.633 213.706 165.226 213.203 165.226C212.7 165.226 212.293 165.633 212.293 166.134C212.293 166.635 212.7 167.042 213.203 167.042Z" fill="#FEFCFF"/>
<path d="M229.513 165.489C229.513 165.99 229.105 166.397 228.603 166.397C228.1 166.397 227.692 165.99 227.692 165.489C227.692 164.988 228.1 164.582 228.603 164.582C229.105 164.582 229.513 164.988 229.513 165.489Z" fill="#FEFCFF"/>
<path d="M231.134 175.668C231.134 175.963 230.995 176.219 230.776 176.382C230.33 176.013 229.871 175.65 229.388 175.305C229.532 174.986 229.852 174.761 230.223 174.761C230.725 174.761 231.134 175.168 231.134 175.668Z" fill="#FEFCFF"/>
<path d="M227.146 139.741C227.648 139.741 228.056 139.334 228.056 138.833C228.056 138.332 227.648 137.925 227.146 137.925C226.643 137.925 226.235 138.332 226.235 138.833C226.235 139.334 226.643 139.741 227.146 139.741Z" fill="#FEFCFF"/>
<path d="M217.581 122.375C218.084 122.375 218.491 121.968 218.491 121.467C218.491 120.966 218.084 120.559 217.581 120.559C217.078 120.559 216.67 120.966 216.67 121.467C216.67 121.968 217.078 122.375 217.581 122.375Z" fill="#FEFCFF"/>
<path d="M226.775 110.981C228.106 113.141 229.155 115.476 229.978 117.886C230.82 120.296 231.335 122.801 231.743 125.317C232.12 127.84 232.346 130.382 232.383 132.93C232.434 135.478 232.352 138.026 232.182 140.561L232.164 140.874L231.862 140.949C229.84 141.475 227.792 141.944 225.714 142.195C223.641 142.483 221.544 142.564 219.452 142.552C217.361 142.539 215.27 142.358 213.203 142.051C211.131 141.738 209.09 141.325 207.08 140.63L206.772 140.523L206.848 140.198C207.187 138.689 207.382 137.093 207.539 135.521C207.696 133.944 207.783 132.354 207.84 130.77C207.915 129.18 207.934 127.59 207.934 126C207.928 124.409 207.89 122.813 207.853 121.223L208.054 123.608L208.192 126C208.261 127.596 208.317 129.192 208.311 130.789C208.298 132.385 208.255 133.988 208.141 135.584C208.022 137.187 207.878 138.764 207.564 140.379L207.331 139.947C209.266 140.536 211.294 140.962 213.323 141.237C215.358 141.519 217.405 141.675 219.459 141.669C221.512 141.669 223.56 141.556 225.594 141.281C227.635 141.056 229.639 140.611 231.63 140.116L231.309 140.511C231.498 137.994 231.598 135.471 231.579 132.955C231.548 130.438 231.441 127.915 231.121 125.417C230.801 122.92 230.317 120.44 229.614 118.018C228.917 115.595 227.956 113.241 226.781 110.994L226.775 110.981Z" fill="#872215"/>
<path d="M208.889 90.6102C208.889 92.0626 207.708 93.2458 206.245 93.2458C204.781 93.2458 203.601 92.0688 203.601 90.6102C203.601 89.1515 204.781 87.9746 206.245 87.9746C207.708 87.9746 208.889 89.1515 208.889 90.6102Z" stroke="#FEFCFF" stroke-width="0.5" stroke-miterlimit="10"/>
<path d="M201.635 91.4866C201.635 92.939 200.454 94.1222 198.991 94.1222C197.528 94.1222 196.347 92.9453 196.347 91.4866C196.347 90.028 197.528 88.8511 198.991 88.8511C200.454 88.8511 201.635 90.028 201.635 91.4866Z" stroke="#FEFCFF" stroke-width="0.5" stroke-miterlimit="10"/>
<path d="M201.578 91.1111C201.578 91.1111 202.125 90.3411 203.582 90.892" stroke="#FEFCFF" stroke-width="0.5" stroke-miterlimit="10"/>
<path d="M208.568 89.377L213.172 88.3628" stroke="#FEFCFF" stroke-width="0.5" stroke-linecap="round" stroke-linejoin="round"/>
<path d="M217.367 67.5349C216.796 67.1968 216.343 66.6709 215.973 66.1326C215.59 65.5754 215.238 64.9744 215.125 64.3046C215.043 63.8288 215.125 63.3217 215.571 63.0588C216.456 62.5267 217.304 63.4907 217.606 64.2295C217.901 63.6785 218.265 63.2528 218.856 63.0525C219.364 62.8835 219.854 63.0525 220.187 63.4594C220.689 64.0792 220.357 64.9243 219.967 65.5065C219.502 66.2014 218.812 66.7523 218.096 67.1655C217.863 67.3032 217.618 67.4222 217.367 67.5286" fill="#9610FF"/>
<path d="M186.587 74.803C185.953 74.6152 185.382 74.2271 184.879 73.7951C184.371 73.3569 183.874 72.8623 183.592 72.2425C183.391 71.8043 183.347 71.291 183.705 70.9216C184.427 70.1829 185.488 70.9029 185.972 71.5414C186.116 70.9342 186.361 70.4271 186.883 70.089C187.335 69.801 187.85 69.8323 188.277 70.1454C188.924 70.6149 188.817 71.5226 188.585 72.1862C188.308 72.975 187.787 73.6824 187.197 74.2646C187.002 74.4524 186.801 74.634 186.587 74.803Z" fill="#9610FF"/>
<path d="M227.516 84.6066C226.982 84.2185 226.58 83.6488 226.26 83.0791C225.927 82.4906 225.638 81.8583 225.582 81.1822C225.544 80.7002 225.676 80.2056 226.141 79.9803C227.076 79.5295 227.824 80.575 228.056 81.3387C228.402 80.8191 228.804 80.4247 229.413 80.287C229.934 80.1681 230.411 80.3747 230.706 80.8191C231.152 81.4827 230.738 82.2966 230.292 82.8412C229.764 83.486 229.03 83.9743 228.276 84.3186C228.031 84.4313 227.774 84.5315 227.516 84.6129" fill="#9610FF"/>
<path d="M27.715 263.187C27.715 263.187 27.2314 242.346 14.3442 237.739" stroke="#9610FF" stroke-miterlimit="10"/>
<path d="M4.27063 228.881C4.63489 232.105 6.24264 235.172 8.68568 237.313C11.135 239.454 14.5766 240.882 18.6525 240.13C18.6588 240.086 18.6651 240.049 18.6713 240.005C19.224 236.631 17.1452 233.213 14.2626 231.366C11.336 229.488 7.74363 228.956 4.27063 228.881Z" fill="#9610FF"/>
<path d="M20.6434 248.732C19.5255 245.859 16.3226 244.187 13.2327 244.118C10.1428 244.049 7.17846 245.308 4.50305 246.854C6.28037 249.133 8.92438 250.717 11.7756 251.205C14.6269 251.699 17.8989 251.186 20.6434 248.732Z" fill="#9610FF"/>
<path d="M15.9205 248.769C15.9205 248.769 22.9733 247.192 25.768 251.918" stroke="#9610FF" stroke-miterlimit="10"/>
<path d="M4.27063 228.881C4.27063 228.881 16.8187 239.116 18.0747 239.842C18.2757 239.961 18.4515 240.074 18.6588 240.218C19.2114 236.844 17.1452 233.213 14.2626 231.366C11.336 229.488 7.74363 228.956 4.27063 228.881Z" fill="#E86D74"/>
<path d="M26.1323 220.698C30.2648 225.951 36.746 244.124 35.6972 263.105" stroke="#9610FF" stroke-miterlimit="10"/>
<path d="M30.9493 229.782C16.0901 225.775 16.5611 211.333 16.5611 211.333C32.8334 217.543 30.8299 224.661 30.9493 229.782Z" fill="#9610FF"/>
<path d="M30.9493 229.782C16.0901 225.775 16.5611 211.333 16.5611 211.333C16.5611 211.333 28.3053 223.102 30.9493 229.782Z" fill="#E86D74"/>
<path d="M41.0542 241.163C41.0542 241.163 34.8242 246.021 35.7034 254.973" stroke="#9610FF" stroke-miterlimit="10"/>
<path d="M38.4228 243.936C51.1027 240.518 50.7008 228.192 50.7008 228.192C36.8151 233.488 38.5296 239.561 38.4228 243.936Z" fill="#9610FF"/>
<path d="M38.4231 243.936C51.103 240.518 50.7011 228.192 50.7011 228.192C50.7011 228.192 40.684 238.233 38.4231 243.936Z" fill="#E86D74"/>
<path d="M12.6045 211.433C13.1446 211.703 13.6848 211.972 14.2249 212.241C14.3693 212.316 14.5703 212.285 14.6519 212.128C14.7273 211.99 14.6959 211.784 14.5389 211.703C13.9988 211.433 13.4587 211.164 12.9186 210.895C12.7741 210.82 12.5731 210.851 12.4915 211.008C12.4161 211.145 12.4475 211.352 12.6045 211.433Z" fill="#9610FF"/>
<path d="M14.2939 208.973C14.5012 209.38 14.7147 209.787 14.9219 210.194C14.9973 210.338 15.2108 210.394 15.349 210.306C15.4997 210.212 15.5374 210.037 15.462 209.881C15.2548 209.474 15.0413 209.067 14.834 208.66C14.7586 208.516 14.5451 208.459 14.407 208.547C14.2562 208.641 14.2185 208.816 14.2939 208.973Z" fill="#9610FF"/>
<path d="M16.5862 207.859C16.5611 208.422 16.5297 208.992 16.5046 209.555C16.4983 209.718 16.6553 209.874 16.8186 209.868C16.9944 209.862 17.12 209.73 17.1326 209.555C17.1577 208.992 17.1891 208.422 17.2142 207.859C17.2205 207.696 17.0635 207.539 16.9002 207.546C16.7244 207.552 16.5988 207.683 16.5862 207.859Z" fill="#9610FF"/>
<path d="M2.42415 244.506C2.76957 244.838 3.11498 245.17 3.46668 245.502C3.586 245.614 3.79325 245.627 3.9063 245.502C4.01935 245.376 4.03191 245.182 3.9063 245.063C3.56088 244.732 3.21547 244.4 2.86377 244.068C2.74445 243.955 2.5372 243.943 2.42415 244.068C2.31111 244.193 2.29854 244.387 2.42415 244.506Z" fill="#9610FF"/>
<path d="M1.51356 247.549C1.9469 247.467 2.38652 247.386 2.81986 247.305C2.98315 247.273 3.08363 247.073 3.03967 246.923C2.98315 246.754 2.82614 246.672 2.65657 246.704C2.22323 246.785 1.78361 246.866 1.35027 246.948C1.18698 246.979 1.0865 247.179 1.13046 247.33C1.18698 247.499 1.34399 247.58 1.51356 247.549Z" fill="#9610FF"/>
<path d="M3.31599 248.369C3.03337 248.782 2.75076 249.195 2.46815 249.608C2.37394 249.74 2.43675 249.959 2.58119 250.034C2.7382 250.115 2.90777 250.065 3.00825 249.921C3.29086 249.508 3.57348 249.095 3.85609 248.682C3.9503 248.55 3.88749 248.331 3.74305 248.256C3.58604 248.175 3.41647 248.225 3.31599 248.369Z" fill="#9610FF"/>
<path d="M249.428 263.024C249.428 263.024 249.912 242.184 262.799 237.576" stroke="#9610FF" stroke-miterlimit="10"/>
<path d="M272.872 228.718C272.508 231.942 270.9 235.01 268.457 237.151C266.008 239.292 262.566 240.719 258.491 239.968C258.491 239.924 258.478 239.886 258.472 239.843C257.919 236.468 259.998 233.05 262.881 231.203C265.807 229.325 269.399 228.793 272.872 228.718Z" fill="#9610FF"/>
<path d="M256.5 248.569C257.618 245.696 260.821 244.024 263.91 243.956C267 243.887 269.965 245.145 272.64 246.691C270.863 248.97 268.219 250.554 265.367 251.042C262.516 251.537 259.244 251.023 256.5 248.569Z" fill="#9610FF"/>
<path d="M261.222 248.607C261.222 248.607 254.17 247.029 251.375 251.756" stroke="#9610FF" stroke-miterlimit="10"/>
<path d="M272.872 228.718C272.872 228.718 260.324 238.954 259.068 239.68C258.867 239.799 258.691 239.911 258.484 240.055C257.932 236.681 259.998 233.05 262.88 231.203C265.807 229.325 269.399 228.793 272.872 228.718Z" fill="#E86D74"/>
<path d="M251.011 220.536C246.878 225.788 240.397 243.962 241.446 262.943" stroke="#9610FF" stroke-miterlimit="10"/>
<path d="M246.2 229.619C261.059 225.613 260.588 211.17 260.588 211.17C244.316 217.381 246.319 224.499 246.2 229.619Z" fill="#9610FF"/>
<path d="M246.2 229.619C261.059 225.613 260.588 211.17 260.588 211.17C260.588 211.17 248.844 222.94 246.2 229.619Z" fill="#E86D74"/>
<path d="M236.089 241.007C236.089 241.007 242.319 245.865 241.44 254.817" stroke="#9610FF" stroke-miterlimit="10"/>
<path d="M238.72 243.774C226.04 240.356 226.442 228.029 226.442 228.029C240.328 233.325 238.613 239.398 238.72 243.774Z" fill="#9610FF"/>
<path d="M238.72 243.774C226.04 240.356 226.442 228.029 226.442 228.029C226.442 228.029 236.459 238.071 238.72 243.774Z" fill="#E86D74"/>
<path d="M255.319 206.081C255.413 206.97 255.507 207.865 255.602 208.754C255.62 208.923 255.734 209.067 255.916 209.067C256.073 209.067 256.242 208.923 256.23 208.754C256.135 207.865 256.041 206.97 255.947 206.081C255.928 205.912 255.815 205.768 255.633 205.768C255.476 205.768 255.306 205.912 255.319 206.081Z" fill="#9610FF"/>
<path d="M259.458 205.993C259.257 206.763 259.05 207.527 258.849 208.297C258.805 208.46 258.905 208.635 259.068 208.679C259.232 208.723 259.407 208.622 259.451 208.46C259.652 207.69 259.86 206.926 260.061 206.156C260.105 205.993 260.004 205.818 259.841 205.774C259.678 205.73 259.502 205.83 259.458 205.993Z" fill="#9610FF"/>
<path d="M261.417 210.237C262.108 210.006 262.805 209.78 263.496 209.549C263.653 209.499 263.76 209.336 263.716 209.167C263.672 209.01 263.496 208.898 263.333 208.948C262.642 209.179 261.945 209.405 261.254 209.636C261.097 209.687 260.99 209.849 261.034 210.018C261.078 210.175 261.254 210.288 261.417 210.237Z" fill="#9610FF"/>
<path d="M273.444 245.408C273.771 245.045 274.097 244.688 274.424 244.325C274.53 244.206 274.549 244.006 274.424 243.887C274.304 243.78 274.097 243.755 273.984 243.887C273.657 244.25 273.331 244.607 273.004 244.97C272.898 245.089 272.879 245.289 273.004 245.408C273.124 245.514 273.331 245.539 273.444 245.408Z" fill="#9610FF"/>
<path d="M274.229 246.716C274.713 246.76 275.202 246.797 275.686 246.841C275.849 246.854 276.006 246.691 276 246.528C275.994 246.347 275.862 246.234 275.686 246.215C275.202 246.171 274.713 246.134 274.229 246.09C274.066 246.078 273.909 246.24 273.915 246.403C273.921 246.585 274.053 246.697 274.229 246.716Z" fill="#9610FF"/>
<path d="M273.519 248.463C273.965 248.87 274.411 249.27 274.857 249.677C274.976 249.784 275.177 249.802 275.297 249.677C275.403 249.558 275.429 249.352 275.297 249.239C274.851 248.832 274.405 248.431 273.959 248.025C273.84 247.918 273.639 247.899 273.519 248.025C273.413 248.143 273.387 248.35 273.519 248.463Z" fill="#9610FF"/>
<path d="M0 263.187H275.686" stroke="#9610FF" stroke-miterlimit="10"/>
</svg>
