<svg width="228" height="156" viewBox="0 0 228 156" fill="none" xmlns="http://www.w3.org/2000/svg">
<g clip-path="url(#clip0_191_8766)">
<path d="M29.6831 150.012C34.1084 151.437 38.628 152.568 43.2015 153.394C51.2562 154.849 59.4484 155.358 67.623 155.731C73.4798 155.997 79.3583 156.196 85.1977 155.666C89.821 155.246 94.389 154.373 98.949 153.499C102.457 152.828 105.965 152.156 109.474 151.485C110.661 151.257 112.129 150.725 112.186 149.511C112.248 148.143 110.503 147.56 109.149 147.412C88.6655 145.185 68.0404 144.369 47.4396 144.66C43.0035 144.722 38.1109 145.02 34.9353 148.134L29.6831 150.009V150.012Z" fill="#E0E0E0"/>
<path d="M105.26 37.6941C105.653 38.329 105.001 38.9288 104.379 39.1143C103.518 39.3796 102.578 39.3796 101.692 39.5597C100.219 39.8548 98.6474 40.6495 97.6818 41.715C97.5431 41.7895 97.3936 41.845 97.2387 41.8897C95.8206 42.2796 96.1398 40.6441 96.5465 39.974C97.7101 38.0637 100.059 37.3082 102.288 37.0537C103.253 36.944 104.681 36.7585 105.257 37.6941H105.26Z" fill="#4E4352"/>
<path d="M203.833 150.624H208.196C207.65 150.668 207.102 150.689 206.535 150.704C205.639 150.728 204.729 150.719 203.833 150.624Z" fill="#916060"/>
<path d="M200.827 149.889L200.757 150.059C194.141 148.674 189.683 143.772 185.444 138.776C185.305 138.611 185.165 138.446 185.021 138.277C181.185 133.695 177.792 128.854 174.294 124.007C171.781 120.53 169.08 117.185 166.672 113.628L166.472 113.693C165.686 112.243 164.537 111.007 163.632 109.637C162.249 107.562 161.025 105.395 159.557 103.37C158.179 101.464 156.538 99.6333 155.542 97.478C154.99 96.292 154.427 94.9368 154.398 93.6073C154.363 91.9217 154.715 89.8761 153.84 88.3611L153.949 88.2311C152.616 86.5104 151.013 84.9656 149.636 83.2692C148.919 82.3892 148.143 81.298 148.203 80.0985C148.267 78.7378 149.158 77.7279 150.053 76.8018C150.291 76.5568 150.535 76.3171 150.784 76.087C152.158 74.7913 153.65 73.6717 155.068 72.4261C157.257 70.5159 159.197 68.3497 161.376 66.434C162.063 65.8288 163.077 64.8784 164.087 64.789C164.207 64.7795 164.331 64.7795 164.451 64.7944C165.223 64.8892 165.849 65.4795 166.412 65.9696C167.745 67.1149 168.91 68.615 170.009 69.9865L170.129 69.8917C170.576 70.4617 171.049 71.0127 171.536 71.5529L171.739 71.3728C176.55 73.1329 179.641 77.1403 182.954 80.9108C185.217 83.4872 187.65 85.9377 189.959 88.4775C191.551 90.2335 193.387 91.739 195.083 93.3839C198.98 97.1747 202.845 100.976 206.785 104.717C210.552 108.289 214.949 111.979 217.567 116.555C218.418 118.04 218.876 119.691 219.353 121.322C220.795 126.243 220.721 130.71 220.104 135.731C219.328 142.038 217.199 147.92 210.652 150.14C209.826 150.421 209.019 150.556 208.194 150.625H203.821C202.791 150.516 201.781 150.295 200.826 149.89L200.827 149.889Z" fill="#A736FF"/>
<path d="M62.3694 146.987C61.7728 147.778 60.9863 148.663 60.1257 149.458C59.2302 150.288 58.2551 151.014 57.3353 151.413C53.6884 152.978 49.0516 151.628 45.4492 150.522C45.3899 150.502 45.3253 150.482 45.2647 150.467L45.4236 149.941C43.0749 143.665 42.1053 134.821 45.0559 128.705L45.4088 128.749C47.8665 127.613 50.1102 126.884 52.1356 125.089L52.2703 125.044L52.8077 126.704C56.2458 123.102 59.4591 120.121 64.2602 118.031C65.2554 117.596 70.3797 115.33 69.9164 118.291C69.6134 120.251 66.6277 121.922 65.1894 122.937C61.9263 125.248 59.1601 127.123 57.2693 130.595C61.3984 127.834 65.7119 126.548 70.6827 125.514C71.5284 125.334 72.3998 125.198 73.2603 125.133C73.7882 125.093 74.2946 125.059 74.8279 125.103C75.1565 125.128 75.4851 125.248 75.7827 125.389C78.355 126.609 74.867 129.005 73.7828 129.59C73.6132 129.685 73.4448 129.776 73.2697 129.865C74.339 129.726 75.3935 129.835 75.7369 130.825C76.2541 132.325 74.6676 133.641 73.5081 134.216C70.0659 135.937 66.2048 136.917 62.9552 139.028C62.0098 139.643 59.8402 140.788 59.9008 142.184C63.5976 140.548 66.8311 140.108 70.9157 139.949C71.7614 139.919 75.5821 139.703 74.3431 141.644C73.3088 143.264 70.9157 143.404 69.2538 143.775C66.8162 144.315 64.2332 145.21 62.4232 147.025L62.368 146.985L62.3694 146.987Z" fill="#FDAA92"/>
<path d="M94.5035 29.3462C94.389 31.5422 94.3486 33.6081 94.5035 35.7134L93.9514 35.754C89.4789 34.323 87.6729 29.0416 87.9813 24.8108C88.1362 22.6405 88.9914 20.5393 90.0216 18.6493C93.1016 12.9631 98.1612 8.80135 103.609 5.52095C105.505 4.381 107.34 3.20991 109.394 2.3651C120.499 -2.20689 133.802 0.269319 143.907 6.2412C148.086 8.712 151.201 12.3877 153.071 16.7688C151.758 16.0932 150.962 17.6989 150.947 19C150.663 18.2053 150.142 17.569 149.246 17.7802C147.773 18.12 147.496 20.5908 147.529 21.7564C147.599 24.1216 148.972 26.1579 149.549 28.408C149.992 30.1179 149.753 31.8739 149.808 33.6244C149.236 32.9989 148.659 32.3788 148.201 31.664C147.719 30.9086 147.201 30.1734 146.768 29.3827C146.451 28.7979 146.166 28.0478 145.54 27.727C144.495 27.1963 143.744 28.2266 143.416 29.112C142.809 30.7529 143.655 32.5481 144.456 33.9886L144.436 34.0089C145.391 36.1751 146.938 38.2207 147.097 40.6604C147.247 42.9159 146.515 45.2216 145.863 47.3932C145.839 47.4026 145.808 47.4135 145.784 47.4229C143.605 48.2028 143.182 45.1173 142.68 43.7865C142.118 42.2905 140.833 41.6257 139.919 40.4005C138.869 38.9952 138.397 36.8439 138.222 35.0635C129.889 35.0487 121.291 29.7415 115.903 23.6803L115.844 23.7358C116.281 25.6461 117.794 27.3262 119.008 28.7776C121.376 31.618 123.933 33.8085 127.078 35.6701C124.615 36.2604 121.948 35.7703 119.57 35.0852C112.431 33.0449 107.466 27.7825 103.704 21.5656C102.301 19.245 100.799 16.7945 100.277 14.0936L100.083 14.1342C99.7746 15.7047 99.5456 17.2752 99.108 18.8159C98.0629 22.4767 96.2327 25.9534 94.5358 29.3489H94.5062L94.5035 29.3462Z" fill="#4E4352"/>
<path d="M123.867 47.2022C124.026 48.6724 123.36 49.9586 122.375 50.0629C121.395 50.1685 120.47 49.0624 120.311 47.5866C120.152 46.1164 120.824 44.8356 121.803 44.7259C122.787 44.6203 123.714 45.7319 123.867 47.2022Z" fill="#4E4352"/>
<path d="M145.862 47.3918C146.514 45.2215 147.245 42.9159 147.096 40.659C146.937 38.218 145.389 36.1723 144.435 34.0075L144.455 33.9872C143.653 32.5467 142.808 30.7514 143.415 29.1106C143.744 28.2251 144.495 27.1949 145.539 27.7256C146.165 28.0451 146.449 28.7965 146.767 29.3813C147.199 30.172 147.718 30.9071 148.2 31.6626C148.658 32.3774 149.234 32.9975 149.807 33.623C149.751 31.8724 149.991 30.1165 149.548 28.4066C148.97 26.1564 147.598 24.1202 147.528 21.755C147.493 20.5894 147.772 18.1186 149.245 17.7787C150.141 17.5689 150.663 18.2039 150.946 18.9986C150.961 17.6975 151.757 16.0932 153.07 16.7674C153.219 16.8419 153.373 16.9475 153.533 17.0829C154.593 17.9832 154.986 19.4792 155.379 20.764C155.882 22.3751 156.225 24.0295 156.822 25.6149C157.15 26.4895 157.544 27.356 157.911 28.2251L157.996 28.1899C158.533 29.2256 159.344 30.126 159.976 31.1007C161.314 33.1613 162.474 35.2666 163.106 37.6575C163.901 40.6685 163.399 43.8446 163 46.8759C162.513 50.5327 161.856 54.1529 161.523 57.8287H161.503C161.527 60.3049 162.971 62.4156 164.075 64.491L164.09 64.7862C163.08 64.8755 162.065 65.8259 161.379 66.4311C159.2 68.3468 157.259 70.513 155.071 72.4233C153.653 73.6688 152.161 74.7885 150.787 76.0841L150.603 75.8797C149.21 74.2645 148.095 72.4436 146.976 70.6335C146.742 70.2585 146.518 69.8834 146.294 69.5084C144.991 67.2881 143.901 65.042 143.469 62.5415C143.334 61.7806 143.266 60.9913 143.266 60.1763C143.275 56.0402 144.425 52.3794 145.55 48.4478C145.649 48.0971 145.753 47.7478 145.863 47.3918H145.862Z" fill="#FDAA92"/>
<path d="M105.469 47.7966C105.627 49.2723 104.955 50.5531 103.976 50.6573C102.992 50.7629 102.065 49.6568 101.906 48.1811C101.752 46.7108 102.42 45.4301 103.404 45.3204C104.384 45.2148 105.31 46.3263 105.469 47.7966Z" fill="#4E4352"/>
<path d="M97.2939 49.8532C97.4879 51.3641 97.3141 52.9346 97.3182 54.459H97.2387C95.3183 53.1092 94.1736 50.1226 94.2786 47.8671C94.3338 46.7068 94.9655 45.0957 96.3081 44.9766C96.7162 46.5877 97.0892 48.2069 97.2926 49.8532H97.2939Z" fill="#FDAA92"/>
<path d="M128.205 39.1495C128.613 39.8143 128.931 41.4497 127.513 41.0652C127.358 41.0206 127.21 40.9651 127.07 40.8852C126.104 39.8197 124.533 39.029 123.059 38.7298C122.173 38.5552 121.233 38.5498 120.373 38.2898C119.751 38.1003 119.099 37.5046 119.492 36.8642C120.07 35.9287 121.497 36.1142 122.461 36.2238C124.69 36.4838 127.039 37.2392 128.203 39.1495H128.205Z" fill="#4E4352"/>
<path d="M122.464 36.2237C121.499 36.1141 120.071 35.9286 119.495 36.8641C119.101 37.5045 119.753 38.0988 120.375 38.2897C121.236 38.5497 122.176 38.5551 123.062 38.7297C124.535 39.0303 126.107 39.8196 127.073 40.8851C127.211 40.965 127.361 41.0205 127.516 41.0651C128.934 41.4496 128.615 39.8142 128.208 39.1494C127.044 37.2391 124.696 36.4837 122.467 36.2237H122.464ZM96.3095 44.9765C95.8166 43.0052 95.2752 41.0448 94.917 39.0492C94.7136 37.9134 94.583 36.8086 94.5035 35.7133C94.3486 33.6081 94.389 31.5421 94.5035 29.3461H94.5331C96.23 25.9506 98.0602 22.4739 99.1053 18.8131C99.543 17.2724 99.7719 15.7019 100.08 14.1314L100.274 14.0908C100.797 16.7918 102.3 19.2423 103.702 21.5628C107.463 27.7797 112.428 33.0408 119.567 35.0824C121.946 35.7675 124.612 36.2576 127.075 35.6673C123.931 33.8071 121.373 31.6166 119.006 28.7748C117.792 27.3248 116.28 25.6433 115.841 23.733L115.9 23.6775C121.288 29.7387 129.886 35.0459 138.219 35.0608C138.393 36.8411 138.866 38.9924 139.916 40.3977C140.832 41.6229 142.116 42.2877 142.677 43.7837C143.179 45.1145 143.602 48.2 145.781 47.4202C145.806 47.4107 145.837 47.3999 145.861 47.3904C145.752 47.7451 145.647 48.0957 145.547 48.4464C144.422 52.378 143.274 56.0389 143.263 60.1749C143.263 60.9899 143.333 61.7806 143.466 62.5401L143.267 62.5753C142.401 64.556 140.774 66.427 139.471 68.1667L139.426 68.1315C139.173 68.4213 138.913 68.7123 138.65 68.9912C138.545 69.1063 138.436 69.2214 138.333 69.3365C135.919 71.8871 133.264 74.0384 129.994 75.5182C124.825 77.8644 118.715 77.9145 113.456 75.8729C113.098 75.7335 112.739 75.5872 112.391 75.4275C110.849 74.7276 109.515 73.7622 108.247 72.6968C107.371 71.9711 106.526 71.1913 105.665 70.4263C103.59 68.5864 101.396 66.3607 100.092 63.8899L100.037 63.9102C98.3107 61.3595 97.4097 57.9383 97.3209 54.8569C97.3155 54.727 97.3155 54.5916 97.3155 54.4562C97.3101 52.9304 97.4852 51.3599 97.2912 49.8504C97.0879 48.2054 96.7135 46.5848 96.3068 44.9737L96.3095 44.9765ZM97.6831 41.715C98.6487 40.6495 100.22 39.8548 101.694 39.5597C102.58 39.3796 103.52 39.3796 104.38 39.1142C105.003 38.9288 105.654 38.329 105.261 37.694C104.683 36.7585 103.256 36.944 102.292 37.0537C100.063 37.3082 97.7141 38.0636 96.5505 39.9739C96.1425 40.6441 95.8247 42.2796 97.2427 41.8897C97.3976 41.845 97.5458 41.7895 97.6858 41.715H97.6831ZM122.375 50.0629C123.36 49.9573 124.028 48.6725 123.867 47.2022C123.713 45.7319 122.787 44.6217 121.803 44.726C120.822 44.8356 120.152 46.1164 120.311 47.5867C120.47 49.0624 121.395 50.1672 122.375 50.0629ZM103.978 50.6586C104.958 50.553 105.63 49.2736 105.47 47.7979C105.311 46.3276 104.386 45.2174 103.405 45.3217C102.421 45.4314 101.754 46.7121 101.908 48.1824C102.067 49.6581 102.992 50.7629 103.978 50.6586Z" fill="#FDAA92"/>
<path d="M53.792 115.892C54.1617 115.362 53.957 114.577 53.3349 114.138C52.7127 113.699 51.9087 113.772 51.5391 114.302C51.1694 114.831 51.3741 115.616 51.9962 116.055C52.6183 116.494 53.4223 116.421 53.792 115.892Z" fill="#280000"/>
<path d="M55.8553 115.182C55.8943 115.423 55.7233 115.618 55.4728 115.618C55.2223 115.618 54.9867 115.423 54.9476 115.182C54.9085 114.941 55.0796 114.746 55.3301 114.746C55.5806 114.746 55.8162 114.941 55.8553 115.182Z" fill="#A5ABC9"/>
<path d="M127.339 78.8609C123.059 80.7834 118.285 81.5646 113.616 81.1476C113.744 81.6241 113.91 82.0899 114.14 82.5339C116.419 86.9299 122.529 86.345 126.141 84.3048C131.121 81.4901 134.683 76.1044 137.469 71.0437C134.753 74.3891 131.262 77.1009 127.339 78.8636V78.8609Z" fill="#FDAA92"/>
<path d="M127.339 78.8609C131.262 77.0996 134.753 74.3878 137.469 71.041C137.778 70.4805 138.079 69.9228 138.37 69.3731L138.335 69.3379C135.922 71.8886 133.266 74.0398 129.996 75.5196C124.828 77.8659 118.718 77.9159 113.459 75.8743L113.354 76.0747C113.258 77.7278 113.177 79.5122 113.615 81.1463C118.283 81.5646 123.057 80.7821 127.338 78.8596L127.339 78.8609Z" fill="#F28F72"/>
<path d="M107.373 79.0168C109.23 80.2461 111.404 80.9771 113.619 81.1559C113.177 79.519 113.258 77.7319 113.355 76.0762L113.46 75.8758C113.102 75.7363 112.744 75.5901 112.395 75.4304C110.853 74.7304 109.519 73.7651 108.251 72.6996C106.263 72.8066 104.281 72.7673 102.302 72.6631C103.284 75.2408 105.079 77.4991 107.373 79.0181V79.0168Z" fill="#5261AB"/>
<path d="M97.9942 17.5461C99.5928 22.9615 103.074 27.7948 107.693 31.0116C112.313 34.2283 120.813 36.0005 126.418 35.6025L107.463 22.1004L104.415 13.8649L100.414 11.0881L97.9929 17.5433L97.9942 17.5461Z" fill="#4E4352"/>
<path d="M101.012 20.8752C96.5667 25.588 94.7877 30.9736 94.754 36.76C91.9434 36.1129 89.8479 33.4824 89.3052 30.6352C88.7625 27.788 89.5826 24.8122 91.025 22.3022C92.1279 20.3824 93.6686 18.6197 95.7075 17.7776C97.7464 16.9355 100.338 17.2089 101.828 18.8431L101.011 20.8738L101.012 20.8752Z" fill="#4E4352"/>
<path d="M153.468 150.257H228C226.609 150.997 224.952 151.408 223.401 151.743C216.669 153.203 209.874 154.67 202.987 154.683C193.559 154.699 184.324 151.988 174.911 151.429C169.492 151.107 164.058 151.501 158.647 151.932C157.717 152.006 156.767 152.079 155.866 151.835C154.966 151.59 153.72 151.159 153.468 150.257Z" fill="#E0E0E0"/>
<path d="M47.1932 120.553C46.5009 120.453 45.8316 120.163 45.134 120.196C43.6311 120.268 42.3813 121.802 40.8986 121.547C40.0084 121.394 39.3687 120.64 38.6886 120.043C38.0085 119.447 37.0052 118.968 36.2349 119.442C36.4234 119.968 36.6147 120.532 36.4908 121.079C36.3669 121.624 35.7891 122.105 35.2679 121.906C34.7414 121.705 34.6283 121.03 34.4815 120.484C34.1771 119.355 33.3745 118.374 32.3321 117.855C31.889 117.634 31.3032 117.515 30.9369 117.851C30.4413 118.306 30.7672 119.13 31.1537 119.683C31.5402 120.235 31.9739 120.961 31.6062 121.525C31.2359 121.085 30.4548 121.16 30.1127 121.621C29.7706 122.083 29.8716 122.791 30.277 123.199C30.8197 123.743 31.7126 123.614 32.3873 123.873C33.2506 124.203 34.0774 124.612 34.9609 124.896C36.1918 125.293 37.5857 125.296 38.6738 126.066C39.1586 126.409 39.5465 126.86 39.9182 127.32C40.0973 127.542 40.2508 127.786 40.4555 127.986C40.6858 128.211 40.9026 128.262 41.2097 128.3C41.5706 128.345 41.9504 128.296 42.314 128.288C42.7032 128.278 43.0924 128.278 43.4803 128.32C43.926 128.368 44.3664 128.472 44.7718 128.667C44.8553 128.706 44.9374 128.747 45.0209 128.787C45.033 128.762 45.0451 128.733 45.0573 128.708L45.4101 128.752C47.8679 127.616 50.1115 126.887 52.137 125.091L52.2717 125.047L50.6367 119.971C49.5055 120.357 48.3621 120.724 47.1959 120.553H47.1932Z" fill="#5261AB"/>
<path d="M47.6578 120.594C48.6638 120.625 49.6536 120.307 50.6354 119.971L49.9822 117.943C49.4745 118.614 48.9668 119.29 48.3918 119.902C48.1642 120.143 47.9191 120.376 47.6592 120.594H47.6578Z" fill="#5261AB"/>
<path d="M74.7498 104.677C74.3539 104.342 73.7223 104.487 73.3371 104.835C72.9519 105.182 72.7405 105.676 72.49 106.131C71.7385 107.497 70.6248 108.532 69.3158 109.334L73.1553 109.327V109.368C76.0063 109.412 76.2555 111.564 76.6527 112.769C76.6581 112.778 76.6581 112.789 76.6622 112.798L76.7995 113.226C76.2581 110.688 75.7168 108.148 75.1754 105.609C75.1027 105.268 75.0151 104.901 74.7498 104.678V104.677Z" fill="#5261AB"/>
<path d="M174.295 124.006C171.782 120.529 169.081 117.183 166.673 113.627L166.474 113.692C165.687 112.242 164.538 111.006 163.633 109.636C162.25 107.56 161.026 105.394 159.558 103.369C158.181 101.462 156.539 99.632 155.544 97.4767C154.992 96.2907 154.429 94.9355 154.399 93.606C154.364 91.9204 154.717 89.8747 153.841 88.3598L153.951 88.2298C152.617 86.509 151.015 84.9643 149.637 83.2679C148.921 82.3879 148.145 81.2967 148.204 80.0972C148.269 78.7365 149.159 77.7265 150.054 76.8005C150.293 76.5555 150.537 76.3158 150.786 76.0857L150.601 75.8812C149.209 74.2661 148.094 72.4451 146.974 70.635C146.74 70.26 146.517 69.885 146.293 69.51L146.084 69.6345C143.647 69.5398 141.049 69.4545 138.652 68.9941C138.547 69.1092 138.438 69.2243 138.334 69.3394L138.369 69.3746C135.459 74.8767 131.672 81.1775 126.139 84.3036C122.527 86.3439 116.417 86.9301 114.139 82.5328C113.91 82.0914 113.745 81.6297 113.618 81.1559C111.401 80.9785 109.229 80.2474 107.371 79.0168C105.078 77.4991 103.283 75.2395 102.301 72.6618C95.0247 72.2773 87.7955 71.0033 80.507 72.8242C68.8956 75.7201 59.785 83.957 49.9795 90.4095C48.4726 91.3992 46.7501 92.4105 45.029 92.9751C43.2971 93.5505 41.4467 93.4056 39.9492 94.6254C34.6202 98.9862 30.3874 104.284 24.606 108.164L24.6854 108.344C14.9742 112.556 6.35249 120.293 1.56624 129.72C-2.10088 136.953 0.905002 145.345 8.09919 148.711C14.6658 151.777 27.7856 151.716 35.2989 151.536C37.2544 151.486 38.9553 150.506 40.8461 150.181C42.3234 149.931 43.9759 150.361 45.4384 150.562L45.4478 150.521C45.3886 150.501 45.3239 150.48 45.2633 150.465L45.4222 149.94C43.0843 143.691 42.1133 134.897 45.0182 128.783C44.9347 128.743 44.8526 128.703 44.7691 128.663C44.3637 128.468 43.922 128.364 43.4776 128.316C43.0911 128.276 42.7005 128.274 42.3113 128.284C41.9477 128.293 41.5679 128.341 41.207 128.296C40.8999 128.258 40.6831 128.207 40.4528 127.982C40.2481 127.781 40.0946 127.538 39.9155 127.316C39.5451 126.857 39.1559 126.406 38.6711 126.062C37.583 125.292 36.1891 125.288 34.9582 124.892C34.0761 124.608 33.2492 124.199 32.3846 123.869C31.7086 123.61 30.8157 123.74 30.2743 123.195C29.8689 122.787 29.7679 122.079 30.11 121.617C30.4534 121.156 31.2332 121.081 31.6035 121.521C31.9712 120.957 31.5375 120.231 31.151 119.679C30.7645 119.126 30.4386 118.302 30.9342 117.847C31.3005 117.511 31.885 117.63 32.3294 117.851C33.3718 118.369 34.1758 119.351 34.4788 120.48C34.6256 121.026 34.7387 121.703 35.2653 121.902C35.7864 122.099 36.3642 121.62 36.4881 121.074C36.612 120.529 36.4207 119.966 36.2322 119.438C37.0025 118.964 38.0045 119.443 38.6859 120.039C39.366 120.634 40.0057 121.39 40.8959 121.543C42.3786 121.797 43.6284 120.264 45.1313 120.192C45.8289 120.159 46.4996 120.448 47.1905 120.549C47.3454 120.572 47.5002 120.584 47.6551 120.59C47.915 120.373 48.1601 120.14 48.3877 119.898C48.9641 119.286 49.4705 118.612 49.9782 117.939L48.3554 112.903L48.3958 112.893C48.2369 112.308 48.1224 111.713 48.3258 111.118C48.6436 110.188 49.7937 109.553 50.8078 109.343L51.4946 109.364L69.3117 109.331C70.6208 108.53 71.7345 107.494 72.486 106.128C72.7365 105.673 72.9479 105.179 73.3331 104.832C73.7182 104.486 74.3498 104.341 74.7458 104.674C75.0111 104.897 75.0999 105.264 75.1713 105.605C75.7127 108.144 76.2541 110.684 76.7955 113.222L88.0958 148.445L88.0864 148.451C88.3207 149.071 88.485 149.851 88.4944 150.612L153.913 150.617C153.937 144.68 154.559 138.703 155.146 132.802C155.505 129.18 155.525 125.54 156.181 121.953C156.639 119.453 156.255 115.172 157.898 113C159.44 114.021 160.738 115.566 162.186 116.726C166.479 120.171 170.713 123.752 174.578 127.679C178.02 131.174 181.275 135.091 185.017 138.273C181.181 133.691 177.787 128.85 174.29 124.003L174.295 124.006Z" fill="#A736FF"/>
<path d="M71.9419 143.711C72.4132 143.585 72.9088 143.465 73.2711 143.137C73.4731 142.953 73.6118 142.679 73.6361 142.41C72.4415 143.328 70.6059 143.477 69.2538 143.777C66.8162 144.317 64.2332 145.212 62.4232 147.028L62.368 146.987C61.7714 147.778 60.9849 148.663 60.1244 149.458C60.29 150.082 60.5392 150.689 60.8691 151.23C63.5962 147.587 67.5569 144.885 71.9419 143.711Z" fill="#DBE1FF"/>
<path d="M88.0904 148.454L88.0998 148.448L76.6621 112.797C76.6567 112.788 76.6567 112.777 76.6527 112.767C76.2541 111.562 76.0063 109.411 73.1553 109.366V109.326L51.4986 109.366L50.8118 109.346C49.7964 109.556 48.6476 110.191 48.3298 111.121C48.1264 111.717 48.2409 112.311 48.3998 112.896L48.3594 112.905L52.2703 125.044L52.8076 126.704C56.2458 123.103 59.4591 120.121 64.2602 118.031C65.2554 117.596 70.3797 115.33 69.9164 118.291C69.6134 120.251 66.6277 121.922 65.1894 122.937C61.9263 125.248 59.1601 127.124 57.2693 130.595C61.3984 127.834 65.7119 126.548 70.6827 125.514C71.5284 125.334 72.3997 125.198 73.2603 125.133C73.7882 125.093 74.2946 125.059 74.8279 125.104C75.1565 125.128 75.4851 125.248 75.7827 125.389C78.3549 126.609 74.8669 129.005 73.7828 129.59C73.6131 129.685 73.4448 129.776 73.2697 129.865C74.339 129.726 75.3935 129.835 75.7369 130.825C76.2541 132.325 74.6676 133.641 73.5081 134.216C70.0659 135.937 66.2048 136.917 62.9552 139.028C62.0098 139.643 59.8402 140.788 59.9008 142.184C63.5976 140.548 66.8311 140.108 70.9157 139.949C71.7614 139.919 75.5821 139.704 74.3431 141.644C74.1505 141.946 73.9094 142.196 73.636 142.407C73.6105 142.677 73.4731 142.95 73.2711 143.134C72.9102 143.463 72.4132 143.582 71.9419 143.708C67.5569 144.882 63.5976 147.586 60.8691 151.228C61.6004 152.431 62.7262 153.325 64.2036 153.432L64.2332 153.407L86.4878 153.667C88.0096 153.367 88.5133 152.012 88.4971 150.612C88.4877 149.851 88.3234 149.071 88.0891 148.451L88.0904 148.454Z" fill="white"/>
<path d="M143.431 62.5323C143.334 62.5323 143.248 62.4606 143.232 62.3604C143.119 61.6374 143.061 60.9009 143.064 60.1739C143.074 56.3168 144.059 52.8901 145.101 49.2645C145.185 48.9734 145.268 48.6823 145.353 48.3886C145.453 48.0393 145.559 47.6845 145.667 47.3258C145.699 47.2188 145.812 47.1579 145.919 47.1904C146.025 47.2229 146.086 47.3366 146.053 47.4436C145.946 47.7996 145.841 48.1516 145.741 48.4996C145.657 48.7934 145.573 49.0858 145.489 49.3769C144.455 52.9754 143.477 56.3736 143.466 60.1753C143.465 60.8806 143.519 61.5941 143.629 62.2968C143.647 62.4078 143.571 62.512 143.461 62.5296C143.45 62.531 143.439 62.5323 143.429 62.5323H143.431Z" fill="#CF6551"/>
<path d="M152.997 43.4388C152.892 43.4388 152.804 43.3576 152.796 43.252C152.615 40.8787 152.387 37.9246 151.179 35.7381C150.78 35.0192 150.256 34.4194 149.613 33.71C149.537 33.6274 149.543 33.4988 149.626 33.423C149.708 33.3472 149.836 33.3526 149.912 33.4365C150.433 34.0092 151.081 34.7227 151.533 35.5418C152.784 37.8054 153.025 40.9356 153.2 43.2209C153.208 43.3332 153.126 43.4307 153.015 43.4388C153.009 43.4388 153.004 43.4388 152.998 43.4388H152.997Z" fill="#CF6551"/>
<path d="M155.878 43.6906C155.778 43.6906 155.692 43.6175 155.678 43.5146C155.416 41.5881 155.362 39.5993 155.312 37.6754C155.246 35.1938 155.179 32.6269 154.655 30.1845C154.387 28.9308 153.794 27.7692 153.222 26.6455C152.733 25.6843 152.227 24.6919 151.91 23.6291C151.708 22.9495 151.556 22.2495 151.409 21.574C151.233 20.763 151.05 19.9236 150.782 19.1262C150.713 18.9217 150.632 18.7403 150.542 18.5846C150.485 18.4885 150.518 18.3639 150.613 18.3071C150.709 18.2502 150.833 18.2827 150.889 18.3788C150.993 18.5575 151.086 18.7647 151.163 18.9962C151.437 19.8139 151.623 20.6642 151.801 21.4873C151.947 22.1561 152.097 22.8479 152.295 23.514C152.6 24.5403 153.098 25.5177 153.579 26.4614C154.163 27.6081 154.768 28.7954 155.048 30.1006C155.579 32.5795 155.647 35.1654 155.715 37.6659C155.766 39.5776 155.818 41.5556 156.078 43.4605C156.093 43.5715 156.016 43.6744 155.906 43.6893C155.896 43.6893 155.887 43.6906 155.878 43.6906Z" fill="#CF6551"/>
<path d="M159.995 43.3818C159.884 43.3818 159.794 43.2924 159.793 43.1814C159.771 41.8952 159.566 40.035 159.387 38.3941C159.341 37.9772 159.297 37.5751 159.258 37.2027C159.182 36.4771 159.141 35.7324 159.102 35.0122C159.033 33.7626 158.962 32.4696 158.706 31.2417C158.436 29.9447 157.9 28.7032 157.382 27.5037L157.251 27.1991C157.207 27.0962 157.254 26.977 157.356 26.9324C157.459 26.8877 157.577 26.9351 157.622 27.038L157.752 27.3426C158.279 28.561 158.822 29.8215 159.1 31.1591C159.362 32.4168 159.434 33.7247 159.503 34.9905C159.542 35.7067 159.584 36.4459 159.658 37.1621C159.697 37.5331 159.741 37.9352 159.787 38.3508C159.969 40.0012 160.174 41.8722 160.195 43.176C160.197 43.2883 160.108 43.3804 159.997 43.3818H159.993H159.995Z" fill="#CF6551"/>
<path d="M153.951 88.4343C153.89 88.4343 153.831 88.4072 153.79 88.3558C153.068 87.4203 152.25 86.5199 151.456 85.6494C150.795 84.9224 150.11 84.171 149.482 83.3979C148.677 82.4083 147.941 81.3211 148.003 80.0877C148.073 78.6689 148.986 77.6156 149.914 76.6584C150.153 76.412 150.402 76.167 150.677 75.9097C150.757 75.8339 150.887 75.838 150.962 75.9192C151.039 76.0018 151.034 76.1291 150.953 76.2062C150.683 76.4594 150.438 76.699 150.204 76.9414C149.294 77.8796 148.471 78.8287 148.407 80.1067C148.352 81.2033 149.042 82.212 149.796 83.1394C150.417 83.9029 151.098 84.6516 151.755 85.3732C152.553 86.2492 153.378 87.1563 154.111 88.1053C154.179 88.1933 154.163 88.3219 154.074 88.3896C154.038 88.4181 153.994 88.4316 153.951 88.4316V88.4343Z" fill="#2B366E"/>
<path d="M157.948 86.0855C157.923 86.0855 157.898 86.0814 157.873 86.0706C157.77 86.0286 157.719 85.9108 157.76 85.8066C159.201 82.1633 161.201 78.5147 164.242 73.9752C164.304 73.8818 164.431 73.8574 164.522 73.9197C164.615 73.982 164.639 74.1092 164.577 74.2013C161.553 78.7164 159.565 82.3407 158.135 85.9555C158.104 86.0354 158.027 86.0841 157.948 86.0841V86.0855Z" fill="#2B366E"/>
<path d="M185.444 138.977C185.387 138.977 185.329 138.952 185.29 138.905C181.851 134.853 178.718 130.497 175.689 126.287C175.172 125.567 174.654 124.846 174.132 124.126C174.006 123.95 173.878 123.774 173.75 123.598C172.896 122.43 172.009 121.255 171.151 120.117C170.577 119.356 169.983 118.57 169.404 117.791C169.214 117.537 169.02 117.282 168.825 117.026C168.288 116.324 167.733 115.598 167.266 114.84C166.929 114.294 166.517 113.785 166.119 113.294C165.854 112.968 165.581 112.629 165.326 112.277C165.095 111.956 164.849 111.635 164.612 111.324C164.226 110.816 163.826 110.292 163.465 109.749C162.926 108.937 162.403 108.1 161.896 107.289C161.106 106.025 160.288 104.717 159.398 103.488C159.04 102.992 158.655 102.491 158.283 102.007C157.214 100.614 156.108 99.173 155.362 97.5619C154.776 96.2974 154.229 94.9436 154.2 93.606C154.19 93.1984 154.204 92.7815 154.218 92.3387C154.262 90.9727 154.307 89.5606 153.67 88.4613C153.614 88.3638 153.647 88.2406 153.743 88.1837C153.839 88.1269 153.963 88.1594 154.019 88.2569C154.714 89.4577 154.668 90.9294 154.622 92.3523C154.609 92.7882 154.596 93.2012 154.605 93.5978C154.633 94.861 155.161 96.1675 155.729 97.3914C156.457 98.9605 157.549 100.383 158.605 101.759C158.978 102.245 159.364 102.749 159.727 103.248C160.625 104.488 161.446 105.803 162.241 107.073C162.746 107.881 163.268 108.716 163.804 109.523C164.159 110.055 164.553 110.575 164.937 111.078C165.175 111.39 165.422 111.714 165.658 112.039C165.905 112.381 166.176 112.716 166.437 113.038C166.844 113.539 167.264 114.057 167.614 114.626C168.071 115.367 168.62 116.084 169.151 116.779C169.348 117.036 169.543 117.292 169.734 117.548C170.312 118.325 170.906 119.111 171.479 119.871C172.339 121.008 173.226 122.185 174.081 123.357C174.211 123.533 174.338 123.709 174.465 123.886C174.986 124.607 175.505 125.328 176.022 126.047C179.047 130.252 182.174 134.6 185.602 138.639C185.675 138.725 185.664 138.853 185.58 138.926C185.542 138.959 185.495 138.975 185.449 138.975L185.444 138.977Z" fill="#2B366E"/>
<path d="M215.243 122.502C215.16 122.502 215.084 122.451 215.053 122.37C214.933 122.048 214.82 121.718 214.709 121.399C214.347 120.345 214.005 119.35 213.399 118.447C211.9 116.211 209.923 114.686 207.829 113.071C207.186 112.575 206.522 112.063 205.876 111.53C204.247 110.187 202.845 108.612 201.689 107.25C199.887 105.125 198.139 102.894 196.448 100.735C194.747 98.5639 192.987 96.3178 191.173 94.1814C188.12 90.5842 184.943 86.9816 181.871 83.4981C179.461 80.766 176.97 77.9405 174.554 75.1367C173.953 74.4408 173.31 73.7544 172.686 73.091C172.151 72.5224 171.599 71.9348 171.075 71.3405C171.001 71.2565 171.009 71.1279 171.093 71.0534C171.176 70.979 171.304 70.9871 171.378 71.071C171.9 71.6613 172.449 72.2462 172.981 72.8121C173.607 73.4782 174.255 74.1673 174.86 74.87C177.274 77.6725 179.764 80.4966 182.174 83.2287C185.247 86.7135 188.427 90.3175 191.481 93.9174C193.299 96.0606 195.062 98.3094 196.765 100.484C198.454 102.639 200.2 104.867 201.996 106.986C203.14 108.335 204.527 109.893 206.132 111.216C206.773 111.744 207.434 112.254 208.074 112.748C210.195 114.384 212.198 115.93 213.733 118.221C214.368 119.168 214.735 120.236 215.09 121.268C215.199 121.585 215.311 121.911 215.43 122.229C215.469 122.335 215.416 122.451 215.311 122.491C215.288 122.499 215.264 122.503 215.24 122.503L215.243 122.502Z" fill="#2B366E"/>
<path d="M216.651 118.99C216.572 118.99 216.496 118.942 216.464 118.862C216.022 117.766 215.132 116.887 214.183 116.008C212.385 114.344 209.616 112.293 206.629 111.966C206.518 111.954 206.438 111.853 206.45 111.742C206.462 111.631 206.563 111.55 206.672 111.562C208.381 111.749 211.119 112.621 214.456 115.709C215.401 116.584 216.364 117.537 216.838 118.709C216.88 118.814 216.83 118.931 216.727 118.973C216.702 118.984 216.675 118.988 216.651 118.988V118.99Z" fill="#2B366E"/>
<path d="M118.661 92.8154C117.177 92.8154 115.702 92.5812 114.291 92.1006C114.186 92.0641 114.128 91.949 114.164 91.8434C114.201 91.7378 114.315 91.6809 114.42 91.7161C119.099 93.3096 124.502 92.1128 128.522 88.5928C128.607 88.5183 128.733 88.5278 128.807 88.6131C128.88 88.697 128.872 88.8256 128.787 88.9001C125.87 91.4548 122.239 92.8168 118.661 92.8168V92.8154Z" fill="#2B366E"/>
<path d="M76.3915 111.937C76.2945 111.937 76.2083 111.866 76.1921 111.767C74.7229 102.497 73.4085 92.7097 74.8535 83.9029C74.871 83.7919 74.9747 83.7174 75.0851 83.735C75.1956 83.754 75.2696 83.8582 75.2521 83.9679C73.8179 92.7138 75.1269 102.464 76.5908 111.702C76.6083 111.813 76.5329 111.917 76.4224 111.935C76.4117 111.936 76.4009 111.937 76.3901 111.937H76.3915Z" fill="#2B366E"/>
<path d="M67.4869 105.733C67.4708 105.733 67.456 105.731 67.4398 105.727C59.3258 103.78 53.1174 101.008 48.9857 97.4835C48.9008 97.4104 48.8901 97.2831 48.9628 97.1978C49.0355 97.1125 49.1621 97.1017 49.2469 97.1748C53.3302 100.657 59.482 103.401 67.5341 105.333C67.6432 105.359 67.7091 105.469 67.6835 105.578C67.662 105.672 67.5785 105.734 67.4869 105.734V105.733Z" fill="#2B366E"/>
<path d="M95.5768 134.992C95.3923 134.992 95.3492 134.865 95.3398 134.823C95.2967 134.624 95.461 134.541 95.9862 134.308C96.2569 134.188 96.5424 134.073 96.5667 134.065C97.1121 133.879 97.6737 133.718 98.2151 133.564C98.7457 133.412 99.2938 133.256 99.823 133.076C103.268 131.907 106.46 129.933 108.854 128.343C114.866 124.354 120.654 119.274 126.057 113.244C126.518 112.729 127 112.205 127.465 111.698C129.207 109.8 131.009 107.838 132.398 105.693C132.458 105.6 132.583 105.573 132.678 105.634C132.771 105.695 132.798 105.821 132.737 105.915C131.33 108.09 129.516 110.064 127.762 111.974C127.298 112.48 126.817 113.003 126.358 113.516C120.932 119.572 115.118 124.674 109.078 128.683C106.662 130.286 103.442 132.278 99.9523 133.462C99.4136 133.645 98.8615 133.802 98.3255 133.955C97.7881 134.108 97.232 134.266 96.6973 134.449C96.5896 134.49 96.0374 134.721 95.791 134.847C95.7694 134.923 95.7075 134.981 95.624 134.989C95.6078 134.991 95.5916 134.992 95.5768 134.992Z" fill="#2B366E"/>
<path d="M57.9764 136.098C57.9077 136.098 57.8404 136.063 57.8027 135.998C57.7461 135.902 57.7771 135.777 57.874 135.721C62.834 132.765 66.8944 131.047 71.0382 130.149C71.1972 130.116 71.3897 130.067 71.5931 130.014C72.1129 129.883 72.7607 129.719 73.3937 129.65C73.5054 129.638 73.6037 129.719 73.6159 129.83C73.628 129.941 73.5472 130.041 73.4368 130.053C72.8307 130.12 72.1991 130.279 71.6901 130.408C71.4827 130.461 71.286 130.51 71.1204 130.546C67.021 131.434 62.9983 133.137 58.0774 136.07C58.0451 136.089 58.0101 136.098 57.975 136.098H57.9764Z" fill="#CF6551"/>
<path d="M51.2791 128.533C51.2293 128.533 51.1795 128.515 51.1404 128.477C51.0596 128.4 51.0556 128.272 51.1323 128.19C51.6104 127.68 52.1653 127.088 52.7107 126.517C52.7875 126.436 52.9154 126.433 52.9962 126.512C53.077 126.589 53.0797 126.717 53.0016 126.799C52.4575 127.369 51.9027 127.96 51.4259 128.469C51.3855 128.511 51.333 128.533 51.2791 128.533Z" fill="#CF6551"/>
<path d="M19.0184 122.354C18.7046 122.354 18.3895 122.336 18.0744 122.294C17.9639 122.28 17.8858 122.178 17.8993 122.067C17.9141 121.956 18.0151 121.876 18.1255 121.892C19.6258 122.087 21.091 121.747 22.6397 121.387C24.0861 121.052 25.581 120.705 27.1028 120.836C27.2146 120.846 27.2967 120.945 27.2873 121.056C27.2778 121.168 27.1795 121.251 27.0691 121.241C25.6106 121.115 24.1467 121.455 22.7313 121.783C21.5193 122.064 20.2735 122.353 19.0184 122.353V122.354Z" fill="#2B366E"/>
<path d="M44.7704 128.87C44.7408 128.87 44.7112 128.863 44.6829 128.85C44.3327 128.682 43.9206 128.571 43.4574 128.522C43.0614 128.48 42.6588 128.483 42.3181 128.491C42.213 128.494 42.1066 128.499 41.9989 128.506C41.7322 128.521 41.4561 128.536 41.1841 128.502C40.8757 128.464 40.5983 128.41 40.3141 128.131C40.166 127.986 40.0461 127.825 39.9303 127.668C39.8751 127.593 39.8199 127.519 39.7606 127.447C39.4293 127.037 39.0374 126.573 38.558 126.231C37.8739 125.747 37.0672 125.581 36.212 125.407C35.777 125.317 35.3272 125.227 34.9003 125.089C34.1286 124.84 33.3758 124.516 32.6486 124.203C30.6379 123.338 28.7404 122.522 26.4873 123.2C26.3809 123.233 26.2678 123.172 26.2355 123.063C26.2032 122.956 26.2638 122.843 26.3715 122.81C28.7646 122.089 30.8211 122.973 32.8088 123.828C33.528 124.138 34.2714 124.458 35.0255 124.7C35.4323 124.831 35.8713 124.921 36.2955 125.007C37.1534 125.182 38.0409 125.364 38.7937 125.898C39.3149 126.268 39.7296 126.759 40.0785 127.19C40.1404 127.266 40.1983 127.346 40.2576 127.424C40.3693 127.574 40.4744 127.717 40.5996 127.838C40.7787 128.014 40.9417 128.06 41.238 128.097C41.475 128.127 41.7322 128.112 41.9814 128.097C42.0931 128.09 42.2036 128.085 42.3127 128.082C42.6668 128.074 43.0857 128.07 43.5045 128.116C44.0136 128.17 44.4715 128.293 44.862 128.481C44.963 128.53 45.0048 128.651 44.9576 128.752C44.9226 128.825 44.8512 128.867 44.7758 128.867L44.7704 128.87Z" fill="#2B366E"/>
<path d="M37.5776 144.433C37.4995 144.433 37.4254 144.387 37.3917 144.309C35.7487 140.464 36.7965 134.87 38.6792 131.333C38.7317 131.234 38.8543 131.196 38.9526 131.25C39.0509 131.303 39.0886 131.426 39.0347 131.525C37.1965 134.977 36.1703 140.421 37.7621 144.15C37.8065 144.253 37.758 144.372 37.6557 144.416C37.6301 144.427 37.6032 144.433 37.5762 144.433H37.5776Z" fill="#2B366E"/>
<path d="M32.3617 123.789C32.2634 123.789 32.1772 123.716 32.1624 123.616C31.5833 119.668 29.9767 117.182 26.9533 115.558C26.855 115.505 26.8173 115.382 26.8698 115.283C26.9223 115.184 27.0449 115.146 27.1432 115.199C30.2905 116.89 31.9617 119.468 32.561 123.556C32.5772 123.667 32.5004 123.77 32.39 123.786C32.3806 123.788 32.3698 123.789 32.3604 123.789H32.3617Z" fill="#2B366E"/>
<path d="M36.6874 122.875C36.678 122.875 36.6685 122.875 36.6591 122.874C36.5487 122.858 36.4719 122.755 36.4881 122.644C36.8638 119.983 35.4363 118.088 33.9266 116.082C33.7704 115.874 33.6142 115.667 33.4593 115.457C33.3933 115.368 33.4108 115.241 33.501 115.173C33.5899 115.107 33.7165 115.124 33.7839 115.215C33.9387 115.424 34.095 115.631 34.2498 115.836C35.812 117.913 37.288 119.874 36.8894 122.702C36.8746 122.803 36.7884 122.877 36.6901 122.877L36.6874 122.875Z" fill="#2B366E"/>
<path d="M114.781 65.1967C114.734 65.1967 114.687 65.1804 114.649 65.1466C114.564 65.0735 114.556 64.9448 114.629 64.8595C115.472 63.8834 116.874 63.128 118.576 62.734C120.114 62.3779 121.763 62.3414 123.1 62.6352C123.209 62.6595 123.278 62.7678 123.255 62.8775C123.23 62.9872 123.124 63.0576 123.014 63.0318C120.47 62.4727 116.617 63.1808 114.935 65.1263C114.894 65.1723 114.839 65.1967 114.782 65.1967H114.781Z" fill="#CF6551"/>
<path d="M97.3195 54.4713C97.2077 54.4713 97.1175 54.3792 97.1188 54.2668C97.1202 53.8187 97.1363 53.3597 97.1511 52.917C97.1848 51.9098 97.2212 50.8686 97.0973 49.8776C96.8858 48.1961 96.5047 46.5593 96.1223 45.0389C96.0953 44.9306 96.16 44.8196 96.269 44.7925C96.3768 44.7654 96.4872 44.8304 96.5141 44.9401C96.8993 46.4727 97.2845 48.1244 97.4973 49.8275C97.6252 50.8497 97.5888 51.9084 97.5538 52.9319C97.539 53.3719 97.5228 53.8268 97.5215 54.2695C97.5215 54.3819 97.4313 54.4713 97.3195 54.4713Z" fill="#CF6551"/>
<path d="M121.372 77.5629C118.661 77.5629 115.929 77.0593 113.337 76.0493C113.234 76.0087 113.181 75.8909 113.222 75.7867C113.262 75.6824 113.379 75.6296 113.483 75.6702C118.769 77.7321 124.911 77.6076 129.913 75.3372C132.892 73.9847 135.541 72.0121 138.252 69.1297C138.329 69.0485 138.456 69.0444 138.537 69.1216C138.618 69.1988 138.622 69.3274 138.545 69.4086C135.797 72.3302 133.106 74.3312 130.079 75.7068C127.357 76.9428 124.378 77.5629 121.372 77.5629Z" fill="#CF6551"/>
<path d="M112.88 58.9512C112.867 58.9512 112.855 58.9512 112.843 58.9472C112.308 58.8483 111.82 58.5965 111.403 58.3691C110.688 57.9778 109.708 57.4403 109.483 56.5224C109.316 55.8427 109.637 55.2091 109.918 54.65C109.975 54.539 110.03 54.4293 110.08 54.321C110.618 53.1662 111.071 51.9924 111.424 50.8308C112.01 48.9015 111.898 46.8098 111.109 44.9388C111.065 44.8359 111.113 44.7167 111.215 44.672C111.317 44.6287 111.436 44.6761 111.48 44.779C112.307 46.7367 112.424 48.9286 111.81 50.9485C111.452 52.1278 110.993 53.3205 110.446 54.4916C110.393 54.6026 110.337 54.7163 110.279 54.8314C110.016 55.3527 109.746 55.8901 109.876 56.4236C110.058 57.1682 110.948 57.6556 111.597 58.0103C111.987 58.2228 112.44 58.4584 112.917 58.5464C113.026 58.5667 113.099 58.6723 113.079 58.7833C113.061 58.8808 112.976 58.9499 112.881 58.9499L112.88 58.9512Z" fill="#CF6551"/>
<path d="M86.7572 153.873H86.7545L64.3383 153.615C64.3046 153.632 64.2669 153.64 64.2306 153.638C61.8065 153.464 60.4086 151.362 59.9103 149.45C59.882 149.342 59.9466 149.231 60.0544 149.202C60.1621 149.174 60.2725 149.239 60.3008 149.347C60.7601 151.105 62.0219 153.037 64.1942 153.228C64.2211 153.214 64.2508 153.21 64.2831 153.209L86.7518 153.467C86.8972 153.455 88.7342 153.249 88.582 150.8C88.582 150.795 88.582 150.789 88.582 150.784C88.582 150.731 88.582 150.677 88.582 150.624C88.582 150.512 88.6709 150.42 88.7813 150.418H88.784C88.8944 150.418 88.9846 150.508 88.986 150.619C88.986 150.673 88.986 150.728 88.986 150.782C89.1624 153.681 86.7949 153.871 86.772 153.872C86.7679 153.872 86.7626 153.872 86.7585 153.872L86.7572 153.873Z" fill="#9EA7D6"/>
<path d="M142.39 29.1203C142.377 29.1203 142.362 29.119 142.348 29.1163C134.24 27.4158 125.64 22.1872 119.341 15.1282C119.267 15.0442 119.274 14.917 119.357 14.8411C119.441 14.7667 119.567 14.7734 119.643 14.8574C125.886 21.8541 134.406 27.0354 142.432 28.7182C142.541 28.7412 142.611 28.8482 142.588 28.9579C142.568 29.054 142.485 29.119 142.39 29.119V29.1203Z" fill="#312A33"/>
<path d="M86.6885 150.914C86.605 150.914 86.5269 150.861 86.4973 150.777L73.966 114.508C73.5391 113.272 72.3769 112.442 71.0759 112.442H51.3828C51.271 112.442 51.1808 112.352 51.1808 112.239C51.1808 112.127 51.271 112.036 51.3828 112.036H71.0759C72.5493 112.036 73.865 112.976 74.3485 114.376L86.8797 150.644C86.9161 150.75 86.8609 150.866 86.7558 150.903C86.7343 150.911 86.7114 150.914 86.6898 150.914H86.6885Z" fill="#9EA7D6"/>
</g>
<defs>
<clipPath id="clip0_191_8766">
<rect width="228" height="156" fill="white"/>
</clipPath>
</defs>
</svg>
