<svg width="330" height="251" viewBox="0 0 330 251" fill="none" xmlns="http://www.w3.org/2000/svg">
<g clip-path="url(#clip0_1_12088)">
<path d="M132.149 52.511H130.949V19.6727C130.949 17.1768 130.457 14.7053 129.501 12.3994C128.544 10.0935 127.142 7.99833 125.375 6.23347C123.608 4.4686 121.511 3.06863 119.202 2.1135C116.893 1.15836 114.418 0.66675 111.919 0.666748H42.2599C37.213 0.666738 32.3727 2.66913 28.8039 6.23342C25.2352 9.79772 23.2302 14.6319 23.2302 19.6726V199.826C23.2302 202.322 23.7224 204.794 24.6788 207.099C25.6351 209.405 27.0368 211.501 28.8039 213.265C30.5709 215.03 32.6688 216.43 34.9776 217.385C37.2863 218.341 39.7609 218.832 42.2599 218.832H111.919C116.966 218.832 121.807 216.83 125.375 213.265C128.944 209.701 130.949 204.867 130.949 199.826V75.8859H132.149V52.511Z" fill="#3F3D56"/>
<path d="M154.477 218.863H0.90308C0.796176 218.863 0.693651 218.821 0.618059 218.745C0.542467 218.67 0.5 218.567 0.5 218.461C0.5 218.354 0.542467 218.252 0.618059 218.176C0.693651 218.101 0.796176 218.058 0.90308 218.058H154.477C154.583 218.058 154.686 218.101 154.762 218.176C154.837 218.252 154.88 218.354 154.88 218.461C154.88 218.567 154.837 218.67 154.762 218.745C154.686 218.821 154.583 218.863 154.477 218.863Z" fill="#CBCBCB"/>
<path d="M280.336 222.205C280.75 221.536 281.238 220.916 281.79 220.355C282.017 220.119 282.257 219.897 282.505 219.681C284.01 218.343 285.844 217.43 287.82 217.035C289.796 216.64 291.841 216.777 293.746 217.434C295.65 218.09 297.346 219.241 298.657 220.768C299.969 222.296 300.849 224.145 301.208 226.125C302.871 219.985 298.543 213.937 294.192 209.291C289.839 204.647 284.864 199.552 284.889 193.189C284.901 189.648 286.635 186.489 289.254 184.147C289.335 184.076 289.415 184.005 289.498 183.936C292.663 181.227 296.735 179.81 300.9 179.968C308.639 180.382 315.396 185.576 320.089 191.738C327.642 201.652 330.952 215.569 325.664 226.855C321.013 236.781 311.093 242.676 300.969 247.414C299.556 248.076 298.145 248.718 296.737 249.34C296.727 249.343 296.717 249.349 296.708 249.352C296.64 249.381 296.572 249.411 296.509 249.442C296.218 249.57 295.927 249.698 295.639 249.824L295.773 249.912L296.189 250.181C296.045 250.093 295.902 250.009 295.758 249.921C295.715 249.895 295.669 249.87 295.627 249.844C290.654 246.864 285.613 243.711 282.178 239.059C278.615 234.229 277.183 227.311 280.336 222.205Z" fill="#F1F1F1"/>
<path d="M313.511 210.987C314.612 213.489 315.342 216.138 315.678 218.85C315.942 221.268 315.842 223.712 315.383 226.101C314.396 231.01 312.242 235.611 309.104 239.516C306.736 242.481 304.003 245.134 300.969 247.414C299.556 248.076 298.145 248.718 296.737 249.34C296.727 249.343 296.717 249.349 296.708 249.352C296.64 249.381 296.572 249.411 296.509 249.442C296.218 249.57 295.927 249.698 295.639 249.824L295.773 249.912L296.189 250.181C296.045 250.093 295.902 250.009 295.758 249.921C295.715 249.895 295.669 249.87 295.627 249.844C296.721 246.021 296.882 241.992 296.096 238.094C295.31 234.196 293.6 230.543 291.109 227.442C288.605 224.379 285.412 221.951 281.79 220.355C282.017 220.119 282.257 219.897 282.505 219.681C283.9 220.321 285.236 221.083 286.497 221.957C291.006 225.07 294.392 229.551 296.154 234.735C297.726 239.439 297.923 244.493 296.72 249.304C296.97 249.141 297.22 248.974 297.464 248.807C302.096 245.687 306.365 241.94 309.581 237.345C312.354 233.462 314.129 228.957 314.749 224.228C315.365 219.061 314.071 213.98 311.761 209.37C309.211 204.439 305.997 199.878 302.21 195.816C298.406 191.641 294.104 187.947 289.401 184.817C289.295 184.745 289.221 184.636 289.194 184.511C289.166 184.386 289.188 184.256 289.254 184.147C289.304 184.047 289.392 183.972 289.498 183.937C289.552 183.923 289.608 183.921 289.662 183.932C289.717 183.943 289.768 183.966 289.812 184C290.393 184.387 290.968 184.777 291.537 185.179C296.273 188.528 300.574 192.452 304.341 196.86C307.981 201.11 311.294 205.83 313.511 210.987Z" fill="white"/>
<path d="M175.523 250.667H329.097C329.204 250.667 329.306 250.624 329.382 250.549C329.458 250.473 329.5 250.371 329.5 250.264C329.5 250.157 329.458 250.055 329.382 249.979C329.306 249.904 329.204 249.862 329.097 249.862H175.523C175.417 249.862 175.314 249.904 175.238 249.979C175.163 250.055 175.12 250.157 175.12 250.264C175.12 250.371 175.163 250.473 175.238 250.549C175.314 250.624 175.417 250.667 175.523 250.667Z" fill="#CBCBCB"/>
<path d="M212.459 218.545L205.012 218.429L205.908 243.777H212.458L212.459 218.545Z" fill="#FFB7B7"/>
<path d="M214.128 241.642L201.229 241.641H201.229C199.049 241.641 196.958 242.506 195.416 244.046C193.875 245.586 193.009 247.674 193.009 249.851V250.118L214.128 250.119L214.128 241.642Z" fill="#2F2E41"/>
<path d="M261.762 211.823L253.628 217.038L269.899 236.589L275.411 233.055L261.762 211.823Z" fill="#FFB7B7"/>
<path d="M275.662 230.356L264.807 237.316L264.806 237.317C262.972 238.493 261.681 240.349 261.216 242.477C260.752 244.604 261.153 246.829 262.331 248.661L262.475 248.885L280.247 237.49L275.662 230.356Z" fill="#2F2E41"/>
<path d="M196.146 151.119C194.753 151.505 193.266 151.368 191.968 150.733C190.669 150.098 189.649 149.009 189.1 147.673C188.552 146.337 188.513 144.846 188.992 143.484C189.47 142.121 190.432 140.981 191.696 140.28L204.232 126.075L214.835 128.363L199.922 142.952C200.289 143.727 200.481 144.574 200.484 145.431C200.488 146.289 200.303 147.137 199.943 147.916C199.583 148.694 199.056 149.385 198.4 149.938C197.744 150.492 196.975 150.895 196.146 151.119H196.146Z" fill="#FFB7B7"/>
<path d="M173.035 125.148C175.469 125.148 177.442 123.177 177.442 120.746C177.442 118.315 175.469 116.344 173.035 116.344C170.601 116.344 168.628 118.315 168.628 120.746C168.628 123.177 170.601 125.148 173.035 125.148Z" fill="#F1F1F1"/>
<path d="M302.021 113.07C304.455 113.07 306.428 111.1 306.428 108.669C306.428 106.238 304.455 104.267 302.021 104.267C299.587 104.267 297.613 106.238 297.613 108.669C297.613 111.1 299.587 113.07 302.021 113.07Z" fill="#F1F1F1"/>
<path d="M112.687 5.61133H103.594C104.013 6.63523 104.172 7.74614 104.059 8.84617C103.946 9.9462 103.564 11.0016 102.947 11.9194C102.329 12.8372 101.495 13.5892 100.518 14.1092C99.5406 14.6292 98.4504 14.9013 97.3433 14.9013H57.4363C56.3291 14.9013 55.2389 14.6292 54.2618 14.1092C53.2847 13.5892 52.4506 12.8372 51.833 11.9194C51.2154 11.0016 50.8333 9.94621 50.7203 8.84617C50.6073 7.74614 50.767 6.63523 51.1851 5.61133H42.6924C40.8261 5.61133 38.9782 5.97845 37.254 6.69174C35.5298 7.40502 33.9632 8.4505 32.6436 9.76848C31.3239 11.0865 30.2771 12.6511 29.563 14.3731C28.8488 16.0952 28.4812 17.9408 28.4812 19.8047V199.694C28.4812 201.558 28.8488 203.403 29.563 205.126C30.2771 206.848 31.3239 208.412 32.6435 209.73C33.9632 211.048 35.5298 212.094 37.254 212.807C38.9782 213.52 40.8261 213.887 42.6924 213.887H112.687C114.553 213.887 116.401 213.52 118.126 212.807C119.85 212.094 121.416 211.048 122.736 209.73C124.056 208.412 125.102 206.848 125.817 205.126C126.531 203.404 126.898 201.558 126.898 199.694V19.8047C126.898 17.9408 126.531 16.0952 125.817 14.3731C125.102 12.6511 124.056 11.0865 122.736 9.76848C121.416 8.4505 119.85 7.40502 118.126 6.69174C116.401 5.97845 114.553 5.61133 112.687 5.61133Z" fill="white"/>
<path d="M77.6898 139.829C96.4888 139.829 111.728 124.609 111.728 105.833C111.728 87.0577 96.4888 71.8372 77.6898 71.8372C58.8908 71.8372 43.6512 87.0577 43.6512 105.833C43.6512 124.609 58.8908 139.829 77.6898 139.829Z" fill="#9610FF"/>
<path d="M74.3167 118.802C73.5509 118.803 72.8055 118.556 72.1929 118.097L72.1549 118.068L64.1553 111.957C63.7848 111.673 63.4739 111.319 63.2403 110.915C63.0067 110.512 62.8551 110.066 62.7939 109.604C62.7328 109.142 62.7634 108.672 62.884 108.221C63.0047 107.771 63.213 107.349 63.497 106.979C63.781 106.609 64.1353 106.298 64.5394 106.065C64.9436 105.831 65.3899 105.68 65.8527 105.619C66.3155 105.558 66.7859 105.588 67.2368 105.709C67.6878 105.829 68.1106 106.037 68.4811 106.321L73.6626 110.289L85.9066 94.3358C86.1905 93.9659 86.5446 93.6555 86.9486 93.4223C87.3527 93.1891 87.7987 93.0376 88.2613 92.9766C88.724 92.9156 89.1941 92.9462 89.6449 93.0666C90.0957 93.187 90.5183 93.395 90.8887 93.6785L90.8897 93.6793L90.8137 93.7847L90.8918 93.6793C91.6389 94.2528 92.1277 95.0989 92.2509 96.032C92.3742 96.965 92.1217 97.9088 91.549 98.6561L77.1474 117.413C76.8142 117.845 76.3858 118.195 75.8955 118.435C75.4051 118.675 74.866 118.799 74.3198 118.797L74.3167 118.802Z" fill="white"/>
<path d="M237.389 100.266L206.145 139.437L196.621 135.07L233.345 77.9663L237.389 100.266Z" fill="#3F3D56"/>
<path d="M312.149 39.5697C312.351 38.1397 312.02 36.6856 311.22 35.4829C310.42 34.2801 309.206 33.4122 307.808 33.0437C306.41 32.6752 304.925 32.8316 303.635 33.4834C302.345 34.1352 301.339 35.237 300.808 36.58L288.346 50.8491L292.002 61.0491L304.535 44.3763C305.353 44.6379 306.218 44.7173 307.07 44.6088C307.922 44.5003 308.74 44.2066 309.466 43.7483C310.192 43.29 310.808 42.6784 311.272 41.9564C311.735 41.2344 312.035 40.4197 312.149 39.5697Z" fill="#FFB7B7"/>
<path d="M260.492 95.0907L301.859 50.9969L296.28 42.137L244.394 85.9631L260.492 95.0907Z" fill="#3F3D56"/>
<path d="M251.259 68.2997C259.273 68.2997 265.77 61.8111 265.77 53.807C265.77 45.8028 259.273 39.3142 251.259 39.3142C243.245 39.3142 236.748 45.8028 236.748 53.807C236.748 61.8111 243.245 68.2997 251.259 68.2997Z" fill="#2F2E41"/>
<path d="M252.426 45.6198C255.548 42.4573 259.327 40.0169 263.495 38.4704C266.171 37.4803 269.084 36.8685 271.881 37.4308C274.679 37.9931 277.325 39.926 278.105 42.6674C278.743 44.9091 278.084 47.3227 277.094 49.4329C276.104 51.5431 274.781 53.5 273.98 55.6889C273.163 57.9224 272.917 60.3244 273.265 62.6769C273.613 65.0293 274.544 67.2577 275.973 69.1597C277.402 71.0618 279.284 72.5772 281.448 73.5686C283.612 74.5599 285.99 74.9957 288.366 74.8364C285.617 75.2045 283.083 76.4946 280.397 77.1813C277.71 77.868 274.539 77.8215 272.542 75.899C270.43 73.865 270.387 70.558 270.489 67.6291C270.641 63.2753 270.793 58.9214 270.945 54.5675C271.022 52.3471 271.089 50.0556 270.287 47.9832C269.485 45.9108 267.58 44.096 265.355 44.1149C263.669 44.1292 262.177 45.1492 260.825 46.1552C259.473 47.1611 258.042 48.2344 256.363 48.384C254.684 48.5336 252.766 47.2924 252.892 45.6133L252.426 45.6198Z" fill="#2F2E41"/>
<path d="M264.66 134.419C264.66 134.419 246.586 74.4641 240.778 73.6539C234.969 72.8437 225.611 89.0376 225.611 89.0376C213.477 104.5 200.965 154.585 200.965 154.585C200.965 154.585 221.823 155.889 237.07 163.991C252.317 172.093 270.311 163.581 270.311 163.581L264.66 134.419Z" fill="#3F3D56"/>
<path opacity="0.1" d="M264.66 134.419C264.66 134.419 246.586 74.4641 240.778 73.6539C234.969 72.8437 227.988 89.2019 227.988 89.2019C221.942 114.162 200.965 154.585 200.965 154.585C200.965 154.585 221.823 155.889 237.07 163.991C252.317 172.093 270.311 163.581 270.311 163.581L264.66 134.419Z" fill="black"/>
<path d="M249.832 116.481V146.608L253.382 190.249L271.117 223.26L262.653 229.298L238.468 197.897L228.902 166.718L213.88 235.74L202.594 234.935L210.432 139.238L225.306 112.301L249.832 116.481Z" fill="#2F2E41"/>
<path d="M231.609 87.3414C225.966 92.9775 231.206 99.0161 231.206 99.0161L224.757 113.509L250.151 120.353L259.025 80.7479L252.979 74.3067C240.886 73.9041 240.88 73.6538 240.88 73.6538C238.761 75.7246 231.609 87.3414 231.609 87.3414Z" fill="#9610FF"/>
<path d="M260.048 76.6448C258.894 75.7946 257.583 75.1813 256.191 74.8405C254.799 74.4998 253.352 74.4383 251.936 74.6597C250.52 74.8811 249.162 75.381 247.94 76.1304C246.719 76.8797 245.658 77.8637 244.82 79.0253C238.436 87.903 232.533 102.238 240.667 120.117C253.726 148.825 265.091 163.521 269.711 163.519C269.912 163.521 270.113 163.489 270.304 163.426C273.148 162.462 277.26 157.656 278.004 153.421C278.271 151.905 278.207 149.793 276.392 148.343C271.178 144.178 261.818 131.209 258.898 114.139C257.284 104.707 260.413 96.1148 263.323 90.5681C264.552 88.2731 264.911 85.6126 264.335 83.0743C263.76 80.536 262.287 78.29 260.188 76.748L260.048 76.6448Z" fill="#3F3D56"/>
<path d="M252.006 66.8758C257.182 64.0496 259.084 57.5676 256.255 52.3976C253.425 47.2277 246.935 45.3277 241.758 48.1538C236.582 50.98 234.68 57.4621 237.509 62.632C240.339 67.8019 246.829 69.7019 252.006 66.8758Z" fill="#FFB7B7"/>
<path d="M231.86 56.7082H247.284L247.442 54.4965L248.233 56.7082H250.608L250.921 52.3247L252.489 56.7082H257.084V56.491C257.081 53.4393 255.865 50.5135 253.705 48.3556C251.544 46.1977 248.615 44.9839 245.559 44.9805H243.385C240.329 44.9839 237.4 46.1977 235.239 48.3556C233.078 50.5135 231.863 53.4393 231.86 56.491V56.7082Z" fill="#2F2E41"/>
<path d="M254.754 64.6581L261.336 62.525V46.5605H248.903L249.211 46.8675C253.494 51.1392 258.257 66.2946 254.754 64.6581Z" fill="#2F2E41"/>
<path d="M212.134 16.4519C216.126 16.4519 219.363 13.2194 219.363 9.23204C219.363 5.24464 216.126 2.01221 212.134 2.01221C208.141 2.01221 204.905 5.24464 204.905 9.23204C204.905 13.2194 208.141 16.4519 212.134 16.4519Z" fill="#F1F1F1"/>
</g>
<defs>
<clipPath id="clip0_1_12088">
<rect width="329" height="250" fill="white" transform="translate(0.5 0.666748)"/>
</clipPath>
</defs>
</svg>
