<svg width="186" height="180" viewBox="0 0 186 180" fill="none" xmlns="http://www.w3.org/2000/svg">
    <circle cx="95.5002" cy="90.5" r="70.5" fill="url(#paint0_linear_191_8878)" />
    <circle cx="178.467" cy="27.5" r="7.5" fill="#C070FF" />
    <circle cx="20.0334" cy="10" r="10" fill="#C070FF" />
    <circle cx="10.0334" cy="133" r="5" fill="#C070FF" />
    <circle cx="165.533" cy="160.5" r="2.5" fill="#C070FF" />
    <path fill-rule="evenodd" clip-rule="evenodd"
        d="M94.8318 114.871C95.1041 115.013 95.4085 115.085 95.7129 115.083C96.0173 115.081 96.3192 115.006 96.594 114.861L105.365 110.173C107.852 108.847 109.8 107.364 111.32 105.638C114.624 101.877 116.428 97.0779 116.396 92.1288L116.292 75.8039C116.282 73.9236 115.047 72.2458 113.22 71.6359L96.9033 66.1613C95.9208 65.8286 94.8442 65.8358 93.879 66.1781L77.6239 71.848C75.8073 72.482 74.5946 74.1719 74.6045 76.0546L74.7084 92.3675C74.7406 97.3238 76.6067 102.102 79.9651 105.824C81.4996 107.526 83.4646 108.987 85.9791 110.291L94.8318 114.871ZM92.5099 95.6841C92.8762 96.036 93.3514 96.2096 93.8266 96.2048C94.3017 96.2024 94.7744 96.024 95.1358 95.6672L104.721 86.2174C105.441 85.5063 105.434 84.3636 104.706 83.6621C103.976 82.9606 102.801 82.9655 102.08 83.6766L93.7993 91.8391L90.4087 88.5799C89.6786 87.8784 88.5055 87.8856 87.7829 88.5967C87.0627 89.3079 87.0701 90.4505 87.8002 91.152L92.5099 95.6841Z"
        fill="white" />
    <circle cx="106.533" cy="4.5" r="2.5" fill="#C070FF" />
    <circle cx="62.5334" cy="176.5" r="3.5" fill="#C070FF" />
    <circle cx="122.033" cy="171" r="1" fill="#C070FF" />
    <circle cx="170.533" cy="110.5" r="2.5" fill="#C070FF" />
    <circle cx="1.03345" cy="75" r="1" fill="#C070FF" />
    <defs>
        <linearGradient id="paint0_linear_191_8878" x1="166" y1="161" x2="-1.7771" y2="112.355"
            gradientUnits="userSpaceOnUse">
            <stop stop-color="#9610FF" />
            <stop offset="1" stop-color="#AF48FF" />
        </linearGradient>
    </defs>
</svg>
