<svg width="276" height="250" viewBox="0 0 276 250" fill="none" xmlns="http://www.w3.org/2000/svg">
<g clip-path="url(#clip0_1_12155)">
<path d="M190.727 249.37H112.413C100.667 249.37 91.1106 239.824 91.1106 228.09V21.2801C91.1106 9.54629 100.667 0 112.413 0H190.727C202.473 0 212.029 9.54629 212.029 21.2801C213.487 104.329 215.973 197.33 212.029 228.09C212.029 239.824 202.473 249.37 190.727 249.37L190.727 249.37Z" fill="#3F3D56"/>
<path d="M213.121 76.0715C212.624 76.0715 212.22 76.4753 212.22 76.9718V105.78C212.22 106.276 212.624 106.68 213.121 106.68C213.618 106.68 214.022 106.276 214.022 105.78V76.9718C214.022 76.4753 213.618 76.0715 213.121 76.0715Z" fill="#3F3D56"/>
<path d="M210.002 21.2803V228.087C210.002 238.3 202.044 246.654 191.982 247.302H191.978C191.829 247.311 191.68 247.32 191.527 247.325C191.261 247.338 190.995 247.343 190.725 247.343C190.725 247.343 189.734 247.271 187.922 247.136C186.093 247.001 183.43 246.798 180.109 246.533C179.113 246.456 178.063 246.371 176.955 246.281C174.747 246.101 172.323 245.903 169.723 245.677C168.686 245.592 167.614 245.497 166.519 245.403C160.923 244.921 154.655 244.359 148.044 243.719C146.927 243.616 145.8 243.508 144.665 243.395C144.368 243.364 93.1384 230.499 93.1384 228.087V21.2803C93.1384 10.6439 101.767 2.02393 112.415 2.02393H123.923C125.762 2.02393 127.24 3.45532 127.397 5.28735C127.411 5.40889 127.424 5.5304 127.447 5.65195C127.78 7.49298 129.47 8.77583 131.345 8.77583H171.795C173.67 8.77583 175.36 7.49298 175.693 5.65195C175.716 5.53041 175.729 5.40889 175.743 5.28735C175.9 3.45533 177.378 2.02393 179.217 2.02393H190.725C201.373 2.02393 210.002 10.6439 210.002 21.2803H210.002Z" fill="white"/>
<path d="M90.66 54.4653C90.163 54.4653 89.7588 54.8691 89.7588 55.3656V62.5676C89.7588 63.0641 90.163 63.4679 90.66 63.4679C91.157 63.4679 91.5612 63.0641 91.5612 62.5676V55.3656C91.5612 54.8691 91.157 54.4653 90.66 54.4653Z" fill="#3F3D56"/>
<path d="M90.66 76.0715C90.163 76.0715 89.7588 76.4753 89.7588 76.9718V90.9257C89.7588 91.4222 90.163 91.826 90.66 91.826C91.157 91.826 91.5612 91.4222 91.5612 90.9257V76.9718C91.5612 76.4753 91.157 76.0715 90.66 76.0715V76.0715Z" fill="#3F3D56"/>
<path d="M90.66 95.877C90.163 95.877 89.7588 96.2807 89.7588 96.7772V110.731C89.7588 111.228 90.163 111.631 90.66 111.631C91.157 111.631 91.5612 111.228 91.5612 110.731V96.7772C91.5612 96.2807 91.157 95.877 90.66 95.877Z" fill="#3F3D56"/>
<path d="M123.627 5.17651H106.357C106.273 5.17651 106.206 5.24429 106.206 5.3279V7.27576C106.206 7.35937 106.273 7.42715 106.357 7.42715H123.627C123.711 7.42715 123.779 7.35937 123.779 7.27576V5.3279C123.779 5.24429 123.711 5.17651 123.627 5.17651Z" fill="#E6E6E6"/>
<path d="M182.064 7.42718C183.06 7.42718 183.867 6.62107 183.867 5.62668C183.867 4.63229 183.06 3.82617 182.064 3.82617C181.069 3.82617 180.262 4.63229 180.262 5.62668C180.262 6.62107 181.069 7.42718 182.064 7.42718Z" fill="#E6E6E6"/>
<path d="M187.021 7.42718C188.016 7.42718 188.823 6.62107 188.823 5.62668C188.823 4.63229 188.016 3.82617 187.021 3.82617C186.025 3.82617 185.219 4.63229 185.219 5.62668C185.219 6.62107 186.025 7.42718 187.021 7.42718Z" fill="#E6E6E6"/>
<path d="M191.977 7.42718C192.973 7.42718 193.78 6.62107 193.78 5.62668C193.78 4.63229 192.973 3.82617 191.977 3.82617C190.982 3.82617 190.175 4.63229 190.175 5.62668C190.175 6.62107 190.982 7.42718 191.977 7.42718Z" fill="#E6E6E6"/>
<path d="M6.99268 249.419C6.99268 249.741 7.2516 250 7.57403 250H275.419C275.741 250 276 249.741 276 249.419C276 249.097 275.741 248.839 275.419 248.839H7.57403C7.2516 248.839 6.99268 249.097 6.99268 249.419Z" fill="#CCCCCC"/>
<path d="M92.3934 245.605L86.9007 245.605L84.2878 224.44L92.3945 224.441L92.3934 245.605Z" fill="#FFB6B6"/>
<path d="M73.5747 245.481C73.4037 245.768 73.3135 246.697 73.3135 247.032C73.3135 248.06 74.1481 248.894 75.1777 248.894H92.1879C92.8902 248.894 93.4597 248.325 93.4597 247.623V246.916C93.4597 246.916 94.3011 244.79 92.5687 242.169C92.5687 242.169 90.4155 244.221 87.198 241.007L86.2492 239.29L79.3813 244.308L75.5745 244.776C74.7416 244.878 74.0032 244.76 73.5748 245.481H73.5747V245.481H73.5747Z" fill="#2F2E41"/>
<path d="M62.018 216.209L56.5254 216.191L53.9797 195.019L62.0864 195.045L62.018 216.209Z" fill="#FFB6B6"/>
<path d="M43.2 216.025C43.0281 216.312 42.9349 217.24 42.9338 217.575C42.9306 218.604 43.7625 219.44 44.7922 219.443L61.8022 219.497C62.5046 219.499 63.0758 218.932 63.078 218.231L63.0803 217.523C63.0803 217.523 63.9285 215.4 62.2044 212.774C62.2044 212.774 60.0447 214.819 56.8375 211.595L55.8942 209.875L49.0103 214.87L45.202 215.326C44.3688 215.426 43.6308 215.306 43.2001 216.025H43.2V216.025Z" fill="#2F2E41"/>
<path d="M84.3825 117.12L77.5433 117.608C77.5433 117.608 54.3902 130.758 52.4362 133.686C50.4821 136.614 47.7953 140.762 50.2379 145.154C52.6804 149.546 50.8214 202.724 50.8214 202.724L62.4933 200.087L69.9715 144.448L85.6038 142.252C85.6038 142.252 90.9774 153.833 89.0233 163.414C87.0693 172.996 86.0923 178.851 86.0923 178.851L83.6497 235.459L93.1756 235.215L101.725 182.755L116.38 141.276L97.328 118.828L84.3825 117.12Z" fill="#2F2E41"/>
<path d="M52.8469 112.413C50.0656 113.929 48.594 116.591 49.56 118.359C50.5259 120.128 53.5636 120.332 56.3449 118.815C57.5623 118.151 58.5288 117.268 59.1497 116.336L70.854 109.763L67.6494 104.342L56.4513 111.397C55.3309 111.415 54.0643 111.749 52.8469 112.413H52.8469Z" fill="#FFB6B6"/>
<path d="M118.09 57.0959L103.923 58.5599L102.457 63.4399L88.779 70.7599L93.1756 101.504L89.756 106.872L91.2215 112.24C91.2215 112.24 87.3134 112.728 87.802 115.656L79.0088 117.12C79.0088 117.12 90.6715 119.498 93.1448 131.241C95.6181 142.984 116.135 144.448 116.135 144.448L132.256 94.1839L133.722 64.4159L122.486 61.4879L118.09 57.0959Z" fill="#E6E6E6"/>
<path d="M92.3176 70.9877C92.3176 70.9877 87.7294 69.2426 86.1486 71.3432C84.5678 73.4438 74.125 98.9322 74.125 98.9322L58.8035 106.926L63.112 114.421L82.8416 107.859L95.8587 84.0771L92.3176 70.9877Z" fill="#E6E6E6"/>
<path d="M237 154.695V206.423C237 210.997 233.274 214.719 228.695 214.719H100.706C96.1265 214.719 92.4011 210.997 92.4011 206.423V154.695C92.4011 150.12 96.1265 146.399 100.706 146.399H228.695C233.274 146.399 237 150.12 237 154.695Z" fill="white"/>
<path d="M237 154.695V206.423C237 210.997 233.274 214.719 228.695 214.719H100.706C96.1265 214.719 92.4011 210.997 92.4011 206.423V154.695C92.4011 150.12 96.1265 146.399 100.706 146.399H228.695C233.274 146.399 237 150.12 237 154.695ZM228.695 213.743C232.742 213.743 236.023 210.465 236.023 206.423V180.343C236.023 162.135 221.247 147.375 203.02 147.375H100.706C96.6588 147.375 93.3781 150.652 93.3781 154.695V206.423C93.3781 210.465 96.6588 213.743 100.706 213.743H228.695Z" fill="#3F3D56"/>
<path d="M149.855 177.651H133.138C132.716 177.651 132.374 177.993 132.374 178.414C132.374 178.835 132.716 179.178 133.138 179.178H149.855C150.276 179.178 150.619 178.835 150.619 178.414C150.619 177.993 150.276 177.651 149.855 177.651Z" fill="#9610FF"/>
<path d="M175.258 177.651H158.54C158.119 177.651 157.776 177.993 157.776 178.414C157.776 178.835 158.119 179.178 158.54 179.178H175.258C175.679 179.178 176.022 178.835 176.022 178.414C176.022 177.993 175.679 177.651 175.258 177.651Z" fill="#9610FF"/>
<path d="M149.855 185.999H133.138C132.716 185.999 132.374 186.341 132.374 186.762C132.374 187.183 132.716 187.526 133.138 187.526H149.855C150.276 187.526 150.619 187.183 150.619 186.762C150.619 186.341 150.276 185.999 149.855 185.999Z" fill="#9610FF"/>
<path d="M175.258 185.999H158.54C158.119 185.999 157.776 186.341 157.776 186.762C157.776 187.183 158.119 187.526 158.54 187.526H175.258C175.679 187.526 176.022 187.183 176.022 186.762C176.022 186.341 175.679 185.999 175.258 185.999Z" fill="#9610FF"/>
<path d="M201.424 186.762C201.424 186.341 201.081 185.999 200.66 185.999H183.943C183.521 185.999 183.178 186.341 183.178 186.762C183.178 187.183 183.521 187.526 183.943 187.526H200.66C201.081 187.526 201.424 187.183 201.424 186.762Z" fill="#9610FF"/>
<path d="M140.085 170.985C140.506 170.985 140.849 170.643 140.849 170.222C140.849 169.801 140.506 169.458 140.085 169.458H123.368C122.946 169.458 122.603 169.801 122.603 170.222C122.603 170.643 122.946 170.985 123.368 170.985H140.085Z" fill="#9610FF"/>
<path d="M189.316 170.675H206.033C206.455 170.675 206.798 170.332 206.798 169.911C206.798 169.49 206.455 169.148 206.033 169.148H189.316C188.895 169.148 188.552 169.49 188.552 169.911C188.552 170.332 188.895 170.675 189.316 170.675Z" fill="#9610FF"/>
<path d="M147.127 170.835H181.785C182.207 170.835 182.55 170.493 182.55 170.072C182.55 169.651 182.207 169.308 181.785 169.308H147.127C146.706 169.308 146.363 169.651 146.363 170.072C146.363 170.493 146.706 170.835 147.127 170.835Z" fill="#9610FF"/>
<path d="M160.763 193.583H144.046C143.625 193.583 143.282 193.925 143.282 194.346C143.282 194.767 143.625 195.11 144.046 195.11H160.763C161.185 195.11 161.528 194.767 161.528 194.346C161.528 193.925 161.185 193.583 160.763 193.583Z" fill="#9610FF"/>
<path d="M214.754 154.305V206.032C214.754 210.607 211.029 214.328 206.449 214.328H154.667C150.088 214.328 146.363 210.607 146.363 206.032V154.305C146.363 149.73 150.088 146.009 154.667 146.009H206.449C211.029 146.009 214.754 149.73 214.754 154.305Z" fill="white"/>
<path d="M214.754 154.305V206.032C214.754 210.607 211.029 214.328 206.449 214.328H154.667C150.088 214.328 146.363 210.607 146.363 206.032V154.305C146.363 149.73 150.088 146.009 154.667 146.009H206.449C211.029 146.009 214.754 149.73 214.754 154.305ZM203.237 213.352C209.058 213.352 213.777 208.638 213.777 202.823V179.953C213.777 161.745 199.001 146.985 180.774 146.985H154.667C150.621 146.985 147.34 150.262 147.34 154.305V198.815C147.34 206.844 153.855 213.352 161.892 213.352H203.237V213.352H203.237Z" fill="#3F3D56"/>
<path d="M187.451 167.135H170.734C170.313 167.135 169.97 166.793 169.97 166.372C169.97 165.951 170.313 165.608 170.734 165.608H187.451C187.873 165.608 188.216 165.951 188.216 166.372C188.216 166.793 187.873 167.135 187.451 167.135V167.135Z" fill="#9610FF"/>
<path d="M187.451 183.416H170.734C170.313 183.416 169.97 183.074 169.97 182.653C169.97 182.232 170.313 181.889 170.734 181.889H187.451C187.873 181.889 188.216 182.232 188.216 182.653C188.216 183.074 187.873 183.416 187.451 183.416V183.416Z" fill="#9610FF"/>
<path d="M179.147 205.864H162.43C162.008 205.864 161.666 205.522 161.666 205.101C161.666 204.68 162.008 204.337 162.43 204.337H179.147C179.568 204.337 179.911 204.68 179.911 205.101C179.911 205.522 179.568 205.864 179.147 205.864V205.864Z" fill="#9610FF"/>
<path d="M196.422 175.281H161.764C161.342 175.281 161 174.939 161 174.518C161 174.097 161.342 173.754 161.764 173.754H196.422C196.844 173.754 197.186 174.097 197.186 174.518C197.186 174.939 196.844 175.281 196.422 175.281V175.281Z" fill="#9610FF"/>
<path d="M205.011 125.641C205.011 109.504 191.358 100.627 175.762 96.4227C155.767 91.0323 141.123 101.94 146.513 125.641C147.735 131.012 150.657 137.286 154.274 142.653H182.976C192.563 136.417 205.011 138.166 205.011 125.641H205.011Z" fill="#9610FF"/>
<path d="M175.333 156.146C176.966 153.037 179.035 150.793 181.316 149.086H154.433C161.352 158.959 170.528 165.296 175.333 156.146Z" fill="#9610FF"/>
<path d="M172.231 108.366C173.957 108.366 175.356 109.764 175.356 111.488V117.731H169.106V111.488C169.106 109.764 170.505 108.366 172.231 108.366ZM176.918 117.731V111.488C176.918 108.902 174.819 106.805 172.231 106.805C169.642 106.805 167.543 108.902 167.543 111.488V117.731C165.818 117.731 164.418 119.128 164.418 120.853V128.657C164.418 130.381 165.818 131.778 167.543 131.778H176.918C178.644 131.778 180.043 130.381 180.043 128.657V120.853C180.043 119.128 178.644 117.731 176.918 117.731H176.918ZM167.543 119.292H176.918C177.781 119.292 178.48 119.99 178.48 120.853V128.657C178.48 129.519 177.781 130.217 176.918 130.217H167.543C166.68 130.217 165.981 129.519 165.981 128.657V120.853C165.981 119.99 166.68 119.292 167.543 119.292Z" fill="white"/>
<path d="M127.574 144.713C127.198 147.856 128.515 150.597 130.517 150.837C132.519 151.076 134.447 148.723 134.824 145.58C134.989 144.204 134.829 142.906 134.43 141.86L135.859 128.523L129.58 127.986L128.837 141.191C128.202 142.113 127.739 143.337 127.574 144.713Z" fill="#FFB6B6"/>
<path d="M28.5778 158.765C44.3608 158.765 57.1556 145.984 57.1556 130.217C57.1556 114.451 44.3608 101.669 28.5778 101.669C12.7947 101.669 0 114.451 0 130.217C0 145.984 12.7947 158.765 28.5778 158.765Z" fill="#9610FF"/>
<path d="M28.5777 117.437C30.5965 117.437 32.233 119.072 32.233 121.089V128.392H24.9224V121.089C24.9224 119.072 26.5589 117.437 28.5777 117.437ZM34.0607 128.392V121.089C34.0607 118.064 31.6059 115.611 28.5777 115.611C25.5496 115.611 23.0948 118.064 23.0948 121.089V128.392C21.076 128.392 19.4395 130.026 19.4395 132.043V141.172C19.4395 143.188 21.076 144.823 23.0948 144.823H34.0606C36.0794 144.823 37.7159 143.188 37.7159 141.172V132.043C37.7159 130.026 36.0794 128.392 34.0606 128.392H34.0607ZM23.0948 130.217H34.0606C35.07 130.217 35.8883 131.035 35.8883 132.043V141.172C35.8883 142.18 35.07 142.997 34.0606 142.997H23.0948C22.0854 142.997 21.2671 142.18 21.2671 141.172V132.043C21.2671 131.035 22.0854 130.217 23.0948 130.217Z" fill="white"/>
<path d="M129.081 65.1479C129.081 65.1479 135.92 63.1959 137.386 66.1239C138.851 69.0519 142.271 107.604 142.271 107.604L135.676 138.377L128.104 136.396L132.012 105.164L126.638 81.7398L129.081 65.1479Z" fill="#E6E6E6"/>
<path d="M110.623 55.2441C116.706 55.2441 121.636 50.3186 121.636 44.2427C121.636 38.1667 116.706 33.2412 110.623 33.2412C104.541 33.2412 99.6104 38.1667 99.6104 44.2427C99.6104 50.3186 104.541 55.2441 110.623 55.2441Z" fill="#FFB6B6"/>
<path d="M104.9 54.1678C104.9 54.1678 95.1294 53.6798 96.1065 45.8718C93.6882 37.5571 95.8287 32.1585 103.434 30.2558C103.434 30.2558 105.388 29.7678 105.877 29.7678C112.302 29.7678 115.647 31.7198 115.647 31.7198C115.647 31.7198 115.158 29.787 115.647 30.2654C116.135 30.7438 116.624 31.7198 116.624 31.7198C116.624 31.7198 121.509 34.1598 121.509 39.0398C121.509 43.9198 121.509 41.9678 121.509 41.9678C121.509 41.9678 120.532 41.9678 119.555 39.0398C118.578 36.1118 112.252 38.0638 112.252 38.0638L112.716 39.0398L111.25 38.5518L109.785 40.0158L108.808 39.5278C108.808 39.5278 104.9 39.5278 105.388 39.5278C105.877 39.5278 105.536 42.8442 105.536 42.8442L101.969 46.8478L105.877 54.1678H104.9Z" fill="#2F2E41"/>
</g>
<defs>
<clipPath id="clip0_1_12155">
<rect width="276" height="250" fill="white"/>
</clipPath>
</defs>
</svg>
