<svg width="264" height="134" viewBox="0 0 264 134" fill="none" xmlns="http://www.w3.org/2000/svg">
<path d="M4.19006 34.4243C4.26279 34.6425 4.55371 34.7879 4.7719 34.8606C6.66288 35.9516 7.75384 37.7699 8.69933 39.6608C10.5903 43.5155 11.5358 47.6612 12.6995 51.7341C12.9904 52.825 12.6268 53.625 12.0449 54.4251C9.13571 58.498 6.22651 62.7163 1.28085 64.7528C0.262628 65.1891 -0.246488 65.9892 0.117163 67.0801C0.553545 68.3165 1.57177 67.7347 2.3718 67.5165C3.82641 67.0801 4.91736 66.1347 6.00832 65.0437C8.40841 62.7163 10.1539 59.8798 12.1177 57.2616C12.4813 56.8252 12.6995 55.9524 13.3541 56.0251C14.2268 56.0979 14.0814 57.1161 14.2268 57.6979C15.1723 60.6799 16.1178 63.6618 17.8633 66.3528C21.6453 72.244 26.3 73.044 31.9003 68.8257C36.1914 65.5528 39.3188 61.3344 42.5189 57.0434C43.028 56.3888 43.5371 55.6615 44.0462 55.0069C44.8463 53.916 46.4463 54.6433 46.2281 55.9524C45.2099 61.8436 43.828 67.662 42.4462 73.4077C42.0098 75.2987 41.0643 76.6078 39.4642 77.6988C31.1002 83.4444 22.9545 89.6265 15.3178 96.245C8.19022 102.427 3.97187 109.991 5.13555 119.81C5.79012 125.555 8.40841 130.137 14.0086 132.246C19.8271 134.428 24.9182 132.61 29.2093 128.319C33.3549 124.173 36.0459 119.155 38.3005 113.846C43.3916 102.063 46.5191 89.6992 49.2828 77.2624C49.7919 75.0805 50.6647 73.6259 52.7739 72.5349C59.9014 68.6802 66.4471 63.88 72.0474 57.9889C78.1567 51.5159 82.9569 44.0974 87.7571 36.6062C88.6299 35.2243 89.4299 34.4243 91.3209 34.9334C105.358 38.279 119.395 37.6244 133.359 34.2788C145.214 31.4423 156.633 27.224 168.342 24.0238C181.797 20.3146 195.398 18.7873 209.289 21.0419C223.835 23.3693 237.072 29.1877 249.582 36.7516C253.727 39.2972 257.728 42.0609 261.801 44.6792C262.455 45.1156 263.255 45.6974 263.837 44.752C264.346 43.9519 263.546 43.5155 263.037 43.0792V43.0064C262.601 42.6428 262.019 42.2791 261.582 41.9882C255.037 37.4062 248.2 33.2606 241.072 29.5513C219.472 18.3509 196.852 14.5689 172.997 20.6783C161.287 23.6602 149.869 27.6604 138.232 30.9332C123.395 35.0061 108.412 36.388 93.1391 33.3333C90.9572 32.8969 90.4481 32.3151 91.6845 30.2059C95.4665 23.9511 98.5939 17.3327 99.6848 9.98691C100.339 5.6231 98.8848 2.05932 96.1938 0.895634C93.5028 -0.26805 90.0845 1.40474 87.4662 5.04125C85.9388 7.22316 84.9206 9.62326 84.1206 12.1688C83.8297 12.9689 82.8842 13.3325 82.2296 12.7507C81.7205 12.387 81.3568 11.9506 80.8477 11.587C79.9022 10.8597 78.9567 10.2051 78.0112 9.62326C69.0654 4.67761 64.047 8.7505 67.3926 18.3509C67.9017 19.8055 68.7018 21.1874 69.6473 22.4965C73.502 27.7331 78.884 30.7878 84.8479 32.9697C86.3752 33.5515 87.0298 33.9152 86.0116 35.6607C77.7203 49.334 67.7563 61.4799 53.6466 69.6257C53.5739 69.6984 53.4284 69.7712 53.3557 69.8439C52.4102 70.4985 51.1738 69.6984 51.392 68.6075C51.4647 68.2438 51.5374 67.8802 51.6102 67.4438C53.1375 60.0253 54.8103 52.6796 55.5376 45.1156C55.6831 43.2974 55.1012 41.9155 53.2102 41.6973C51.1738 41.4064 49.2828 41.6973 48.5555 44.0247C48.2646 44.9701 47.9737 45.8429 47.3918 46.6429C44.6281 50.5704 42.0098 54.5705 39.1733 58.3525C36.4823 61.989 33.5731 65.4801 29.7911 68.0984C26.0819 70.5712 24.6272 70.1348 23.5363 65.771C22.0817 60.098 20.8453 54.2796 19.4634 48.5339C19.2452 47.6612 19.3907 47.0066 19.8271 46.352C22.809 42.0609 25.7182 37.7699 29.5002 34.1333C30.5911 33.1151 31.7548 32.2424 33.4276 32.8242C34.3731 33.1879 35.1731 32.606 35.4641 31.6605C35.6823 30.7878 35.1004 30.2059 34.3731 29.7695C32.4094 28.5331 30.8093 29.7695 29.4274 30.8605C26.3728 33.3333 24.0454 36.4607 21.8635 39.7336C21.2089 40.7518 20.4816 41.77 19.7543 42.861C19.1725 43.661 18.0088 43.5155 17.6452 42.6428C16.8451 40.8973 16.1905 39.2245 15.3905 37.6971C13.7177 34.2788 11.6813 31.2241 8.11749 29.4786C7.82657 29.3331 7.46292 29.1877 7.172 29.0422C6.95381 28.9695 6.66289 28.9695 6.4447 29.0422C2.58999 30.2786 4.19006 34.4243 4.19006 34.4243ZM40.5552 81.1171C36.8459 95.5904 34.0095 110.282 26.1546 123.301C24.7 125.701 22.8817 127.81 20.4816 129.264C16.6269 131.665 12.9177 131.01 10.2267 127.301C7.97203 124.173 6.73561 120.682 7.02653 116.9C6.88107 110.864 9.06298 105.7 12.9904 101.409C20.6271 93.1176 29.8638 86.7173 38.9551 80.2443C39.3915 79.9534 39.8279 79.517 40.337 79.8807C40.5552 80.0988 40.6279 80.7534 40.5552 81.1171Z" fill="white"/>
<path d="M52.774 38.6426C54.8831 38.7154 56.7741 37.0426 56.8468 35.0789C56.9196 33.1879 55.2468 31.5151 53.2103 31.3696C51.1739 31.2969 49.2829 32.8242 49.1375 34.6425C48.9193 36.6062 50.7375 38.5699 52.774 38.6426Z" fill="white"/>
<path d="M90.0842 32.6787C90.3751 32.5332 90.7388 32.3877 91.0297 32.2423C90.8115 31.8059 91.0297 31.1513 91.6843 30.1331C95.4663 23.8783 98.5937 17.2598 99.6846 9.9141C100.339 5.55028 98.8846 1.9865 96.1936 0.822819C93.5025 -0.340865 90.0842 1.33193 87.4659 4.96844C85.6477 7.514 84.6294 10.4232 83.684 13.4779C82.3748 13.1142 81.7202 12.1687 80.8475 11.5142C78.9565 9.98683 76.8473 8.75041 74.4472 8.16857C70.3016 7.22308 66.956 9.76864 66.7378 13.987C66.5923 17.1871 67.756 19.9509 69.647 22.4237C73.5017 27.6603 78.8838 30.7149 84.8476 32.8969C85.7931 33.2605 86.375 33.5514 86.4477 34.1333L90.0842 32.6787Z" fill="#9C00FF"/>
<path d="M114.958 56.9706H106.521L98.9573 67.8074L91.2479 56.9706H82.4475L94.2298 73.4804L81.793 90.572H90.7388L98.7391 78.8624L106.812 90.572H115.758L103.248 73.1895L114.958 56.9706Z" fill="white"/>
<path d="M126.886 64.7527H119.395V90.572H126.886V64.7527Z" fill="white"/>
<path d="M123.104 61.1162C124.486 61.1162 125.65 60.6798 126.45 59.8798C127.322 59.0798 127.759 58.0615 127.759 56.7524C127.759 55.5887 127.322 54.5705 126.45 53.8432C125.577 53.1159 124.486 52.6795 123.104 52.6795C121.722 52.6795 120.631 53.1159 119.758 53.9159C118.886 54.716 118.449 55.7342 118.449 56.8979C118.449 58.0615 118.886 59.0798 119.758 59.8798C120.631 60.7526 121.795 61.1162 123.104 61.1162Z" fill="white"/>
<path d="M146.668 63.2254H158.523V79.2261C158.523 82.9353 156.923 84.8263 153.796 84.8263C152.632 84.8263 151.541 84.5354 150.523 83.8808C149.505 83.2262 148.487 82.3535 147.614 81.117L143.323 86.2809C144.559 87.881 146.086 89.0446 147.977 89.9174C149.868 90.7902 151.978 91.2265 154.232 91.2265C158.232 91.2265 161.214 90.2083 163.251 88.1719C165.287 86.1354 166.306 83.008 166.306 78.8624V57.0433H146.741L146.668 63.2254Z" fill="#9C00FF"/>
<path d="M191.906 77.5533C191.906 79.1533 191.616 80.3897 191.106 81.4807C190.597 82.4989 189.87 83.299 188.997 83.8081C188.125 84.3172 187.106 84.5354 185.943 84.5354C184.27 84.5354 182.961 84.0263 182.088 83.008C181.215 81.9898 180.706 80.3898 180.706 78.2806V64.7527H173.215V79.3715C173.215 81.9898 173.651 84.2445 174.597 85.9172C175.542 87.6628 176.851 88.8992 178.524 89.6992C180.197 90.4993 182.088 90.9356 184.27 90.9356C186.234 90.9356 188.052 90.4993 189.797 89.5538C190.816 89.0446 191.616 88.3173 192.343 87.5173V90.572H199.47V64.7527H191.979L191.906 77.5533Z" fill="#9C00FF"/>
<path d="M225.944 67.1528C223.762 65.2618 220.708 64.389 216.78 64.389C214.744 64.389 212.707 64.68 210.744 65.1891C208.78 65.6982 207.034 66.4982 205.653 67.5164L208.344 72.753C209.289 72.0257 210.38 71.4439 211.689 71.0075C212.998 70.5711 214.38 70.3529 215.762 70.3529C217.798 70.3529 219.253 70.7893 220.271 71.7348C221.217 72.6076 221.726 73.844 221.726 75.444H215.762C213.144 75.444 211.035 75.735 209.362 76.4623C207.762 77.1168 206.525 77.9896 205.798 79.1533C205.071 80.317 204.707 81.6261 204.707 83.1534C204.707 84.6808 205.071 85.9899 205.871 87.1536C206.671 88.3173 207.762 89.2628 209.144 89.9901C210.598 90.6446 212.344 91.0083 214.307 91.0083C216.562 91.0083 218.453 90.5719 219.908 89.6992C220.853 89.1173 221.653 88.3173 222.235 87.3718V90.5719H229.217V75.8077C229.217 71.8802 228.126 68.971 225.944 67.1528ZM219.544 85.0444C218.526 85.6263 217.435 85.9172 216.198 85.9172C214.889 85.9172 213.871 85.6263 213.071 85.1172C212.344 84.5353 211.98 83.808 211.98 82.8625C211.98 81.9898 212.344 81.2625 212.998 80.6806C213.653 80.0988 214.889 79.8078 216.635 79.8078H221.799V82.4261C221.29 83.5898 220.562 84.4626 219.544 85.0444Z" fill="#9C00FF"/>
<path d="M261 69.3347C260.055 67.6619 258.818 66.4255 257.218 65.6254C255.618 64.8254 253.8 64.389 251.691 64.389C249.509 64.389 247.545 64.8254 245.8 65.7709C244.781 66.3528 243.909 67.0073 243.181 67.8801V64.7527H236.054V90.5719H243.545V77.7714C243.545 76.1713 243.836 74.8622 244.345 73.844C244.854 72.8257 245.581 72.0984 246.527 71.5893C247.472 71.0802 248.563 70.862 249.727 70.862C251.4 70.862 252.709 71.3711 253.582 72.3894C254.454 73.4076 254.964 74.9349 254.964 76.9714V90.5719H262.455V75.8077C262.382 73.1894 261.946 71.0075 261 69.3347Z" fill="#9C00FF"/>
</svg>
