<svg width="234" height="255" viewBox="0 0 234 255" fill="none" xmlns="http://www.w3.org/2000/svg">
<g clip-path="url(#clip0_63_6546)">
<path d="M117 255.005C181.617 255.005 234 202.495 234 137.721C234 72.947 181.617 20.4371 117 20.4371C52.3827 20.4371 0 72.947 0 137.721C0 202.495 52.3827 255.005 117 255.005Z" fill="#F3F4F4"/>
<path d="M67.2793 145.078L104.229 108.039L79.3206 83.0707L32.4441 130.061L47.3598 145.013C53.607 141.854 61.0422 141.874 67.2743 145.078H67.2793Z" fill="#83CDAC"/>
<path d="M139.618 22.6323L128.8 33.4766L153.708 58.4452L175.797 36.3024C164.757 29.8584 152.575 25.1756 139.623 22.6323H139.618Z" fill="#8AD0FF"/>
<path d="M234 138.937V122.522L225.81 130.727L234 138.937Z" fill="#F3F4F4"/>
<path d="M101.556 60.7833L99.1781 63.1669L124.084 88.1336L126.462 85.7501L101.556 60.7833Z" fill="#ECECEC"/>
<path d="M93.2346 57.2038L95.6157 54.8169L70.8032 29.9391C69.7007 30.4135 68.6033 30.908 67.521 31.4177L93.2397 57.1988L93.2346 57.2038Z" fill="#ECECEC"/>
<path d="M137.418 169.331L81.1378 225.747L43.4936 188.012L41.1125 190.398L78.7567 228.134L64.4149 242.511C65.472 243.046 66.5443 243.565 67.6215 244.065L81.1378 230.516L97.75 247.168L100.131 244.781L83.5189 228.129L139.799 171.712L137.418 169.326V169.331Z" fill="#ECECEC"/>
<path d="M168.307 188.37L216.291 140.269L210.34 134.305L162.356 182.405L141.214 161.211C140.272 162.114 139.326 162.982 138.385 163.825C138.178 164.012 137.967 164.199 137.76 164.385C136.804 165.223 135.847 166.025 134.891 166.802L156.406 188.37L100.126 244.786L97.7451 247.173L92.5098 252.421C95.8574 253.138 99.2553 253.708 102.704 254.127L103.695 253.133L106.076 250.746L162.356 194.329L193.98 226.03C196.094 224.178 198.138 222.25 200.111 220.252L168.302 188.365L168.307 188.37Z" fill="white"/>
<path d="M14.7344 80.7141L42.2552 108.302L44.6363 105.915L16.4761 77.6863C15.8821 78.6855 15.3032 79.6947 14.7344 80.7141Z" fill="#ECECEC"/>
<path d="M197.413 217.547L199.794 219.934L206.746 212.965C210.944 207.939 214.73 202.55 218.052 196.858L197.413 217.547Z" fill="#ECECEC"/>
<path d="M200.821 155.776L225.835 180.851C226.288 179.706 226.716 178.55 227.134 177.384L203.202 153.395L200.821 155.781V155.776Z" fill="#ECECEC"/>
<path d="M20.4985 137.161L16.9848 133.639L0.639404 150.024C1.00185 153.531 1.52539 156.987 2.19491 160.394L22.9349 139.603L20.9969 137.661L20.5035 137.166L20.4985 137.161Z" fill="white"/>
<path d="M113.33 37.0593L79.3257 71.1465L49.892 41.6413C47.5713 43.2712 45.311 44.9869 43.1213 46.7783L73.3755 77.1061L44.6365 105.915L42.2554 108.302L26.499 124.096L30.0127 127.619L30.5061 128.113L32.4442 130.056L79.3207 83.0656L104.229 108.034L105.346 106.914L107.884 104.371L110.179 102.07L85.2709 77.101L119.275 43.0139L113.325 37.0493L113.33 37.0593Z" fill="white"/>
<path d="M231.423 113.176L219.859 124.768L220.438 125.348L222.83 127.745L225.805 130.727L233.124 123.39C232.706 119.933 232.132 116.527 231.423 113.171V113.176Z" fill="white"/>
<path d="M64.425 162.392C64.3042 162.014 64.1582 161.645 63.977 161.287C63.6246 160.585 63.1615 159.924 62.5775 159.339C61.8073 158.567 60.9113 158.002 59.9598 157.638C59.391 157.422 58.802 157.275 58.203 157.199C57.2113 157.073 56.1995 157.144 55.2279 157.416C55.1071 157.452 54.9863 157.492 54.8705 157.533C53.7982 157.891 52.7914 158.491 51.9357 159.344C51.397 159.884 50.9591 160.485 50.6218 161.12C50.4204 161.494 50.2593 161.887 50.1285 162.281C49.7711 163.361 49.6603 164.501 49.8013 165.622C49.8516 166.005 49.9221 166.389 50.0328 166.767C50.3751 167.953 51.0094 169.073 51.9407 170.012C52.278 170.35 52.6455 170.648 53.023 170.905C53.8838 171.495 54.8352 171.889 55.8269 172.081C57.1005 172.328 58.4194 172.237 59.6528 171.823C60.725 171.465 61.7318 170.865 62.5826 170.012C63.2621 169.331 63.7806 168.548 64.1431 167.716C64.2337 167.504 64.3193 167.292 64.3898 167.075C64.7572 165.97 64.8629 164.799 64.7069 163.654C64.6515 163.23 64.5609 162.811 64.43 162.402L64.425 162.392Z" fill="white"/>
<path d="M233.985 138.922L198.742 103.594L220.081 82.2027C217.886 78.1203 215.455 74.1793 212.812 70.4047L189.223 94.0512L163.227 67.9926L187.239 43.9222C183.585 41.167 179.764 38.6287 175.797 36.3075L153.708 58.4502L115.807 20.4573C109.837 20.5179 103.977 21.0225 98.2535 21.946L144.189 67.9926L67.2844 145.084C61.0523 141.879 53.6171 141.859 47.3699 145.018L5.27064 102.811C3.71514 107.817 2.49692 112.964 1.61597 118.233L37.7802 154.48C34.4879 160.797 34.4678 168.382 37.7147 174.715L15.832 196.651C18.1426 200.627 20.6797 204.462 23.4282 208.126L47.234 184.262C55.3739 188.451 65.5778 187.204 72.4945 180.523C76.0888 181.689 79.9751 182.582 84.0979 183.081C86.4488 183.364 88.8751 183.52 91.367 183.52C95.5402 183.52 99.8996 183.081 104.385 182.102C114.121 179.973 124.471 175.265 134.901 166.802C135.857 166.025 138.188 164.012 138.395 163.825C139.336 162.982 140.282 162.12 141.224 161.211C141.787 160.671 189.223 113.131 189.223 113.131L232.5 156.513C233.421 150.776 233.93 144.902 233.985 138.917V138.922ZM64.3848 167.065C64.3143 167.282 64.2287 167.494 64.1381 167.706C63.7706 168.538 63.2572 169.32 62.5776 170.002C61.7268 170.855 60.715 171.455 59.6478 171.813C58.4094 172.227 57.0905 172.318 55.822 172.071C54.8353 171.879 53.8839 171.485 53.018 170.895C52.6355 170.632 52.273 170.34 51.9357 170.002C51.0044 169.068 50.3702 167.943 50.0278 166.757C49.9221 166.384 49.8466 166 49.7963 165.611C49.6553 164.491 49.7661 163.351 50.1235 162.271C50.2544 161.872 50.4155 161.484 50.6168 161.11C50.9591 160.469 51.3921 159.869 51.9307 159.334C52.7814 158.481 53.7933 157.881 54.8655 157.522C54.9863 157.482 55.1021 157.442 55.2229 157.406C56.1945 157.134 57.2063 157.063 58.198 157.189C58.7971 157.265 59.386 157.411 59.9549 157.628C60.9113 157.997 61.8074 158.562 62.5726 159.329C63.1565 159.914 63.6196 160.575 63.972 161.277C64.1532 161.635 64.2992 162.003 64.42 162.382C64.5509 162.791 64.6415 163.209 64.6969 163.633C64.853 164.779 64.7472 165.95 64.3798 167.055L64.3848 167.065ZM133.381 150.019C111.991 171.46 92.1674 171.939 78.9179 168.256C79.673 163.654 78.9683 158.855 76.7986 154.616L153.703 77.5249L179.698 103.584L133.381 150.014V150.019Z" fill="#FEE379"/>
<path opacity="0.3" d="M118.047 20.4472V136.873L199.834 54.8876C178.883 33.8348 149.993 20.7248 118.047 20.4422V20.4472Z" fill="url(#paint0_linear_63_6546)"/>
<path d="M110.833 0.41376C90.2293 3.17908 74.483 19.7206 72.565 40.4706C71.2461 54.7412 76.6224 67.7806 85.9051 76.8184C89.4792 80.3003 92.8017 84.0143 95.8523 87.9352C104.501 99.052 110.421 112.046 113.486 125.807L115.948 136.878C116.059 137.373 116.492 137.721 116.995 137.721C117.498 137.721 117.936 137.373 118.042 136.878L120.66 125.106C123.635 111.733 129.338 99.0823 137.685 88.2329C140.66 84.3675 143.927 80.7242 147.501 77.3684C156.19 69.2087 161.621 57.6125 161.621 44.7346C161.621 17.9947 138.218 -3.26493 110.828 0.408714L110.833 0.41376Z" fill="url(#paint1_linear_63_6546)"/>
<path d="M122.208 61.0981C129.286 58.2155 132.693 50.1268 129.817 43.0315C126.942 35.9362 118.873 32.521 111.795 35.4036C104.716 38.2861 101.31 46.3748 104.185 53.4702C107.061 60.5655 115.13 63.9806 122.208 61.0981Z" fill="white"/>
</g>
<defs>
<linearGradient id="paint0_linear_63_6546" x1="171.503" y1="22.6575" x2="96.485" y2="111.882" gradientUnits="userSpaceOnUse">
<stop/>
<stop offset="1"/>
</linearGradient>
<linearGradient id="paint1_linear_63_6546" x1="138.103" y1="91.4726" x2="101.252" y2="10.2503" gradientUnits="userSpaceOnUse">
<stop stop-color="#BF3D48"/>
<stop offset="0.37" stop-color="#D74346"/>
<stop offset="0.54" stop-color="#E44746"/>
<stop offset="0.71" stop-color="#E84949"/>
<stop offset="0.9" stop-color="#F55252"/>
<stop offset="1" stop-color="#FF5959"/>
</linearGradient>
<clipPath id="clip0_63_6546">
<rect width="234" height="255" fill="white"/>
</clipPath>
</defs>
</svg>
