<svg width="287" height="145" viewBox="0 0 287 145" fill="none" xmlns="http://www.w3.org/2000/svg">
<path d="M4.61709 36.9186C4.69614 37.1557 5.01234 37.3138 5.24948 37.3929C7.30476 38.5786 8.4905 40.5548 9.51814 42.6101C11.5734 46.7997 12.6011 51.3055 13.8659 55.7323C14.182 56.918 13.7868 57.7876 13.1544 58.6571C9.99244 63.0839 6.83047 67.6687 1.45512 69.8821C0.348435 70.3564 -0.204915 71.2259 0.190331 72.4117C0.664627 73.7555 1.77132 73.1231 2.64086 72.886C4.22185 72.4117 5.40759 71.384 6.59332 70.1983C9.20195 67.6687 11.0991 64.5858 13.2335 61.74C13.6287 61.2657 13.8659 60.3171 14.5773 60.3962C15.5259 60.4752 15.3678 61.5819 15.5259 62.2143C16.5535 65.4553 17.5812 68.6964 19.4783 71.6212C23.5889 78.0242 28.6481 78.8937 34.7348 74.3089C39.3988 70.7516 42.7979 66.1668 46.276 61.5029C46.8294 60.7914 47.3827 60.0009 47.9361 59.2895C48.8056 58.1038 50.5447 58.8943 50.3076 60.3171C49.2009 66.7201 47.6989 73.0441 46.197 79.289C45.7227 81.3442 44.6951 82.7671 42.956 83.9529C33.8653 90.1978 25.0118 96.9169 16.7116 104.11C8.9648 110.83 4.37994 119.051 5.64473 129.722C6.35617 135.967 9.20195 140.947 15.2887 143.24C21.6127 145.611 27.1461 143.635 31.81 138.971C36.3158 134.465 39.2407 129.011 41.6912 123.24C47.2246 110.434 50.6238 96.996 53.6276 83.4786C54.181 81.1071 55.1296 79.5261 57.422 78.3404C65.1688 74.1508 72.2832 68.9335 78.37 62.5305C85.0102 55.4951 90.2274 47.4321 95.4447 39.29C96.3933 37.7881 97.2628 36.9186 99.3181 37.4719C114.575 41.1082 129.831 40.3967 145.009 36.7605C157.894 33.6776 170.304 29.0927 183.031 25.6145C197.655 21.583 212.438 19.923 227.536 22.3735C243.346 24.9031 257.733 31.227 271.329 39.4481C275.835 42.2149 280.183 45.2187 284.609 48.0645C285.321 48.5388 286.19 49.1712 286.823 48.1436C287.376 47.274 286.507 46.7997 285.953 46.3254V46.2464C285.479 45.8511 284.847 45.4559 284.372 45.1397C277.258 40.1596 269.827 35.6538 262.08 31.6223C238.603 19.4487 214.019 15.3381 188.09 21.9783C175.363 25.2193 162.953 29.567 150.305 33.1242C134.179 37.551 117.895 39.0529 101.294 35.7328C98.9228 35.2585 98.3695 34.6261 99.7133 32.3337C103.824 25.5355 107.223 18.342 108.409 10.358C109.12 5.61507 107.539 1.74166 104.614 0.476869C101.69 -0.787919 97.9743 1.03021 95.1285 4.98267C93.4684 7.35415 92.3617 9.96278 91.4922 12.7295C91.176 13.599 90.1484 13.9943 89.4369 13.3619C88.8836 12.9666 88.4883 12.4924 87.935 12.0971C86.9073 11.3066 85.8797 10.5952 84.8521 9.96278C75.129 4.58743 69.6746 9.01419 73.3109 19.4487C73.8642 21.0297 74.7338 22.5316 75.7614 23.9545C79.951 29.646 85.8007 32.9661 92.2827 35.3376C93.9427 35.97 94.6542 36.3652 93.5475 38.2624C84.5359 53.1237 73.7061 66.3249 58.3706 75.1784C58.2915 75.2574 58.1334 75.3365 58.0544 75.4155C57.0267 76.127 55.6829 75.2574 55.92 74.0717C55.9991 73.6765 56.0781 73.2812 56.1572 72.8069C57.8172 64.7439 59.6354 56.7599 60.4259 48.5388C60.584 46.5626 59.9516 45.0606 57.8963 44.8235C55.6829 44.5073 53.6276 44.8235 52.8371 47.3531C52.5209 48.3807 52.2047 49.3293 51.5723 50.1988C48.5685 54.4675 45.7227 58.8152 42.6398 62.9258C39.715 66.8782 36.553 70.6726 32.4424 73.5184C28.4109 76.206 26.8299 75.7318 25.6442 70.9888C24.0632 64.823 22.7194 58.499 21.2174 52.2541C20.9803 51.3055 21.1384 50.5941 21.6127 49.8826C24.8537 45.2187 28.0157 40.5548 32.1262 36.6024C33.312 35.4957 34.5768 34.5471 36.3949 35.1795C37.4225 35.5747 38.2921 34.9423 38.6083 33.9147C38.8454 32.9661 38.213 32.3337 37.4225 31.8594C35.2882 30.5156 33.5491 31.8594 32.0472 33.0452C28.7271 35.7328 26.1975 39.132 23.8261 42.6892C23.1146 43.7959 22.3241 44.9025 21.5336 46.0883C20.9012 46.9578 19.6364 46.7997 19.2412 45.8511C18.3717 43.954 17.6602 42.1358 16.7907 40.4758C14.9725 36.7605 12.7592 33.4404 8.88575 31.5432C8.56955 31.3851 8.17431 31.227 7.85811 31.0689C7.62096 30.9899 7.30477 30.9899 7.06762 31.0689C2.87801 32.4128 4.61709 36.9186 4.61709 36.9186ZM44.1417 87.6682C40.1102 103.399 37.0273 119.367 28.49 133.517C26.909 136.125 24.9327 138.418 22.3241 139.999C18.1345 142.607 14.103 141.896 11.1782 137.864C8.72765 134.465 7.38381 130.671 7.70001 126.56C7.54191 119.999 9.91339 114.387 14.1821 109.723C22.4822 100.711 32.5215 93.755 42.4026 86.7196C42.8769 86.4034 43.3512 85.9291 43.9046 86.3243C44.1417 86.5615 44.2208 87.2729 44.1417 87.6682Z" fill="black"/>
<path d="M57.422 41.5035C59.7145 41.5825 61.7697 39.7644 61.8488 37.63C61.9278 35.5748 60.1097 33.7566 57.8963 33.5985C55.6829 33.5195 53.6277 35.1795 53.4696 37.1558C53.2324 39.2901 55.2087 41.4244 57.422 41.5035Z" fill="black"/>
<path d="M97.9743 35.0213C98.2905 34.8632 98.6857 34.7051 99.0019 34.547C98.7648 34.0727 99.0019 33.3613 99.7134 32.2546C103.824 25.4564 107.223 18.2629 108.409 10.2789C109.12 5.53597 107.539 1.66255 104.614 0.397767C101.69 -0.867021 97.9743 0.951113 95.1285 4.90357C93.1523 7.6703 92.0456 10.8323 91.0179 14.1523C89.5951 13.7571 88.8836 12.7295 87.935 12.018C85.8797 10.358 83.5873 9.01414 80.9787 8.38174C76.4729 7.3541 72.8366 10.1208 72.5995 14.7057C72.4414 18.1838 73.7062 21.1877 75.7614 23.8754C79.951 29.5669 85.8007 32.887 92.2827 35.2585C93.3104 35.6537 93.9428 35.9699 94.0218 36.6023L97.9743 35.0213Z" fill="#9C00FF"/>
<path d="M125.009 61.4238H115.839L107.618 73.2022L99.239 61.4238H89.6741L102.48 79.368L88.9626 97.9446H98.6857L107.381 85.2177L116.156 97.9446H125.879L112.282 79.0518L125.009 61.4238Z" fill="black"/>
<path d="M137.973 69.882H129.831V97.9445H137.973V69.882Z" fill="black"/>
<path d="M133.863 65.9296C135.365 65.9296 136.629 65.4553 137.499 64.5858C138.447 63.7162 138.922 62.6095 138.922 61.1866C138.922 59.9219 138.447 58.8152 137.499 58.0247C136.55 57.2342 135.365 56.7599 133.863 56.7599C132.361 56.7599 131.175 57.2342 130.226 58.1037C129.278 58.9733 128.803 60.08 128.803 61.3447C128.803 62.6095 129.278 63.7162 130.226 64.5858C131.175 65.5344 132.44 65.9296 133.863 65.9296Z" fill="black"/>
<path d="M159.474 68.2221H172.359V85.6129C172.359 89.6444 170.62 91.6997 167.221 91.6997C165.956 91.6997 164.771 91.3835 163.664 90.672C162.557 89.9606 161.451 89.012 160.502 87.6682L155.838 93.2807C157.182 95.0198 158.842 96.2845 160.897 97.2331C162.953 98.1817 165.245 98.656 167.696 98.656C172.043 98.656 175.284 97.5493 177.498 95.3359C179.711 93.1226 180.818 89.7235 180.818 85.2176V61.5029H159.553L159.474 68.2221Z" fill="#9C00FF"/>
<path d="M208.643 83.7948C208.643 85.5338 208.327 86.8777 207.773 88.0634C207.22 89.1701 206.43 90.0396 205.481 90.593C204.532 91.1463 203.426 91.3835 202.161 91.3835C200.343 91.3835 198.92 90.8301 197.971 89.7234C197.023 88.6168 196.469 86.8777 196.469 84.5852V69.8821H188.327V85.771C188.327 88.6168 188.802 91.0673 189.829 92.8854C190.857 94.7826 192.28 96.1264 194.098 96.996C195.916 97.8655 197.971 98.3398 200.343 98.3398C202.477 98.3398 204.453 97.8655 206.351 96.8379C207.457 96.2845 208.327 95.494 209.117 94.6245V97.9446H216.864V69.8821H208.722L208.643 83.7948Z" fill="#9C00FF"/>
<path d="M245.638 72.4907C243.267 70.4354 239.947 69.4868 235.678 69.4868C233.464 69.4868 231.251 69.803 229.117 70.3564C226.982 70.9097 225.085 71.7792 223.583 72.8859L226.508 78.5775C227.536 77.787 228.722 77.1546 230.144 76.6803C231.567 76.206 233.069 75.9689 234.571 75.9689C236.785 75.9689 238.366 76.4432 239.472 77.4708C240.5 78.4194 241.053 79.7632 241.053 81.5023H234.571C231.725 81.5023 229.433 81.8185 227.615 82.609C225.876 83.3204 224.532 84.269 223.741 85.5338C222.951 86.7986 222.556 88.2215 222.556 89.8815C222.556 91.5416 222.951 92.9644 223.82 94.2292C224.69 95.494 225.876 96.5217 227.378 97.3121C228.959 98.0236 230.856 98.4188 232.99 98.4188C235.441 98.4188 237.496 97.9445 239.077 96.996C240.105 96.3636 240.974 95.494 241.607 94.4664V97.9445H249.195V81.8975C249.195 77.6289 248.01 74.4669 245.638 72.4907ZM238.682 91.9368C237.575 92.5692 236.389 92.8854 235.045 92.8854C233.623 92.8854 232.516 92.5692 231.646 92.0159C230.856 91.3835 230.461 90.593 230.461 89.5653C230.461 88.6167 230.856 87.8262 231.567 87.1939C232.279 86.5615 233.623 86.2453 235.52 86.2453H241.132V89.091C240.579 90.3558 239.788 91.3044 238.682 91.9368Z" fill="#9C00FF"/>
<path d="M283.74 74.8622C282.712 73.044 281.368 71.7002 279.629 70.8307C277.89 69.9611 275.914 69.4868 273.622 69.4868C271.25 69.4868 269.116 69.9611 267.219 70.9888C266.112 71.6212 265.163 72.3326 264.373 73.2812V69.8821H256.626V97.9445H264.768V84.0319C264.768 82.2928 265.084 80.8699 265.638 79.7632C266.191 78.6565 266.981 77.866 268.009 77.3127C269.037 76.7594 270.222 76.5222 271.487 76.5222C273.305 76.5222 274.728 77.0755 275.677 78.1822C276.625 79.2889 277.179 80.949 277.179 83.1623V97.9445H285.321V81.8975C285.242 79.0518 284.767 76.6803 283.74 74.8622Z" fill="#9C00FF"/>
</svg>
