<svg width="304" height="249" viewBox="0 0 304 249" fill="none" xmlns="http://www.w3.org/2000/svg">
<g clip-path="url(#clip0_151_10041)">
<path d="M26.7475 171.261C0.873693 128.958 -8.45241 36.6207 76.3271 21.9158C139.704 10.9234 173.138 62.3982 186.933 62.3982C217.864 62.3982 219.911 25.2515 258.953 38.594C325.7 61.4051 297.54 163.074 275.555 189.228C209.875 267.365 71.3995 244.266 26.7475 171.261Z" fill="#F6F7FF"/>
<path d="M147.196 248.972L147.224 247.456C148.22 247.475 149.23 247.484 150.225 247.484C150.483 247.484 150.741 247.484 150.999 247.482L151.006 248.998C150.746 249 150.486 249 150.225 249C149.221 249 148.202 248.99 147.196 248.972H147.196ZM154.776 247.419C156.033 247.384 157.303 247.331 158.552 247.266L158.631 248.78C157.371 248.847 156.088 248.898 154.82 248.935L154.776 247.419ZM139.583 248.652L139.682 247.139C140.934 247.221 142.202 247.289 143.451 247.341L143.388 248.856C142.126 248.803 140.846 248.734 139.583 248.651V248.652ZM162.323 247.021C163.576 246.924 164.843 246.811 166.087 246.683L166.241 248.192C164.984 248.32 163.705 248.435 162.439 248.533L162.323 247.021L162.323 247.021ZM131.996 247.98L132.164 246.472C133.407 246.612 134.671 246.738 135.92 246.848L135.785 248.359C134.525 248.247 133.25 248.119 131.995 247.979L131.996 247.98ZM169.842 246.251C171.09 246.092 172.349 245.915 173.585 245.724L173.815 247.223C172.567 247.415 171.295 247.594 170.034 247.755L169.842 246.251ZM124.447 246.958L124.685 245.461C125.921 245.658 127.177 245.842 128.419 246.01L128.216 247.513C126.963 247.343 125.695 247.156 124.448 246.958H124.447ZM177.312 245.101C178.552 244.877 179.8 244.634 181.022 244.379L181.332 245.863C180.096 246.121 178.835 246.366 177.582 246.593L177.312 245.101ZM116.956 245.59L117.263 244.105C118.488 244.358 119.734 244.601 120.966 244.826L120.694 246.317C119.451 246.09 118.193 245.845 116.956 245.589V245.59ZM184.702 243.558C185.924 243.268 187.153 242.958 188.356 242.637L188.748 244.101C187.532 244.426 186.288 244.74 185.053 245.034L184.702 243.558H184.702ZM109.537 243.873L109.914 242.405C111.121 242.714 112.355 243.015 113.578 243.298L113.237 244.775C112.002 244.489 110.757 244.185 109.537 243.873ZM191.983 241.61C193.188 241.25 194.397 240.869 195.577 240.479L196.054 241.919C194.86 242.314 193.637 242.699 192.417 243.063L191.983 241.611V241.61ZM102.209 241.806L102.655 240.357C103.846 240.724 105.064 241.083 106.272 241.424L105.86 242.884C104.64 242.539 103.412 242.177 102.209 241.806V241.806ZM199.135 239.24C200.315 238.809 201.499 238.356 202.652 237.892L203.217 239.299C202.048 239.768 200.851 240.227 199.655 240.664L199.134 239.239L199.135 239.24ZM94.9892 239.384L95.5069 237.959C96.679 238.384 97.8767 238.803 99.0662 239.202L98.5841 240.639C97.3825 240.236 96.1733 239.814 94.9892 239.383V239.384ZM87.8994 236.604L88.4892 235.207C89.6355 235.691 90.8098 236.168 91.9803 236.628L91.4269 238.039C90.2442 237.576 89.0578 237.093 87.8994 236.604ZM206.123 236.431C207.272 235.926 208.423 235.397 209.543 234.858L210.2 236.225C209.065 236.77 207.899 237.307 206.734 237.82L206.124 236.431H206.123ZM80.9628 233.46L81.6254 232.097C82.7451 232.64 83.8921 233.179 85.0361 233.698L84.4099 235.079C83.2538 234.555 82.0939 234.011 80.9621 233.461L80.9628 233.46ZM212.907 233.169C214.02 232.586 215.133 231.977 216.215 231.359L216.967 232.676C215.87 233.302 214.74 233.92 213.611 234.512L212.907 233.169ZM74.2052 229.946L74.942 228.621C76.0299 229.226 77.1458 229.825 78.2595 230.405L77.5597 231.749C76.4332 231.163 75.3044 230.557 74.2052 229.945V229.946ZM219.454 229.43C220.521 228.767 221.585 228.078 222.616 227.381L223.465 228.637C222.418 229.345 221.338 230.044 220.254 230.718L219.454 229.43L219.454 229.43ZM67.6552 226.055L68.4671 224.774C69.5156 225.439 70.5959 226.102 71.6762 226.745L70.9021 228.048C69.809 227.399 68.7158 226.728 67.6552 226.055V226.055ZM225.693 225.212C226.705 224.469 227.709 223.699 228.68 222.923L229.627 224.107C228.64 224.896 227.619 225.679 226.592 226.434L225.694 225.212H225.693ZM61.3463 221.773L62.2378 220.546C63.2438 221.278 64.2802 222.006 65.3188 222.71L64.4674 223.965C63.4152 223.251 62.3652 222.514 61.3463 221.773ZM231.568 220.514C232.512 219.691 233.448 218.841 234.349 217.985L235.393 219.085C234.477 219.955 233.525 220.821 232.564 221.657L231.569 220.514H231.568ZM55.3331 217.083L56.3057 215.92C57.2602 216.718 58.2449 217.514 59.2327 218.283L58.3003 219.479C57.2988 218.698 56.3004 217.891 55.3331 217.082V217.083ZM237.016 215.341C237.884 214.442 238.74 213.514 239.561 212.582L240.698 213.585C239.862 214.534 238.99 215.478 238.107 216.394L237.016 215.341ZM49.6587 211.982L50.7125 210.892C51.6078 211.757 52.5335 212.62 53.4644 213.456L52.4508 214.584C51.5062 213.736 50.5669 212.86 49.6587 211.983V211.982ZM241.977 209.715C242.757 208.743 243.525 207.743 244.256 206.741L245.481 207.634C244.735 208.656 243.954 209.674 243.158 210.665L241.977 209.715ZM44.3687 206.481L45.4998 205.472C46.3292 206.401 47.1896 207.329 48.0561 208.23L46.9637 209.281C46.0843 208.367 45.211 207.425 44.3695 206.481H44.3687ZM246.398 203.659C247.084 202.62 247.755 201.552 248.391 200.483L249.693 201.259C249.045 202.347 248.361 203.436 247.662 204.494L246.398 203.658V203.659ZM39.5025 200.6L40.7064 199.678C41.4637 200.667 42.2514 201.658 43.0481 202.62L41.8799 203.587C41.071 202.609 40.2712 201.605 39.5025 200.6ZM250.217 197.214C250.77 196.146 251.318 195.011 251.846 193.837L253.229 194.459C252.689 195.658 252.129 196.819 251.563 197.911L250.217 197.214ZM35.0957 194.365L36.3663 193.538C37.0478 194.584 37.7581 195.631 38.4783 196.649L37.2404 197.524C36.5096 196.49 35.7878 195.427 35.0957 194.365V194.365ZM31.1741 187.814L32.5038 187.085C33.1049 188.181 33.7342 189.279 34.374 190.348L33.0731 191.126C32.4234 190.04 31.7843 188.926 31.1741 187.813V187.814ZM253.308 190.376C253.757 189.244 254.199 188.058 254.624 186.852L256.054 187.355C255.622 188.58 255.173 189.784 254.716 190.934L253.307 190.376H253.308ZM27.7535 180.987L29.1333 180.358C29.6526 181.497 30.1984 182.639 30.7564 183.753L29.4009 184.432C28.8346 183.302 28.2804 182.143 27.7543 180.987H27.7535ZM255.813 183.278C256.182 182.106 256.543 180.891 256.888 179.666L258.347 180.077C257.998 181.316 257.632 182.546 257.259 183.733L255.813 183.278H255.813ZM24.8417 173.928L26.2631 173.4C26.6998 174.576 27.1615 175.755 27.636 176.905L26.2343 177.483C25.7529 176.317 25.2844 175.12 24.8417 173.928ZM257.859 176.023C258.161 174.824 258.455 173.589 258.734 172.353L260.213 172.686C259.931 173.935 259.634 175.182 259.329 176.393L257.859 176.023ZM22.4324 166.684L23.8865 166.254C24.242 167.459 24.6211 168.668 25.0138 169.849L23.5749 170.327C23.1769 169.131 22.7933 167.905 22.4324 166.684V166.684ZM259.519 168.662C259.763 167.445 259.999 166.197 260.22 164.954L261.713 165.219C261.49 166.474 261.252 167.733 261.006 168.961L259.519 168.663V168.662ZM20.5107 159.296L21.9897 158.961C22.2687 160.192 22.5681 161.424 22.8797 162.624L21.4121 163.005C21.0967 161.791 20.7934 160.543 20.5107 159.297V159.296ZM260.84 161.229C261.032 159.997 261.215 158.74 261.382 157.492L262.885 157.695C262.715 158.952 262.532 160.22 262.338 161.463L260.84 161.229ZM19.04 151.81L20.5349 151.557C20.7525 152.845 20.9739 154.06 21.2112 155.27L19.723 155.562C19.4835 154.338 19.2598 153.111 19.04 151.81ZM261.849 153.744C261.991 152.504 262.123 151.241 262.241 149.992L263.751 150.134C263.632 151.393 263.498 152.666 263.356 153.916L261.849 153.744ZM18.2197 146.542C18.0946 145.693 17.9862 144.959 17.8816 144.3L19.3788 144.063C19.485 144.73 19.5934 145.467 19.7192 146.322C19.789 146.796 19.8633 147.297 19.9421 147.824L18.4426 148.049C18.3637 147.521 18.2894 147.018 18.2189 146.543L18.2197 146.542ZM262.56 146.232C262.654 144.983 262.736 143.715 262.805 142.465L264.319 142.549C264.249 143.809 264.166 145.086 264.071 146.345L262.56 146.232ZM262.978 138.693C263.023 137.436 263.056 136.166 263.076 134.918L264.592 134.942C264.572 136.2 264.539 137.481 264.494 138.748L262.978 138.693ZM263.043 127.366L264.559 127.328C264.591 128.585 264.609 129.866 264.615 131.136L263.099 131.142C263.093 129.882 263.074 128.613 263.043 127.367V127.366ZM262.689 119.824L264.202 119.719C264.289 120.97 264.363 122.249 264.422 123.522L262.908 123.593C262.849 122.333 262.775 121.064 262.689 119.824H262.689ZM261.986 112.311L263.491 112.132C263.639 113.375 263.774 114.649 263.893 115.921L262.384 116.062C262.266 114.803 262.133 113.541 261.987 112.311H261.986ZM260.893 104.852L262.387 104.589C262.603 105.819 262.807 107.086 262.992 108.353L261.492 108.572C261.308 107.318 261.107 106.067 260.893 104.852ZM259.354 97.4799L260.827 97.1205C261.123 98.332 261.406 99.5844 261.668 100.844L260.184 101.153C259.925 99.9111 259.646 98.6754 259.354 97.4806V97.4799ZM257.292 90.2491L258.731 89.7731C259.122 90.9557 259.499 92.1853 259.853 93.4271L258.394 93.8418C258.047 92.6197 257.675 91.4113 257.291 90.2484L257.292 90.2491ZM255.215 84.6749C255.014 84.1957 254.808 83.7128 254.601 83.2405L255.99 82.6333C256.2 83.1132 256.41 83.6037 256.613 84.0896C256.897 84.7673 257.177 85.4671 257.447 86.1698L256.032 86.7126C255.768 86.0243 255.493 85.339 255.215 84.6756V84.6749ZM251.328 76.47L252.667 75.7589C253.262 76.8778 253.843 78.0233 254.394 79.1643L253.029 79.8238C252.486 78.7003 251.914 77.5715 251.328 76.47H251.328ZM247.55 69.967L248.831 69.1559C249.51 70.227 250.176 71.3255 250.812 72.421L249.501 73.1829C248.875 72.1049 248.219 71.0223 247.55 69.967ZM243.291 63.7658L244.508 62.8614C245.265 63.8803 246.012 64.9257 246.728 65.9681L245.478 66.8262C244.772 65.799 244.037 64.7695 243.291 63.765V63.7658ZM238.584 57.8951L239.732 56.9043C240.562 57.8655 241.384 58.8533 242.174 59.8396L240.992 60.788C240.212 59.8161 239.403 58.8427 238.585 57.8951H238.584ZM233.465 52.3761L234.54 51.3065C235.436 52.2071 236.326 53.1327 237.186 54.0591L236.075 55.0901C235.227 54.1766 234.35 53.2639 233.466 52.3761H233.465ZM227.972 47.2256L228.971 46.0847C229.927 46.9216 230.878 47.7836 231.8 48.6478L230.763 49.7539C229.854 48.9018 228.915 48.0512 227.972 47.2256H227.972ZM222.141 42.4572L223.061 41.2526C224.07 42.0236 225.078 42.8196 226.057 43.6194L225.097 44.7929C224.131 44.0037 223.137 43.2176 222.141 42.4572ZM216.007 38.0807L216.847 36.8185C217.905 37.5235 218.963 38.252 219.99 38.9844L219.11 40.2185C218.096 39.4953 217.052 38.7759 216.007 38.0799V38.0807ZM209.739 34.1659L209.605 34.087L210.375 32.7808L210.51 32.8604C211.374 33.3714 212.421 33.9953 213.637 34.7527L212.836 36.0399C211.633 35.2909 210.595 34.6723 209.739 34.1659H209.739ZM109.996 33.3039C110.733 32.3389 111.633 31.3738 112.673 30.4353L113.688 31.5603C112.718 32.4367 111.881 33.3327 111.201 34.2235L109.996 33.3039ZM203 30.4717L203.684 29.1185C204.81 29.6878 205.947 30.2859 207.06 30.8955L206.332 32.2252C205.233 31.6232 204.112 31.0334 203.001 30.4709L203 30.4717ZM115.72 28.0283C116.731 27.3241 117.831 26.6334 118.992 25.9777L119.738 27.2975C118.619 27.9305 117.558 28.5946 116.587 29.2716L115.72 28.0283ZM196.173 27.299L196.765 25.9034C197.927 26.3962 199.1 26.9177 200.252 27.4537L199.613 28.8289C198.476 28.3005 197.319 27.7865 196.172 27.2998L196.173 27.299ZM189.148 24.5979L189.643 23.1644C190.837 23.5768 192.044 24.0165 193.228 24.4721L192.684 25.8875C191.515 25.4379 190.326 25.0043 189.148 24.5979ZM122.414 24.2174C123.542 23.689 124.729 23.1803 125.944 22.705L126.496 24.1173C125.313 24.5805 124.156 25.0755 123.058 25.5903L122.415 24.2174H122.414ZM181.952 22.3957L182.344 20.931C183.565 21.2578 184.8 21.6118 186.013 21.9833L185.57 23.4328C184.373 23.0666 183.157 22.7179 181.952 22.3957ZM129.554 21.4139C130.746 21.025 131.981 20.6581 133.225 20.323L133.62 21.7869C132.4 22.1152 131.191 22.4745 130.024 22.8551L129.554 21.4139ZM174.618 20.7157L174.902 19.2261C176.144 19.4634 177.401 19.7272 178.639 20.0107L178.3 21.4882C177.08 21.2085 175.842 20.9485 174.618 20.715V20.7157ZM136.945 19.4194C138.175 19.1518 139.439 18.9077 140.701 18.6924L140.955 20.1873C139.715 20.3981 138.474 20.6384 137.267 20.9007L136.945 19.4194ZM167.182 19.5801L167.355 18.0738C168.611 18.2178 169.885 18.3884 171.14 18.5802L170.911 20.0789C169.675 19.8902 168.42 19.7219 167.183 19.5801H167.182ZM144.484 18.1359C145.735 17.979 147.014 17.8463 148.286 17.7417L148.411 19.2526C147.161 19.3557 145.903 19.4861 144.673 19.6407L144.484 18.1359ZM159.682 19.0085L159.739 17.4931C161.002 17.5408 162.285 17.6136 163.552 17.7106L163.437 19.2223C162.189 19.1268 160.926 19.0547 159.682 19.0077V19.0085ZM152.1 17.5059C153.363 17.4536 154.648 17.4263 155.92 17.4241L155.923 18.9403C154.67 18.9418 153.405 18.9691 152.163 19.0206L152.1 17.5059Z" fill="#4E2DA3"/>
<path d="M35.1672 61.3846C37.8016 58.1324 62.257 28.9654 102.419 29.8607C139.491 30.687 175.444 56.805 178.424 82.0845C180.954 103.542 158.675 115.454 166.565 129.109C173.989 141.958 195.472 134.454 214.602 150.71C227.615 161.768 236.105 180.904 230.779 196.658C223.275 218.854 191.303 225.588 179.843 228.001C139.204 236.56 82.8826 225.256 48.6462 186.396C18.7028 152.41 5.85538 97.5777 35.1672 61.3846Z" fill="#9610FF"/>
<path d="M252.508 0L252.149 5.40826L246.001 4.99965L245.858 7.15795L252.006 7.56657L251.645 12.9756L254.099 13.1386L254.459 7.72956L260.606 8.13893L260.749 5.98063L254.602 5.57125L254.962 0.162991L252.508 0Z" fill="#E4E7FF"/>
<path d="M286.693 22.9855C282.374 20.1229 276.553 21.3025 273.69 25.6214C270.827 29.9403 272.007 35.7617 276.326 38.6243C280.645 41.4869 286.466 40.3073 289.329 35.9884C292.191 31.6695 291.012 25.8481 286.693 22.9855ZM278.192 35.8095C275.428 33.9771 274.673 30.2519 276.506 27.4878C278.338 24.7238 282.063 23.9688 284.827 25.8011C287.591 27.6334 288.346 31.3587 286.514 34.1227C284.682 36.8867 280.956 37.6418 278.192 35.8095Z" fill="#CECDFF"/>
<path d="M46.85 175.437V182.322H40.689V185.07H46.85V191.957H49.3093V185.07H55.4703V182.322H49.3093V175.437H46.85Z" fill="#4E2DA3"/>
<path d="M32.9071 208.168C33.7114 206.145 32.7233 203.853 30.7001 203.048C28.677 202.244 26.3849 203.232 25.5806 205.255C24.7763 207.279 25.7644 209.571 27.7875 210.375C29.8107 211.179 32.1028 210.191 32.9071 208.168Z" fill="#4E2DA3"/>
<path d="M12.0246 53.2612C12.0692 50.8023 10.1134 48.7727 7.65611 48.7281C5.19883 48.6835 3.17063 50.6407 3.12599 53.0997C3.08135 55.5586 5.03718 57.5882 7.49446 57.6328C9.95174 57.6774 11.9799 55.7202 12.0246 53.2612Z" fill="#E4E7FF"/>
<path d="M46.0388 72.6786C48.0006 71.7345 48.8256 69.3787 47.8814 67.417C46.9373 65.4552 44.5816 64.6302 42.6198 65.5743C40.658 66.5185 39.833 68.8742 40.7772 70.836C41.7213 72.7978 44.077 73.6228 46.0388 72.6786Z" fill="#4E2DA3"/>
<path d="M31.8853 36.8276L38.3693 35.886L39.3116 42.37L41.899 41.994L40.9574 35.5093L47.4414 34.5677L47.0654 31.9796L40.5814 32.9219L39.6391 26.4379L37.051 26.8139L37.9933 33.2979L31.5093 34.2402L31.8853 36.8276Z" fill="#CECDFF"/>
<path d="M7.97951 187.207C9.18716 190.145 12.5478 191.548 15.4854 190.339C18.4231 189.132 19.8255 185.771 18.6171 182.833C17.4095 179.896 14.0488 178.493 11.1112 179.702C8.17358 180.909 6.7711 184.27 7.97951 187.207ZM16.7029 183.621C17.4762 185.501 16.5786 187.652 14.6985 188.425C12.8184 189.198 10.6677 188.301 9.89446 186.421C9.1212 184.54 10.0188 182.39 11.8989 181.617C13.779 180.843 15.9297 181.741 16.7029 183.621Z" fill="#CECDFF"/>
<path d="M152.276 111.378C147.61 111.378 143.81 107.616 143.771 102.942L143.431 61.4331C143.392 56.736 147.169 52.8962 151.867 52.8575C151.891 52.8575 151.915 52.8575 151.938 52.8575C156.604 52.8575 160.404 56.62 160.443 61.2936L160.783 102.802C160.822 107.5 157.045 111.339 152.347 111.378C152.323 111.378 152.299 111.378 152.276 111.378Z" fill="#CECDFF"/>
<path d="M143.601 74.4626V84.6696L160.613 85.01V73.9524C160.613 73.9524 158.053 78.3243 152.276 78.0355C145.472 77.6951 143.601 74.4633 143.601 74.4633V74.4626Z" fill="#AA99FF"/>
<path d="M209.736 171.513C203.92 163.019 201.99 157.371 200.791 152.876C198.927 143.682 197.923 133.648 196.256 118.46H196.24C193.184 93.1724 172.635 80.522 152.086 80.5205C131.537 80.522 110.988 93.1724 107.932 118.46H107.916C106.249 133.649 105.245 143.682 103.382 152.876C102.182 157.371 100.253 163.019 94.436 171.513C86.6086 182.944 82.5081 184.186 82.5081 189.53C82.5081 202.655 118.902 209.058 152.086 209.403C185.27 209.058 221.664 202.655 221.664 189.53C221.664 184.187 217.565 182.945 209.736 171.513Z" fill="#CECDFF"/>
<path d="M152.023 203.657C183.451 203.657 208.928 198.074 208.928 191.188C208.928 184.302 183.451 178.72 152.023 178.72C120.595 178.72 95.1182 184.302 95.1182 191.188C95.1182 198.074 120.595 203.657 152.023 203.657Z" fill="#4E2DA3"/>
<path d="M164.635 184.559C164.635 191.559 158.96 197.233 151.962 197.233C144.963 197.233 139.289 191.559 139.289 184.559C139.289 177.56 164.635 177.56 164.635 184.559Z" fill="#AA99FF"/>
<path d="M155.717 193.732C155.465 194.279 155.027 194.738 154.474 194.967C151.608 196.154 148.825 196.044 146.425 194.65C143.721 193.078 141.69 189.89 141.124 186.329C140.941 185.18 141.656 183.967 142.721 183.621C143.785 183.274 144.796 183.924 144.979 185.073C145.361 187.476 146.766 189.702 148.559 190.744C150.043 191.607 151.712 191.664 153.519 190.915C154.567 190.482 155.629 191.037 155.893 192.156C156.018 192.683 155.942 193.243 155.717 193.732H155.717Z" fill="#F3F5FF"/>
<path d="M149.056 193.489C148.856 193.924 148.43 194.216 147.997 194.176C145.832 193.977 144.215 191.982 143.443 190.811C142.29 189.06 141.601 187.064 141.643 185.602C141.661 185.004 142.112 184.476 142.652 184.422C143.192 184.367 143.616 184.807 143.598 185.405C143.541 187.337 145.916 191.783 148.394 192.011C148.922 192.059 149.263 192.584 149.153 193.182C149.133 193.29 149.1 193.394 149.056 193.49V193.489Z" fill="white"/>
<path d="M115.764 129.146C113.881 129.146 112.146 128.14 111.592 126.589C110.418 123.307 110.601 111.692 119.051 100.062C127.471 88.4745 141.42 85.1601 145.495 84.4202C147.839 83.9941 150.163 85.2003 150.684 87.1145C151.206 89.0279 149.728 90.9247 147.384 91.3499C144.17 91.9337 132.858 94.3285 126.531 103.684C120.282 112.925 120.114 119.4 119.941 124.602C119.874 126.599 119.289 128.454 116.984 129.003C116.578 129.1 116.167 129.146 115.764 129.146V129.146Z" fill="#F3F5FF"/>
<path d="M123.084 102.146C122.746 102.146 122.404 102.071 122.097 101.914C121.225 101.468 120.96 100.53 121.507 99.8171C129.736 89.0886 142.931 86.232 146.779 85.6119C147.787 85.4489 148.769 85.9857 148.968 86.8097C149.167 87.6338 148.51 88.4343 147.5 88.5966C144.024 89.1568 132.101 91.7381 124.666 101.431C124.312 101.892 123.705 102.145 123.084 102.145V102.146Z" fill="white"/>
<path d="M200.545 171.017C199.604 171.017 198.674 170.591 198.063 169.783C195.308 166.135 192.277 161.433 190.681 154.218C189.424 148.538 188.927 144.471 188.372 135.298C188.268 133.585 189.572 132.113 191.284 132.009C192.999 131.904 194.469 133.209 194.573 134.922C195.106 143.711 195.574 147.57 196.747 152.876C198.082 158.91 200.552 162.768 203.021 166.038C204.055 167.408 203.783 169.355 202.414 170.389C201.854 170.812 201.196 171.017 200.545 171.017Z" fill="#F3F5FF"/>
<path d="M193.459 149.523C192.862 149.523 192.336 149.092 192.234 148.484C191.874 146.323 191.454 144.124 191.23 141.946C190.973 139.448 190.928 136.911 190.851 134.402C190.829 133.716 191.368 133.143 192.055 133.123C192.741 133.103 193.314 133.64 193.334 134.326C193.409 136.775 193.45 139.253 193.701 141.692C193.92 143.819 194.333 145.966 194.685 148.076C194.798 148.753 194.341 149.393 193.664 149.506C193.595 149.517 193.526 149.523 193.459 149.523V149.523Z" fill="white"/>
<path d="M150.066 64.2563C152.791 64.2563 154.999 62.0474 154.999 59.3226C154.999 56.5978 152.791 54.3889 150.066 54.3889C147.341 54.3889 145.132 56.5978 145.132 59.3226C145.132 62.0474 147.341 64.2563 150.066 64.2563Z" fill="#F3F5FF"/>
<path d="M150.648 58.4497C150.92 57.2977 150.207 56.1434 149.055 55.8715C147.903 55.5996 146.748 56.3131 146.476 57.4651C146.205 58.617 146.918 59.7713 148.07 60.0432C149.222 60.3151 150.376 59.6016 150.648 58.4497Z" fill="white" stroke="white" stroke-width="0.0758097" stroke-miterlimit="10"/>
<path d="M298.11 187.711C305.801 180.019 305.801 167.548 298.11 159.856C290.418 152.165 277.947 152.165 270.255 159.856C262.563 167.548 262.563 180.019 270.255 187.711C277.947 195.403 290.418 195.403 298.11 187.711Z" fill="#4E2DA3"/>
<path d="M280.338 186.054C279.236 185.746 278.414 185.17 277.872 184.325C277.33 183.481 277.182 182.618 277.428 181.736C277.681 180.831 278.252 180.175 279.144 179.77C280.035 179.364 281.031 179.315 282.134 179.623C283.236 179.931 284.049 180.485 284.576 181.287C285.101 182.088 285.237 182.942 284.985 183.847C284.739 184.729 284.178 185.393 283.303 185.842C282.429 186.291 281.44 186.361 280.338 186.054ZM280.329 176.514L283.697 159.893L290.978 161.926L285.209 177.877L280.329 176.514Z" fill="#AA99FF"/>
<path d="M280.765 186.154C279.787 185.881 279.067 185.34 278.602 184.534C278.137 183.726 278.025 182.892 278.266 182.031C278.513 181.147 279.039 180.497 279.845 180.082C280.651 179.667 281.542 179.596 282.52 179.869C283.498 180.142 284.212 180.661 284.664 181.427C285.115 182.193 285.217 183.018 284.97 183.902C284.73 184.763 284.213 185.422 283.42 185.879C282.628 186.335 281.743 186.427 280.765 186.154ZM281.022 176.741L284.421 160.527L290.88 162.331L285.352 177.95L281.022 176.74V176.741Z" fill="white"/>
<path d="M33.7415 137.722C41.4333 130.03 41.4333 117.559 33.7415 109.867C26.0497 102.176 13.5788 102.176 5.88698 109.867C-1.80484 117.559 -1.80484 130.03 5.88697 137.722C13.5788 145.414 26.0497 145.414 33.7415 137.722Z" fill="#4E2DA3"/>
<path d="M21.209 135.217C20.645 135.072 20.1325 134.743 19.7618 134.258C18.1539 132.16 16.3367 130.202 14.3611 128.439C11.9451 126.283 9.27582 124.403 6.42689 122.85C5.53234 122.362 5.20333 121.251 5.69078 120.368C6.17824 119.485 7.29871 119.165 8.1925 119.653C11.2908 121.342 14.1936 123.387 16.8219 125.732C18.3631 127.107 19.8164 128.592 21.1605 130.165C21.8716 125.733 23.033 121.383 24.622 117.203C27.4808 109.681 31.67 102.785 37.0722 96.7044C37.7431 95.9493 38.9083 95.8788 39.6748 96.5475C40.4412 97.2161 40.5185 98.3699 39.8468 99.1257C34.7373 104.876 30.777 111.396 28.0744 118.506C26.3034 123.164 25.095 128.046 24.4825 133.016C24.3513 134.077 23.594 134.94 22.5516 135.214C22.1006 135.333 21.6396 135.33 21.209 135.22V135.217Z" fill="#AA99FF"/>
<path d="M21.8511 134.817C21.2932 134.674 20.7868 134.345 20.4214 133.862C18.8354 131.769 17.0425 129.818 15.0919 128.062C12.707 125.914 10.0696 124.041 7.25474 122.497C6.3708 122.012 6.04785 120.903 6.53303 120.019C7.01822 119.135 8.12731 118.812 9.01125 119.296C12.0724 120.976 14.9403 123.013 17.5345 125.348C19.0568 126.719 20.4904 128.199 21.8163 129.766C22.5319 125.335 23.6926 120.985 25.2762 116.803C28.1252 109.28 32.2894 102.376 37.6522 96.2859C38.3185 95.5293 39.4716 95.4558 40.2282 96.1221C40.9848 96.7885 41.0583 97.9416 40.3919 98.6981C35.3203 104.458 31.3835 110.985 28.6899 118.096C26.9251 122.756 25.7159 127.638 25.0966 132.606C24.9646 133.666 24.2119 134.53 23.1801 134.807C22.7336 134.927 22.2772 134.925 21.8511 134.815V134.817Z" fill="white"/>
<path d="M229.309 57.8261C233.651 60.2089 238.66 60.7592 243.415 59.3742C248.17 57.9891 252.101 54.8362 254.484 50.4946C256.867 46.153 257.417 41.1435 256.032 36.3887C254.647 31.6339 251.494 27.7024 247.152 25.3197C242.811 22.937 237.801 22.3866 233.046 23.7717C228.292 25.1567 224.36 28.3096 221.977 32.6513C219.595 36.9929 219.044 42.0024 220.429 46.7572C221.814 51.512 224.967 55.4435 229.309 57.8261Z" fill="white"/>
<path d="M246.609 26.3083C248.671 27.4401 250.448 28.9404 251.892 30.7681C253.288 32.5345 254.316 34.5313 254.949 36.704C255.582 38.8767 255.787 41.1131 255.558 43.3526C255.321 45.6701 254.627 47.8898 253.496 49.9518C252.364 52.0131 250.864 53.7908 249.036 55.235C247.27 56.6306 245.273 57.6586 243.1 58.2916C240.927 58.9246 238.691 59.1293 236.452 58.9004C234.134 58.6638 231.914 57.9694 229.852 56.8383C227.791 55.7065 226.013 54.2062 224.569 52.3785C223.174 50.6121 222.146 48.6153 221.513 46.4426C220.88 44.2699 220.675 42.0335 220.904 39.794C221.14 37.4765 221.835 35.2568 222.966 33.1948C224.098 31.1335 225.598 29.3558 227.426 27.9116C229.192 26.516 231.189 25.488 233.362 24.855C235.534 24.222 237.771 24.0173 240.01 24.2462C242.328 24.4828 244.547 25.1772 246.609 26.3083ZM247.695 24.3304C238.172 19.1033 226.216 22.5852 220.988 32.1077C215.761 41.6302 219.243 53.5869 228.765 58.8147C238.288 64.0418 250.244 60.5598 255.472 51.0374C260.699 41.5149 257.217 29.5582 247.695 24.3304Z" fill="#CECDFF"/>
<path d="M241.929 54.8802L242.624 57.2682C242.66 57.391 242.789 57.4615 242.911 57.4258C243.033 57.3902 243.104 57.2613 243.068 57.1393L242.373 54.7513C242.337 54.6285 242.209 54.558 242.087 54.5936C241.964 54.6292 241.893 54.7581 241.929 54.8802Z" fill="#CECDFF"/>
<path d="M233.453 25.776L234.148 28.164C234.183 28.2868 234.312 28.3573 234.434 28.3217C234.557 28.2861 234.628 28.1572 234.592 28.0352L233.897 25.6472C233.861 25.5243 233.732 25.4538 233.61 25.4895C233.487 25.5251 233.417 25.654 233.453 25.776Z" fill="#CECDFF"/>
<path d="M224.967 45.5699L222.579 46.2651C222.456 46.3008 222.328 46.2302 222.293 46.1074C222.257 45.9846 222.328 45.8565 222.45 45.8209L224.838 45.1257C224.961 45.0901 225.089 45.1606 225.125 45.2834C225.161 45.4062 225.09 45.5343 224.967 45.5699Z" fill="#CECDFF"/>
<path d="M254.072 37.0937L251.684 37.7889C251.561 37.8245 251.433 37.754 251.398 37.6312C251.362 37.5084 251.433 37.3802 251.555 37.3446L253.943 36.6494C254.066 36.6138 254.194 36.6843 254.23 36.8071C254.266 36.9299 254.195 37.0581 254.072 37.0937Z" fill="#CECDFF"/>
<path d="M245.218 51.0836C245.296 51.1261 245.394 51.1223 245.469 51.0654C245.571 50.9889 245.591 50.8433 245.515 50.7417L238.511 41.4239L242.642 33.8976C242.704 33.7854 242.663 33.6451 242.551 33.5837C242.438 33.5223 242.298 33.5632 242.237 33.6754L237.962 41.4641L245.146 51.0207C245.166 51.048 245.191 51.0692 245.219 51.0844L245.218 51.0836Z" fill="#CECDFF"/>
<path d="M244.129 27.6683C243.85 28.177 244.036 28.8153 244.544 29.0943C245.053 29.3732 245.691 29.1875 245.97 28.6788C246.249 28.1701 246.064 27.5318 245.555 27.2528C245.046 26.9739 244.408 27.1596 244.129 27.6683Z" fill="#CECDFF"/>
<path d="M237.484 40.8099C237.205 41.3186 237.391 41.9569 237.9 42.2359C238.408 42.5148 239.046 42.3291 239.326 41.8204C239.605 41.3117 239.419 40.6742 238.91 40.3944C238.402 40.1155 237.763 40.3012 237.484 40.8099Z" fill="#CECDFF"/>
<path d="M230.552 54.2365C230.273 54.7452 230.459 55.3828 230.968 55.6625C231.476 55.9415 232.114 55.7557 232.394 55.2471C232.672 54.7384 232.487 54.1001 231.978 53.8211C231.469 53.5421 230.832 53.7278 230.552 54.2365Z" fill="#CECDFF"/>
<path d="M252.436 48.7678C252.731 48.2682 252.564 47.6245 252.065 47.3301C251.565 47.0356 250.922 47.2018 250.627 47.7013C250.333 48.2009 250.499 48.8446 250.998 49.139C251.498 49.4335 252.142 49.2673 252.436 48.7678Z" fill="#CECDFF"/>
<path d="M225.482 33.7482C224.973 33.4692 224.335 33.655 224.056 34.1636C223.777 34.6723 223.963 35.3106 224.471 35.5896C224.98 35.8686 225.618 35.6829 225.897 35.1742C226.176 34.6655 225.991 34.0279 225.482 33.7482Z" fill="#CECDFF"/>
</g>
<defs>
<clipPath id="clip0_151_10041">
<rect width="303.767" height="249" fill="white" transform="translate(0.116455)"/>
</clipPath>
</defs>
</svg>
