<svg width="120" height="122" viewBox="0 0 120 122" fill="none" xmlns="http://www.w3.org/2000/svg">
    <path
        d="M112.502 98.5347C111.655 100.115 110.73 101.69 109.714 103.255C109.096 104.215 108.444 105.17 107.757 106.121C107.02 107.146 106.245 108.166 105.427 109.179C104.846 109.906 104.241 110.626 103.617 111.343C103.266 111.748 102.908 112.154 102.541 112.556C99.8254 115.555 96.7425 118.483 93.2707 121.311L72.2081 121.42L41.4421 121.579L19.4762 121.691C19.4762 121.691 16.961 118.848 13.784 114.027C12.7303 112.431 11.6075 110.613 10.4753 108.612C9.53762 106.95 8.59676 105.16 7.68727 103.258C7.20743 102.254 6.737 101.213 6.28539 100.15C1.08245 87.965 -3.54656 71.3124 5.26613 56.3995C16.6725 37.0904 40.9121 40.0711 40.9121 40.0711C40.9121 40.0711 54.9841 37.6485 78.3958 28.2262C105.201 17.4383 133.226 59.8416 112.508 98.5409L112.502 98.5347Z"
        fill="#EECFDC" />
    <path d="M51.8381 98.3193H38.7445V115.742H51.8381V98.3193Z" fill="#D98DA6" />
    <path d="M74.9392 92.2676H61.8456V109.69H74.9392V92.2676Z" fill="#C6587C" />
    <path
        d="M112.501 98.5347C111.655 100.115 110.729 101.69 109.713 103.255C109.095 104.215 108.443 105.17 107.756 106.12C107.019 107.146 106.245 108.166 105.426 109.179C104.846 109.906 104.241 110.626 103.616 111.343C103.265 111.748 102.908 112.154 102.541 112.556V98.5378H112.504L112.501 98.5347Z"
        fill="#D98DA6" />
    <path
        d="M109.713 103.252C109.095 104.212 108.443 105.166 107.756 106.117C107.019 107.143 106.245 108.163 105.426 109.176C104.846 109.902 104.241 110.623 103.617 111.34C103.265 111.745 102.908 112.15 102.541 112.553C99.8249 115.552 96.742 118.48 93.2702 121.308L72.2076 121.417L41.4416 121.576L19.4757 121.688C19.4757 121.688 16.9605 118.845 13.7835 114.024C12.7298 112.428 11.607 110.61 10.4748 108.608C9.53712 106.947 8.59626 105.157 7.68677 103.255H109.716L109.713 103.252Z"
        fill="#D98DA6" />
    <path
        d="M13.7835 91.1826V108.609H10.4749C9.53714 106.947 8.59628 105.157 7.68679 103.255C7.20695 102.251 6.73652 101.21 6.28491 100.147V91.1826H13.7867H13.7835Z"
        fill="#D98DA6" />
    <path
        d="M27.8368 70.9476C30.5648 70.9476 32.7763 68.6611 32.7763 65.8405C32.7763 63.0199 30.5648 60.7334 27.8368 60.7334C25.1088 60.7334 22.8973 63.0199 22.8973 65.8405C22.8973 68.6611 25.1088 70.9476 27.8368 70.9476Z"
        fill="#D98DA6" />
    <path d="M36.3767 64.7588H19.3002V74.2808H36.3767V64.7588Z" fill="#E3AEBE" />
    <path
        d="M41.4416 70.5796V121.576L19.4758 121.688C19.4758 121.688 16.9605 118.845 13.7836 114.024V70.5796H41.4416Z"
        fill="#E3AEBE" />
    <path d="M20.2911 74.2808H17.848V81.0372H20.2911V74.2808Z" fill="#D98DA6" />
    <path d="M29.0567 74.2808H26.6136V81.0372H29.0567V74.2808Z" fill="#D98DA6" />
    <path d="M37.8255 74.2808H35.3824V81.0372H37.8255V74.2808Z" fill="#D98DA6" />
    <path d="M20.2911 84.0708H17.848V90.8273H20.2911V84.0708Z" fill="#D98DA6" />
    <path d="M29.0567 84.0708H26.6136V90.8273H29.0567V84.0708Z" fill="#D98DA6" />
    <path d="M37.8255 84.0708H35.3824V90.8273H37.8255V84.0708Z" fill="#D98DA6" />
    <path d="M20.2911 93.8613H17.848V100.618H20.2911V93.8613Z" fill="#D98DA6" />
    <path d="M29.0567 93.8613H26.6136V100.618H29.0567V93.8613Z" fill="#D98DA6" />
    <path d="M37.8255 93.8613H35.3824V100.618H37.8255V93.8613Z" fill="#D98DA6" />
    <path d="M20.2911 103.654H17.848V110.411H20.2911V103.654Z" fill="#D98DA6" />
    <path d="M29.0567 103.654H26.6136V110.411H29.0567V103.654Z" fill="#D98DA6" />
    <path d="M37.8255 103.654H35.3824V110.411H37.8255V103.654Z" fill="#D98DA6" />
    <path d="M92.4924 58.0239H87.4651V74.5456H92.4924V58.0239Z" fill="#D98DA6" />
    <path d="M97.9212 69.1392H82.0364V72.2196H97.9212V69.1392Z" fill="#D98DA6" />
    <path d="M72.2045 79.453L76.5544 71.0098H103.196L107.756 79.453H72.2045Z" fill="#E3AEBE" />
    <path
        d="M107.753 81.6294V106.12C107.016 107.146 106.242 108.166 105.423 109.179C104.843 109.906 104.238 110.626 103.613 111.343C103.262 111.748 102.905 112.154 102.538 112.556C99.8218 115.555 96.7389 118.483 93.2671 121.311L72.2045 121.42V81.6294H107.753Z"
        fill="#E3AEBE" />
    <path d="M109.083 78.3931H70.8778V81.6263H109.083V78.3931Z" fill="#D98DA6" />
    <path d="M76.3473 84.4917H74.5377V113.844H76.3473V84.4917Z" fill="#D98DA6" />
    <path d="M81.1928 84.4917H79.3832V113.844H81.1928V84.4917Z" fill="#D98DA6" />
    <path d="M86.0381 84.4917H84.2285V113.844H86.0381V84.4917Z" fill="#D98DA6" />
    <path d="M90.8836 84.4917H89.074V113.844H90.8836V84.4917Z" fill="#D98DA6" />
    <path d="M95.7289 84.4917H93.9193V113.844H95.7289V84.4917Z" fill="#D98DA6" />
    <path d="M100.578 84.4917H98.7679V113.844H100.578V84.4917Z" fill="#D98DA6" />
    <path
        d="M105.423 84.4917V109.176C104.843 109.903 104.237 110.623 103.613 111.34V84.4917H105.423Z"
        fill="#D98DA6" />
    <path
        d="M33.5384 54.011H17.9861C17.9861 54.011 18.0614 53.3407 19.7894 52.8075C21.5174 52.2712 22.7562 53.6431 24.7101 52.8075C26.6639 51.9719 27.6989 50.7715 30.2172 51.4388C32.7324 52.1091 33.5384 54.011 33.5384 54.011Z"
        fill="white" />
    <path
        d="M118.391 61.544H97.6296C97.6296 61.544 97.73 60.5057 100.038 59.6764C102.346 58.847 103.999 60.9734 106.609 59.6764C109.215 58.3793 110.598 56.518 113.96 57.5562C117.319 58.5945 118.394 61.544 118.394 61.544H118.391Z"
        fill="white" />
    <path d="M0.313599 121.688H119.686" stroke="#D98DA6" stroke-width="2" stroke-linecap="round"
        stroke-linejoin="round" />
    <path
        d="M92.4298 33.5732C92.1036 32.8342 90.824 32.8748 90.2595 33.1523C90.0369 32.5412 89.2215 31.5715 88.4876 31.8209C87.8823 31.9924 87.7192 32.5973 87.7098 33.2209C87.6879 34.7019 88.7322 35.8898 88.9172 36.0893C88.9611 36.133 88.9611 36.1392 88.9674 36.1423C89.3155 36.1517 90.8303 36.1111 91.9154 35.0916C92.3733 34.6613 92.7089 34.1344 92.4298 33.5732Z"
        fill="#D68099" />
    <path
        d="M60.0675 17.3666C59.7413 16.6277 58.4617 16.6682 57.8972 16.9457C57.6746 16.3346 56.8592 15.3649 56.1253 15.6144C55.52 15.7859 55.3569 16.3907 55.3475 17.0143C55.3256 18.4953 56.3699 19.6832 56.5549 19.8828C56.5989 19.9264 56.5989 19.9327 56.6051 19.9358C56.9532 19.9451 58.468 19.9046 59.5531 18.885C60.011 18.4548 60.3466 17.9279 60.0675 17.3666Z"
        fill="#D68099" />
    <path
        d="M70.6301 7.50772C70.075 6.25121 67.9048 6.3198 66.9483 6.79372C66.5719 5.75858 65.1857 4.11233 63.9407 4.53325C62.9151 4.82633 62.636 5.849 62.6203 6.90908C62.5795 9.4221 64.3578 11.4394 64.6714 11.7761C64.7467 11.8509 64.7435 11.8603 64.7592 11.8665C65.3519 11.8821 67.9205 11.8104 69.7614 10.0831C70.5361 9.35351 71.1068 8.45868 70.6333 7.50772H70.6301Z"
        fill="#D68099" />
    <path
        d="M86.8568 20.1632C87.0795 19.3868 86.0696 18.6042 85.4549 18.4639C85.6744 17.8528 85.6682 16.587 84.9437 16.3126C84.3666 16.0632 83.8554 16.4217 83.4446 16.8956C82.4755 18.0212 82.5194 19.602 82.5351 19.8701C82.5414 19.9325 82.5351 19.9356 82.5414 19.9449C82.8048 20.1725 83.9966 21.1017 85.4863 21.005C86.1135 20.9645 86.7125 20.7712 86.8568 20.1632Z"
        fill="#D68099" />
    <path
        d="M37.5277 114.523L35.9658 121.274H25.5819V120.457L31.4874 117.046L32.2118 114.648L37.5277 114.523Z"
        fill="#D98A66" />
    <path
        d="M31.4873 117.046C31.8291 116.828 37.5276 114.523 37.5276 114.523L32.2118 114.648L31.4873 117.046Z"
        fill="#994843" />
    <path
        d="M31.412 117.046L33.1683 118.917C33.6293 119.409 34.3632 119.425 34.843 118.954L37.0415 116.974L35.9658 121.467H25.5819L25.5066 120.46L31.412 117.049V117.046Z"
        fill="white" />
    <path
        d="M54.4003 114.452L55.6202 121.199H66.0042V120.382L60.0987 116.971L59.989 114.573L54.4003 114.452Z"
        fill="#D98A66" />
    <path d="M60.0987 116.971L59.989 114.573L54.4003 114.452L60.0987 116.971Z" fill="#994843" />
    <path
        d="M60.2117 116.971L58.4554 118.842C57.9944 119.334 57.2605 119.35 56.7807 118.876L54.8425 116.893L55.6078 121.386L66.23 121.333L66.1171 120.385L60.2117 116.974V116.971Z"
        fill="white" />
    <path
        d="M38.1328 54.5289L30.2328 114.723L37.515 114.573L46.7166 76.6628C47.2309 75.1164 48.9496 75.1319 49.5015 76.6628L53.6256 114.798L60.4782 114.698C60.4782 114.698 62.3285 77.5421 55.4697 52.0439L38.136 54.5258L38.1328 54.5289Z"
        fill="#1A4E5C" />
    <g style="mix-blend-mode:multiply" opacity="0.14">
        <path
            d="M37.6813 61.0922C37.6813 61.0922 38.2238 65.4073 47.4505 64.3285C56.6772 63.2498 57.4016 59.1123 57.4016 59.1123L37.6813 61.0922Z"
            fill="#253450" />
    </g>
    <path
        d="M49.8308 53.5098L51.8474 60.1727C52.4558 62.1806 54.4191 63.5494 56.6332 63.5057L57.9441 63.5151"
        stroke="white" stroke-width="0.54" stroke-miterlimit="10" />
    <path
        d="M41.1749 53.3193L41.7425 60.2255C41.915 62.3082 40.6511 64.2413 38.669 64.9366L36.6838 65.6319"
        stroke="white" stroke-width="0.52" stroke-miterlimit="10" />
    <path d="M53.3025 112.444H60.475" stroke="white" stroke-width="0.52" stroke-miterlimit="10" />
    <path d="M30.6248 112.444H38.0418" stroke="white" stroke-width="0.52" stroke-miterlimit="10" />
    <path
        d="M27.978 26.5865C27.8369 26.1656 27.2912 15.3465 27.0936 11.34C27.0465 10.3922 26.5448 9.52851 25.745 9.01406C24.3839 8.14417 22.4489 7.02796 22.6747 7.87603C23.0228 9.17307 23.8915 9.94943 23.8915 9.94943L18.353 10.6852C18.353 10.6852 19.7486 13.2014 22.2858 14.2958C22.2858 14.2958 20.8714 33.9728 24.0672 35.9183C27.2629 37.8639 35.9314 35.142 35.9314 35.142L38.9954 26.3932C38.9954 26.3932 28.1505 27.1072 27.978 26.5865Z"
        fill="#D98A66" />
    <path
        d="M55.6862 26.3711C46.8516 26.262 32.9833 26.3181 32.9833 26.3181C32.9833 26.3181 29.2826 36.1021 29.0223 36.9439L35.348 37.343L35.7181 62.8785L59.4873 62.3516C59.4873 62.3516 58.5088 42.6933 58.4116 38.5902C58.4053 38.347 64.1226 38.4062 64.1226 38.4062C64.1163 38.4966 63.373 35.1792 62.6736 32.0239C61.946 28.7532 59.0545 26.4086 55.6831 26.368L55.6862 26.3711Z"
        fill="#7C2969" />
    <path d="M36.038 57.4876C36.038 57.4876 55.0778 57.4595 58.3394 57.4876" stroke="white"
        stroke-width="0.52" stroke-miterlimit="10" stroke-linecap="round" />
    <path
        d="M38.9076 55.6325C39.6038 55.6325 39.607 54.5537 38.9076 54.5537C38.2082 54.5537 38.2082 55.6325 38.9076 55.6325Z"
        fill="#21263D" />
    <path
        d="M46.4784 59.7233C47.1746 59.7233 47.1778 58.6445 46.4784 58.6445C45.779 58.6445 45.779 59.7233 46.4784 59.7233Z"
        fill="#21263D" />
    <path
        d="M43.4237 49.0319C44.1199 49.0319 44.1231 47.9531 43.4237 47.9531C42.7243 47.9531 42.7243 49.0319 43.4237 49.0319Z"
        fill="#21263D" />
    <path
        d="M37.8475 42.6965C38.5438 42.6965 38.5469 41.6177 37.8475 41.6177C37.1482 41.6177 37.1482 42.6965 37.8475 42.6965Z"
        fill="#21263D" />
    <path
        d="M44.2203 34.5119C44.9166 34.5119 44.9197 33.4331 44.2203 33.4331C43.521 33.4331 43.521 34.5119 44.2203 34.5119Z"
        fill="#21263D" />
    <path
        d="M36.1195 32.2668C36.8157 32.2668 36.8189 31.188 36.1195 31.188C35.4201 31.188 35.4201 32.2668 36.1195 32.2668Z"
        fill="#21263D" />
    <path
        d="M52.7194 30.0221C53.4156 30.0221 53.4187 28.9434 52.7194 28.9434C52.02 28.9434 52.02 30.0221 52.7194 30.0221Z"
        fill="#21263D" />
    <path
        d="M50.593 40.8473C51.2892 40.8473 51.2924 39.7686 50.593 39.7686C49.8936 39.7686 49.8936 40.8473 50.593 40.8473Z"
        fill="#21263D" />
    <path
        d="M51.9227 52.1999C52.619 52.1999 52.6221 51.1211 51.9227 51.1211C51.2234 51.1211 51.2234 52.1999 51.9227 52.1999Z"
        fill="#21263D" />
    <path
        d="M56.9689 59.988C57.6651 59.988 57.6682 58.9092 56.9689 58.9092C56.2695 58.9092 56.2695 59.988 56.9689 59.988Z"
        fill="#21263D" />
    <path
        d="M56.3041 46.2599C57.0003 46.2599 57.0034 45.1812 56.3041 45.1812C55.6047 45.1812 55.6047 46.2599 56.3041 46.2599Z"
        fill="#21263D" />
    <path
        d="M56.4358 35.8307C57.132 35.8307 57.1352 34.752 56.4358 34.752C55.7364 34.752 55.7364 35.8307 56.4358 35.8307Z"
        fill="#21263D" />
    <path
        d="M60.4187 30.4181C61.1149 30.4181 61.1181 29.3394 60.4187 29.3394C59.7193 29.3394 59.7193 30.4181 60.4187 30.4181Z"
        fill="#21263D" />
    <path
        d="M39.9707 27.9113C40.6669 27.9113 40.6701 26.8325 39.9707 26.8325C39.2713 26.8325 39.2713 27.9113 39.9707 27.9113Z"
        fill="#21263D" />
    <path
        d="M46.6163 19.6115L44.766 26.3836C44.766 26.3836 47.4506 31.1352 52.2427 27.5871L52.158 20.5375L46.6163 19.6084V19.6115Z"
        fill="#D98A66" />
    <path
        d="M52.1579 20.5406C52.1579 20.5406 49.0374 25.919 45.0952 25.3328L46.4845 19.6489C46.4845 19.6489 51.8255 20.3037 51.8537 20.3473"
        fill="#A94D3C" />
    <path
        d="M46.2776 9.27588C44.7628 10.2237 43.9474 11.9417 44.8412 13.2699C44.9917 13.5786 45.1924 13.8498 45.4402 14.0431C45.6096 14.2894 45.851 14.5794 46.127 14.6948C46.7041 14.9317 47.4568 14.4796 48.1185 14.0057C48.7677 13.538 49.2632 14.6262 49.4482 14.7571L51.5181 19.1315L51.4021 19.1877L51.4836 19.3529L52.9765 18.6171L52.989 18.5797C53.4469 17.2234 53.7386 16.1165 53.8765 15.2092C54.1118 13.6534 53.1207 12.1724 51.5934 11.7546L46.2776 9.279V9.27588ZM52.4025 18.8073L52.0795 18.9663C52.3116 18.748 52.5593 18.6451 52.7318 18.5984L52.4057 18.8073H52.4025Z"
        fill="#171828" />
    <path
        d="M51.8882 18.5641C51.9321 18.6857 52.0858 18.7263 52.1799 18.639C52.5061 18.3428 53.149 17.9406 53.3497 19.1565C53.6194 20.809 51.86 20.4848 51.7157 20.703C51.4209 21.1458 50.4675 22.633 49.0907 23.188C48.2502 23.5247 47.0177 23.5528 46.127 22.686C45.2395 21.8161 44.791 22.7982 45.3838 13.747C45.3838 13.747 46.1427 13.51 46.7386 13.7252C47.3313 13.9403 47.9774 13.7719 48.6611 13.6036C49.2193 13.4664 49.6835 13.7657 50.295 15.652C50.5773 16.5188 51.6248 17.8501 51.8851 18.5673L51.8882 18.5641Z"
        fill="#D98A66" />
    <path d="M53.0893 19.0254L52.139 19.6864C52.139 19.6864 52.5248 18.0432 53.0893 19.0254Z"
        fill="#A94D3C" />
    <path
        d="M47.0396 17.5102C47.0365 17.7067 47.1118 17.8719 47.2121 17.8719C47.3125 17.8719 47.3972 17.716 47.4003 17.5165C47.4034 17.32 47.3282 17.1548 47.2278 17.1548C47.1275 17.1548 47.0428 17.3107 47.0396 17.5102Z"
        fill="#171828" />
    <path
        d="M45.3462 17.3701C45.343 17.5665 45.4183 17.7318 45.5187 17.7318C45.619 17.7318 45.7037 17.5759 45.7068 17.3763C45.71 17.1799 45.6347 17.0146 45.5343 17.0146C45.434 17.0146 45.3493 17.1705 45.3462 17.3701Z"
        fill="#171828" />
    <path
        d="M48.0808 16.4659C48.3286 16.6748 47.9993 15.8142 47.648 15.6864C47.2968 15.5586 46.9204 15.6989 46.8107 16.0013C46.8107 16.0013 47.4912 15.967 48.084 16.4659H48.0808Z"
        fill="#171828" />
    <path
        d="M45.2144 16.2005C44.9635 16.4063 44.9948 15.8139 45.3586 15.7235C45.7224 15.6331 46.08 15.8139 46.1584 16.1257C46.1584 16.1257 45.3147 16.1163 45.2144 16.2005Z"
        fill="#171828" />
    <path
        d="M46.1961 17.5381L45.6127 19.044C45.6033 19.069 45.619 19.097 45.6441 19.097L46.2902 19.1594C46.3121 19.1594 46.3309 19.1407 46.3309 19.1188L46.2682 17.5505C46.2682 17.5069 46.2118 17.4975 46.1961 17.5381Z"
        fill="#A94D3C" />
    <path
        d="M47.7076 19.6895L46.1615 19.9701C46.1615 19.9701 46.4218 20.893 46.9675 20.7558C47.4536 20.6342 47.7076 19.6926 47.7076 19.6926V19.6895Z"
        fill="white" />
    <path
        d="M72.1637 115.278L72.2484 117.909C72.2484 117.909 71.4738 121.255 70.9155 120.123C70.3573 118.991 69.1749 118.589 69.1749 118.589L68.3219 115.278H72.1669H72.1637Z"
        fill="#E2ABB3" />
    <path
        d="M68.8927 118.371L64.8972 120.921C64.7184 121.036 64.8125 121.276 65.0352 121.276C66.8698 121.28 71.8156 121.261 73.114 121.252C73.2708 121.252 73.3806 121.121 73.3335 120.993C73.0638 120.288 72.3268 118.336 72.2453 117.797C72.2296 117.703 71.1037 119.309 70.5643 119.131C70.1001 118.979 68.9993 118.274 68.8927 118.367V118.371Z"
        fill="#1A4E5C" />
    <path
        d="M87.9481 115.337L89.1524 117.912C89.1524 117.912 88.3778 121.258 87.8195 120.126C87.2613 118.994 86.0789 118.592 86.0789 118.592L84.1031 115.337H87.9481Z"
        fill="#E2ABB3" />
    <path
        d="M85.7998 118.371L81.8043 120.921C81.6255 121.036 81.7196 121.276 81.9423 121.276C83.7769 121.28 88.7227 121.261 90.0211 121.252C90.1779 121.252 90.2877 121.121 90.2406 120.993C89.9709 120.288 89.2339 118.336 89.1524 117.797C89.1367 117.703 88.0108 119.309 87.4714 119.131C87.0072 118.979 85.9064 118.274 85.7998 118.367V118.371Z"
        fill="#1A4E5C" />
    <path
        d="M72.4209 68.2603C72.7627 69.7257 75.8581 112.706 75.1556 116.868C74.5252 117.236 65.3111 117.118 64.5804 117.015C63.9657 109.392 61.0961 81.4396 60.9612 66.455C60.9236 62.171 62.8649 57.3321 63.1158 55.8511"
        fill="#632056" />
    <path d="M72.1637 115.278C71.7403 114.464 67.8577 59.6143 67.8577 59.6143" stroke="white"
        stroke-width="1.15" stroke-miterlimit="10" />
    <path
        d="M70.2632 74.2371C70.3385 74.5551 80.2018 108.911 82.6167 116.859C83.3756 116.909 92.3263 116.899 93.5275 116.569C93.0664 108.606 81.0297 66.8976 79.678 62.6198C77.8622 56.8673 75.0208 55.0153 74.4594 54.9498C71.5961 54.6162 66.8761 56.3279 62.8869 56.4152C62.6611 56.8673 70.2632 74.2371 70.2632 74.2371Z"
        fill="#7C2969" />
    <path
        d="M73.0355 54.9624C73.0355 54.9624 76.1215 57.1418 77.7147 63.2778C79.3079 69.4169 90.9588 113.969 90.9588 113.969"
        stroke="white" stroke-width="1.15" stroke-miterlimit="10" />
    <path d="M64.7529 114.558H65.0352" stroke="white" stroke-width="0.6" stroke-miterlimit="10" />
    <path d="M65.5997 114.558H74.3372" stroke="white" stroke-width="0.6" stroke-miterlimit="10" />
    <path d="M74.6194 114.558H74.8985" stroke="white" stroke-width="0.6" stroke-miterlimit="10" />
    <path d="M82.3375 114.673L93.2546 113.981" stroke="white" stroke-width="0.6"
        stroke-miterlimit="10" />
    <path
        d="M62.8493 31.9494C62.8869 32.1115 61.0993 36.2178 63.5549 36.8071L67.8703 36.8164L66.5782 32.3734L62.8493 31.9463V31.9494Z"
        fill="#21263D" />
    <path
        d="M67.0612 36.4733L62.5138 27.5686C62.3475 26.8578 63.4201 25.0026 63.994 24.5723C65.5621 23.4 67.6069 23.1163 69.5482 23.2348C70.5393 23.294 71.5397 23.4561 72.4398 23.8958C73.3399 24.3354 79.0446 29.6794 79.5683 32.4357C79.5683 32.4357 74.5442 37.1312 69.6705 36.9597C69.6705 36.9597 67.9237 36.9223 67.0612 36.4733Z"
        fill="#21263D" />
    <path
        d="M80.2803 31.1075C78.4205 28.1455 75.7798 25.7136 72.6687 24.0954C72.4617 23.9863 72.2767 24.3012 72.4837 24.4072C75.5446 25.9973 78.1351 28.3794 79.9666 31.2915C80.089 31.4879 80.4057 31.3071 80.2803 31.1075Z"
        fill="#21263D" />
    <path
        d="M63.072 31.095C62.4762 31.4286 62.0747 32.0678 62.081 32.7974C62.0904 33.8668 62.9685 34.7274 64.0443 34.7211C65.12 34.7118 65.9856 33.8388 65.9793 32.7693C65.973 31.8277 65.2893 31.0482 64.3924 30.8799"
        stroke="#CA485E" stroke-width="0.65" stroke-linecap="round" stroke-linejoin="round" />
    <path
        d="M70.2068 29.6576C70.2131 29.7542 70.2978 29.8259 70.3887 29.8134C70.7776 29.7698 71.7153 29.776 71.9568 30.8081C72.2014 31.8525 70.7902 32.1986 70.2068 32.2953C70.0375 32.3233 69.8901 32.42 69.7866 32.5603C69.4761 32.9968 68.3408 33.9914 68.5886 35.0858C68.9931 36.8724 69.5733 38.0291 69.5733 38.0291C69.5733 38.0291 66.0922 40.6606 64.154 39.5662C64.154 39.5662 65.2705 34.085 64.6464 33.7763C62.7521 32.8347 61.3879 32.7162 62.2284 28.7502C63.0751 24.7656 65.675 24.8248 66.3681 24.8747C66.9515 24.9184 69.8211 24.8903 70.2068 29.6576Z"
        fill="#E2ABB3" />
    <path
        d="M71.9694 31.5063C72.8664 31.6747 73.5469 32.4542 73.5563 33.3958C73.5657 34.4652 72.697 35.3414 71.6213 35.3476C70.5456 35.3569 69.6643 34.4933 69.658 33.4238C69.6518 32.6943 70.0532 32.0551 70.6491 31.7215"
        stroke="#CA485E" stroke-width="0.65" stroke-linecap="round" stroke-linejoin="round" />
    <path d="M71.4676 30.8114C71.4676 30.8114 70.7431 29.6017 70.188 31.3882L71.4676 30.8114Z"
        fill="#D06579" />
    <path
        d="M65.9039 29.8575C65.3175 29.9073 64.8847 30.4218 64.9349 31.0048C64.985 31.5879 65.5025 32.0181 66.089 31.9683C66.6754 31.9184 67.1082 31.4039 67.0581 30.8209C67.0079 30.2378 66.4904 29.8076 65.9039 29.8575Z"
        fill="#DA8DA3" />
    <path
        d="M62.1782 28.9561C62.5138 29.1088 62.7615 29.4331 62.796 29.8291C62.8399 30.3404 62.4385 30.7488 61.9649 30.8891C61.9649 30.8891 61.8646 30.5586 62.1813 28.9592L62.1782 28.9561Z"
        fill="#DA8DA3" />
    <path
        d="M63.8561 29.2712L63.6146 30.2253L63.025 30.0382C62.9152 30.0039 62.8838 29.8667 62.9654 29.7888L63.8529 29.2681L63.8561 29.2712Z"
        fill="#D06579" />
    <path
        d="M65.6374 28.4884C65.7942 28.6724 65.6562 27.9989 65.4147 27.8586C65.1701 27.7214 64.8753 27.7776 64.7561 27.9865C64.7561 27.9865 65.2642 28.0457 65.6374 28.4884Z"
        fill="#171828" />
    <path
        d="M62.9309 27.7371C62.702 27.815 63.1693 27.3068 63.4484 27.313C63.7275 27.3193 63.9502 27.5219 63.9439 27.762C63.9439 27.762 63.4798 27.5531 62.9278 27.7371H62.9309Z"
        fill="#171828" />
    <path
        d="M64.7781 29.3365C64.7216 29.5361 64.5962 29.6764 64.4989 29.6483C64.4017 29.6202 64.3672 29.4363 64.4237 29.2367C64.4801 29.0372 64.6056 28.8969 64.7028 28.925C64.8 28.953 64.8345 29.137 64.7781 29.3365Z"
        fill="#171828" />
    <path
        d="M63.3762 28.8719C63.3229 29.0621 63.2037 29.1962 63.1096 29.1712C63.0155 29.1463 62.9842 28.9686 63.0375 28.7784C63.0908 28.5882 63.21 28.4541 63.3041 28.4791C63.3982 28.504 63.4295 28.6817 63.3762 28.8719Z"
        fill="#171828" />
    <path
        d="M62.5765 30.1597L64.0693 30.6055C64.0693 30.6055 63.7243 31.3071 63.1222 31.1013C62.6424 30.936 62.5734 30.1597 62.5734 30.1597H62.5765Z"
        fill="white" />
    <path
        d="M64.6495 33.7764C64.6495 33.7764 66.1266 34.1287 66.7162 33.9136C67.3058 33.6984 64.6558 36.1865 64.7624 35.5723C64.8878 34.8583 64.6464 33.898 64.6464 33.898"
        fill="#171828" />
    <path
        d="M63.8654 25.5605C63.8654 25.5605 63.6584 25.8536 64.709 25.8069C65.7597 25.7601 66.7538 24.8746 67.6194 26.2371C68.485 27.5996 70.2068 29.6574 70.2068 29.6574L72.6624 26.5364L67.7386 23.8862L64.2418 24.6376L63.8654 25.5605Z"
        fill="#21263D" />
    <path
        d="M67.3434 25.7228C67.9801 26.6394 68.0397 27.7961 68.485 28.797C68.6951 29.2678 69.0119 29.723 69.5388 29.8664C70.0656 30.0099 70.6082 29.8415 71.0629 29.5858C71.2668 29.4705 71.0849 29.1587 70.8779 29.274C70.4608 29.511 69.9088 29.6825 69.4509 29.4486C68.9931 29.2148 68.8049 28.6785 68.6543 28.2451C68.3407 27.3378 68.2184 26.3526 67.657 25.545C67.5253 25.3548 67.2086 25.5357 67.3434 25.729V25.7228Z"
        fill="#21263D" />
    <path
        d="M57.9694 44.3086C57.7436 30.5462 63.8623 38.1788 63.8779 38.2038C65.3331 40.8072 69.2283 37.337 69.2283 37.337C69.244 37.337 69.2596 37.337 69.2753 37.337C69.2753 37.337 69.2753 37.3339 69.2753 37.3308C69.2753 37.3308 69.2941 37.3308 69.3318 37.337C69.4321 37.3401 69.9559 35.803 72.2641 36.1085C74.381 36.3892 77.1158 44.4645 77.1158 44.4645C77.1158 44.4645 77.398 44.5643 75.6731 44.2182C75.5602 46.5753 76.4854 54.4324 76.4854 54.4324C76.4854 54.4324 66.2959 57.6781 61.7453 57.4692C61.0177 53.2788 60.7857 48.8046 59.9357 46.488C59.4434 46.0203 58.2328 44.7576 57.9694 44.3086Z"
        fill="#F3EFF7" />
    <path
        d="M75.9208 46.1826C75.9208 46.1826 77.881 47.3051 76.385 50.4385C76.385 50.4385 74.1269 50.8002 74.0266 50.0769C73.9262 49.3504 75.0898 46.5131 75.9177 46.1826H75.9208Z"
        fill="#D98A66" />
    <path
        d="M74.4939 48.2964C74.6131 48.2153 74.7354 48.1467 74.8577 48.0782C74.9769 48.0064 75.1023 47.9472 75.2246 47.8817C75.3501 47.8194 75.4724 47.757 75.5978 47.7009C75.7233 47.6417 75.8519 47.5824 75.9899 47.5356C75.8958 47.6448 75.786 47.7352 75.67 47.8194C75.5571 47.9036 75.4316 47.9753 75.3062 48.0407C75.1776 48.1031 75.049 48.1623 74.9141 48.2029C74.7793 48.2465 74.6413 48.2808 74.497 48.2964H74.4939Z"
        fill="#A94D3C" />
    <path
        d="M74.2618 49.4468C74.4312 49.3782 74.6037 49.3221 74.7699 49.2598C74.9361 49.1974 75.1023 49.1382 75.2654 49.0696C75.4316 49.0072 75.5916 48.9355 75.7578 48.87C75.9209 48.8014 76.084 48.7266 76.2565 48.6611C76.1279 48.7921 75.9773 48.8981 75.8237 48.9947C75.67 49.0914 75.5038 49.1693 75.3344 49.2411C75.1619 49.3065 74.9894 49.3627 74.8075 49.397C74.6288 49.4312 74.4469 49.4562 74.2618 49.45V49.4468Z"
        fill="#A94D3C" />
    <path
        d="M75.0929 50.407C75.1274 50.3446 75.1713 50.301 75.2152 50.2573C75.2591 50.2137 75.3124 50.1794 75.3626 50.1482C75.4159 50.1202 75.4692 50.0921 75.532 50.0765C75.5915 50.0578 75.6543 50.0422 75.7233 50.0453C75.6888 50.1077 75.6449 50.1545 75.601 50.195C75.557 50.2386 75.5037 50.2729 75.4536 50.3041C75.4002 50.3322 75.3469 50.3602 75.2842 50.3758C75.2246 50.3945 75.1619 50.4101 75.0929 50.407Z"
        fill="#A94D3C" />
    <path
        d="M54.6105 41.9421L55.2095 42.4379C55.2095 42.4379 68.6355 57.7374 72.0854 54.7878C75.532 51.8383 75.8613 44.2587 75.8613 44.2587L70.0468 43.5759C70.0468 43.5759 69.7959 48.5084 67.5567 46.7936C65.3175 45.0787 56.8999 39.0207 56.8999 39.0207C56.8999 39.0207 55.2566 35.407 54.9586 35.9526C54.6607 36.4983 55.2064 38.3285 55.2064 38.3285C55.2064 38.3285 52.2176 35.7531 51.7221 35.9028C51.2234 36.0524 53.6634 38.2287 53.6634 38.2287C53.6634 38.2287 51.0729 36.0025 50.8251 36.5949C50.6119 37.1063 53.2149 38.6746 53.3153 38.8211C53.4156 38.9708 51.076 37.4336 50.7749 37.6831C50.477 37.9294 52.8668 39.3667 53.0142 39.5632C53.1647 39.7627 51.2705 38.5249 51.0729 38.871C50.8722 39.2171 54.0115 41.3466 54.6074 41.939L54.6105 41.9421Z"
        fill="#E2ABB3" />
    <path
        d="M21.2884 0.286883L19.7109 9.4379C19.6827 9.60938 19.783 9.77463 19.9524 9.82763L24.8386 11.3242C25.0393 11.3866 25.2494 11.2556 25.2839 11.0498L26.8018 1.718C26.8301 1.54339 26.7234 1.37503 26.5509 1.33138L21.7212 0.0125086C21.5236 -0.0404956 21.3229 0.087338 21.2884 0.286883Z"
        fill="#21263D" />
    <path
        d="M24.6191 1.69639L24.2616 3.63884C24.249 3.70119 24.2898 3.76043 24.3494 3.77914L25.3216 4.04728C25.3937 4.06599 25.4658 4.02234 25.4753 3.94751L25.7951 1.98947C25.8046 1.92711 25.7669 1.86787 25.7073 1.85229L24.7727 1.59662C24.7038 1.57791 24.6316 1.62156 24.6191 1.69327V1.69639Z"
        stroke="#E5B2BE" stroke-width="0.5" stroke-miterlimit="10" />
    <path
        d="M18.8485 11.4334C18.8485 11.4334 18.1805 10.8316 17.9766 9.58757C17.7728 8.34354 18.2965 7.90391 18.8485 7.57342C19.4005 7.24292 21.9627 7.0995 22.0223 7.73555C22.0819 8.3716 21.2665 9.00765 20.1594 9.00765C20.1594 9.00765 20.9748 9.41609 21.7181 10.2392C22.4582 11.0623 21.5268 11.4302 21.5268 11.4302H18.8485V11.4334Z"
        fill="#D98A66" />
    <path
        d="M18.9614 7.90697C18.9614 7.90697 18.6697 6.8843 19.2719 5.97699C19.874 5.06969 22.7248 4.99486 23.0949 5.57167C23.4649 6.15159 22.0662 6.57563 21.5613 6.63175C21.0563 6.69099 18.9614 7.90385 18.9614 7.90385V7.90697Z"
        fill="#D98A66" />
    <path
        d="M19.6765 6.30443C19.6765 6.30443 19.3848 5.28176 19.9869 4.37445C20.5891 3.46715 23.4399 3.39232 23.81 3.96913C24.18 4.54906 22.7813 4.97309 22.2764 5.02921C21.7714 5.08845 19.6765 6.30131 19.6765 6.30131V6.30443Z"
        fill="#D98A66" />
    <path
        d="M25.447 2.41328C25.4188 2.65959 25.2463 2.84043 25.0612 2.81861C24.8762 2.79678 24.7539 2.58165 24.7821 2.33533C24.8103 2.08902 24.9828 1.90818 25.1679 1.93001C25.3529 1.95183 25.4784 2.16697 25.447 2.41328Z"
        stroke="#E5B2BE" stroke-width="0.5" stroke-miterlimit="10" />
</svg>
