<svg width="248" height="209" viewBox="0 0 248 209" fill="none" xmlns="http://www.w3.org/2000/svg">
<g clip-path="url(#clip0_184_7281)">
<path d="M12.3504 110.835C10.8265 107.678 -4.65084 74.3717 11.748 47.8639C23.7792 28.4167 46.4679 23.1355 49.3667 22.5046C77.8179 16.3135 87.6411 35.8387 118.097 32.1395C143.917 29.0034 144.656 14.2774 169.445 11.0498C193.658 7.8973 224.253 18.6892 237.835 39.3787C259.657 72.622 234.426 126.645 200.669 151.471C141.966 194.642 38.0118 164.009 12.3504 110.835V110.835Z" stroke="#7474B7" stroke-width="1.21087" stroke-miterlimit="10"/>
<path d="M35.3018 146.207C33.0018 143.811 9.26932 118.358 15.8068 89.2351C20.6031 67.8693 39.1003 56.0718 41.4773 54.6042C64.8023 40.2015 79.3794 54.8918 105.23 42.1322C127.145 31.3149 123.365 17.7205 144.341 7.13805C164.829 -3.19794 195.166 -2.84739 213.421 11.7394C242.752 35.1764 236.681 92.0007 214.269 124.956C175.295 182.263 74.0328 186.549 35.3018 146.207Z" fill="#F5F8FF"/>
<path d="M246.478 171.514H1.5186C0.782983 171.514 0.186646 172.11 0.186646 172.846C0.186646 173.581 0.782983 174.178 1.5186 174.178H246.478C247.213 174.178 247.81 173.581 247.81 172.846C247.81 172.11 247.213 171.514 246.478 171.514Z" fill="#7474B7"/>
<path d="M110.921 198.274H55.584C54.8484 198.274 54.2521 198.87 54.2521 199.606C54.2521 200.342 54.8484 200.938 55.584 200.938H110.921C111.656 200.938 112.253 200.342 112.253 199.606C112.253 198.87 111.656 198.274 110.921 198.274Z" fill="#7474B7"/>
<path d="M55.6445 205.721H11.9926C11.257 205.721 10.6606 206.317 10.6606 207.053C10.6606 207.788 11.257 208.385 11.9926 208.385H55.6445C56.3801 208.385 56.9765 207.788 56.9765 207.053C56.9765 206.317 56.3801 205.721 55.6445 205.721Z" fill="#BED5FC"/>
<path d="M222.139 182.23H159.961C159.225 182.23 158.629 182.826 158.629 183.562C158.629 184.297 159.225 184.894 159.961 184.894H222.139C222.875 184.894 223.471 184.297 223.471 183.562C223.471 182.826 222.875 182.23 222.139 182.23Z" fill="#BED5FC"/>
<path d="M232.977 191.493H211.786C211.051 191.493 210.454 192.089 210.454 192.825C210.454 193.561 211.051 194.157 211.786 194.157H232.977C233.712 194.157 234.309 193.561 234.309 192.825C234.309 192.089 233.712 191.493 232.977 191.493Z" fill="#EBF1FF"/>
<path d="M190.258 171.473L94.89 171.491C92.1625 171.491 89.9515 169.325 89.9509 166.651L89.926 32.1546C89.926 29.481 92.1359 27.3136 94.8634 27.313L190.232 27.2954C192.959 27.2954 195.17 29.4617 195.171 32.1353L195.196 166.632C195.196 169.305 192.986 171.473 190.258 171.473Z" fill="#60169A"/>
<path d="M195.196 166.632C195.196 169.305 192.986 171.473 190.258 171.473L109.566 171.488L102.839 171.49L94.8901 171.491C92.1626 171.491 89.951 169.324 89.951 166.651L89.9498 162.068L89.9461 142.009L89.9431 124.701L89.9419 119.596L89.9255 32.1546C89.9255 29.481 92.1354 27.3136 94.8629 27.313L111.354 27.3099C113.326 27.3099 115.17 28.2677 116.277 29.8679L121.507 37.4365L123.926 40.9353C124.429 41.6648 125.268 42.1038 126.167 42.108L159.697 42.3181C160.665 42.3229 161.564 41.824 162.057 41.0061L164.214 37.4268L168.596 30.1603C169.665 28.3864 171.61 27.2984 173.712 27.2978L190.232 27.2948C192.959 27.2948 195.171 29.461 195.171 32.1347L195.196 166.631V166.632Z" fill="#9610FF"/>
<path d="M161.953 29.3914L148.227 29.3551V28.9289C148.227 26.2341 145.712 24.0497 142.612 24.0503C139.511 24.0503 136.998 26.2359 136.999 28.9307V29.3569L123.143 29.3981C121.579 29.3981 120.3 30.7664 120.3 32.4386C120.3 34.1108 121.58 35.4785 123.144 35.4779L161.954 35.4706C163.518 35.4706 164.797 34.1023 164.797 32.4301C164.797 30.7579 163.517 29.3902 161.953 29.3908V29.3914Z" fill="#3F3F9E"/>
<path d="M180.861 164.073L94.0055 157.727L103.168 34.1417L190.024 40.4878L180.861 164.073Z" fill="#3F3F9E"/>
<path d="M191.031 40.2553L103.865 33.793L94.7027 157.378L181.868 163.84L191.031 40.2553Z" fill="#9610FF"/>
<path d="M187.642 161.107L100.282 164.057L96.3184 40.196L183.679 37.2463L187.642 161.107Z" fill="#3F3F9E"/>
<path d="M184.257 36.8678L96.8971 39.659L100.855 163.52L188.215 160.729L184.257 36.8678Z" fill="#BED5FC"/>
<path opacity="0.2" d="M191.584 90.6149C190.833 108.55 189.531 129.529 179.44 144.697C173.129 153.131 163.346 158.359 155.804 160.266C152.873 161.164 148.741 162.187 143.65 162.674C140.53 162.673 137.41 162.671 134.291 162.67C119.511 162.673 104.855 161.663 89.9352 159.887L89.9467 142.618C107.071 108.205 102.024 74.3892 99.831 37.4304C129.106 37.4255 160.082 38.0298 189.351 38.0395C191.33 55.3446 192.22 73.4326 191.584 90.6149Z" fill="#4D428E"/>
<path d="M190.148 87.3583C189.577 102.661 187.441 117.901 181.769 132.206C181.661 132.48 181.55 132.754 181.44 133.027C178.363 136.567 172.862 141.382 164.891 142.582C160.375 143.262 156.52 142.564 153.929 141.821C152.234 145.614 149.614 149.749 145.403 152.986C141.393 156.068 136.94 157.566 133.062 158.259C115.643 158.262 98.2237 158.264 80.8047 158.267C84.7618 149.328 89.15 140.58 92.8922 131.545C95.8358 124.439 98.3363 117.144 99.9891 109.624C101.589 102.342 102.315 94.8953 102.659 87.4557C103.432 70.7778 101.976 54.0878 101.133 37.4407C123.212 37.4353 145.291 37.4304 167.37 37.4262C174.426 37.425 181.481 37.4238 188.537 37.4225C189.675 54.0345 190.768 70.6997 190.148 87.3583Z" fill="#EBF1FF"/>
<path d="M156.595 66.0136C151.296 66.0984 145.997 66.185 140.698 66.2516C140.428 66.2552 140.208 66.0342 140.207 65.7612C140.207 65.6637 140.207 65.6147 140.207 65.5172C140.206 65.2435 140.426 65.0171 140.696 65.0135C145.994 64.9426 151.291 64.8554 156.588 64.7701C156.864 64.7658 157.092 64.9868 157.094 65.2617C157.094 65.3598 157.094 65.4088 157.095 65.5069C157.097 65.7818 156.871 66.0094 156.595 66.0142V66.0136Z" fill="#9610FF"/>
<path d="M184.676 69.4828C170.011 69.7098 155.346 69.9896 140.68 70.1294C140.411 70.1318 140.193 69.9121 140.195 69.6402C140.196 69.5433 140.197 69.4943 140.197 69.3974C140.199 69.1256 140.421 68.901 140.69 68.898C155.343 68.7436 169.995 68.4675 184.648 68.2368C184.923 68.2326 185.154 68.4542 185.16 68.729C185.162 68.8271 185.163 68.8768 185.165 68.9748C185.171 69.2497 184.951 69.4786 184.675 69.4828H184.676Z" fill="#9610FF"/>
<path d="M165.298 52.7673C150.863 52.9671 136.429 53.1972 121.995 53.4448C121.725 53.4496 121.494 53.2244 121.481 52.9447C121.477 52.8448 121.474 52.7945 121.469 52.6946C121.457 52.4143 121.667 52.1812 121.938 52.1764C136.373 51.933 150.808 51.709 165.245 51.5177C165.519 51.5141 165.753 51.7369 165.765 52.0129C165.769 52.1116 165.771 52.1607 165.776 52.2593C165.787 52.5354 165.572 52.7643 165.298 52.7679V52.7673Z" fill="#9610FF"/>
<path d="M184.738 73.3952C170.034 73.6065 155.328 73.8922 140.623 73.9836C140.355 73.9855 140.14 73.7657 140.145 73.4957C140.147 73.3994 140.148 73.351 140.149 73.2541C140.154 72.9841 140.377 72.7613 140.645 72.7589C155.338 72.6517 170.031 72.3671 184.723 72.1498C184.999 72.1455 185.228 72.3671 185.231 72.642C185.232 72.7401 185.233 72.7891 185.234 72.8872C185.238 73.1621 185.015 73.3897 184.738 73.394V73.3952Z" fill="#9610FF"/>
<path d="M176.641 77.4037C164.605 77.5569 152.567 77.7797 140.529 77.8154C140.261 77.8161 140.049 77.5975 140.057 77.3287C140.059 77.233 140.061 77.1846 140.063 77.0889C140.071 76.8201 140.295 76.5997 140.563 76.5985C152.592 76.5501 164.62 76.3255 176.648 76.1662C176.928 76.1626 177.156 76.383 177.155 76.6566C177.155 76.7541 177.154 76.8032 177.154 76.9006C177.152 77.1737 176.922 77.4001 176.641 77.4037Z" fill="#9610FF"/>
<path d="M180.58 81.2391C167.187 81.3863 153.79 81.6242 140.396 81.6254C140.129 81.6254 139.919 81.4075 139.93 81.1405C139.933 81.0448 139.935 80.9976 139.939 80.9019C139.949 80.6349 140.175 80.4158 140.442 80.4158C153.827 80.403 167.215 80.1597 180.598 80.0041C180.878 80.001 181.103 80.2214 181.1 80.4945C181.099 80.5919 181.098 80.6404 181.096 80.7378C181.092 81.0103 180.86 81.2361 180.58 81.2391Z" fill="#9610FF"/>
<path d="M111.248 132.363C107.521 132.195 103.794 132.027 100.066 131.861C99.8697 131.852 99.7692 131.699 99.8419 131.521C99.92 131.33 99.9587 131.234 100.036 131.043C100.108 130.864 100.327 130.724 100.523 130.734C104.246 130.899 107.97 131.065 111.693 131.232C111.888 131.241 111.989 131.395 111.919 131.574C111.844 131.766 111.806 131.862 111.73 132.053C111.659 132.233 111.442 132.371 111.247 132.363H111.248Z" fill="#9610FF"/>
<path d="M129.129 136.738C118.994 136.288 108.86 135.831 98.7261 135.381C98.4524 135.369 98.315 135.158 98.4209 134.912C98.4585 134.824 98.4772 134.78 98.5154 134.692C98.6207 134.447 98.9307 134.255 99.2037 134.267C109.329 134.72 119.454 135.179 129.578 135.631C129.852 135.643 129.996 135.854 129.897 136.098C129.862 136.185 129.844 136.229 129.809 136.317C129.709 136.561 129.403 136.75 129.129 136.738Z" fill="#9610FF"/>
<path d="M127.668 140.164C117.509 139.73 107.35 139.291 97.1907 138.857C96.9164 138.845 96.7814 138.636 96.891 138.393C96.9298 138.306 96.9497 138.262 96.9885 138.175C97.0975 137.932 97.4105 137.742 97.6847 137.754C107.837 138.195 117.989 138.642 128.141 139.082C128.415 139.095 128.555 139.3 128.451 139.539C128.414 139.624 128.395 139.667 128.358 139.752C128.254 139.991 127.943 140.175 127.668 140.164H127.668Z" fill="#9610FF"/>
<path d="M120.487 143.291C112.195 142.963 103.903 142.634 95.6106 142.308C95.3363 142.297 95.2031 142.09 95.3151 141.848C95.3551 141.761 95.375 141.718 95.415 141.632C95.527 141.39 95.8424 141.201 96.1173 141.212C104.406 141.548 112.694 141.888 120.982 142.226C121.256 142.237 121.391 142.439 121.282 142.674C121.243 142.758 121.223 142.8 121.184 142.884C121.075 143.119 120.761 143.302 120.487 143.291Z" fill="#9610FF"/>
<path d="M121.661 146.698C112.44 146.38 103.219 146.061 93.9976 145.745C93.7227 145.735 93.5919 145.53 93.7058 145.289C93.7463 145.203 93.7669 145.159 93.8075 145.073C93.9213 144.832 94.2392 144.642 94.5134 144.652C103.733 144.985 112.952 145.321 122.171 145.655C122.445 145.665 122.578 145.862 122.465 146.092C122.425 146.175 122.405 146.216 122.365 146.297C122.251 146.527 121.934 146.707 121.66 146.698H121.661Z" fill="#9610FF"/>
<path d="M136.156 98.3252C127.3 98.3179 118.445 98.31 109.589 98.3028C109.324 98.3028 109.129 98.0842 109.155 97.8172C109.165 97.7222 109.17 97.6743 109.179 97.5793C109.206 97.3129 109.444 97.0955 109.709 97.0961C118.56 97.1119 127.41 97.1276 136.261 97.1434C136.526 97.1434 136.725 97.3577 136.702 97.6186C136.693 97.7119 136.689 97.7585 136.681 97.8517C136.658 98.1127 136.421 98.3258 136.156 98.3252Z" fill="#9610FF"/>
<path d="M183.439 102.681C158.653 102.683 133.871 102.622 109.086 102.47C108.819 102.468 108.636 102.222 108.677 101.922C108.691 101.815 108.698 101.761 108.713 101.653C108.753 101.352 109.003 101.105 109.269 101.107C134.048 101.189 158.826 101.222 183.605 101.222C183.883 101.222 184.081 101.487 184.045 101.81C184.032 101.926 184.025 101.983 184.012 102.098C183.975 102.42 183.717 102.681 183.439 102.681Z" fill="#9610FF"/>
<path d="M182.842 107.129C170.086 107.143 157.33 107.155 144.574 107.169C132.523 107.181 120.461 106.838 108.41 106.664C108.143 106.66 107.967 106.42 108.019 106.129C108.037 106.025 108.046 105.973 108.064 105.869C108.115 105.578 108.374 105.34 108.641 105.344C133.445 105.638 158.238 105.751 183.044 105.736C183.322 105.736 183.513 105.989 183.469 106.298C183.453 106.408 183.445 106.462 183.429 106.572C183.384 106.879 183.119 107.129 182.842 107.129Z" fill="#9610FF"/>
<path d="M168.246 111.423C157.893 111.455 147.534 111.608 137.183 111.383C127.319 111.168 117.456 110.946 107.592 110.73C107.324 110.724 107.156 110.49 107.217 110.207C107.238 110.106 107.249 110.055 107.271 109.954C107.332 109.672 107.599 109.443 107.867 109.449C117.719 109.642 127.57 109.841 137.422 110.033C147.772 110.235 158.13 110.103 168.483 110.079C168.767 110.078 168.957 110.322 168.905 110.619C168.886 110.724 168.877 110.778 168.858 110.883C168.806 111.179 168.53 111.421 168.246 111.421V111.423Z" fill="#9610FF"/>
<path d="M174.245 115.493C162.719 115.562 151.14 115.95 139.618 115.625C128.626 115.316 117.635 114.993 106.644 114.68C106.375 114.672 106.214 114.442 106.283 114.168C106.308 114.069 106.321 114.02 106.346 113.922C106.415 113.648 106.691 113.428 106.959 113.435C117.937 113.726 128.915 114.026 139.893 114.313C151.418 114.615 162.991 114.267 174.52 114.209C174.801 114.208 174.984 114.44 174.923 114.724C174.901 114.825 174.89 114.876 174.869 114.977C174.809 115.26 174.527 115.492 174.246 115.493H174.245Z" fill="#9610FF"/>
<path d="M164.57 150.866C153.095 151.081 141.621 151.295 130.147 151.51C134.384 143.687 137.986 135.569 140.682 127.085C152.362 126.888 164.041 126.698 175.72 126.503C172.876 135.015 168.988 143.067 164.57 150.866Z" fill="white" stroke="#9999CC" stroke-width="0.0605435" stroke-miterlimit="10"/>
<path d="M161.369 147.413C153.287 147.601 145.204 147.79 137.122 147.979C139.962 142.458 142.474 136.791 144.56 130.942C152.749 130.775 160.939 130.611 169.128 130.444C166.951 136.286 164.312 141.919 161.369 147.413Z" fill="#3F3F9E"/>
<path d="M155.803 138.699C158.158 138.597 156.28 143.119 158.198 143.103C159.53 143.092 160.448 141.576 161.766 141.47C163.794 141.306 161.492 146.951 161.316 147.432C155.145 147.576 142.804 147.864 142.804 147.864C142.759 147.742 146.575 144.832 148.492 143.355C149.888 142.278 151.295 141.207 152.762 140.227C153.623 139.652 154.751 138.745 155.802 138.699H155.803Z" fill="#EBF1FF"/>
<path d="M145.284 137.257C148.55 137.161 144.396 145.327 147.812 145.265C149.996 145.225 151.513 142.932 153.701 142.852C155.981 142.768 155.982 146.05 155.908 147.558C149.657 147.704 143.406 147.85 137.155 147.996C138.925 145.254 140.501 142.376 142.328 139.672C143.016 138.655 143.918 137.298 145.284 137.257Z" fill="#9610FF"/>
<path d="M135.719 84.4601C127.21 84.4455 118.701 84.4304 110.192 84.4153C110.405 77.4189 110.294 70.4225 110.03 63.4291C118.708 63.3013 127.386 63.1724 136.063 63.0446C136.142 70.1857 136.043 77.3256 135.718 84.4601H135.719Z" fill="white" stroke="#9999CC" stroke-width="0.0605435" stroke-miterlimit="10"/>
<path d="M132.004 81.2918C126.045 81.2936 120.086 81.2954 114.128 81.2972C114.222 76.392 114.178 71.4874 114.047 66.5827C120.095 66.5064 126.143 66.4296 132.19 66.3533C132.225 71.3342 132.17 76.3139 132.003 81.2918H132.004Z" fill="#3F3F9E"/>
<path d="M124.811 73.4084C126.68 73.3352 126.361 77.2917 128.084 77.3831C128.982 77.4309 129.266 76.0227 130.171 75.9882C131.772 75.9264 131.879 80.5005 131.972 81.359C127.429 81.3602 118.342 81.3626 118.342 81.3626C118.245 81.1889 120.046 78.6975 120.96 77.4073C121.761 76.2758 123.351 73.4653 124.811 73.4078V73.4084Z" fill="#EBF1FF"/>
<path d="M116.52 71.9759C117.925 71.9868 118.432 74.5139 118.756 75.5074C119.116 76.6117 119.654 79.0765 121.13 79.1116C122.587 79.1461 123.144 77.0471 124.655 77.0634C126.5 77.0834 127.488 80.0125 127.984 81.3602C123.376 81.3614 118.768 81.3626 114.159 81.3638C114.472 78.93 114.611 76.4343 115.099 74.0265C115.256 73.2564 115.5 71.9674 116.52 71.9753V71.9759Z" fill="#9610FF"/>
<path d="M181.439 133.027C181.206 133.659 180.862 134.529 180.384 135.537C179.171 138.096 177.866 139.923 177.173 140.834C176.264 142.03 175.496 142.834 174.768 143.614C172.073 146.499 169.667 148.337 168.951 148.875C163.396 153.047 157.995 154.739 154.081 155.929C151.216 156.799 147.18 157.791 142.206 158.263C139.158 158.261 136.11 158.26 133.062 158.258C136.94 157.566 141.393 156.067 145.403 152.985C149.614 149.749 152.234 145.613 153.929 141.82C156.521 142.563 160.376 143.262 164.89 142.581C172.863 141.381 178.363 136.567 181.439 133.026V133.027Z" fill="#8EACED"/>
<path d="M159.762 30.902L147.986 30.8656V29.9635C147.986 27.5745 145.433 25.6383 142.283 25.6389C139.134 25.6389 136.581 27.5769 136.582 29.966V30.8681L124.792 30.9092C124.487 30.9092 124.24 31.1696 124.24 31.4904L124.242 39.7389C124.242 40.0598 124.489 40.3195 124.794 40.3195L159.764 40.3129C160.069 40.3129 160.316 40.0525 160.316 39.7316L160.314 31.4832C160.314 31.1623 160.067 30.9026 159.762 30.9026V30.902Z" fill="#5B748C"/>
<path d="M160.033 30.5539L148.257 30.5176V29.6155C148.257 27.2264 145.704 25.2902 142.554 25.2908C139.405 25.2908 136.852 27.2288 136.853 29.6179V30.52L125.063 30.5611C124.759 30.5611 124.512 30.8215 124.512 31.1424L124.513 39.3908C124.513 39.7117 124.76 39.9714 125.066 39.9714L160.036 39.9648C160.34 39.9648 160.587 39.7044 160.587 39.3836L160.585 31.1351C160.585 30.8142 160.338 30.5545 160.033 30.5545V30.5539Z" fill="#9610FF"/>
<path opacity="0.5" d="M148.257 30.5169V29.8086C148.257 27.9329 145.704 26.4127 142.554 26.4133C139.405 26.4133 136.852 27.9347 136.853 29.811V30.5193L148.257 30.5175V30.5169Z" fill="url(#paint0_linear_184_7281)"/>
<path opacity="0.5" d="M160.034 36.8274L125.064 36.8341C124.76 36.8341 124.513 36.8843 124.513 36.9467V38.542C124.513 38.6037 124.76 38.6546 125.065 38.654L160.035 38.6473C160.339 38.6473 160.586 38.5971 160.586 38.5347V36.9394C160.586 36.8776 160.339 36.8274 160.034 36.8274Z" fill="url(#paint1_linear_184_7281)"/>
<path opacity="0.3" d="M114.895 128.114C114.895 128.12 114.895 128.127 114.895 128.134C114.868 128.737 114.803 131.066 114.72 134.015C114.447 143.704 114.208 151.837 114.036 153.123C113.528 159.538 111.995 165.771 109.567 171.488L102.84 171.49C105.176 166.162 106.713 159.94 107.324 153.276C107.326 153.247 107.33 153.218 107.335 153.19C107.495 152.194 107.819 140.643 107.993 134.438C108.077 131.447 108.144 129.084 108.173 128.427C108.173 128.424 108.173 128.422 108.173 128.42C108.175 128.38 108.137 128.312 108.105 128.288C108.017 128.286 107.931 128.275 107.849 128.257C106.935 128.289 106.224 128.269 105.695 128.198C101.245 127.932 96.7941 127.063 92.464 125.616C91.6164 125.332 90.7761 125.028 89.9436 124.702L89.9424 119.596C96.9109 123.236 104.707 125.253 112.333 125.343C112.353 125.343 112.374 125.344 112.395 125.345C112.434 125.345 112.471 125.347 112.509 125.351C113.182 125.403 113.8 125.727 114.254 126.265C114.679 126.769 114.906 127.399 114.897 128.043C114.897 128.074 114.897 128.099 114.895 128.114Z" fill="#4D428E"/>
<path d="M113.628 128.076L109.44 128.484L108.791 150.155C108.751 151.169 108.687 152.251 108.587 153.391C108.466 154.767 108.294 156.228 108.053 157.758C107.846 159.077 107.589 160.448 107.271 161.861C106.983 163.138 106.645 164.449 106.25 165.788C105.897 166.984 105.498 168.201 105.047 169.436C105.031 169.481 105.015 169.526 104.998 169.571C104.663 170.477 104.295 171.372 103.899 172.254C103.43 173.299 102.919 174.326 102.377 175.332C101.681 176.622 100.932 177.878 100.145 179.094C99.036 180.809 97.8542 182.446 96.6452 183.988C94.5661 186.64 92.4071 189.016 90.4043 191.041C86.9891 194.494 84.0261 196.93 82.6838 197.985C82.4895 198.138 82.2649 198.226 82.0354 198.248L85.9205 198.264C86.1499 198.241 86.3746 198.154 86.5689 198.001C87.9118 196.946 91.1769 194.086 94.5921 190.633C96.5949 188.608 98.7539 186.232 100.833 183.58C102.042 182.037 103.224 180.401 104.333 178.686C105.119 177.47 105.868 176.214 106.565 174.924C107.107 173.919 107.617 172.891 108.087 171.846C108.483 170.964 108.851 170.07 109.186 169.163C109.202 169.118 109.219 169.073 109.235 169.028C109.686 167.793 110.085 166.576 110.438 165.38C110.833 164.042 111.17 162.73 111.458 161.453C111.777 160.04 112.034 158.669 112.241 157.35C112.482 155.82 112.653 154.359 112.775 152.983C112.874 151.843 112.94 150.761 112.979 149.747L113.628 128.076Z" fill="#9610FF"/>
<path d="M113.628 128.041C113.634 127.569 113.402 127.098 113.01 126.832C112.955 126.795 112.898 126.762 112.838 126.733C112.838 126.733 112.838 126.733 112.837 126.733C112.697 126.666 112.545 126.626 112.39 126.615C112.366 126.613 112.342 126.612 112.318 126.612L108.13 127.02C108.31 127.022 108.488 127.065 108.65 127.141C109.153 127.379 109.461 127.935 109.44 128.485L113.628 128.077C113.628 128.065 113.628 128.054 113.628 128.042V128.041Z" fill="url(#paint2_linear_184_7281)"/>
<path d="M105.821 126.934C106.589 126.98 107.361 127.008 108.13 127.019L112.317 126.611C102.713 126.498 93.2057 123.493 85.1589 118.273L80.9711 118.681C88.3731 123.479 97.0042 126.416 105.82 126.934H105.821Z" fill="#9610FF"/>
<path d="M58.3163 126.611C58.2987 126.611 58.2818 126.611 58.2642 126.611H58.263C58.2285 126.611 58.1946 126.614 58.1607 126.617L53.9729 127.025C54.0068 127.022 54.0407 127.019 54.0752 127.019H54.0764C54.094 127.019 54.1109 127.019 54.1285 127.019C55.3696 127 56.7379 126.934 58.2134 126.79L62.4012 126.382C60.9257 126.526 59.5574 126.592 58.3163 126.611Z" fill="#9610FF"/>
<path d="M108.13 127.019C104.507 126.97 99.7777 126.51 94.4487 124.915C88.7152 123.199 84.1515 120.746 80.9711 118.681C80.9529 118.681 73.3917 123.201 67.7054 124.915C62.4151 126.51 57.6982 126.971 54.0765 127.019C53.3366 127.029 52.7596 127.692 52.8032 128.484L53.9947 150.155C54.3186 155.255 55.3364 162.041 58.2194 169.436C63.8439 183.856 77.7054 195.31 81.1382 197.981C81.3713 198.161 81.6444 198.253 81.9168 198.253C82.1892 198.253 82.4562 198.163 82.6839 197.984C86.0731 195.321 99.7832 183.862 105.048 169.435C107.748 162.041 108.595 155.255 108.791 150.154L109.44 128.484C109.464 127.692 108.871 127.028 108.13 127.018L108.13 127.019ZM106.083 151.593C105.91 156.109 105.159 162.117 102.772 168.666C98.1152 181.44 85.9877 191.586 82.989 193.945C82.7886 194.103 82.5513 194.182 82.3134 194.183C82.1729 194.244 82.0233 194.275 81.8732 194.275C81.628 194.275 81.3822 194.193 81.1727 194.03C78.0832 191.626 65.6082 181.318 60.5467 168.339C57.9512 161.683 57.0358 155.577 56.744 150.986L55.6724 131.483C55.633 130.771 56.1519 130.172 56.8185 130.164C60.0775 130.121 64.3234 129.705 69.084 128.271C74.2017 126.727 81.0068 122.66 81.0486 122.676C83.8863 124.518 87.9923 126.727 93.1525 128.271C97.9493 129.705 102.206 130.121 105.466 130.164C106.132 130.172 106.666 130.771 106.645 131.483L106.626 132.082C106.649 132.185 106.659 132.293 106.656 132.404L106.083 151.593H106.083Z" fill="#E6EEFF"/>
<path d="M83.8003 153.9C83.7918 153.211 83.5617 152.578 83.1833 152.078C82.7117 151.68 82.1172 151.442 81.4742 151.442C79.9655 151.442 78.7582 152.752 78.7782 154.368C78.7867 155.056 79.0173 155.69 79.3951 156.189C79.5877 156.351 79.8002 156.487 80.0284 156.59L80.0308 156.805C80.1695 156.903 80.3166 156.988 80.4704 157.058L80.5291 161.732C80.5315 161.924 80.5788 162.105 80.6593 162.264C80.8088 162.348 80.9784 162.396 81.1576 162.396C81.7418 162.396 82.2086 161.89 82.2007 161.264L82.1426 156.604C83.1295 156.167 83.8154 155.12 83.7997 153.9L83.8003 153.9Z" fill="#CECDFF"/>
<path d="M106.628 132.081C106.508 131.531 106.049 131.112 105.498 131.105C102.293 131.063 98.1104 130.655 93.3959 129.242C88.3241 127.723 84.2877 125.55 81.4736 123.722C81.4585 123.722 74.769 127.724 69.7385 129.242C65.0597 130.655 60.8864 131.062 57.683 131.105C57.028 131.114 56.5182 131.702 56.5563 132.403L57.6104 151.593C57.8974 156.108 58.797 162.117 61.3484 168.665C66.3232 181.434 78.5845 191.577 81.622 193.942C81.8278 194.103 82.07 194.182 82.3134 194.182C82.5513 194.182 82.7886 194.103 82.989 193.945C85.9878 191.586 98.1146 181.44 102.772 168.665C105.159 162.117 105.909 156.109 106.083 151.593L106.656 132.403C106.659 132.292 106.649 132.185 106.626 132.081H106.628Z" fill="#9610FF"/>
<path d="M105.467 130.164C102.206 130.121 97.9506 129.706 93.1537 128.271C87.9936 126.726 83.8875 124.518 81.0244 122.66C81.0074 122.66 74.203 126.727 69.0846 128.271C64.3235 129.705 60.0781 130.12 56.8191 130.164C56.1525 130.173 55.6336 130.77 55.673 131.483L56.7452 150.987C57.037 155.577 57.9525 161.683 60.548 168.339C65.6094 181.317 78.0844 191.626 81.1739 194.03C81.3834 194.193 81.6298 194.275 81.8744 194.275C82.0246 194.275 82.1735 194.244 82.3115 194.183C82.0706 194.183 81.829 194.103 81.6232 193.942C78.5857 191.577 66.325 181.435 61.3496 168.665C58.7983 162.117 57.8986 156.109 57.6116 151.593L56.5575 132.403C56.5194 131.702 57.0292 131.114 57.6843 131.106C60.8876 131.063 65.0603 130.655 69.7397 129.243C74.7702 127.725 81.4597 123.723 81.4991 123.738C84.2889 125.55 88.3253 127.724 93.3965 129.243C98.111 130.655 102.294 131.063 105.499 131.106C106.05 131.113 106.51 131.531 106.628 132.081L106.646 131.482C106.668 130.77 106.134 130.172 105.467 130.163V130.164Z" fill="#3F3F9E"/>
<path d="M94.0654 150.95C94.0539 150.044 93.6489 149.237 93.0265 148.715C93.3922 149.201 93.6144 149.815 93.6228 150.483L93.7929 164.074C93.8129 165.647 92.6372 166.923 91.1666 166.923H71.4124C70.7882 166.923 70.2118 166.693 69.7529 166.309C70.2488 166.968 71.008 167.391 71.8544 167.391H91.6085C93.0791 167.391 94.2549 166.115 94.2355 164.541L94.0654 150.95Z" fill="#9610FF"/>
<path d="M89.0355 142.773C89.0058 140.403 88.0341 138.271 86.5078 136.782C87.7774 138.234 88.5663 140.174 88.5929 142.305L88.6492 146.785C88.6565 146.778 88.6626 146.772 88.668 146.767L88.6789 147.633H89.0967L89.0361 142.773H89.0355Z" fill="#9610FF"/>
<path d="M93.6229 150.483C93.6144 149.815 93.3922 149.201 93.0266 148.715C92.5307 148.056 91.7715 147.633 90.9251 147.633H71.1709C69.7003 147.633 68.5246 148.909 68.5446 150.483L68.7147 164.074C68.7256 164.98 69.1312 165.788 69.7536 166.309C70.2119 166.694 70.7883 166.923 71.4125 166.923H91.166C92.6366 166.923 93.813 165.647 93.793 164.073L93.6229 150.482V150.483ZM82.2014 156.606L82.2601 161.266C82.268 161.891 81.8006 162.397 81.2163 162.397C81.0371 162.397 80.8676 162.349 80.718 162.265C80.382 162.074 80.1502 161.698 80.1453 161.266L80.0896 156.806L80.0866 156.592C79.8583 156.487 79.6458 156.352 79.4539 156.19C78.8188 155.654 78.4059 154.827 78.3944 153.902C78.3738 152.286 79.5816 150.976 81.0904 150.976C81.9556 150.976 82.7323 151.407 83.2421 152.08C83.6205 152.579 83.8512 153.213 83.8597 153.902C83.8748 155.122 83.1888 156.168 82.202 156.606L82.2014 156.606Z" fill="#F3F5FF"/>
<path d="M88.5929 142.305C88.5663 140.174 87.7774 138.234 86.5078 136.782C85.0971 135.168 83.0925 134.158 80.8797 134.158C76.6761 134.158 73.3135 137.806 73.3698 142.306L73.4255 146.767C73.5206 146.856 73.9492 147.235 74.5849 147.235C74.6055 147.235 74.6255 147.235 74.6467 147.234C75.1444 147.215 75.5343 146.971 75.7105 146.833C75.7105 146.813 75.6632 143.094 75.6632 143.094C75.6239 139.945 77.9772 137.39 80.9202 137.39C82.5028 137.39 83.9329 138.129 84.9234 139.302C85.7746 140.31 86.3007 141.638 86.3195 143.094L86.3661 146.817C86.535 146.951 86.9685 147.235 87.5207 147.235C87.5413 147.235 87.5618 147.235 87.5824 147.234C88.1443 147.213 88.5203 146.904 88.6498 146.785L88.5935 142.305H88.5929Z" fill="#F3F5FF"/>
<path d="M81.0904 150.976C79.5817 150.976 78.3744 152.286 78.3944 153.901C78.4059 154.827 78.8194 155.654 79.4539 156.19C79.0755 155.69 78.8455 155.057 78.837 154.368C78.817 152.753 80.0236 151.443 81.5324 151.443C82.176 151.443 82.7699 151.681 83.2415 152.079C82.7324 151.407 81.9556 150.976 81.0904 150.976Z" fill="#9610FF"/>
<path d="M86.3831 147.557L86.3649 146.817V146.774L86.3189 143.094C86.3008 141.638 85.7746 140.31 84.9234 139.301C83.9704 138.403 82.722 137.858 81.3616 137.858C78.4192 137.858 76.0659 140.412 76.1052 143.561L76.1512 147.242C76.1524 147.373 76.1585 147.503 76.1682 147.632H86.3855L86.3825 147.557L86.3831 147.557Z" fill="#9610FF"/>
<path d="M88.6788 147.632H86.3861L86.383 147.557L86.3649 146.816C86.5338 146.951 86.9673 147.234 87.5194 147.234C87.54 147.234 87.5606 147.234 87.5806 147.233C88.143 147.212 88.519 146.903 88.648 146.784C88.6552 146.777 88.6607 146.771 88.6667 146.766L88.6776 147.632L88.6788 147.632Z" fill="#BED5FC"/>
<path d="M80.9202 137.39C77.9772 137.39 75.6244 139.944 75.6632 143.093L75.7092 146.774V146.833L75.6983 147.632V147.637L76.1693 147.632C76.1596 147.503 76.1536 147.373 76.1518 147.242L76.1058 143.561C76.0664 140.411 78.4197 137.858 81.3622 137.858C82.7226 137.858 83.971 138.404 84.9239 139.302C83.9334 138.129 82.5028 137.39 80.9208 137.39H80.9202Z" fill="#9610FF"/>
<path d="M75.7086 146.834L75.6983 147.633H73.4461L73.4255 146.767C73.5206 146.855 73.9492 147.235 74.5849 147.235C74.6055 147.235 74.6261 147.235 74.6467 147.234C75.1419 147.216 75.5318 146.972 75.7086 146.834V146.834Z" fill="#BED5FC"/>
<path d="M80.5879 161.732L80.5291 157.058C80.3748 156.988 80.2276 156.903 80.0896 156.806L80.1453 161.266C80.1508 161.698 80.3826 162.074 80.718 162.265C80.6369 162.106 80.5903 161.925 80.5879 161.733V161.732Z" fill="#9610FF"/>
<path d="M4.85329 114.136L3.83555 117.768L0.586179 116.857L0.179932 118.307L3.4293 119.217L2.41217 122.849L3.70901 123.213L4.72615 119.581L7.97552 120.491L8.38177 119.042L5.13239 118.131L6.15013 114.499L4.85329 114.136Z" fill="#9610FF"/>
<path d="M215.948 109.876L214.93 113.508L211.681 112.598L211.275 114.047L214.525 114.958L213.507 118.59L214.804 118.953L215.821 115.321L219.071 116.231L219.477 114.782L216.227 113.871L217.245 110.239L215.948 109.876Z" fill="#9610FF"/>
<path d="M245.883 115.559C243.664 113.79 240.431 114.157 238.662 116.376C236.894 118.596 237.26 121.829 239.479 123.597C241.699 125.366 244.932 124.999 246.7 122.78C248.469 120.56 248.103 117.327 245.883 115.559ZM240.632 122.15C239.212 121.019 238.978 118.949 240.109 117.529C241.241 116.109 243.31 115.874 244.73 117.006C246.151 118.137 246.385 120.207 245.254 121.627C244.122 123.047 242.053 123.282 240.632 122.15Z" fill="#9610FF"/>
<path d="M26.4183 140.603C24.1988 138.835 20.9658 139.201 19.1973 141.421C17.4288 143.64 17.7951 146.873 20.0146 148.642C22.2342 150.41 25.4672 150.044 27.2357 147.824C29.0041 145.605 28.6378 142.372 26.4183 140.603ZM21.1674 147.195C19.747 146.063 19.5127 143.994 20.6443 142.573C21.7758 141.153 23.8452 140.919 25.2656 142.05C26.6859 143.182 26.9202 145.251 25.7887 146.672C24.6571 148.092 22.5877 148.326 21.1674 147.195Z" fill="#9610FF"/>
<path d="M32.6175 118.595C32.844 117.425 32.0786 116.292 30.9079 116.066C29.7372 115.839 28.6046 116.604 28.3781 117.775C28.1516 118.946 28.917 120.078 30.0877 120.305C31.2584 120.531 32.391 119.766 32.6175 118.595Z" fill="#3F3F9E"/>
<path d="M211.612 15.4016L208.786 13.7434L210.598 10.6556L209.47 9.9939L207.658 13.081L204.832 11.4227L204.109 12.6548L206.935 14.3131L205.123 17.4008L206.251 18.0625L208.063 14.9754L210.889 16.6337L211.612 15.4016Z" fill="#9610FF"/>
<path d="M234.594 14.8979C237.008 13.0985 237.506 9.68388 235.707 7.27001C233.908 4.85614 230.493 4.35787 228.079 6.15722C225.665 7.95658 225.167 11.3712 226.966 13.7851C228.766 16.199 232.18 16.6972 234.594 14.8979ZM229.252 7.73075C230.797 6.57921 232.983 6.89827 234.134 8.44274C235.285 9.98781 234.966 12.1734 233.422 13.3244C231.876 14.4759 229.691 14.1568 228.54 12.6124C227.388 11.0673 227.707 8.88168 229.252 7.73075Z" fill="#3F3F9E"/>
<path d="M231.723 139C232.97 138.79 233.811 137.609 233.602 136.362C233.392 135.114 232.211 134.273 230.964 134.483C229.716 134.692 228.875 135.873 229.084 137.121C229.294 138.368 230.475 139.21 231.723 139Z" fill="#9610FF"/>
</g>
<defs>
<linearGradient id="paint0_linear_184_7281" x1="142.552" y1="26.4165" x2="142.552" y2="30.5213" gradientUnits="userSpaceOnUse">
<stop stop-color="white"/>
<stop offset="0.29" stop-color="#E1EAFE"/>
<stop offset="0.76" stop-color="#B6CEFD"/>
<stop offset="1" stop-color="#A6C3FD"/>
</linearGradient>
<linearGradient id="paint1_linear_184_7281" x1="142.547" y1="38.6542" x2="142.547" y2="36.8336" gradientUnits="userSpaceOnUse">
<stop stop-color="white"/>
<stop offset="0.4" stop-color="#CDD9F7"/>
<stop offset="0.8" stop-color="#A2B8F1"/>
<stop offset="1" stop-color="#92ACEF"/>
</linearGradient>
<linearGradient id="paint2_linear_184_7281" x1="110.961" y1="128.478" x2="110.806" y2="126.61" gradientUnits="userSpaceOnUse">
<stop stop-color="#92ACEF"/>
<stop offset="0.35" stop-color="#92ACEF"/>
<stop offset="0.41" stop-color="#92ACEF"/>
<stop offset="0.81" stop-color="#E4E7FF"/>
</linearGradient>
<clipPath id="clip0_184_7281">
<rect width="247.64" height="208.385" fill="white" transform="translate(0.179932)"/>
</clipPath>
</defs>
</svg>
