<svg width="428" height="245" viewBox="0 0 428 245" fill="none" xmlns="http://www.w3.org/2000/svg">
    <g filter="url(#filter0_d_188_7428)">
        <g clip-path="url(#clip0_188_7428)">
            <rect x="24" y="20" width="380" height="181" rx="40"
                fill="url(#paint0_linear_188_7428)" />
            <g opacity="0.5">
                <path opacity="0.1"
                    d="M266.831 -12.3613L395.137 64.009V193.137L266.831 116.075V-12.3613Z"
                    fill="white" />
                <path opacity="0.2"
                    d="M522.993 -12.2832L394.691 64.0071V193L522.993 116.019V-12.2832Z"
                    fill="white" />
                <path opacity="0.3"
                    d="M266.831 -11.938L395.137 -89L523.442 -11.938V-11.3616L395.137 65.7004L266.831 -11.3616V-11.938Z"
                    fill="white" />
                <path opacity="0.1" d="M-95 60.8926L33.3056 137.263V266.391L-95 189.329V60.8926Z"
                    fill="white" />
                <path opacity="0.2"
                    d="M161.162 60.9707L32.8596 137.261V266.254L161.162 189.273V60.9707Z"
                    fill="white" />
                <path opacity="0.3"
                    d="M-95 61.3159L33.3056 -15.7461L161.611 61.3159V61.8923L33.3056 138.954L-95 61.8923V61.3159Z"
                    fill="white" />
                <path opacity="0.1"
                    d="M213.111 19.7607L266.609 51.6037V105.444L213.111 73.3131V19.7607Z"
                    fill="white" />
                <path opacity="0.2"
                    d="M319.919 19.793L266.423 51.6026V105.387L319.919 73.2891V19.793Z"
                    fill="white" />
                <path opacity="0.3"
                    d="M213.111 19.9371L266.609 -12.1943L320.106 19.9371V20.1774L266.609 52.3088L213.111 20.1774V19.9371Z"
                    fill="white" />
                <path opacity="0.3"
                    d="M257.951 225.493L311.449 193.361L364.947 225.493V225.733L311.449 257.864L257.951 225.733V225.493Z"
                    fill="white" />
            </g>
            <path
                d="M57.44 77V60.2H67.976V63.128H60.368V66.536H66.404V69.464H60.368V74.072H67.976V77H57.44ZM81.6039 69.416V77H78.6759V70.184C78.6759 69.712 78.5599 69.284 78.3279 68.9C78.0959 68.508 77.7839 68.2 77.3919 67.976C77.0079 67.744 76.5799 67.628 76.1079 67.628C75.6359 67.628 75.2039 67.744 74.8119 67.976C74.4279 68.2 74.1199 68.508 73.8879 68.9C73.6639 69.284 73.5519 69.712 73.5519 70.184V77H70.6239L70.6119 65H73.5399L73.5519 66.068C73.9599 65.636 74.4479 65.296 75.0159 65.048C75.5839 64.792 76.1959 64.664 76.8519 64.664C77.7239 64.664 78.5199 64.88 79.2399 65.312C79.9599 65.736 80.5319 66.308 80.9559 67.028C81.3879 67.74 81.6039 68.536 81.6039 69.416ZM81.9697 83V80.072C82.4257 80.072 82.8377 79.964 83.2057 79.748C83.5737 79.54 83.8657 79.252 84.0817 78.884C84.2977 78.524 84.4057 78.12 84.4057 77.672V65H87.3337V77.672C87.3337 78.648 87.0937 79.54 86.6137 80.348C86.1417 81.156 85.4977 81.8 84.6817 82.28C83.8737 82.76 82.9697 83 81.9697 83ZM85.8937 63.452C85.4617 63.452 85.0977 63.312 84.8017 63.032C84.5057 62.744 84.3577 62.384 84.3577 61.952C84.3577 61.528 84.5057 61.172 84.8017 60.884C85.0977 60.596 85.4577 60.452 85.8817 60.452C86.3057 60.452 86.6617 60.596 86.9497 60.884C87.2457 61.172 87.3937 61.528 87.3937 61.952C87.3937 62.384 87.2497 62.744 86.9617 63.032C86.6737 63.312 86.3177 63.452 85.8937 63.452ZM95.2044 77.312C94.1004 77.312 93.0924 77.028 92.1804 76.46C91.2764 75.892 90.5524 75.132 90.0084 74.18C89.4724 73.22 89.2044 72.16 89.2044 71C89.2044 70.12 89.3604 69.3 89.6724 68.54C89.9844 67.772 90.4124 67.1 90.9564 66.524C91.5084 65.94 92.1484 65.484 92.8764 65.156C93.6044 64.828 94.3804 64.664 95.2044 64.664C96.3084 64.664 97.3124 64.948 98.2164 65.516C99.1284 66.084 99.8524 66.848 100.388 67.808C100.932 68.768 101.204 69.832 101.204 71C101.204 71.872 101.048 72.688 100.736 73.448C100.424 74.208 99.9924 74.88 99.4404 75.464C98.8964 76.04 98.2604 76.492 97.5324 76.82C96.8124 77.148 96.0364 77.312 95.2044 77.312ZM95.2044 74.384C95.7884 74.384 96.3124 74.228 96.7764 73.916C97.2404 73.604 97.6044 73.192 97.8684 72.68C98.1404 72.168 98.2764 71.608 98.2764 71C98.2764 70.376 98.1364 69.808 97.8564 69.296C97.5844 68.776 97.2124 68.364 96.7404 68.06C96.2764 67.748 95.7644 67.592 95.2044 67.592C94.6284 67.592 94.1084 67.748 93.6444 68.06C93.1804 68.372 92.8124 68.788 92.5404 69.308C92.2684 69.828 92.1324 70.392 92.1324 71C92.1324 71.632 92.2724 72.204 92.5524 72.716C92.8324 73.228 93.2044 73.636 93.6684 73.94C94.1404 74.236 94.6524 74.384 95.2044 74.384ZM110.555 65H113.663L107.099 83H103.991L106.163 77L101.843 65H105.047L107.627 72.992L110.555 65ZM127.439 60.2H130.811L136.919 77H133.811L132.731 74.024H125.531L124.451 77H121.343L127.439 60.2ZM126.599 71.096H131.651L129.119 64.172L126.599 71.096ZM138.932 77V59H141.86V77H138.932ZM144.745 77V59H147.673V77H144.745ZM156.323 77V60.2H162.443C163.331 60.2 164.131 60.384 164.843 60.752C165.563 61.112 166.131 61.632 166.547 62.312C166.971 62.984 167.183 63.78 167.183 64.7C167.183 65.108 167.123 65.52 167.003 65.936C166.883 66.352 166.699 66.728 166.451 67.064C166.203 67.392 165.883 67.636 165.491 67.796C166.011 67.924 166.435 68.156 166.763 68.492C167.091 68.828 167.347 69.224 167.531 69.68C167.715 70.128 167.839 70.588 167.903 71.06C167.975 71.524 168.011 71.956 168.011 72.356C168.011 73.244 167.791 74.036 167.351 74.732C166.911 75.428 166.319 75.98 165.575 76.388C164.839 76.796 164.023 77 163.127 77H156.323ZM159.251 74.492H162.827C163.307 74.492 163.739 74.376 164.123 74.144C164.507 73.912 164.815 73.592 165.047 73.184C165.279 72.776 165.395 72.312 165.395 71.792C165.395 71.344 165.279 70.92 165.047 70.52C164.815 70.12 164.507 69.796 164.123 69.548C163.739 69.3 163.307 69.176 162.827 69.176H159.251V74.492ZM159.251 66.704H162.107C162.699 66.704 163.203 66.52 163.619 66.152C164.043 65.784 164.255 65.296 164.255 64.688C164.255 64.04 164.043 63.552 163.619 63.224C163.203 62.888 162.699 62.72 162.107 62.72H159.251V66.704ZM175.056 77.312C173.952 77.312 172.944 77.028 172.032 76.46C171.128 75.892 170.404 75.128 169.86 74.168C169.324 73.208 169.056 72.148 169.056 70.988C169.056 70.116 169.212 69.3 169.524 68.54C169.836 67.772 170.264 67.1 170.808 66.524C171.36 65.94 172 65.484 172.728 65.156C173.456 64.828 174.232 64.664 175.056 64.664C175.992 64.664 176.848 64.864 177.624 65.264C178.408 65.656 179.072 66.196 179.616 66.884C180.16 67.572 180.556 68.356 180.804 69.236C181.052 70.116 181.108 71.036 180.972 71.996H172.2C172.312 72.444 172.496 72.848 172.752 73.208C173.008 73.56 173.332 73.844 173.724 74.06C174.116 74.268 174.56 74.376 175.056 74.384C175.568 74.392 176.032 74.272 176.448 74.024C176.872 73.768 177.224 73.424 177.504 72.992L180.492 73.688C180.004 74.752 179.276 75.624 178.308 76.304C177.34 76.976 176.256 77.312 175.056 77.312ZM172.104 69.8H178.008C177.92 69.32 177.732 68.888 177.444 68.504C177.164 68.112 176.816 67.8 176.4 67.568C175.984 67.336 175.536 67.22 175.056 67.22C174.576 67.22 174.132 67.336 173.724 67.568C173.316 67.792 172.968 68.1 172.68 68.492C172.4 68.876 172.208 69.312 172.104 69.8ZM193.916 69.416V77H190.988V70.184C190.988 69.712 190.872 69.284 190.64 68.9C190.408 68.508 190.096 68.2 189.704 67.976C189.32 67.744 188.892 67.628 188.42 67.628C187.948 67.628 187.516 67.744 187.124 67.976C186.74 68.2 186.432 68.508 186.2 68.9C185.976 69.284 185.864 69.712 185.864 70.184V77H182.936L182.924 65H185.852L185.864 66.068C186.272 65.636 186.76 65.296 187.328 65.048C187.896 64.792 188.508 64.664 189.164 64.664C190.036 64.664 190.832 64.88 191.552 65.312C192.272 65.736 192.844 66.308 193.268 67.028C193.7 67.74 193.916 68.536 193.916 69.416ZM201.353 77.312C200.249 77.312 199.241 77.028 198.329 76.46C197.425 75.892 196.701 75.128 196.157 74.168C195.621 73.208 195.353 72.148 195.353 70.988C195.353 70.116 195.509 69.3 195.821 68.54C196.133 67.772 196.561 67.1 197.105 66.524C197.657 65.94 198.297 65.484 199.025 65.156C199.753 64.828 200.529 64.664 201.353 64.664C202.289 64.664 203.145 64.864 203.921 65.264C204.705 65.656 205.369 66.196 205.913 66.884C206.457 67.572 206.853 68.356 207.101 69.236C207.349 70.116 207.405 71.036 207.269 71.996H198.497C198.609 72.444 198.793 72.848 199.049 73.208C199.305 73.56 199.629 73.844 200.021 74.06C200.413 74.268 200.857 74.376 201.353 74.384C201.865 74.392 202.329 74.272 202.745 74.024C203.169 73.768 203.521 73.424 203.801 72.992L206.789 73.688C206.301 74.752 205.573 75.624 204.605 76.304C203.637 76.976 202.553 77.312 201.353 77.312ZM198.401 69.8H204.305C204.217 69.32 204.029 68.888 203.741 68.504C203.461 68.112 203.113 67.8 202.697 67.568C202.281 67.336 201.833 67.22 201.353 67.22C200.873 67.22 200.429 67.336 200.021 67.568C199.613 67.792 199.265 68.1 198.977 68.492C198.697 68.876 198.505 69.312 198.401 69.8ZM212.899 62.48V65H216.175V67.928H212.899V77H209.971V67.928H208.663V65H209.971V62.48C209.971 61.792 210.139 61.164 210.475 60.596C210.819 60.02 211.279 59.564 211.855 59.228C212.431 58.884 213.067 58.712 213.763 58.712C214.267 58.712 214.767 58.816 215.263 59.024C215.759 59.232 216.199 59.552 216.583 59.984L214.471 62.048C214.399 61.912 214.295 61.812 214.159 61.748C214.031 61.676 213.899 61.64 213.763 61.64C213.531 61.64 213.327 61.724 213.151 61.892C212.983 62.052 212.899 62.248 212.899 62.48ZM218.057 65H220.985V77H218.057V65ZM219.545 63.452C219.113 63.452 218.749 63.312 218.453 63.032C218.157 62.744 218.009 62.384 218.009 61.952C218.009 61.528 218.157 61.172 218.453 60.884C218.749 60.596 219.109 60.452 219.533 60.452C219.957 60.452 220.313 60.596 220.601 60.884C220.897 61.172 221.045 61.528 221.045 61.952C221.045 62.384 220.901 62.744 220.613 63.032C220.325 63.312 219.969 63.452 219.545 63.452ZM230.302 67.928H227.974V77H225.046V67.928H223.27V65H225.046V61.232H227.974V65H230.302V67.928ZM235.824 77.216C235.2 77.176 234.596 77.052 234.012 76.844C233.436 76.628 232.924 76.336 232.476 75.968C232.028 75.6 231.684 75.16 231.444 74.648L233.916 73.592C234.012 73.752 234.168 73.924 234.384 74.108C234.6 74.284 234.856 74.432 235.152 74.552C235.456 74.672 235.788 74.732 236.148 74.732C236.452 74.732 236.74 74.692 237.012 74.612C237.292 74.524 237.516 74.392 237.684 74.216C237.86 74.04 237.948 73.812 237.948 73.532C237.948 73.236 237.844 73.008 237.636 72.848C237.436 72.68 237.18 72.556 236.868 72.476C236.564 72.388 236.268 72.308 235.98 72.236C235.22 72.084 234.512 71.848 233.856 71.528C233.208 71.208 232.684 70.796 232.284 70.292C231.892 69.78 231.696 69.164 231.696 68.444C231.696 67.652 231.904 66.968 232.32 66.392C232.744 65.816 233.292 65.372 233.964 65.06C234.644 64.748 235.376 64.592 236.16 64.592C237.112 64.592 237.984 64.792 238.776 65.192C239.576 65.584 240.208 66.14 240.672 66.86L238.356 68.228C238.244 68.036 238.088 67.86 237.888 67.7C237.688 67.532 237.46 67.396 237.204 67.292C236.948 67.18 236.68 67.116 236.4 67.1C236.04 67.084 235.712 67.116 235.416 67.196C235.12 67.276 234.88 67.412 234.696 67.604C234.52 67.796 234.432 68.052 234.432 68.372C234.432 68.676 234.552 68.904 234.792 69.056C235.032 69.2 235.32 69.312 235.656 69.392C236 69.472 236.328 69.56 236.64 69.656C237.344 69.888 238.004 70.172 238.62 70.508C239.244 70.844 239.744 71.256 240.12 71.744C240.496 72.232 240.676 72.816 240.66 73.496C240.66 74.272 240.428 74.952 239.964 75.536C239.5 76.112 238.9 76.552 238.164 76.856C237.436 77.16 236.656 77.28 235.824 77.216ZM242.497 71.96V60.2H244.969V71.96H242.497ZM243.745 77.312C243.321 77.312 242.961 77.164 242.665 76.868C242.377 76.572 242.233 76.212 242.233 75.788C242.233 75.372 242.377 75.02 242.665 74.732C242.961 74.444 243.321 74.3 243.745 74.3C244.153 74.3 244.501 74.444 244.789 74.732C245.077 75.02 245.221 75.372 245.221 75.788C245.221 76.212 245.077 76.572 244.789 76.868C244.501 77.164 244.153 77.312 243.745 77.312Z"
                fill="white" />
            <path
                d="M56.72 106V97.6H61.832V98.44H57.56V101.08H61.094V101.92H57.56V105.16H61.832V106H56.72ZM68.5856 102.286V106H67.7456V102.454C67.7456 102.126 67.6656 101.828 67.5056 101.56C67.3456 101.292 67.1316 101.078 66.8636 100.918C66.5956 100.758 66.2976 100.678 65.9696 100.678C65.6456 100.678 65.3476 100.758 65.0756 100.918C64.8076 101.078 64.5936 101.292 64.4336 101.56C64.2736 101.828 64.1936 102.126 64.1936 102.454V106H63.3536V100H64.1936V100.828C64.4056 100.524 64.6816 100.282 65.0216 100.102C65.3616 99.922 65.7316 99.832 66.1316 99.832C66.5836 99.832 66.9956 99.942 67.3676 100.162C67.7396 100.382 68.0356 100.678 68.2556 101.05C68.4756 101.422 68.5856 101.834 68.5856 102.286ZM68.8692 109V108.16C69.1692 108.16 69.4372 108.094 69.6732 107.962C69.9092 107.83 70.0952 107.648 70.2312 107.416C70.3672 107.188 70.4352 106.932 70.4352 106.648V100H71.2752V106.648C71.2752 107.08 71.1692 107.474 70.9572 107.83C70.7492 108.186 70.4632 108.47 70.0992 108.682C69.7392 108.894 69.3292 109 68.8692 109ZM70.8612 98.95C70.7252 98.95 70.6092 98.906 70.5132 98.818C70.4212 98.726 70.3752 98.612 70.3752 98.476C70.3752 98.34 70.4212 98.228 70.5132 98.14C70.6092 98.048 70.7252 98.002 70.8612 98.002C70.9932 98.002 71.1052 98.048 71.1972 98.14C71.2932 98.228 71.3412 98.34 71.3412 98.476C71.3412 98.612 71.2952 98.726 71.2032 98.818C71.1112 98.906 70.9972 98.95 70.8612 98.95ZM75.4991 106.156C74.9471 106.156 74.4431 106.014 73.9871 105.73C73.5351 105.446 73.1731 105.066 72.9011 104.59C72.6331 104.11 72.4991 103.58 72.4991 103C72.4991 102.56 72.5771 102.15 72.7331 101.77C72.8891 101.386 73.1031 101.05 73.3751 100.762C73.6511 100.47 73.9711 100.242 74.3351 100.078C74.6991 99.914 75.0871 99.832 75.4991 99.832C76.0511 99.832 76.5531 99.974 77.0051 100.258C77.4611 100.542 77.8231 100.924 78.0911 101.404C78.3631 101.884 78.4991 102.416 78.4991 103C78.4991 103.436 78.4211 103.844 78.2651 104.224C78.1091 104.604 77.8931 104.94 77.6171 105.232C77.3451 105.52 77.0271 105.746 76.6631 105.91C76.3031 106.074 75.9151 106.156 75.4991 106.156ZM75.4991 105.316C75.9071 105.316 76.2731 105.21 76.5971 104.998C76.9251 104.782 77.1831 104.498 77.3711 104.146C77.5631 103.794 77.6591 103.412 77.6591 103C77.6591 102.58 77.5631 102.194 77.3711 101.842C77.1791 101.486 76.9191 101.202 76.5911 100.99C76.2671 100.778 75.9031 100.672 75.4991 100.672C75.0911 100.672 74.7231 100.78 74.3951 100.996C74.0711 101.208 73.8131 101.49 73.6211 101.842C73.4331 102.194 73.3391 102.58 73.3391 103C73.3391 103.432 73.4371 103.824 73.6331 104.176C73.8291 104.524 74.0911 104.802 74.4191 105.01C74.7471 105.214 75.1071 105.316 75.4991 105.316ZM83.5206 100H84.4086L81.1266 109H80.2326L81.3246 106L79.1706 100H80.0886L81.7446 104.842L83.5206 100ZM88.6527 103.702V100H89.4927V103.534C89.4927 103.862 89.5727 104.16 89.7327 104.428C89.8927 104.696 90.1067 104.91 90.3747 105.07C90.6467 105.23 90.9447 105.31 91.2687 105.31C91.5967 105.31 91.8927 105.23 92.1567 105.07C92.4247 104.91 92.6387 104.696 92.7987 104.428C92.9587 104.16 93.0387 103.862 93.0387 103.534V100H93.8787L93.8847 106H93.0447L93.0387 105.16C92.8267 105.464 92.5507 105.706 92.2107 105.886C91.8747 106.066 91.5067 106.156 91.1067 106.156C90.6547 106.156 90.2427 106.046 89.8707 105.826C89.4987 105.606 89.2027 105.31 88.9827 104.938C88.7627 104.566 88.6527 104.154 88.6527 103.702ZM100.512 102.286V106H99.6722V102.454C99.6722 102.126 99.5922 101.828 99.4322 101.56C99.2722 101.292 99.0582 101.078 98.7902 100.918C98.5222 100.758 98.2242 100.678 97.8962 100.678C97.5722 100.678 97.2742 100.758 97.0022 100.918C96.7342 101.078 96.5202 101.292 96.3602 101.56C96.2002 101.828 96.1202 102.126 96.1202 102.454V106H95.2802V100H96.1202V100.828C96.3322 100.524 96.6082 100.282 96.9482 100.102C97.2882 99.922 97.6582 99.832 98.0582 99.832C98.5102 99.832 98.9222 99.942 99.2942 100.162C99.6662 100.382 99.9622 100.678 100.182 101.05C100.402 101.422 100.512 101.834 100.512 102.286ZM101.996 106V97H102.836V106H101.996ZM104.481 100H105.321V106H104.481V100ZM104.907 98.95C104.771 98.95 104.655 98.906 104.559 98.818C104.467 98.726 104.421 98.612 104.421 98.476C104.421 98.34 104.467 98.228 104.559 98.14C104.655 98.048 104.771 98.002 104.907 98.002C105.039 98.002 105.151 98.048 105.243 98.14C105.339 98.228 105.387 98.34 105.387 98.476C105.387 98.612 105.341 98.726 105.249 98.818C105.157 98.906 105.043 98.95 104.907 98.95ZM106.943 106V100H107.783V100.828C107.999 100.524 108.275 100.282 108.611 100.102C108.947 99.922 109.315 99.832 109.715 99.832C110.167 99.832 110.581 99.944 110.957 100.168C111.333 100.388 111.627 100.682 111.839 101.05C112.051 100.682 112.343 100.388 112.715 100.168C113.087 99.944 113.499 99.832 113.951 99.832C114.403 99.832 114.815 99.942 115.187 100.162C115.559 100.382 115.855 100.678 116.075 101.05C116.295 101.422 116.405 101.834 116.405 102.286V106H115.565V102.472C115.565 102.152 115.487 101.856 115.331 101.584C115.175 101.312 114.965 101.094 114.701 100.93C114.441 100.762 114.151 100.678 113.831 100.678C113.511 100.678 113.219 100.756 112.955 100.912C112.695 101.064 112.487 101.276 112.331 101.548C112.175 101.816 112.097 102.124 112.097 102.472V106H111.257V102.472C111.257 102.124 111.179 101.816 111.023 101.548C110.867 101.276 110.657 101.064 110.393 100.912C110.129 100.756 109.837 100.678 109.517 100.678C109.201 100.678 108.911 100.762 108.647 100.93C108.383 101.094 108.173 101.312 108.017 101.584C107.861 101.856 107.783 102.152 107.783 102.472V106H106.943ZM117.807 100H118.647V106H117.807V100ZM118.233 98.95C118.097 98.95 117.981 98.906 117.885 98.818C117.793 98.726 117.747 98.612 117.747 98.476C117.747 98.34 117.793 98.228 117.885 98.14C117.981 98.048 118.097 98.002 118.233 98.002C118.365 98.002 118.477 98.048 118.569 98.14C118.665 98.228 118.713 98.34 118.713 98.476C118.713 98.612 118.667 98.726 118.575 98.818C118.483 98.906 118.369 98.95 118.233 98.95ZM123.358 100.84H121.924L121.918 106H121.078L121.084 100.84H119.998V100H121.084L121.078 98.116H121.918L121.924 100H123.358V100.84ZM127.105 106.156C126.553 106.156 126.049 106.014 125.593 105.73C125.141 105.446 124.779 105.066 124.507 104.59C124.239 104.11 124.105 103.58 124.105 103C124.105 102.56 124.183 102.15 124.339 101.77C124.495 101.386 124.709 101.05 124.981 100.762C125.257 100.47 125.577 100.242 125.941 100.078C126.305 99.914 126.693 99.832 127.105 99.832C127.549 99.832 127.957 99.92 128.329 100.096C128.705 100.272 129.027 100.518 129.295 100.834C129.567 101.15 129.771 101.52 129.907 101.944C130.047 102.368 130.105 102.826 130.081 103.318H124.993C125.041 103.698 125.161 104.038 125.353 104.338C125.549 104.638 125.797 104.876 126.097 105.052C126.401 105.224 126.737 105.312 127.105 105.316C127.505 105.316 127.865 105.212 128.185 105.004C128.509 104.796 128.769 104.51 128.965 104.146L129.817 104.344C129.577 104.876 129.215 105.312 128.731 105.652C128.247 105.988 127.705 106.156 127.105 106.156ZM124.969 102.64H129.235C129.207 102.268 129.093 101.928 128.893 101.62C128.697 101.308 128.443 101.06 128.131 100.876C127.819 100.688 127.477 100.594 127.105 100.594C126.733 100.594 126.393 100.686 126.085 100.87C125.777 101.05 125.525 101.296 125.329 101.608C125.133 101.916 125.013 102.26 124.969 102.64ZM136.188 97H137.028V106H136.188V104.878C135.98 105.262 135.694 105.572 135.33 105.808C134.97 106.04 134.542 106.156 134.046 106.156C133.61 106.156 133.202 106.074 132.822 105.91C132.442 105.746 132.106 105.52 131.814 105.232C131.526 104.94 131.3 104.604 131.136 104.224C130.972 103.844 130.89 103.436 130.89 103C130.89 102.564 130.972 102.156 131.136 101.776C131.3 101.392 131.526 101.056 131.814 100.768C132.106 100.476 132.442 100.248 132.822 100.084C133.202 99.92 133.61 99.838 134.046 99.838C134.542 99.838 134.97 99.956 135.33 100.192C135.694 100.424 135.98 100.73 136.188 101.11V97ZM134.052 105.34C134.48 105.34 134.848 105.236 135.156 105.028C135.464 104.816 135.7 104.532 135.864 104.176C136.032 103.82 136.116 103.428 136.116 103C136.116 102.56 136.032 102.164 135.864 101.812C135.696 101.456 135.458 101.174 135.15 100.966C134.842 100.758 134.476 100.654 134.052 100.654C133.628 100.654 133.242 100.76 132.894 100.972C132.546 101.18 132.268 101.462 132.06 101.818C131.852 102.174 131.748 102.568 131.748 103C131.748 103.436 131.854 103.832 132.066 104.188C132.278 104.54 132.558 104.82 132.906 105.028C133.258 105.236 133.64 105.34 134.052 105.34ZM143.606 106.114C143.278 106.106 142.958 106.046 142.646 105.934C142.334 105.822 142.062 105.67 141.83 105.478C141.598 105.286 141.432 105.068 141.332 104.824L142.058 104.512C142.122 104.668 142.24 104.812 142.412 104.944C142.588 105.072 142.788 105.176 143.012 105.256C143.236 105.332 143.458 105.37 143.678 105.37C143.922 105.37 144.15 105.33 144.362 105.25C144.574 105.17 144.746 105.056 144.878 104.908C145.014 104.756 145.082 104.578 145.082 104.374C145.082 104.154 145.01 103.982 144.866 103.858C144.722 103.73 144.54 103.63 144.32 103.558C144.1 103.482 143.874 103.41 143.642 103.342C143.218 103.226 142.844 103.098 142.52 102.958C142.196 102.818 141.942 102.64 141.758 102.424C141.578 102.204 141.488 101.922 141.488 101.578C141.488 101.214 141.59 100.9 141.794 100.636C142.002 100.368 142.272 100.162 142.604 100.018C142.94 99.87 143.298 99.796 143.678 99.796C144.166 99.796 144.61 99.902 145.01 100.114C145.414 100.326 145.706 100.608 145.886 100.96L145.208 101.362C145.136 101.198 145.022 101.056 144.866 100.936C144.71 100.816 144.532 100.722 144.332 100.654C144.136 100.586 143.936 100.55 143.732 100.546C143.476 100.542 143.238 100.58 143.018 100.66C142.798 100.736 142.62 100.85 142.484 101.002C142.352 101.154 142.286 101.34 142.286 101.56C142.286 101.78 142.352 101.948 142.484 102.064C142.616 102.176 142.794 102.268 143.018 102.34C143.246 102.408 143.502 102.488 143.786 102.58C144.15 102.696 144.492 102.828 144.812 102.976C145.132 103.124 145.39 103.308 145.586 103.528C145.782 103.748 145.878 104.026 145.874 104.362C145.874 104.722 145.766 105.036 145.55 105.304C145.334 105.572 145.054 105.778 144.71 105.922C144.366 106.062 143.998 106.126 143.606 106.114ZM149.517 106H148.653L146.643 100H147.465L149.097 104.836L150.717 100H151.605L153.225 104.836L154.845 100H155.673L153.663 106H152.793L151.149 101.116L149.517 106ZM156.871 100H157.711V106H156.871V100ZM157.297 98.95C157.161 98.95 157.045 98.906 156.949 98.818C156.857 98.726 156.811 98.612 156.811 98.476C156.811 98.34 156.857 98.228 156.949 98.14C157.045 98.048 157.161 98.002 157.297 98.002C157.429 98.002 157.541 98.048 157.633 98.14C157.729 98.228 157.777 98.34 157.777 98.476C157.777 98.612 157.731 98.726 157.639 98.818C157.547 98.906 157.433 98.95 157.297 98.95ZM160.149 109H159.309V100H160.149V101.122C160.357 100.742 160.641 100.434 161.001 100.198C161.361 99.962 161.789 99.844 162.285 99.844C162.721 99.844 163.129 99.926 163.509 100.09C163.893 100.254 164.229 100.482 164.517 100.774C164.805 101.062 165.031 101.396 165.195 101.776C165.359 102.156 165.441 102.564 165.441 103C165.441 103.436 165.359 103.846 165.195 104.23C165.031 104.614 164.805 104.952 164.517 105.244C164.229 105.532 163.893 105.758 163.509 105.922C163.129 106.086 162.721 106.168 162.285 106.168C161.789 106.168 161.361 106.05 161.001 105.814C160.641 105.578 160.357 105.27 160.149 104.89V109ZM162.279 100.66C161.859 100.66 161.493 100.766 161.181 100.978C160.873 101.186 160.635 101.466 160.467 101.818C160.299 102.17 160.215 102.564 160.215 103C160.215 103.428 160.297 103.82 160.461 104.176C160.629 104.532 160.867 104.816 161.175 105.028C161.487 105.24 161.855 105.346 162.279 105.346C162.695 105.346 163.077 105.242 163.425 105.034C163.777 104.826 164.059 104.546 164.271 104.194C164.483 103.838 164.589 103.44 164.589 103C164.589 102.572 164.485 102.182 164.277 101.83C164.069 101.474 163.791 101.19 163.443 100.978C163.095 100.766 162.707 100.66 162.279 100.66ZM166.599 100H167.439V106H166.599V100ZM167.025 98.95C166.889 98.95 166.773 98.906 166.677 98.818C166.585 98.726 166.539 98.612 166.539 98.476C166.539 98.34 166.585 98.228 166.677 98.14C166.773 98.048 166.889 98.002 167.025 98.002C167.157 98.002 167.269 98.048 167.361 98.14C167.457 98.228 167.505 98.34 167.505 98.476C167.505 98.612 167.459 98.726 167.367 98.818C167.275 98.906 167.161 98.95 167.025 98.95ZM174.293 102.286V106H173.453V102.454C173.453 102.126 173.373 101.828 173.213 101.56C173.053 101.292 172.839 101.078 172.571 100.918C172.303 100.758 172.005 100.678 171.677 100.678C171.353 100.678 171.055 100.758 170.783 100.918C170.515 101.078 170.301 101.292 170.141 101.56C169.981 101.828 169.901 102.126 169.901 102.454V106H169.061V100H169.901V100.828C170.113 100.524 170.389 100.282 170.729 100.102C171.069 99.922 171.439 99.832 171.839 99.832C172.291 99.832 172.703 99.942 173.075 100.162C173.447 100.382 173.743 100.678 173.963 101.05C174.183 101.422 174.293 101.834 174.293 102.286ZM180.347 100H181.187V106.222C181.187 106.606 181.103 106.966 180.935 107.302C180.771 107.638 180.547 107.932 180.263 108.184C179.983 108.44 179.663 108.64 179.303 108.784C178.943 108.928 178.569 109 178.181 109C177.765 109 177.363 108.904 176.975 108.712C176.587 108.524 176.249 108.272 175.961 107.956C175.677 107.64 175.475 107.29 175.355 106.906L176.129 106.552C176.205 106.852 176.347 107.122 176.555 107.362C176.767 107.606 177.015 107.798 177.299 107.938C177.587 108.082 177.881 108.154 178.181 108.154C178.457 108.154 178.723 108.102 178.979 107.998C179.239 107.898 179.471 107.76 179.675 107.584C179.883 107.408 180.047 107.202 180.167 106.966C180.287 106.734 180.347 106.486 180.347 106.222V104.896C180.139 105.272 179.857 105.576 179.501 105.808C179.149 106.04 178.739 106.156 178.271 106.156C177.851 106.156 177.455 106.074 177.083 105.91C176.715 105.746 176.391 105.52 176.111 105.232C175.831 104.94 175.611 104.604 175.451 104.224C175.295 103.844 175.217 103.436 175.217 103C175.217 102.564 175.295 102.156 175.451 101.776C175.611 101.392 175.831 101.056 176.111 100.768C176.391 100.476 176.715 100.248 177.083 100.084C177.455 99.92 177.851 99.838 178.271 99.838C178.739 99.838 179.149 99.954 179.501 100.186C179.857 100.414 180.139 100.718 180.347 101.098V100ZM178.277 105.34C178.693 105.34 179.051 105.232 179.351 105.016C179.655 104.8 179.889 104.514 180.053 104.158C180.217 103.802 180.299 103.416 180.299 103C180.299 102.572 180.215 102.182 180.047 101.83C179.883 101.474 179.649 101.19 179.345 100.978C179.041 100.762 178.685 100.654 178.277 100.654C177.869 100.654 177.497 100.76 177.161 100.972C176.829 101.18 176.565 101.462 176.369 101.818C176.173 102.174 176.075 102.568 176.075 103C176.075 103.432 176.175 103.826 176.375 104.182C176.575 104.534 176.841 104.816 177.173 105.028C177.509 105.236 177.877 105.34 178.277 105.34ZM182.592 106.672L182.964 104.644H183.804L183.15 106.672H182.592ZM188.529 106V97H189.369V106H188.529ZM191.014 100H191.854V106H191.014V100ZM191.44 98.95C191.304 98.95 191.188 98.906 191.092 98.818C191 98.726 190.954 98.612 190.954 98.476C190.954 98.34 191 98.228 191.092 98.14C191.188 98.048 191.304 98.002 191.44 98.002C191.572 98.002 191.684 98.048 191.776 98.14C191.872 98.228 191.92 98.34 191.92 98.476C191.92 98.612 191.874 98.726 191.782 98.818C191.69 98.906 191.576 98.95 191.44 98.95ZM198.232 106H197.266L195.586 103.102L194.386 104.536V106H193.546V97H194.386V103.228L197.092 100H198.19L196.156 102.418L198.232 106ZM201.823 106.156C201.271 106.156 200.767 106.014 200.311 105.73C199.859 105.446 199.497 105.066 199.225 104.59C198.957 104.11 198.823 103.58 198.823 103C198.823 102.56 198.901 102.15 199.057 101.77C199.213 101.386 199.427 101.05 199.699 100.762C199.975 100.47 200.295 100.242 200.659 100.078C201.023 99.914 201.411 99.832 201.823 99.832C202.267 99.832 202.675 99.92 203.047 100.096C203.423 100.272 203.745 100.518 204.013 100.834C204.285 101.15 204.489 101.52 204.625 101.944C204.765 102.368 204.823 102.826 204.799 103.318H199.711C199.759 103.698 199.879 104.038 200.071 104.338C200.267 104.638 200.515 104.876 200.815 105.052C201.119 105.224 201.455 105.312 201.823 105.316C202.223 105.316 202.583 105.212 202.903 105.004C203.227 104.796 203.487 104.51 203.683 104.146L204.535 104.344C204.295 104.876 203.933 105.312 203.449 105.652C202.965 105.988 202.423 106.156 201.823 106.156ZM199.687 102.64H203.953C203.925 102.268 203.811 101.928 203.611 101.62C203.415 101.308 203.161 101.06 202.849 100.876C202.537 100.688 202.195 100.594 201.823 100.594C201.451 100.594 201.111 100.686 200.803 100.87C200.495 101.05 200.243 101.296 200.047 101.608C199.851 101.916 199.731 102.26 199.687 102.64ZM207.894 106.114C207.566 106.106 207.246 106.046 206.934 105.934C206.622 105.822 206.35 105.67 206.118 105.478C205.886 105.286 205.72 105.068 205.62 104.824L206.346 104.512C206.41 104.668 206.528 104.812 206.7 104.944C206.876 105.072 207.076 105.176 207.3 105.256C207.524 105.332 207.746 105.37 207.966 105.37C208.21 105.37 208.438 105.33 208.65 105.25C208.862 105.17 209.034 105.056 209.166 104.908C209.302 104.756 209.37 104.578 209.37 104.374C209.37 104.154 209.298 103.982 209.154 103.858C209.01 103.73 208.828 103.63 208.608 103.558C208.388 103.482 208.162 103.41 207.93 103.342C207.506 103.226 207.132 103.098 206.808 102.958C206.484 102.818 206.23 102.64 206.046 102.424C205.866 102.204 205.776 101.922 205.776 101.578C205.776 101.214 205.878 100.9 206.082 100.636C206.29 100.368 206.56 100.162 206.892 100.018C207.228 99.87 207.586 99.796 207.966 99.796C208.454 99.796 208.898 99.902 209.298 100.114C209.702 100.326 209.994 100.608 210.174 100.96L209.496 101.362C209.424 101.198 209.31 101.056 209.154 100.936C208.998 100.816 208.82 100.722 208.62 100.654C208.424 100.586 208.224 100.55 208.02 100.546C207.764 100.542 207.526 100.58 207.306 100.66C207.086 100.736 206.908 100.85 206.772 101.002C206.64 101.154 206.574 101.34 206.574 101.56C206.574 101.78 206.64 101.948 206.772 102.064C206.904 102.176 207.082 102.268 207.306 102.34C207.534 102.408 207.79 102.488 208.074 102.58C208.438 102.696 208.78 102.828 209.1 102.976C209.42 103.124 209.678 103.308 209.874 103.528C210.07 103.748 210.166 104.026 210.162 104.362C210.162 104.722 210.054 105.036 209.838 105.304C209.622 105.572 209.342 105.778 208.998 105.922C208.654 106.062 208.286 106.126 207.894 106.114ZM211.132 106.672L211.504 104.644H212.344L211.69 106.672H211.132ZM59.234 120H58.37L56.36 114H57.182L58.814 118.836L60.434 114H61.322L62.942 118.836L64.562 114H65.39L63.38 120H62.51L60.866 115.116L59.234 120ZM66.588 114H67.428V120H66.588V114ZM67.014 112.95C66.878 112.95 66.762 112.906 66.666 112.818C66.574 112.726 66.528 112.612 66.528 112.476C66.528 112.34 66.574 112.228 66.666 112.14C66.762 112.048 66.878 112.002 67.014 112.002C67.146 112.002 67.258 112.048 67.35 112.14C67.446 112.228 67.494 112.34 67.494 112.476C67.494 112.612 67.448 112.726 67.356 112.818C67.264 112.906 67.15 112.95 67.014 112.95ZM72.1391 114.84H70.7051L70.6991 120H69.8591L69.8651 114.84H68.7791V114H69.8651L69.8591 112.116H70.6991L70.7051 114H72.1391V114.84ZM78.6418 116.286V120H77.8018V116.454C77.8018 116.126 77.7218 115.828 77.5618 115.56C77.4018 115.292 77.1878 115.078 76.9198 114.918C76.6518 114.758 76.3538 114.678 76.0258 114.678C75.7018 114.678 75.4038 114.758 75.1318 114.918C74.8638 115.078 74.6498 115.292 74.4898 115.56C74.3298 115.828 74.2498 116.126 74.2498 116.454V120H73.4098V111H74.2498V114.828C74.4618 114.524 74.7378 114.282 75.0778 114.102C75.4178 113.922 75.7878 113.832 76.1878 113.832C76.6398 113.832 77.0518 113.942 77.4238 114.162C77.7958 114.382 78.0918 114.678 78.3118 115.05C78.5318 115.422 78.6418 115.834 78.6418 116.286ZM82.5662 120.156C82.0142 120.156 81.5102 120.014 81.0542 119.73C80.6022 119.446 80.2402 119.066 79.9682 118.59C79.7002 118.11 79.5662 117.58 79.5662 117C79.5662 116.56 79.6442 116.15 79.8002 115.77C79.9562 115.386 80.1702 115.05 80.4422 114.762C80.7182 114.47 81.0382 114.242 81.4022 114.078C81.7662 113.914 82.1542 113.832 82.5662 113.832C83.1182 113.832 83.6202 113.974 84.0722 114.258C84.5282 114.542 84.8902 114.924 85.1582 115.404C85.4302 115.884 85.5662 116.416 85.5662 117C85.5662 117.436 85.4882 117.844 85.3322 118.224C85.1762 118.604 84.9602 118.94 84.6842 119.232C84.4122 119.52 84.0942 119.746 83.7302 119.91C83.3702 120.074 82.9822 120.156 82.5662 120.156ZM82.5662 119.316C82.9742 119.316 83.3402 119.21 83.6642 118.998C83.9922 118.782 84.2502 118.498 84.4382 118.146C84.6302 117.794 84.7262 117.412 84.7262 117C84.7262 116.58 84.6302 116.194 84.4382 115.842C84.2462 115.486 83.9862 115.202 83.6582 114.99C83.3342 114.778 82.9702 114.672 82.5662 114.672C82.1582 114.672 81.7902 114.78 81.4622 114.996C81.1382 115.208 80.8802 115.49 80.6882 115.842C80.5002 116.194 80.4062 116.58 80.4062 117C80.4062 117.432 80.5042 117.824 80.7002 118.176C80.8962 118.524 81.1582 118.802 81.4862 119.01C81.8142 119.214 82.1742 119.316 82.5662 119.316ZM86.4839 117.702V114H87.3239V117.534C87.3239 117.862 87.4039 118.16 87.5639 118.428C87.7239 118.696 87.9379 118.91 88.2059 119.07C88.4779 119.23 88.7759 119.31 89.0999 119.31C89.4279 119.31 89.7239 119.23 89.9879 119.07C90.2559 118.91 90.4699 118.696 90.6299 118.428C90.7899 118.16 90.8699 117.862 90.8699 117.534V114H91.7099L91.7159 120H90.8759L90.8699 119.16C90.6579 119.464 90.3819 119.706 90.0419 119.886C89.7059 120.066 89.3379 120.156 88.9379 120.156C88.4859 120.156 88.0739 120.046 87.7019 119.826C87.3299 119.606 87.0339 119.31 86.8139 118.938C86.5939 118.566 86.4839 118.154 86.4839 117.702ZM96.1774 114.84H94.7434L94.7374 120H93.8974L93.9034 114.84H92.8174V114H93.9034L93.8974 112.116H94.7374L94.7434 114H96.1774V114.84ZM100.531 120V114H101.371V114.828C101.583 114.524 101.859 114.282 102.199 114.102C102.539 113.922 102.909 113.832 103.309 113.832C103.541 113.832 103.765 113.862 103.981 113.922L103.639 114.756C103.471 114.704 103.307 114.678 103.147 114.678C102.823 114.678 102.525 114.758 102.253 114.918C101.985 115.078 101.771 115.292 101.611 115.56C101.451 115.828 101.371 116.126 101.371 116.454V120H100.531ZM107.262 120.156C106.71 120.156 106.206 120.014 105.75 119.73C105.298 119.446 104.936 119.066 104.664 118.59C104.396 118.11 104.262 117.58 104.262 117C104.262 116.56 104.34 116.15 104.496 115.77C104.652 115.386 104.866 115.05 105.138 114.762C105.414 114.47 105.734 114.242 106.098 114.078C106.462 113.914 106.85 113.832 107.262 113.832C107.706 113.832 108.114 113.92 108.486 114.096C108.862 114.272 109.184 114.518 109.452 114.834C109.724 115.15 109.928 115.52 110.064 115.944C110.204 116.368 110.262 116.826 110.238 117.318H105.15C105.198 117.698 105.318 118.038 105.51 118.338C105.706 118.638 105.954 118.876 106.254 119.052C106.558 119.224 106.894 119.312 107.262 119.316C107.662 119.316 108.022 119.212 108.342 119.004C108.666 118.796 108.926 118.51 109.122 118.146L109.974 118.344C109.734 118.876 109.372 119.312 108.888 119.652C108.404 119.988 107.862 120.156 107.262 120.156ZM105.126 116.64H109.392C109.364 116.268 109.25 115.928 109.05 115.62C108.854 115.308 108.6 115.06 108.288 114.876C107.976 114.688 107.634 114.594 107.262 114.594C106.89 114.594 106.55 114.686 106.242 114.87C105.934 115.05 105.682 115.296 105.486 115.608C105.29 115.916 105.17 116.26 105.126 116.64ZM113.332 120.114C113.004 120.106 112.684 120.046 112.372 119.934C112.06 119.822 111.788 119.67 111.556 119.478C111.324 119.286 111.158 119.068 111.058 118.824L111.784 118.512C111.848 118.668 111.966 118.812 112.138 118.944C112.314 119.072 112.514 119.176 112.738 119.256C112.962 119.332 113.184 119.37 113.404 119.37C113.648 119.37 113.876 119.33 114.088 119.25C114.3 119.17 114.472 119.056 114.604 118.908C114.74 118.756 114.808 118.578 114.808 118.374C114.808 118.154 114.736 117.982 114.592 117.858C114.448 117.73 114.266 117.63 114.046 117.558C113.826 117.482 113.6 117.41 113.368 117.342C112.944 117.226 112.57 117.098 112.246 116.958C111.922 116.818 111.668 116.64 111.484 116.424C111.304 116.204 111.214 115.922 111.214 115.578C111.214 115.214 111.316 114.9 111.52 114.636C111.728 114.368 111.998 114.162 112.33 114.018C112.666 113.87 113.024 113.796 113.404 113.796C113.892 113.796 114.336 113.902 114.736 114.114C115.14 114.326 115.432 114.608 115.612 114.96L114.934 115.362C114.862 115.198 114.748 115.056 114.592 114.936C114.436 114.816 114.258 114.722 114.058 114.654C113.862 114.586 113.662 114.55 113.458 114.546C113.202 114.542 112.964 114.58 112.744 114.66C112.524 114.736 112.346 114.85 112.21 115.002C112.078 115.154 112.012 115.34 112.012 115.56C112.012 115.78 112.078 115.948 112.21 116.064C112.342 116.176 112.52 116.268 112.744 116.34C112.972 116.408 113.228 116.488 113.512 116.58C113.876 116.696 114.218 116.828 114.538 116.976C114.858 117.124 115.116 117.308 115.312 117.528C115.508 117.748 115.604 118.026 115.6 118.362C115.6 118.722 115.492 119.036 115.276 119.304C115.06 119.572 114.78 119.778 114.436 119.922C114.092 120.062 113.724 120.126 113.332 120.114ZM119.9 114.84H118.466L118.46 120H117.62L117.626 114.84H116.54V114H117.626L117.62 112.116H118.46L118.466 114H119.9V114.84ZM121.171 120V114H122.011V114.828C122.223 114.524 122.499 114.282 122.839 114.102C123.179 113.922 123.549 113.832 123.949 113.832C124.181 113.832 124.405 113.862 124.621 113.922L124.279 114.756C124.111 114.704 123.947 114.678 123.787 114.678C123.463 114.678 123.165 114.758 122.893 114.918C122.625 115.078 122.411 115.292 122.251 115.56C122.091 115.828 122.011 116.126 122.011 116.454V120H121.171ZM125.578 114H126.418V120H125.578V114ZM126.004 112.95C125.868 112.95 125.752 112.906 125.656 112.818C125.564 112.726 125.518 112.612 125.518 112.476C125.518 112.34 125.564 112.228 125.656 112.14C125.752 112.048 125.868 112.002 126.004 112.002C126.136 112.002 126.248 112.048 126.34 112.14C126.436 112.228 126.484 112.34 126.484 112.476C126.484 112.612 126.438 112.726 126.346 112.818C126.254 112.906 126.14 112.95 126.004 112.95ZM132.288 118.494L133.038 118.902C132.766 119.282 132.42 119.586 132 119.814C131.584 120.042 131.132 120.156 130.644 120.156C130.092 120.156 129.588 120.014 129.132 119.73C128.68 119.446 128.318 119.066 128.046 118.59C127.778 118.11 127.644 117.58 127.644 117C127.644 116.56 127.722 116.15 127.878 115.77C128.034 115.386 128.248 115.05 128.52 114.762C128.796 114.47 129.116 114.242 129.48 114.078C129.844 113.914 130.232 113.832 130.644 113.832C131.132 113.832 131.584 113.946 132 114.174C132.42 114.402 132.766 114.708 133.038 115.092L132.288 115.494C132.08 115.23 131.83 115.028 131.538 114.888C131.246 114.744 130.948 114.672 130.644 114.672C130.24 114.672 129.874 114.78 129.546 114.996C129.218 115.208 128.958 115.49 128.766 115.842C128.578 116.194 128.484 116.58 128.484 117C128.484 117.42 128.58 117.806 128.772 118.158C128.968 118.51 129.23 118.792 129.558 119.004C129.886 119.212 130.248 119.316 130.644 119.316C130.972 119.316 131.28 119.24 131.568 119.088C131.856 118.936 132.096 118.738 132.288 118.494ZM137.388 114.84H135.954L135.948 120H135.108L135.114 114.84H134.028V114H135.114L135.108 112.116H135.948L135.954 114H137.388V114.84ZM138.611 114H139.451V120H138.611V114ZM139.037 112.95C138.901 112.95 138.785 112.906 138.689 112.818C138.597 112.726 138.551 112.612 138.551 112.476C138.551 112.34 138.597 112.228 138.689 112.14C138.785 112.048 138.901 112.002 139.037 112.002C139.169 112.002 139.281 112.048 139.373 112.14C139.469 112.228 139.517 112.34 139.517 112.476C139.517 112.612 139.471 112.726 139.379 112.818C139.287 112.906 139.173 112.95 139.037 112.95ZM143.678 120.156C143.126 120.156 142.622 120.014 142.166 119.73C141.714 119.446 141.352 119.066 141.08 118.59C140.812 118.11 140.678 117.58 140.678 117C140.678 116.56 140.756 116.15 140.912 115.77C141.068 115.386 141.282 115.05 141.554 114.762C141.83 114.47 142.15 114.242 142.514 114.078C142.878 113.914 143.266 113.832 143.678 113.832C144.23 113.832 144.732 113.974 145.184 114.258C145.64 114.542 146.002 114.924 146.27 115.404C146.542 115.884 146.678 116.416 146.678 117C146.678 117.436 146.6 117.844 146.444 118.224C146.288 118.604 146.072 118.94 145.796 119.232C145.524 119.52 145.206 119.746 144.842 119.91C144.482 120.074 144.094 120.156 143.678 120.156ZM143.678 119.316C144.086 119.316 144.452 119.21 144.776 118.998C145.104 118.782 145.362 118.498 145.55 118.146C145.742 117.794 145.838 117.412 145.838 117C145.838 116.58 145.742 116.194 145.55 115.842C145.358 115.486 145.098 115.202 144.77 114.99C144.446 114.778 144.082 114.672 143.678 114.672C143.27 114.672 142.902 114.78 142.574 114.996C142.25 115.208 141.992 115.49 141.8 115.842C141.612 116.194 141.518 116.58 141.518 117C141.518 117.432 141.616 117.824 141.812 118.176C142.008 118.524 142.27 118.802 142.598 119.01C142.926 119.214 143.286 119.316 143.678 119.316ZM153.126 116.286V120H152.286V116.454C152.286 116.126 152.206 115.828 152.046 115.56C151.886 115.292 151.672 115.078 151.404 114.918C151.136 114.758 150.838 114.678 150.51 114.678C150.186 114.678 149.888 114.758 149.616 114.918C149.348 115.078 149.134 115.292 148.974 115.56C148.814 115.828 148.734 116.126 148.734 116.454V120H147.894V114H148.734V114.828C148.946 114.524 149.222 114.282 149.562 114.102C149.902 113.922 150.272 113.832 150.672 113.832C151.124 113.832 151.536 113.942 151.908 114.162C152.28 114.382 152.576 114.678 152.796 115.05C153.016 115.422 153.126 115.834 153.126 116.286ZM156.382 120.114C156.054 120.106 155.734 120.046 155.422 119.934C155.11 119.822 154.838 119.67 154.606 119.478C154.374 119.286 154.208 119.068 154.108 118.824L154.834 118.512C154.898 118.668 155.016 118.812 155.188 118.944C155.364 119.072 155.564 119.176 155.788 119.256C156.012 119.332 156.234 119.37 156.454 119.37C156.698 119.37 156.926 119.33 157.138 119.25C157.35 119.17 157.522 119.056 157.654 118.908C157.79 118.756 157.858 118.578 157.858 118.374C157.858 118.154 157.786 117.982 157.642 117.858C157.498 117.73 157.316 117.63 157.096 117.558C156.876 117.482 156.65 117.41 156.418 117.342C155.994 117.226 155.62 117.098 155.296 116.958C154.972 116.818 154.718 116.64 154.534 116.424C154.354 116.204 154.264 115.922 154.264 115.578C154.264 115.214 154.366 114.9 154.57 114.636C154.778 114.368 155.048 114.162 155.38 114.018C155.716 113.87 156.074 113.796 156.454 113.796C156.942 113.796 157.386 113.902 157.786 114.114C158.19 114.326 158.482 114.608 158.662 114.96L157.984 115.362C157.912 115.198 157.798 115.056 157.642 114.936C157.486 114.816 157.308 114.722 157.108 114.654C156.912 114.586 156.712 114.55 156.508 114.546C156.252 114.542 156.014 114.58 155.794 114.66C155.574 114.736 155.396 114.85 155.26 115.002C155.128 115.154 155.062 115.34 155.062 115.56C155.062 115.78 155.128 115.948 155.26 116.064C155.392 116.176 155.57 116.268 155.794 116.34C156.022 116.408 156.278 116.488 156.562 116.58C156.926 116.696 157.268 116.828 157.588 116.976C157.908 117.124 158.166 117.308 158.362 117.528C158.558 117.748 158.654 118.026 158.65 118.362C158.65 118.722 158.542 119.036 158.326 119.304C158.11 119.572 157.83 119.778 157.486 119.922C157.142 120.062 156.774 120.126 156.382 120.114ZM159.621 120.672L159.993 118.644H160.833L160.179 120.672H159.621ZM167.748 120.156C167.272 120.156 166.85 120.042 166.482 119.814C166.118 119.582 165.832 119.28 165.624 118.908C165.42 118.536 165.318 118.138 165.318 117.714C165.318 117.454 165.344 117.228 165.396 117.036C165.452 116.844 165.546 116.654 165.678 116.466C165.814 116.278 166.002 116.06 166.242 115.812C166.482 115.564 166.788 115.254 167.16 114.882C166.94 114.658 166.758 114.47 166.614 114.318C166.474 114.166 166.364 114.03 166.284 113.91C166.204 113.786 166.148 113.662 166.116 113.538C166.084 113.41 166.068 113.262 166.068 113.094C166.068 112.778 166.144 112.492 166.296 112.236C166.452 111.98 166.658 111.778 166.914 111.63C167.17 111.478 167.448 111.402 167.748 111.402C168.06 111.402 168.344 111.478 168.6 111.63C168.856 111.782 169.06 111.986 169.212 112.242C169.364 112.494 169.44 112.778 169.44 113.094C169.44 113.266 169.422 113.418 169.386 113.55C169.354 113.678 169.296 113.804 169.212 113.928C169.132 114.052 169.02 114.19 168.876 114.342C168.736 114.49 168.56 114.67 168.348 114.882L170.592 117.126L171.912 115.806V116.994L171.174 117.732L172.86 119.406L172.266 120L170.592 118.332C170.216 118.708 169.902 119.016 169.65 119.256C169.402 119.492 169.184 119.676 168.996 119.808C168.808 119.94 168.618 120.03 168.426 120.078C168.238 120.13 168.012 120.156 167.748 120.156ZM167.748 119.316C167.948 119.316 168.118 119.294 168.258 119.25C168.398 119.206 168.54 119.128 168.684 119.016C168.832 118.9 169.006 118.738 169.206 118.53C169.41 118.322 169.674 118.054 169.998 117.726L167.748 115.476C167.416 115.812 167.146 116.084 166.938 116.292C166.73 116.5 166.57 116.676 166.458 116.82C166.346 116.96 166.268 117.1 166.224 117.24C166.184 117.376 166.164 117.54 166.164 117.732C166.164 118.028 166.236 118.296 166.38 118.536C166.524 118.776 166.716 118.966 166.956 119.106C167.196 119.246 167.46 119.316 167.748 119.316ZM167.748 114.384C168.008 114.128 168.204 113.934 168.336 113.802C168.468 113.67 168.558 113.556 168.606 113.46C168.654 113.36 168.678 113.234 168.678 113.082C168.678 112.818 168.584 112.598 168.396 112.422C168.212 112.246 167.996 112.158 167.748 112.158C167.492 112.158 167.274 112.25 167.094 112.434C166.918 112.618 166.83 112.834 166.83 113.082C166.83 113.234 166.856 113.362 166.908 113.466C166.96 113.566 167.052 113.682 167.184 113.814C167.316 113.946 167.504 114.136 167.748 114.384ZM179.85 120H178.986L176.976 114H177.798L179.43 118.836L181.05 114H181.938L183.558 118.836L185.178 114H186.006L183.996 120H183.126L181.482 115.116L179.85 120ZM187.204 114H188.044V120H187.204V114ZM187.63 112.95C187.494 112.95 187.378 112.906 187.282 112.818C187.19 112.726 187.144 112.612 187.144 112.476C187.144 112.34 187.19 112.228 187.282 112.14C187.378 112.048 187.494 112.002 187.63 112.002C187.762 112.002 187.874 112.048 187.966 112.14C188.062 112.228 188.11 112.34 188.11 112.476C188.11 112.612 188.064 112.726 187.972 112.818C187.88 112.906 187.766 112.95 187.63 112.95ZM192.756 114.84H191.322L191.316 120H190.476L190.482 114.84H189.396V114H190.482L190.476 112.116H191.316L191.322 114H192.756V114.84ZM199.258 116.286V120H198.418V116.454C198.418 116.126 198.338 115.828 198.178 115.56C198.018 115.292 197.804 115.078 197.536 114.918C197.268 114.758 196.97 114.678 196.642 114.678C196.318 114.678 196.02 114.758 195.748 114.918C195.48 115.078 195.266 115.292 195.106 115.56C194.946 115.828 194.866 116.126 194.866 116.454V120H194.026V111H194.866V114.828C195.078 114.524 195.354 114.282 195.694 114.102C196.034 113.922 196.404 113.832 196.804 113.832C197.256 113.832 197.668 113.942 198.04 114.162C198.412 114.382 198.708 114.678 198.928 115.05C199.148 115.422 199.258 115.834 199.258 116.286ZM203.183 120.156C202.631 120.156 202.127 120.014 201.671 119.73C201.219 119.446 200.857 119.066 200.585 118.59C200.317 118.11 200.183 117.58 200.183 117C200.183 116.56 200.261 116.15 200.417 115.77C200.573 115.386 200.787 115.05 201.059 114.762C201.335 114.47 201.655 114.242 202.019 114.078C202.383 113.914 202.771 113.832 203.183 113.832C203.735 113.832 204.237 113.974 204.689 114.258C205.145 114.542 205.507 114.924 205.775 115.404C206.047 115.884 206.183 116.416 206.183 117C206.183 117.436 206.105 117.844 205.949 118.224C205.793 118.604 205.577 118.94 205.301 119.232C205.029 119.52 204.711 119.746 204.347 119.91C203.987 120.074 203.599 120.156 203.183 120.156ZM203.183 119.316C203.591 119.316 203.957 119.21 204.281 118.998C204.609 118.782 204.867 118.498 205.055 118.146C205.247 117.794 205.343 117.412 205.343 117C205.343 116.58 205.247 116.194 205.055 115.842C204.863 115.486 204.603 115.202 204.275 114.99C203.951 114.778 203.587 114.672 203.183 114.672C202.775 114.672 202.407 114.78 202.079 114.996C201.755 115.208 201.497 115.49 201.305 115.842C201.117 116.194 201.023 116.58 201.023 117C201.023 117.432 201.121 117.824 201.317 118.176C201.513 118.524 201.775 118.802 202.103 119.01C202.431 119.214 202.791 119.316 203.183 119.316ZM207.1 117.702V114H207.94V117.534C207.94 117.862 208.02 118.16 208.18 118.428C208.34 118.696 208.554 118.91 208.822 119.07C209.094 119.23 209.392 119.31 209.716 119.31C210.044 119.31 210.34 119.23 210.604 119.07C210.872 118.91 211.086 118.696 211.246 118.428C211.406 118.16 211.486 117.862 211.486 117.534V114H212.326L212.332 120H211.492L211.486 119.16C211.274 119.464 210.998 119.706 210.658 119.886C210.322 120.066 209.954 120.156 209.554 120.156C209.102 120.156 208.69 120.046 208.318 119.826C207.946 119.606 207.65 119.31 207.43 118.938C207.21 118.566 207.1 118.154 207.1 117.702ZM216.794 114.84H215.36L215.354 120H214.514L214.52 114.84H213.434V114H214.52L214.514 112.116H215.354L215.36 114H216.794V114.84ZM226.079 114H226.919V120H226.079L226.049 118.884C225.853 119.264 225.579 119.572 225.227 119.808C224.875 120.04 224.455 120.156 223.967 120.156C223.527 120.156 223.115 120.074 222.731 119.91C222.347 119.742 222.009 119.512 221.717 119.22C221.425 118.928 221.197 118.59 221.033 118.206C220.869 117.822 220.787 117.41 220.787 116.97C220.787 116.538 220.867 116.132 221.027 115.752C221.191 115.372 221.415 115.038 221.699 114.75C221.987 114.462 222.319 114.238 222.695 114.078C223.075 113.914 223.481 113.832 223.913 113.832C224.413 113.832 224.849 113.952 225.221 114.192C225.593 114.428 225.889 114.738 226.109 115.122L226.079 114ZM223.949 119.34C224.377 119.34 224.745 119.236 225.053 119.028C225.361 118.816 225.597 118.532 225.761 118.176C225.929 117.82 226.013 117.428 226.013 117C226.013 116.56 225.929 116.164 225.761 115.812C225.593 115.456 225.355 115.174 225.047 114.966C224.739 114.758 224.373 114.654 223.949 114.654C223.525 114.654 223.137 114.76 222.785 114.972C222.437 115.18 222.159 115.462 221.951 115.818C221.747 116.174 221.645 116.568 221.645 117C221.645 117.436 221.751 117.832 221.963 118.188C222.175 118.54 222.455 118.82 222.803 119.028C223.155 119.236 223.537 119.34 223.949 119.34ZM233.141 111H233.981V120H233.141V118.878C232.933 119.262 232.647 119.572 232.283 119.808C231.923 120.04 231.495 120.156 230.999 120.156C230.563 120.156 230.155 120.074 229.775 119.91C229.395 119.746 229.059 119.52 228.767 119.232C228.479 118.94 228.253 118.604 228.089 118.224C227.925 117.844 227.843 117.436 227.843 117C227.843 116.564 227.925 116.156 228.089 115.776C228.253 115.392 228.479 115.056 228.767 114.768C229.059 114.476 229.395 114.248 229.775 114.084C230.155 113.92 230.563 113.838 230.999 113.838C231.495 113.838 231.923 113.956 232.283 114.192C232.647 114.424 232.933 114.73 233.141 115.11V111ZM231.005 119.34C231.433 119.34 231.801 119.236 232.109 119.028C232.417 118.816 232.653 118.532 232.817 118.176C232.985 117.82 233.069 117.428 233.069 117C233.069 116.56 232.985 116.164 232.817 115.812C232.649 115.456 232.411 115.174 232.103 114.966C231.795 114.758 231.429 114.654 231.005 114.654C230.581 114.654 230.195 114.76 229.847 114.972C229.499 115.18 229.221 115.462 229.013 115.818C228.805 116.174 228.701 116.568 228.701 117C228.701 117.436 228.807 117.832 229.019 118.188C229.231 118.54 229.511 118.82 229.859 119.028C230.211 119.236 230.593 119.34 231.005 119.34ZM237.476 120.114C237.148 120.106 236.828 120.046 236.516 119.934C236.204 119.822 235.932 119.67 235.7 119.478C235.468 119.286 235.302 119.068 235.202 118.824L235.928 118.512C235.992 118.668 236.11 118.812 236.282 118.944C236.458 119.072 236.658 119.176 236.882 119.256C237.106 119.332 237.328 119.37 237.548 119.37C237.792 119.37 238.02 119.33 238.232 119.25C238.444 119.17 238.616 119.056 238.748 118.908C238.884 118.756 238.952 118.578 238.952 118.374C238.952 118.154 238.88 117.982 238.736 117.858C238.592 117.73 238.41 117.63 238.19 117.558C237.97 117.482 237.744 117.41 237.512 117.342C237.088 117.226 236.714 117.098 236.39 116.958C236.066 116.818 235.812 116.64 235.628 116.424C235.448 116.204 235.358 115.922 235.358 115.578C235.358 115.214 235.46 114.9 235.664 114.636C235.872 114.368 236.142 114.162 236.474 114.018C236.81 113.87 237.168 113.796 237.548 113.796C238.036 113.796 238.48 113.902 238.88 114.114C239.284 114.326 239.576 114.608 239.756 114.96L239.078 115.362C239.006 115.198 238.892 115.056 238.736 114.936C238.58 114.816 238.402 114.722 238.202 114.654C238.006 114.586 237.806 114.55 237.602 114.546C237.346 114.542 237.108 114.58 236.888 114.66C236.668 114.736 236.49 114.85 236.354 115.002C236.222 115.154 236.156 115.34 236.156 115.56C236.156 115.78 236.222 115.948 236.354 116.064C236.486 116.176 236.664 116.268 236.888 116.34C237.116 116.408 237.372 116.488 237.656 116.58C238.02 116.696 238.362 116.828 238.682 116.976C239.002 117.124 239.26 117.308 239.456 117.528C239.652 117.748 239.748 118.026 239.744 118.362C239.744 118.722 239.636 119.036 239.42 119.304C239.204 119.572 238.924 119.778 238.58 119.922C238.236 120.062 237.868 120.126 237.476 120.114Z"
                fill="white" />
            <rect x="56" y="135" width="81" height="32" rx="16" fill="white" />
            <path
                d="M77.5008 156.182C76.8194 156.182 76.1848 156.051 75.5968 155.79C75.0134 155.524 74.5024 155.158 74.0638 154.691C73.6298 154.22 73.2891 153.676 73.0418 153.06C72.7991 152.444 72.6778 151.788 72.6778 151.093C72.6778 150.36 72.8084 149.686 73.0698 149.07C73.3311 148.454 73.6881 147.92 74.1408 147.467C74.5934 147.01 75.1091 146.655 75.6878 146.403C76.2711 146.151 76.8824 146.025 77.5218 146.025C78.2451 146.025 78.9404 146.193 79.6078 146.529C80.2751 146.865 80.8561 147.369 81.3508 148.041L80.0488 148.748C79.7128 148.328 79.3208 148.011 78.8728 147.796C78.4294 147.581 77.9744 147.474 77.5078 147.474C77.0551 147.474 76.6258 147.567 76.2198 147.754C75.8138 147.936 75.4544 148.193 75.1418 148.524C74.8291 148.851 74.5818 149.236 74.3998 149.679C74.2224 150.118 74.1338 150.596 74.1338 151.114C74.1338 151.613 74.2201 152.082 74.3928 152.521C74.5701 152.96 74.8128 153.345 75.1208 153.676C75.4334 154.003 75.7928 154.259 76.1988 154.446C76.6094 154.633 77.0481 154.726 77.5148 154.726C77.8601 154.726 78.1914 154.67 78.5088 154.558C78.8261 154.446 79.1201 154.287 79.3908 154.082C79.6661 153.872 79.9064 153.622 80.1118 153.333C80.3171 153.044 80.4804 152.722 80.6018 152.367H78.5228V151.079H82.3098C82.3191 151.779 82.1978 152.437 81.9458 153.053C81.6984 153.669 81.3531 154.213 80.9098 154.684C80.4711 155.151 79.9601 155.517 79.3768 155.783C78.7934 156.049 78.1681 156.182 77.5008 156.182ZM86.8061 156.182C86.1621 156.182 85.5741 156.016 85.0421 155.685C84.5148 155.354 84.0925 154.91 83.7751 154.355C83.4625 153.795 83.3061 153.177 83.3061 152.5C83.3061 151.987 83.3971 151.508 83.5791 151.065C83.7611 150.617 84.0108 150.225 84.3281 149.889C84.6501 149.548 85.0235 149.282 85.4481 149.091C85.8728 148.9 86.3255 148.804 86.8061 148.804C87.3428 148.804 87.8351 148.916 88.2831 149.14C88.7311 149.359 89.1138 149.665 89.4311 150.057C89.7485 150.444 89.9818 150.892 90.1311 151.401C90.2805 151.905 90.3248 152.442 90.2641 153.011H84.8671C84.9278 153.333 85.0445 153.625 85.2171 153.886C85.3945 154.143 85.6185 154.346 85.8891 154.495C86.1645 154.644 86.4701 154.721 86.8061 154.726C87.1608 154.726 87.4828 154.637 87.7721 154.46C88.0661 154.283 88.3065 154.038 88.4931 153.725L89.9701 154.068C89.6901 154.689 89.2678 155.197 88.7031 155.594C88.1385 155.986 87.5061 156.182 86.8061 156.182ZM84.8181 151.898H88.7941C88.7475 151.562 88.6285 151.259 88.4371 150.988C88.2505 150.713 88.0148 150.496 87.7301 150.337C87.4501 150.174 87.1421 150.092 86.8061 150.092C86.4748 150.092 86.1668 150.171 85.8821 150.33C85.6021 150.489 85.3688 150.706 85.1821 150.981C85.0001 151.252 84.8788 151.557 84.8181 151.898ZM95.2784 150.456H93.8084L93.8014 156H92.3454L92.3524 150.456H91.2394V149H92.3524L92.3454 146.802H93.8014L93.8084 149H95.2784V150.456ZM103.501 156L99.9449 146.2H101.485L104.411 154.271L107.351 146.2H108.891L105.335 156H103.501ZM110.562 156V146.2H112.018V156H110.562ZM114.107 156V146.2H117.481C118.008 146.2 118.484 146.331 118.909 146.592C119.338 146.853 119.679 147.206 119.931 147.649C120.188 148.092 120.316 148.582 120.316 149.119C120.316 149.665 120.185 150.16 119.924 150.603C119.667 151.042 119.324 151.392 118.895 151.653C118.466 151.914 117.994 152.045 117.481 152.045H115.563V156H114.107ZM115.563 150.589H117.334C117.614 150.589 117.868 150.519 118.097 150.379C118.33 150.239 118.515 150.052 118.65 149.819C118.79 149.586 118.86 149.322 118.86 149.028C118.86 148.734 118.79 148.47 118.65 148.237C118.515 147.999 118.33 147.812 118.097 147.677C117.868 147.537 117.614 147.467 117.334 147.467H115.563V150.589Z"
                fill="#9610FF" />
            <path
                d="M288.352 130.861L278.167 74.8426L306.176 100.306L324 69.75L341.824 100.306L369.833 74.8426L359.648 130.861H288.352ZM359.648 146.139C359.648 149.194 357.611 151.231 354.556 151.231H293.445C290.389 151.231 288.352 149.194 288.352 146.139V141.046H359.648V146.139Z"
                fill="url(#paint1_linear_188_7428)" />
        </g>
    </g>
    <defs>
        <filter id="filter0_d_188_7428" x="-4" y="0" width="444" height="245"
            filterUnits="userSpaceOnUse" color-interpolation-filters="sRGB">
            <feFlood flood-opacity="0" result="BackgroundImageFix" />
            <feColorMatrix in="SourceAlpha" type="matrix"
                values="0 0 0 0 0 0 0 0 0 0 0 0 0 0 0 0 0 0 127 0" result="hardAlpha" />
            <feOffset dx="4" dy="12" />
            <feGaussianBlur stdDeviation="16" />
            <feComposite in2="hardAlpha" operator="out" />
            <feColorMatrix type="matrix"
                values="0 0 0 0 0.588235 0 0 0 0 0.0627451 0 0 0 0 1 0 0 0 0.2 0" />
            <feBlend mode="normal" in2="BackgroundImageFix" result="effect1_dropShadow_188_7428" />
            <feBlend mode="normal" in="SourceGraphic" in2="effect1_dropShadow_188_7428"
                result="shape" />
        </filter>
        <linearGradient id="paint0_linear_188_7428" x1="404" y1="201" x2="46.3458" y2="-16.7097"
            gradientUnits="userSpaceOnUse">
            <stop stop-color="#9610FF" />
            <stop offset="1" stop-color="#AF48FF" />
        </linearGradient>
        <linearGradient id="paint1_linear_188_7428" x1="369.833" y1="151.231" x2="262.96"
            y2="116.371" gradientUnits="userSpaceOnUse">
            <stop stop-color="#FACC15" />
            <stop offset="1" stop-color="#FFE580" />
        </linearGradient>
        <clipPath id="clip0_188_7428">
            <rect x="24" y="20" width="380" height="181" rx="40" fill="white" />
        </clipPath>
    </defs>
</svg>
