<svg width="48" height="48" viewBox="0 0 48 48" fill="none" xmlns="http://www.w3.org/2000/svg">
<rect width="48" height="48" rx="24" fill="url(#paint0_linear_1_9440)"/>
<g clip-path="url(#clip0_1_9440)">
<path d="M30 25H25V30C25 30.55 24.55 31 24 31C23.45 31 23 30.55 23 30V25H18C17.45 25 17 24.55 17 24C17 23.45 17.45 23 18 23H23V18C23 17.45 23.45 17 24 17C24.55 17 25 17.45 25 18V23H30C30.55 23 31 23.45 31 24C31 24.55 30.55 25 30 25Z" fill="white"/>
</g>
<defs>
<linearGradient id="paint0_linear_1_9440" x1="48" y1="48" x2="-9.11569" y2="31.4398" gradientUnits="userSpaceOnUse">
<stop stop-color="#9610FF"/>
<stop offset="1" stop-color="#AF48FF"/>
</linearGradient>
<clipPath id="clip0_1_9440">
<rect width="24" height="24" fill="white" transform="translate(12 12)"/>
</clipPath>
</defs>
</svg>
