<svg width="32" height="32" viewBox="0 0 32 32" fill="none" xmlns="http://www.w3.org/2000/svg">
    <path fill-rule="evenodd" clip-rule="evenodd"
        d="M3.63537 15.7569C3.63537 8.82261 9.26836 3.2002 16.2177 3.2002C23.165 3.2002 28.7999 8.82261 28.7999 15.7569C28.7999 22.6922 23.166 28.3146 16.2177 28.3146C14.6282 28.3167 13.055 28.0171 11.5811 27.4341C11.1775 27.2744 10.7327 27.2371 10.3162 27.3593L5.68435 28.7184C4.18512 29.1599 2.80784 27.735 3.30242 26.255L4.70802 22.0469C4.85908 21.5947 4.81878 21.1034 4.63203 20.6647C3.98998 19.1563 3.63537 17.4974 3.63537 15.7569ZM18.6881 10.9284C19.0851 10.9284 19.4814 10.9843 19.8583 11.1105C22.1803 11.864 23.017 14.4071 22.3181 16.63C21.9217 17.7659 21.2738 18.8026 20.4251 19.6497C19.2103 20.8239 17.8772 21.8663 16.4422 22.7642L16.2849 22.859L16.1214 22.7579C14.6813 21.8663 13.3407 20.8239 12.1146 19.6434C11.2716 18.7963 10.623 17.7659 10.2203 16.63C9.50944 14.4071 10.3462 11.864 12.6934 11.0973C12.8758 11.0345 13.0639 10.9906 13.2526 10.9661H13.3281C13.5049 10.9404 13.6804 10.9284 13.8566 10.9284H13.9258C14.3221 10.9404 14.7059 11.0094 15.0777 11.1356H15.1148C15.14 11.1476 15.1588 11.1608 15.1714 11.1727C15.3104 11.2173 15.4419 11.2675 15.5677 11.3366L15.8068 11.4433C15.8646 11.4741 15.9294 11.5211 15.9855 11.5617C16.021 11.5874 16.0529 11.6106 16.0773 11.6254C16.0876 11.6315 16.098 11.6375 16.1085 11.6437C16.1625 11.6751 16.2187 11.7078 16.2661 11.7441C16.965 11.211 17.8137 10.9221 18.6881 10.9284Z"
        fill="#9610FF" />
    <defs>
        <linearGradient id="paint0_linear_639_692" x1="28.8" y1="28.8" x2="-1.66172" y2="19.9679"
            gradientUnits="userSpaceOnUse">
            <stop stop-color="#9610FF" />
            <stop offset="1" stop-color="#AF48FF" />
        </linearGradient>
    </defs>
</svg>
