<svg width="25" height="25" viewBox="0 0 25 25" fill="none" xmlns="http://www.w3.org/2000/svg">
<g clip-path="url(#clip0_471_952)">
<path d="M17.273 0.555147C17.222 0.498147 15.3845 0.577647 13.7855 2.31315C12.1865 4.04715 12.4325 6.03615 12.4685 6.08715C12.5045 6.13815 14.7485 6.21765 16.181 4.20015C17.6135 2.18265 17.324 0.613647 17.273 0.555147ZM22.244 18.1546C22.172 18.0106 18.7565 16.3036 19.0745 13.0216C19.3925 9.73815 21.587 8.83815 21.6215 8.74065C21.656 8.64315 20.726 7.55565 19.7405 7.00515C19.0169 6.61703 18.2161 6.39466 17.396 6.35415C17.234 6.34965 16.6715 6.21165 15.515 6.52815C14.753 6.73665 13.0355 7.41165 12.563 7.43865C12.089 7.46565 10.679 6.65565 9.1625 6.44115C8.192 6.25365 7.163 6.63765 6.4265 6.93315C5.6915 7.22715 4.2935 8.06415 3.3155 10.2886C2.3375 12.5116 2.849 16.0336 3.215 17.1286C3.581 18.2221 4.1525 20.0146 5.1245 21.3226C5.9885 22.7986 7.1345 23.8231 7.613 24.1711C8.0915 24.5191 9.4415 24.7501 10.3775 24.2716C11.1305 23.8096 12.4895 23.5441 13.0265 23.5636C13.562 23.5831 14.618 23.7946 15.6995 24.3721C16.556 24.6676 17.366 24.5446 18.1775 24.2146C18.989 23.8831 20.1635 22.6261 21.5345 20.0776C22.055 18.8926 22.292 18.2521 22.244 18.1546Z" fill="black"/>
<path d="M17.273 0.555147C17.222 0.498147 15.3845 0.577647 13.7855 2.31315C12.1865 4.04715 12.4325 6.03615 12.4685 6.08715C12.5045 6.13815 14.7485 6.21765 16.181 4.20015C17.6135 2.18265 17.324 0.613647 17.273 0.555147ZM22.244 18.1546C22.172 18.0106 18.7565 16.3036 19.0745 13.0216C19.3925 9.73815 21.587 8.83815 21.6215 8.74065C21.656 8.64315 20.726 7.55565 19.7405 7.00515C19.0169 6.61703 18.2161 6.39466 17.396 6.35415C17.234 6.34965 16.6715 6.21165 15.515 6.52815C14.753 6.73665 13.0355 7.41165 12.563 7.43865C12.089 7.46565 10.679 6.65565 9.1625 6.44115C8.192 6.25365 7.163 6.63765 6.4265 6.93315C5.6915 7.22715 4.2935 8.06415 3.3155 10.2886C2.3375 12.5116 2.849 16.0336 3.215 17.1286C3.581 18.2221 4.1525 20.0146 5.1245 21.3226C5.9885 22.7986 7.1345 23.8231 7.613 24.1711C8.0915 24.5191 9.4415 24.7501 10.3775 24.2716C11.1305 23.8096 12.4895 23.5441 13.0265 23.5636C13.562 23.5831 14.618 23.7946 15.6995 24.3721C16.556 24.6676 17.366 24.5446 18.1775 24.2146C18.989 23.8831 20.1635 22.6261 21.5345 20.0776C22.055 18.8926 22.292 18.2521 22.244 18.1546Z" fill="black"/>
</g>
<defs>
<clipPath id="clip0_471_952">
<rect width="24" height="24" fill="white" transform="translate(0.5 0.543152)"/>
</clipPath>
</defs>
</svg>
