<svg width="28" height="24" viewBox="0 0 28 24" fill="none" xmlns="http://www.w3.org/2000/svg">
    <path
        d="M14 0C12.249 0 10.5152 0.344877 8.89751 1.01494C7.27984 1.685 5.80998 2.66713 4.57187 3.90524C2.07138 6.40573 0.666626 9.79711 0.666626 13.3333V22.6667C0.666626 23.0203 0.807102 23.3594 1.05715 23.6095C1.3072 23.8595 1.64634 24 1.99996 24H5.99996C7.06083 24 8.07824 23.5786 8.82839 22.8284C9.57853 22.0783 9.99996 21.0609 9.99996 20V17.3333C9.99996 16.2725 9.57853 15.2551 8.82839 14.5049C8.07824 13.7548 7.06083 13.3333 5.99996 13.3333H3.33329C3.33329 10.5044 4.4571 7.79125 6.45749 5.79086C8.45788 3.79047 11.171 2.66667 14 2.66667C16.8289 2.66667 19.542 3.79047 21.5424 5.79086C23.5428 7.79125 24.6666 10.5044 24.6666 13.3333H22C20.9391 13.3333 19.9217 13.7548 19.1715 14.5049C18.4214 15.2551 18 16.2725 18 17.3333V20C18 21.0609 18.4214 22.0783 19.1715 22.8284C19.9217 23.5786 20.9391 24 22 24H26C26.3536 24 26.6927 23.8595 26.9428 23.6095C27.1928 23.3594 27.3333 23.0203 27.3333 22.6667V13.3333C27.3333 9.79711 25.9285 6.40573 23.4281 3.90524C20.9276 1.40476 17.5362 0 14 0ZM5.99996 16C6.35358 16 6.69272 16.1405 6.94277 16.3905C7.19282 16.6406 7.33329 16.9797 7.33329 17.3333V20C7.33329 20.3536 7.19282 20.6928 6.94277 20.9428C6.69272 21.1929 6.35358 21.3333 5.99996 21.3333H3.33329V16H5.99996ZM24.6666 21.3333H22C21.6463 21.3333 21.3072 21.1929 21.0571 20.9428C20.8071 20.6928 20.6666 20.3536 20.6666 20V17.3333C20.6666 16.9797 20.8071 16.6406 21.0571 16.3905C21.3072 16.1405 21.6463 16 22 16H24.6666V21.3333Z"
        fill="white" />
</svg>
