<svg width="25" height="25" viewBox="0 0 25 25" fill="none" xmlns="http://www.w3.org/2000/svg">
    <g>
        <path
            d="M12.5 0.543152C5.8724 0.543152 0.5 5.91555 0.5 12.5432C0.5 19.1708 5.8724 24.5432 12.5 24.5432C19.1276 24.5432 24.5 19.1708 24.5 12.5432C24.5 5.91555 19.1276 0.543152 12.5 0.543152Z"
            fill="#2AA4F4" />
        <path
            d="M14.2285 17.401H17.4851L17.9966 14.0928H14.2285V12.2846C14.2285 10.9105 14.6778 9.69177 15.9632 9.69177H18.0287V6.80514C17.6657 6.75607 16.8981 6.64911 15.4479 6.64911C12.4191 6.64911 10.6435 8.24845 10.6435 11.8926V14.0934H7.52979V17.4016H10.6429V26.4943C11.2595 26.5862 11.8843 26.6491 12.5254 26.6491C13.1048 26.6491 13.6705 26.5963 14.2285 26.5208V17.401Z"
            fill="white" />
    </g>
    <defs>
        <linearGradient id="paint0_linear_471_522" x1="4.0958" y1="4.13895" x2="22.469" y2="22.5122"
            gradientUnits="userSpaceOnUse">
            <stop stop-color="#2AA4F4" />
            <stop offset="1" stop-color="#007AD9" />
        </linearGradient>
        <clipPath id="clip0_471_522">
            <rect width="24" height="24" fill="white" transform="translate(0.5 0.543152)" />
        </clipPath>
    </defs>
</svg>
