<svg width="24" height="25" viewBox="0 0 24 25" fill="none" xmlns="http://www.w3.org/2000/svg">
<g clip-path="url(#clip0_471_5772)">
<path d="M23.5079 12.7677C23.5079 11.7844 23.4295 11.0669 23.2598 10.3228H12.2295V14.7608H18.7041C18.5736 15.8637 17.8687 17.5246 16.3022 18.6407L16.2803 18.7893L19.7678 21.5395L20.0095 21.564C22.2285 19.4779 23.5079 16.4084 23.5079 12.7677Z" fill="#4285F4"/>
<path d="M12.2295 24.4607C15.4015 24.4607 18.0644 23.3977 20.0095 21.5641L16.3022 18.6407C15.3102 19.345 13.9787 19.8366 12.2295 19.8366C9.12275 19.8366 6.48593 17.7505 5.54597 14.8671L5.4082 14.879L1.78175 17.7359L1.73432 17.8701C3.66624 21.7766 7.63457 24.4607 12.2295 24.4607Z" fill="#34A853"/>
<path d="M5.5461 14.8671C5.29809 14.123 5.15455 13.3257 5.15455 12.5019C5.15455 11.678 5.29809 10.8808 5.53305 10.1367L5.52648 9.97825L1.85459 7.07553L1.73446 7.1337C0.938218 8.7548 0.481335 10.5752 0.481335 12.5019C0.481335 14.4286 0.938218 16.2489 1.73446 17.87L5.5461 14.8671Z" fill="#FBBC05"/>
<path d="M12.2295 5.1672C14.4355 5.1672 15.9236 6.13718 16.7721 6.94778L20.0877 3.65245C18.0514 1.72576 15.4015 0.543167 12.2295 0.543167C7.63456 0.543167 3.66624 3.22723 1.73432 7.13373L5.53292 10.1368C6.48592 7.25337 9.12274 5.1672 12.2295 5.1672Z" fill="#EB4335"/>
</g>
<defs>
<clipPath id="clip0_471_5772">
<rect width="23.04" height="24" fill="white" transform="translate(0.48 0.543152)"/>
</clipPath>
</defs>
</svg>
