<svg width="15" height="18" viewBox="0 0 15 18" fill="none" xmlns="http://www.w3.org/2000/svg">
    <path
        d="M13.0667 9.34985L7.91672 14.5082C7.24156 15.1082 6.36267 15.4276 5.45982 15.401C4.55697 15.3744 3.69839 15.0039 3.0597 14.3652C2.42101 13.7265 2.05048 12.8679 2.0239 11.9651C1.99732 11.0622 2.3167 10.1833 2.91672 9.50818L9.58338 2.84152C9.98141 2.46343 10.5094 2.25263 11.0584 2.25263C11.6074 2.25263 12.1354 2.46343 12.5334 2.84152C12.9212 3.23451 13.1386 3.76441 13.1386 4.31652C13.1386 4.86863 12.9212 5.39853 12.5334 5.79152L6.78338 11.5332C6.72648 11.5945 6.65806 11.6439 6.58203 11.6788C6.50601 11.7136 6.42386 11.7332 6.34029 11.7362C6.25672 11.7393 6.17335 11.7259 6.09496 11.6968C6.01656 11.6677 5.94467 11.6234 5.88339 11.5665C5.8221 11.5096 5.77263 11.4412 5.73779 11.3652C5.70294 11.2891 5.68342 11.207 5.68032 11.1234C5.67723 11.0398 5.69062 10.9565 5.71974 10.8781C5.74887 10.7997 5.79315 10.7278 5.85005 10.6665L10.1251 6.39985C10.282 6.24293 10.3701 6.0301 10.3701 5.80818C10.3701 5.58627 10.282 5.37344 10.1251 5.21652C9.96813 5.0596 9.7553 4.97144 9.53339 4.97144C9.31147 4.97144 9.09864 5.0596 8.94172 5.21652L4.66672 9.49985C4.45281 9.7121 4.28302 9.9646 4.16716 10.2428C4.0513 10.521 3.99165 10.8193 3.99165 11.1207C3.99165 11.422 4.0513 11.7204 4.16716 11.9986C4.28302 12.2768 4.45281 12.5293 4.66672 12.7415C5.1037 13.1578 5.68406 13.3899 6.28755 13.3899C6.89104 13.3899 7.47141 13.1578 7.90839 12.7415L13.6501 6.99152C14.3125 6.28064 14.6731 5.34041 14.6559 4.36891C14.6388 3.3974 14.2452 2.47047 13.5582 1.78341C12.8711 1.09634 11.9442 0.702784 10.9727 0.685643C10.0012 0.668502 9.06093 1.02912 8.35005 1.69152L1.68339 8.35818C0.784385 9.35388 0.304242 10.6581 0.342996 11.999C0.381751 13.3399 0.936413 14.6142 1.89142 15.5563C2.84642 16.4984 4.12812 17.0357 5.46946 17.0563C6.8108 17.0768 8.10833 16.579 9.09172 15.6665L14.2501 10.5165C14.3278 10.4388 14.3894 10.3466 14.4314 10.2451C14.4735 10.1435 14.4951 10.0347 14.4951 9.92485C14.4951 9.81497 14.4735 9.70616 14.4314 9.60464C14.3894 9.50313 14.3278 9.41088 14.2501 9.33318C14.1724 9.25548 14.0801 9.19385 13.9786 9.1518C13.8771 9.10975 13.7683 9.08811 13.6584 9.08811C13.5485 9.08811 13.4397 9.10975 13.3382 9.1518C13.2367 9.19385 13.1444 9.25548 13.0667 9.33318V9.34985Z"
        fill="#9E9E9E" />
</svg>
