<svg width="28" height="28" viewBox="0 0 28 28" fill="none" xmlns="http://www.w3.org/2000/svg">
    <path
        d="M22.5601 6.90417L25.3642 4.08954C25.5597 3.89331 25.6669 3.63324 25.6669 3.35781C25.6669 3.08237 25.5597 2.8223 25.3642 2.62607C24.9744 2.23597 24.2972 2.23597 23.9074 2.62607L21.1033 5.44189L18.298 2.62607C17.9082 2.23597 17.231 2.23597 16.8412 2.62607C16.6469 2.8223 16.5397 3.08237 16.5397 3.35781C16.5397 3.63324 16.6469 3.89331 16.8412 4.08954L19.6453 6.90417L16.8412 9.71881C16.6469 9.91504 16.5397 10.1751 16.5397 10.4505C16.5397 10.726 16.6469 10.986 16.8412 11.1823C17.231 11.5724 17.9082 11.5724 18.298 11.1823L21.1033 8.36646L23.9074 11.1823C24.1029 11.3773 24.3608 11.4849 24.6364 11.4849C24.912 11.4849 25.1699 11.3773 25.3642 11.1823C25.5597 10.986 25.6669 10.726 25.6669 10.4505C25.6669 10.1751 25.5597 9.91504 25.3642 9.71881L22.5601 6.90417Z"
        fill="white" />
    <path fill-rule="evenodd" clip-rule="evenodd"
        d="M12.8704 15.1345C17.5243 19.7871 18.5801 14.4045 21.5433 17.3656C24.4 20.2215 26.0419 20.7937 22.4224 24.4122C21.9691 24.7765 19.0885 29.16 8.96537 19.0396C-1.15906 8.918 3.22185 6.03452 3.5863 5.58127C7.21451 1.95282 7.77684 3.60428 10.6336 6.46022C13.5968 9.42258 8.21643 10.4818 12.8704 15.1345Z"
        fill="white" />
</svg>
