<svg width="18" height="16" viewBox="0 0 18 16" fill="none" xmlns="http://www.w3.org/2000/svg">
    <path fill-rule="evenodd" clip-rule="evenodd"
        d="M13.5334 3.197C13.5667 3.25527 13.6251 3.29689 13.7001 3.29689C15.7001 3.29689 17.3334 4.92841 17.3334 6.92619V11.8707C17.3334 13.8685 15.7001 15.5 13.7001 15.5H4.30008C2.29175 15.5 0.666748 13.8685 0.666748 11.8707V6.92619C0.666748 4.92841 2.29175 3.29689 4.30008 3.29689C4.36675 3.29689 4.43341 3.2636 4.45842 3.197L4.50841 3.09711C4.53714 3.03665 4.56663 2.97455 4.59656 2.9115C4.80975 2.46246 5.0456 1.96567 5.19175 1.6737C5.57508 0.924528 6.22508 0.508324 7.03341 0.5H10.9584C11.7667 0.508324 12.4251 0.924528 12.8084 1.6737C12.9397 1.93592 13.1397 2.35833 13.3324 2.76545C13.3722 2.84942 13.4116 2.93274 13.4501 3.01387L13.5334 3.197ZM12.9251 6.39345C12.9251 6.80966 13.2584 7.14262 13.6751 7.14262C14.0917 7.14262 14.4334 6.80966 14.4334 6.39345C14.4334 5.97725 14.0917 5.63596 13.6751 5.63596C13.2584 5.63596 12.9251 5.97725 12.9251 6.39345ZM7.55841 7.68368C7.95008 7.29245 8.45841 7.08435 9.00008 7.08435C9.54175 7.08435 10.0501 7.29245 10.4334 7.67536C10.8167 8.05827 11.0251 8.56604 11.0251 9.1071C11.0167 10.2225 10.1167 11.1299 9.00008 11.1299C8.45841 11.1299 7.95008 10.9218 7.56675 10.5388C7.18341 10.1559 6.97508 9.64817 6.97508 9.1071V9.09878C6.96675 8.57436 7.17508 8.06659 7.55841 7.68368ZM11.3084 11.4212C10.7167 12.0122 9.90008 12.3785 9.00008 12.3785C8.12508 12.3785 7.30841 12.0372 6.68341 11.4212C6.06675 10.7969 5.72508 9.98113 5.72508 9.1071C5.71675 8.2414 6.05841 7.42564 6.67508 6.80133C7.30008 6.17703 8.12508 5.83574 9.00008 5.83574C9.87508 5.83574 10.7001 6.17703 11.3167 6.79301C11.9334 7.41731 12.2751 8.2414 12.2751 9.1071C12.2667 10.0144 11.9001 10.8302 11.3084 11.4212Z"
        fill="#9E9E9E" />
</svg>
