<svg width="34" height="32" viewBox="0 0 34 32" fill="none" xmlns="http://www.w3.org/2000/svg">
<path fill-rule="evenodd" clip-rule="evenodd" d="M23.4164 0.167747C24.468 0.167747 25.518 0.31608 26.5164 0.65108C32.668 2.65108 34.8847 9.40108 33.033 15.3011C31.983 18.3161 30.2664 21.0677 28.018 23.3161C24.7997 26.4327 21.268 29.1994 17.4664 31.5827L17.0497 31.8344L16.6164 31.5661C12.8014 29.1994 9.2497 26.4327 6.00137 23.2994C3.76804 21.0511 2.0497 18.3161 0.983035 15.3011C-0.900298 9.40108 1.31637 2.65108 7.5347 0.61608C8.01804 0.449413 8.51637 0.332747 9.01637 0.267747H9.21637C9.6847 0.199413 10.1497 0.167747 10.6164 0.167747H10.7997C11.8497 0.199413 12.8664 0.382747 13.8514 0.717746H13.9497C14.0164 0.749413 14.0664 0.784413 14.0997 0.81608C14.468 0.934413 14.8164 1.06775 15.1497 1.25108L15.783 1.53441C15.9361 1.61603 16.1078 1.74074 16.2563 1.84853C16.3504 1.91682 16.4351 1.97831 16.4997 2.01775C16.5269 2.0338 16.5546 2.04993 16.5824 2.0662C16.7253 2.14962 16.8742 2.23652 16.9997 2.33275C18.8514 0.917746 21.0997 0.15108 23.4164 0.167747ZM27.8497 12.1677C28.533 12.1494 29.1164 11.6011 29.1664 10.8994V10.7011C29.2164 8.36608 27.8014 6.25108 25.6497 5.43441C24.9664 5.19941 24.2164 5.56775 23.9664 6.26775C23.733 6.96775 24.0997 7.73441 24.7997 7.98275C25.868 8.38275 26.583 9.43441 26.583 10.5994V10.6511C26.5514 11.0327 26.6664 11.4011 26.8997 11.6844C27.133 11.9677 27.483 12.1327 27.8497 12.1677Z" fill="url(#paint0_linear_749_4507)"/>
<defs>
<linearGradient id="paint0_linear_749_4507" x1="33.6667" y1="31.8344" x2="-5.66785" y2="19.8294" gradientUnits="userSpaceOnUse">
<stop stop-color="#FF4D67"/>
<stop offset="1" stop-color="#FF8A9B"/>
</linearGradient>
</defs>
</svg>
