<svg width="18" height="18" viewBox="0 0 18 18" fill="none" xmlns="http://www.w3.org/2000/svg">
    <path
        d="M10.9668 10.8582C10.4097 11.3073 9.71566 11.5522 9.00008 11.5522C8.28451 11.5522 7.59049 11.3073 7.03342 10.8582C6.86324 10.7167 6.64384 10.6487 6.42348 10.669C6.20313 10.6893 5.99987 10.7963 5.85842 10.9665C5.71697 11.1367 5.64892 11.3561 5.66923 11.5764C5.68955 11.7968 5.79657 12.0001 5.96675 12.1415C6.81787 12.852 7.89139 13.2412 9.00008 13.2412C10.1088 13.2412 11.1823 12.852 12.0334 12.1415C12.2036 12.0001 12.3106 11.7968 12.3309 11.5764C12.3513 11.3561 12.2832 11.1367 12.1418 10.9665C12.0717 10.8822 11.9858 10.8126 11.8888 10.7615C11.7919 10.7105 11.6858 10.679 11.5767 10.669C11.3563 10.6487 11.1369 10.7167 10.9668 10.8582ZM6.50008 8.1665C6.6649 8.1665 6.82602 8.11763 6.96306 8.02606C7.1001 7.93449 7.20691 7.80435 7.26998 7.65207C7.33306 7.4998 7.34956 7.33225 7.31741 7.1706C7.28525 7.00894 7.20588 6.86046 7.08934 6.74392C6.9728 6.62737 6.82431 6.548 6.66266 6.51585C6.50101 6.4837 6.33345 6.5002 6.18118 6.56327C6.02891 6.62634 5.89876 6.73315 5.80719 6.8702C5.71563 7.00724 5.66675 7.16835 5.66675 7.33317C5.66675 7.55418 5.75455 7.76615 5.91083 7.92243C6.06711 8.07871 6.27907 8.1665 6.50008 8.1665ZM11.5001 6.49984C11.3353 6.49984 11.1742 6.54871 11.0371 6.64028C10.9001 6.73185 10.7933 6.862 10.7302 7.01427C10.6671 7.16654 10.6506 7.3341 10.6828 7.49575C10.7149 7.6574 10.7943 7.80588 10.9108 7.92243C11.0274 8.03897 11.1759 8.11834 11.3375 8.15049C11.4992 8.18265 11.6667 8.16614 11.819 8.10307C11.9713 8.04 12.1014 7.93319 12.193 7.79615C12.2845 7.65911 12.3334 7.49799 12.3334 7.33317C12.3334 7.11216 12.2456 6.9002 12.0893 6.74392C11.9331 6.58764 11.7211 6.49984 11.5001 6.49984ZM9.00008 0.666504C7.35191 0.666504 5.74074 1.15525 4.37033 2.07092C2.99992 2.9866 1.93182 4.28809 1.30109 5.81081C0.670359 7.33353 0.505331 9.00908 0.826874 10.6256C1.14842 12.2421 1.94209 13.727 3.10753 14.8924C4.27297 16.0578 5.75782 16.8515 7.37433 17.173C8.99084 17.4946 10.6664 17.3296 12.1891 16.6988C13.7118 16.0681 15.0133 15 15.929 13.6296C16.8447 12.2592 17.3334 10.648 17.3334 8.99984C17.3334 7.90549 17.1179 6.82186 16.6991 5.81081C16.2803 4.79976 15.6665 3.8811 14.8926 3.10728C14.1188 2.33346 13.2002 1.71963 12.1891 1.30084C11.1781 0.882052 10.0944 0.666504 9.00008 0.666504ZM9.00008 15.6665C7.68154 15.6665 6.39261 15.2755 5.29628 14.543C4.19996 13.8104 3.34547 12.7692 2.84089 11.5511C2.3363 10.3329 2.20428 8.99244 2.46152 7.69924C2.71875 6.40603 3.35369 5.21814 4.28604 4.28579C5.21839 3.35344 6.40628 2.7185 7.69948 2.46127C8.99269 2.20403 10.3331 2.33606 11.5513 2.84064C12.7695 3.34522 13.8107 4.19971 14.5432 5.29604C15.2758 6.39236 15.6668 7.6813 15.6668 8.99984C15.6668 10.7679 14.9644 12.4636 13.7141 13.7139C12.4639 14.9641 10.7682 15.6665 9.00008 15.6665Z"
        fill="#9E9E9E" />
</svg>
