<svg width="24" height="18" viewBox="0 0 24 18" fill="none" xmlns="http://www.w3.org/2000/svg">
    <path fill-rule="evenodd" clip-rule="evenodd"
        d="M5.13189 0.25H11.8893C14.715 0.25 16.6878 2.19721 16.6878 4.98773V13.0123C16.6878 15.8028 14.715 17.75 11.8893 17.75H5.13189C2.3062 17.75 0.333344 15.8028 0.333344 13.0123V4.98773C0.333344 2.19721 2.3062 0.25 5.13189 0.25ZM21.2843 3.02548C21.7965 2.76491 22.3973 2.79215 22.8862 3.1001C23.375 3.40687 23.6667 3.93986 23.6667 4.52261V13.4781C23.6667 14.062 23.375 14.5938 22.8862 14.9006C22.619 15.0676 22.3203 15.1529 22.0193 15.1529C21.7685 15.1529 21.5177 15.0937 21.2832 14.974L19.5553 14.1023C18.916 13.7778 18.5193 13.1263 18.5193 12.4026V5.59689C18.5193 4.87201 18.916 4.22058 19.5553 3.89841L21.2843 3.02548Z"
        fill="white" />
</svg>
