<svg width="20" height="21" viewBox="0 0 20 21" fill="none" xmlns="http://www.w3.org/2000/svg">
<path fill-rule="evenodd" clip-rule="evenodd" d="M14.1162 2.78638C15.2337 2.78638 16.3087 3.22804 17.0995 4.02054C17.8912 4.81138 18.3337 5.87804 18.3337 6.99471V13.578C18.3337 15.903 16.442 17.7864 14.1162 17.7864H5.88366C3.55783 17.7864 1.66699 15.903 1.66699 13.578V6.99471C1.66699 4.66971 3.54949 2.78638 5.88366 2.78638H14.1162ZM15.442 8.23638L15.5087 8.16971C15.7078 7.92804 15.7078 7.57804 15.4995 7.33638C15.3837 7.21221 15.2245 7.13638 15.0587 7.11971C14.8837 7.11054 14.717 7.16971 14.5912 7.28638L10.8337 10.2864C10.3503 10.6872 9.65783 10.6872 9.16699 10.2864L5.41699 7.28638C5.15783 7.09471 4.79949 7.11971 4.58366 7.34471C4.35866 7.56971 4.33366 7.92804 4.52449 8.17804L4.63366 8.28638L8.42533 11.2447C8.89199 11.6114 9.45783 11.8114 10.0503 11.8114C10.6412 11.8114 11.217 11.6114 11.6828 11.2447L15.442 8.23638Z" fill="#212121"/>
</svg>
