<svg width="41" height="41" viewBox="0 0 41 41" fill="none" xmlns="http://www.w3.org/2000/svg">
<path d="M14.2779 0.920223C13.5092 1.13643 12.8605 1.62491 12.324 2.40968C11.9557 2.95421 11.7234 3.46671 11.243 4.79601C10.8105 5.97315 10.5383 6.5337 10.3541 6.6298C10.0979 6.76593 9.66543 6.81397 8.08789 6.88604C5.93379 6.99015 4.97285 7.27042 4.2041 8.04718C3.64355 8.59971 3.35527 9.29639 3.29922 10.1853C3.25117 11.0421 3.34727 11.6587 3.77168 13.1401C3.93984 13.7327 4.11602 14.4454 4.14805 14.7177L4.22012 15.2062L3.81172 15.5985C3.5875 15.8148 3.01094 16.2872 2.53848 16.6556C1.42539 17.5124 0.640625 18.3532 0.304297 19.0419C0.0480469 19.5544 0.0400391 19.6185 0.0400391 20.4993C0.0400391 21.3882 0.0480469 21.4442 0.312305 21.9808C0.640625 22.6534 1.64961 23.6944 2.80273 24.5593C3.21914 24.8796 3.70762 25.28 3.87578 25.4562C4.18809 25.7765 4.18809 25.7765 4.14004 26.281C4.10801 26.5612 3.96387 27.2019 3.81172 27.7064C3.3793 29.1878 3.25918 29.8845 3.29922 30.7573C3.33125 31.406 3.3793 31.6142 3.5875 32.0546C3.8918 32.7192 4.38828 33.2157 5.05293 33.536C5.86172 33.9364 6.39023 34.0325 8.12793 34.1126C9.6334 34.1847 10.1859 34.2567 10.4021 34.3849C10.5383 34.473 10.8746 35.1696 11.1469 35.9384C12.0037 38.3968 12.6443 39.3417 13.8135 39.8862C14.7504 40.3267 15.7674 40.2786 16.9445 39.7261C17.2168 39.598 17.9295 39.1655 18.5221 38.7651C19.1227 38.3567 19.8113 37.9403 20.0516 37.8282L20.5 37.628L20.9324 37.8202C21.1727 37.9323 21.8613 38.3487 22.4619 38.7491C24.2236 39.9263 24.7762 40.1505 25.9053 40.1585C26.5459 40.1585 26.682 40.1345 27.1545 39.9103C28.3477 39.3417 28.9082 38.5489 29.757 36.2026C30.1414 35.1376 30.4537 34.481 30.5979 34.3849C30.8141 34.2567 31.3666 34.1847 32.8721 34.1126C33.833 34.0726 34.6658 33.9925 34.9541 33.9124C36.1873 33.5921 36.9801 32.9915 37.4125 32.0626C37.6127 31.6382 37.6688 31.398 37.7008 30.8134C37.7488 29.9565 37.6527 29.3399 37.2283 27.8585C37.0602 27.2659 36.884 26.5532 36.852 26.281L36.7799 25.7925L37.1883 25.4001C37.4125 25.1839 37.9891 24.7114 38.4615 24.3431C39.5746 23.4782 40.3594 22.6374 40.6957 21.9567C40.9439 21.4442 40.96 21.3722 40.96 20.4993C40.96 19.6265 40.9439 19.5544 40.6957 19.0419C40.3514 18.3372 39.5586 17.5044 38.3414 16.5515C37.7969 16.1351 37.2363 15.6626 37.0842 15.5024C36.8199 15.2302 36.8119 15.2142 36.86 14.7177C36.892 14.4374 37.0361 13.7968 37.1883 13.2923C37.6207 11.8108 37.7408 11.1142 37.7008 10.2413C37.6688 9.59268 37.6207 9.38448 37.4125 8.94405C36.9801 8.00714 36.1873 7.40655 34.9541 7.08624C34.6658 7.01417 33.841 6.92608 32.9121 6.88604C31.3346 6.81397 30.9021 6.76593 30.6459 6.6298C30.4617 6.5337 30.1895 5.97315 29.757 4.79601C29.2766 3.46671 29.0443 2.95421 28.676 2.40968C27.683 0.968269 26.2416 0.479794 24.6 1.04034C24.0715 1.22452 22.9424 1.87315 22.1416 2.45772C21.8773 2.64991 21.3969 2.93819 21.0766 3.09835L20.5 3.38663L19.9154 3.09835C19.6031 2.93819 19.0906 2.62589 18.7783 2.40167C17.9695 1.8171 17.0326 1.28057 16.424 1.05635C15.7594 0.81612 14.8545 0.75206 14.2779 0.920223ZM27.6109 14.7257C28.4437 15.1581 28.8041 16.071 28.4357 16.8558C28.2195 17.3042 19.3709 26.1288 18.9625 26.305C18.6102 26.4491 18.2578 26.4571 17.8174 26.337C17.5531 26.2649 17.1047 25.8566 15.1508 23.9187C12.7404 21.5163 12.4121 21.1079 12.4121 20.5474C12.4121 19.6185 13.1729 18.8257 14.0537 18.8177C14.6863 18.8177 15.0787 19.098 16.7764 20.8116L18.3779 22.4212L22.1816 18.6175C24.584 16.2232 26.0895 14.7737 26.2656 14.7017C26.658 14.5335 27.2506 14.5415 27.6109 14.7257Z" fill="#A737FF"/>
</svg>
